G04 CAM350/DFMSTREAM V12.1 (Build 1022) Date:  Tue Apr 14 21:03:26 2026 *
G04 Database: (Untitled) *
G04 Layer 1: BOTTOM.art *
%FSLAX25Y25*%
%MOIN*%
%SFA1.000B1.000*%

%MIA0B0*%
%IPPOS*%
%ADD10C,0.03000*%
%ADD11C,0.06200*%
%ADD12R,0.02360X0.03540*%
%ADD13R,0.06200X0.06200*%
%ADD14R,0.03540X0.02360*%
%ADD15C,0.08400*%
%ADD16R,0.05000X0.06000*%
%ADD17C,0.06221*%
%ADD18R,0.06221X0.06221*%
%ADD19R,0.04724X0.04724*%
%ADD20C,0.04724*%
%ADD21C,0.06400*%
%ADD22R,0.05500X0.04000*%
%ADD23R,0.03000X0.03000*%
%ADD24C,0.03300*%
%ADD25C,0.00800*%
%ADD26C,0.02000*%
%ADD27C,0.04000*%
%ADD28C,0.05000*%
%ADD29C,0.07000*%
%ADD30C,0.02500*%
%LNBOTTOM.art*%
%LPD*%
G36*
X271756Y152680D02*
G75*
G03X271206Y152790I-550J-1321D01*
X270656Y152680I0J-1431*
G02X270256Y153080J400*
G03X270366Y153630I-1322J550*
X270256Y154180I-1431J0*
G01X271827Y154250*
X271756Y152680*
G37*
G36*
X296756Y152624D02*
G03X296206Y152734I-550J-1321D01*
X295656Y152624I0J-1431*
G02X295256Y153024J400*
G03X295366Y153574I-1322J550*
X295256Y154124I-1431J0*
G01X296827Y154194*
X296756Y152624*
G37*
G36*
X291756Y152524D02*
G03X291206Y152634I-550J-1321D01*
X290656Y152524I0J-1431*
G02X290256Y152924J400*
G03X290366Y153474I-1322J550*
X290256Y154024I-1431J0*
G01X291827Y154094*
X291756Y152524*
G37*
G36*
X301756Y152424D02*
G03X301206Y152534I-550J-1321D01*
X300656Y152424I0J-1431*
G02X300256Y152824J400*
G03X300366Y153374I-1322J550*
X300256Y153924I-1431J0*
G01X301827Y153994*
X301756Y152424*
G37*
G36*
X306756Y152524D02*
G03X306206Y152634I-550J-1321D01*
X305656Y152524I0J-1431*
G02X305256Y152924J400*
G03X305366Y153474I-1322J550*
X305256Y154024I-1431J0*
G01X306827Y154094*
X306756Y152524*
G37*
G36*
X311756Y152468D02*
G03X311206Y152578I-550J-1321D01*
X310656Y152468I0J-1431*
G02X310256Y152868J400*
G03X310366Y153418I-1322J550*
X310256Y153968I-1431J0*
G01X311827Y154038*
X311756Y152468*
G37*
G36*
X211500Y90624D02*
G03X210950Y90734I-550J-1321D01*
X210400Y90624I0J-1431*
G02X210000Y91024I0J400*
G03X210110Y91574I-1322J550*
X210000Y92124I-1431J0*
G01X211571Y92194*
X211500Y90624*
G37*
G36*
X276685Y154053D02*
G01X276756Y155624D01*
G03X277306Y155514I550J1320*
X277856Y155624I0J1430*
G02X278256Y155224I0J-400*
G03X278146Y154674I1320J-550*
X278256Y154124I1431J0*
G01X276685Y154053*
G37*
G36*
X281685D02*
G01X281756Y155624D01*
G03X282306Y155514I550J1320*
X282856Y155624I0J1430*
G02X283256Y155224I0J-400*
G03X283146Y154674I1320J-550*
X283256Y154124I1431J0*
G01X281685Y154053*
G37*
G36*
X286685D02*
G01X286756Y155624D01*
G03X287306Y155514I550J1320*
X287856Y155624I0J1430*
G02X288256Y155224I0J-400*
G03X288146Y154674I1320J-550*
X288256Y154124I1431J0*
G01X286685Y154053*
G37*
G36*
X101129Y72253D02*
G01X101200Y73824D01*
G03X101750Y73714I550J1320*
X102300Y73824I0J1430*
G02X102700Y73424I0J-400*
G03X102590Y72874I1320J-550*
X102700Y72324I1431J0*
G01X101129Y72253*
G37*
G36*
X105929Y70553D02*
G01X106000Y72124D01*
G03X106550Y72014I550J1320*
X107100Y72124I0J1430*
G02X107500Y71724I0J-400*
G03X107390Y71174I1320J-550*
X107500Y70624I1431J0*
G01X105929Y70553*
G37*
G36*
X177029Y59853D02*
G01X177100Y61424D01*
G03X177650Y61314I550J1320*
X178200Y61424I0J1430*
G02X178600Y61024I0J-400*
G03X178490Y60474I1320J-550*
X178600Y59924I1431J0*
G01X177029Y59853*
G37*
G36*
X276827Y68297D02*
G01X275256Y68367D01*
G03X275366Y68917I-1321J550*
X275256Y69468I-1431J1*
G02X275656Y69868I400J0*
G03X276206Y69758I550J1320*
X276756Y69868I0J1431*
G01X276827Y68297*
G37*
G36*
X244171Y156453D02*
G01X242600Y156524D01*
G03X242710Y157074I-1321J550*
X242600Y157624I-1431J0*
G02X243000Y158024I400J0*
G03X243550Y157914I550J1320*
X244100Y158024I0J1431*
G01X244171Y156453*
G37*
G36*
X245571Y139553D02*
G01X244000Y139624D01*
G03X244110Y140174I-1321J550*
X244000Y140724I-1431J0*
G02X244400Y141124I400J0*
G03X244950Y141014I550J1320*
X245500Y141124I0J1431*
G01X245571Y139553*
G37*
G36*
X286827Y75653D02*
G01X285256Y75724D01*
G03X285366Y76274I-1321J550*
X285256Y76824I-1431J0*
G02X285656Y77224I400J0*
G03X286206Y77114I550J1320*
X286756Y77224I0J1431*
G01X286827Y75653*
G37*
G36*
X291827D02*
G01X290256Y75724D01*
G03X290366Y76274I-1321J550*
X290256Y76824I-1431J0*
G02X290656Y77224I400J0*
G03X291206Y77114I550J1320*
X291756Y77224I0J1431*
G01X291827Y75653*
G37*
G36*
X321827D02*
G01X320256Y75724D01*
G03X320366Y76274I-1321J550*
X320256Y76824I-1431J0*
G02X320656Y77224I400J0*
G03X321206Y77114I550J1320*
X321756Y77224I0J1431*
G01X321827Y75653*
G37*
G36*
X316827Y75453D02*
G01X315256Y75524D01*
G03X315366Y76074I-1321J550*
X315256Y76624I-1431J0*
G02X315656Y77024I400J0*
G03X316206Y76914I550J1320*
X316756Y77024I0J1431*
G01X316827Y75453*
G37*
G36*
X93100Y72524D02*
G03X92500Y72644I-600J-1441D01*
X91900Y72524I0J-1560*
G01X91826Y74091*
X93398Y74060*
G03X93332Y73630I1371J-430*
X93498Y72960I1436J0*
G01X93499Y72942*
X93500Y72933*
Y72924*
G02X93100Y72524I-400J0*
G37*
G36*
X349739Y183863D02*
G03X348962Y184641I-1323J-544D01*
G02X348845Y184923I284J283*
X348962Y185206I400J0*
G03X349739Y185984I-546J1322*
G01X350900Y184924*
X349739Y183863*
G37*
G36*
X247739Y141263D02*
G03X246962Y142041I-1323J-544D01*
G02X246845Y142323I284J283*
X246962Y142606I400J0*
G03X247739Y143384I-546J1322*
G01X248900Y142324*
X247739Y141263*
G37*
G36*
X265696Y74663D02*
G03X264918Y75441I-1322J-544D01*
G02X264801Y75723I284J283*
X264918Y76006I400J0*
G03X265696Y76784I-545J1323*
G01X266856Y75724*
X265696Y74663*
G37*
G36*
X280696D02*
G03X279918Y75441I-1322J-544D01*
G02X279801Y75723I284J283*
X279918Y76006I400J0*
G03X280696Y76784I-545J1323*
G01X281856Y75724*
X280696Y74663*
G37*
G36*
X300696D02*
G03X299918Y75441I-1322J-544D01*
G02X299801Y75723I284J283*
X299918Y76006I400J0*
G03X300696Y76784I-545J1323*
G01X301856Y75724*
X300696Y74663*
G37*
G36*
X266961Y85363D02*
G01X265800Y86424D01*
X266961Y87484*
G03X267738Y86706I1323J544*
G02X267855Y86423I-284J-283*
X267738Y86141I-401J1*
G03X266961Y85363I545J-1322*
G37*
G36*
X181061Y69463D02*
G01X179900Y70524D01*
X181061Y71584*
G03X181838Y70806I1323J544*
G02X181955Y70523I-284J-283*
X181838Y70241I-401J1*
G03X181061Y69463I545J-1322*
G37*
G36*
X111061Y67963D02*
G01X109900Y69024D01*
X111061Y70084*
G03X111838Y69306I1323J544*
G02X111955Y69023I-284J-283*
X111838Y68741I-401J1*
G03X111061Y67963I545J-1322*
G37*
G36*
X173861Y67863D02*
G01X172700Y68924D01*
X173861Y69984*
G03X174638Y69206I1323J544*
G02X174755Y68923I-284J-283*
X174638Y68641I-401J1*
G03X173861Y67863I545J-1322*
G37*
G36*
X141048Y235236D02*
G01X139500Y235324D01*
G03X139700Y236324I-2401J1000*
X139500Y237324I-2601J0*
G02X139900Y237723I400J-1*
X140153Y237633I0J-401*
G03X141253Y236733I1630J870*
G01X141048Y235236*
G37*
G36*
X248300Y86324D02*
G01X247239Y87484D01*
G03X248017Y88262I-544J1322*
G02X248300Y88379I283J-284*
X248583Y88262I0J-401*
G03X249361Y87484I1322J544*
G01X248300Y86324*
G37*
G36*
X257439Y31039D02*
G03X256662Y31817I-1323J-544D01*
G02X256545Y32100I284J283*
X256662Y32383I400J0*
G03X257439Y33161I-546J1322*
G01X258600Y32100*
X257439Y31039*
G37*
G36*
X196600Y87168D02*
G02X196317Y87285I0J400D01*
G03X195439Y88163I-1493J-615*
G01X196494Y89323*
X197594Y88201*
G03X196917Y87324I717J-1253*
G02X196600Y87168I-317J244*
G37*
G36*
X246530Y110994D02*
G03X245361Y112023I-2196J-1316D01*
G02X245350Y112173I989J148*
X245361Y112324I1000J3*
G03X246530Y113354I-1028J2345*
G01X248550Y112174*
X246530Y110994*
G37*
G36*
X243970D02*
G01X241950Y112174D01*
X243970Y113354*
G03X245139Y112324I2196J1314*
G02X245150Y112173I-991J-148*
X245139Y112023I-1002J-2*
G03X243970Y110994I1027J-2345*
G37*
G36*
X316756Y142968D02*
G02X316473Y143085I0J400D01*
G03X315696Y143863I-1323J-544*
G01X316664Y144923*
Y144924*
X315696Y145984*
G03X316473Y146762I-545J1322*
G02X316756Y146879I283J-284*
X317039Y146762I0J-401*
G03X317817Y145984I1322J544*
G01X316848Y144924*
Y144923*
X317817Y143863*
G03X317039Y143085I545J-1323*
G02X316756Y142968I-283J283*
G37*
G36*
X238000Y111174D02*
G01X236250Y112680D01*
X238000Y114174*
G03X239492Y112958I2454J1488*
G02X239550Y112623I-943J-336*
X239485Y112269I-1001J1*
G03X238000Y111174I822J-2669*
G37*
G36*
X139346Y294844D02*
G03X137996Y295114I-1350J-3241D01*
X136646Y294844I0J-3510*
G01X136575Y298014*
X139746Y297944*
G03X139476Y296594I3241J-1350*
X139746Y295244I3511J0*
G02X139346Y294844I-400J0*
G37*
G36*
X358020Y207159D02*
G03X356670Y207429I-1350J-3241D01*
X355320Y207159I0J-3511*
G02X354920Y207559J400*
G03X355190Y208909I-3242J1350*
X354920Y210259I-3511J0*
G01X358091Y210329*
X358020Y207159*
G37*
G36*
X368020D02*
G03X366670Y207429I-1350J-3241D01*
X365320Y207159I0J-3511*
G02X364920Y207559J400*
G03X365190Y208909I-3242J1350*
X364920Y210259I-3511J0*
G01X368091Y210329*
X368020Y207159*
G37*
G36*
X323945Y16929D02*
G01X324016Y20100D01*
G03X325366Y19830I1350J3240*
X326716Y20100I0J3510*
G02X327116Y19700I0J-400*
G03X326846Y18350I3240J-1350*
X327116Y17000I3511J0*
G01X323945Y16929*
G37*
G36*
X132700Y13900D02*
G03X131350Y14170I-1350J-3241D01*
X130000Y13900I0J-3510*
G01X129929Y17071*
X133100Y17000*
G03X132830Y15650I3241J-1350*
X133100Y14300I3511J0*
G02X132700Y13900I-400J0*
G37*
G36*
X170000D02*
G03X168650Y14170I-1350J-3241D01*
X167300Y13900I0J-3511*
G02X166900Y14300I0J400*
G03X167170Y15650I-3242J1350*
X166900Y17000I-3511J0*
G01X170071Y17071*
X170000Y13900*
G37*
G36*
X233900Y23100D02*
G02X233655Y23184I0J400D01*
G03X232130Y24870I-2818J-1016*
G01X233900Y26150*
X235670Y24870*
G03X234145Y23184I1293J-2702*
G02X233900Y23100I-245J316*
G37*
G36*
X239900D02*
G02X239655Y23184I0J400D01*
G03X238130Y24870I-2818J-1016*
G01X239900Y26150*
X241670Y24870*
G03X240145Y23184I1293J-2702*
G02X239900Y23100I-245J316*
G37*
G36*
X140646Y288994D02*
G01X138876Y290274D01*
G03X140401Y291960I-1293J2702*
G02X140646Y292044I245J-316*
X140891Y291960I0J-400*
G03X142416Y290274I2818J1016*
G01X140646Y288994*
G37*
G36*
X146646D02*
G01X144876Y290274D01*
G03X146401Y291960I-1293J2702*
G02X146646Y292044I245J-316*
X146891Y291960I0J-400*
G03X148416Y290274I2818J1016*
G01X146646Y288994*
G37*
G36*
X152646D02*
G01X150876Y290274D01*
G03X152401Y291960I-1293J2702*
G02X152646Y292044I245J-316*
X152891Y291960I0J-400*
G03X154416Y290274I2818J1016*
G01X152646Y288994*
G37*
G36*
X10830Y88230D02*
G01X9550Y90000D01*
X10830Y91770*
G03X12516Y90245I2702J1293*
G02X12600Y90000I-316J-245*
X12516Y89755I-400J0*
G03X10830Y88230I1016J-2818*
G37*
G36*
Y78230D02*
G01X9550Y80000D01*
X10830Y81770*
G03X12516Y80245I2702J1293*
G02X12600Y80000I-316J-245*
X12516Y79755I-400J0*
G03X10830Y78230I1016J-2818*
G37*
G36*
Y58230D02*
G01X9550Y60000D01*
X10830Y61770*
G03X12516Y60245I2702J1293*
G02X12600Y60000I-316J-245*
X12516Y59755I-400J0*
G03X10830Y58230I1016J-2818*
G37*
G36*
X146646Y279843D02*
G02X146401Y279927I0J400D01*
G03X144876Y281614I-2819J-1015*
G01X146646Y282894*
X148416Y281614*
G03X146891Y279927I1294J-2702*
G02X146646Y279843I-245J316*
G37*
G36*
X152646D02*
G02X152401Y279927I0J400D01*
G03X150876Y281614I-2819J-1015*
G01X152646Y282894*
X154416Y281614*
G03X152891Y279927I1294J-2702*
G02X152646Y279843I-245J316*
G37*
G36*
X248300Y102923D02*
G02X248055Y103007I0J400D01*
G03X246530Y104694I-2819J-1015*
G01X248300Y105974*
X250070Y104694*
G03X248545Y103007I1294J-2702*
G02X248300Y102923I-245J316*
G37*
G36*
X221864Y16654D02*
G01X222008Y19232D01*
X223608Y20832*
X225108*
G03Y17000I4598J-1916*
G01X221864Y16654*
G37*
G36*
X120000Y16625D02*
G01X117808Y19192D01*
G03X118939Y20323I-792J1923*
G02X120000Y20762I1061J-1062*
X121061Y20323I0J-1501*
G03X122192Y19192I1923J792*
G01X120000Y16625*
G37*
G36*
X282332Y189879D02*
G01X280133Y192453D01*
G03X281272Y193592I-797J1936*
G02X282333Y194031I1061J-1062*
X283393Y193592I-1J-1501*
G03X284532Y192453I1936J797*
G01X282332Y189879*
G37*
G36*
X224458Y208062D02*
G03X222549Y209971I-3246J-1337D01*
G02X222432Y210253I284J283*
X222549Y210536I400J0*
G03X224458Y212446I-1338J3246*
G01X226750Y210254*
X224458Y208062*
G37*
G36*
X345828Y208067D02*
G03X343919Y209976I-3246J-1337D01*
G02X343802Y210259I284J283*
X343919Y210541I400J-1*
G03X345828Y212451I-1338J3246*
G01X348120Y210259*
X345828Y208067*
G37*
G36*
X218842Y208062D02*
G01X216550Y210254D01*
X218842Y212446*
G03X220751Y210536I3247J1336*
G02X220868Y210253I-284J-283*
X220751Y209971I-401J1*
G03X218842Y208062I1337J-3246*
G37*
G36*
X340212Y208067D02*
G01X337920Y210259D01*
X340212Y212451*
G03X342121Y210541I3247J1336*
G02X342238Y210259I-284J-283*
X342121Y209976I-401J0*
G03X340212Y208067I1337J-3246*
G37*
G36*
X314016Y12782D02*
G02X313733Y12899I0J400D01*
G03X311824Y14808I-3247J-1338*
G01X314016Y17100*
X316208Y14808*
G03X314299Y12899I1338J-3247*
G02X314016Y12782I-283J283*
G37*
G36*
X146646Y293725D02*
G02X146363Y293842I0J400D01*
G03X144454Y295752I-3247J-1336*
G01X146646Y298044*
X148838Y295752*
G03X146929Y293842I1338J-3246*
G02X146646Y293725I-283J283*
G37*
G36*
X246650Y207154D02*
G03X245300Y207424I-1350J-3241D01*
X243950Y207154I0J-3511*
G02X243550Y207554I0J400*
G03X243820Y208904I-3242J1350*
X243573Y210197I-3511J-1*
X243572Y210198I-1J0*
G01X243554*
X243561Y210226*
Y210227*
X243550Y210254*
X243568*
Y210255*
G03X243640Y210641I-3444J842*
G01X243661Y210866*
X243669Y211092*
G03X243174Y212898I-3544J-1*
G01X243171Y212926*
X243170Y212954*
G02X243570Y213354I400J0*
G03X245110Y213046I1540J3696*
X246650Y213354I0J4005*
G01X246725Y210188*
X246719*
G03X246718Y210187I0J-1*
G01X246650Y207154*
G37*
G36*
X284016Y13238D02*
G02X282955Y13677I0J1501D01*
G03X281824Y14808I-1924J-793*
G01X283695Y16999*
G03Y17001J1*
G01X281824Y19192*
G03X282955Y20323I-792J1923*
G02X284016Y20762I1061J-1062*
X285076Y20323I-1J-1501*
G03X286208Y19192I1923J793*
G01X284337Y17001*
G03Y16999J-1*
G01X286208Y14808*
G03X285076Y13677I791J-1924*
G02X284016Y13238I-1061J1062*
G37*
G36*
X60000D02*
G02X58939Y13677I0J1501D01*
G03X57808Y14808I-1924J-793*
G01X59679Y16999*
G03Y17001J1*
G01X57808Y19192*
G03X58939Y20323I-792J1923*
G02X60000Y20762I1061J-1062*
X61061Y20323I0J-1501*
G03X62192Y19192I1923J792*
G01X60321Y17001*
G03Y16999J-1*
G01X62192Y14808*
G03X61061Y13677I793J-1924*
G02X60000Y13238I-1061J1062*
G37*
G36*
X308020Y256496D02*
G02X306959Y256935I0J1501D01*
G03X305828Y258067I-1924J-791*
G01X307699Y260258*
G03Y260260J1*
G01X305828Y262451*
G03X306959Y263582I-792J1923*
G02X308020Y264021I1061J-1062*
X309081Y263582I0J-1501*
G03X310212Y262451I1923J792*
G01X308341Y260260*
G03Y260258J-1*
G01X310212Y258067*
G03X309081Y256935I793J-1923*
G02X308020Y256496I-1061J1062*
G37*
G36*
X368020D02*
G02X366959Y256935I0J1501D01*
G03X365828Y258067I-1924J-791*
G01X367699Y260258*
G03Y260260J1*
G01X365828Y262451*
G03X366959Y263582I-792J1923*
G02X368020Y264021I1061J-1062*
X369081Y263582I0J-1501*
G03X370212Y262451I1923J792*
G01X368341Y260260*
G03Y260258J-1*
G01X370212Y258067*
G03X369081Y256935I793J-1923*
G02X368020Y256496I-1061J1062*
G37*
G36*
X14808Y87808D02*
G03X12899Y89717I-3246J-1337D01*
G02X12782Y90000I284J283*
X12899Y90283I400J0*
G03X14808Y92192I-1338J3247*
G01X17009Y90087*
X17010Y90086*
Y90087*
X19192Y91797*
G03X20706Y90283I2575J1061*
G02X20823Y90000I-284J-283*
X20706Y89717I-401J0*
G03X19192Y88203I1061J-2575*
G01X17010Y89913*
Y89914*
X17009Y89913*
X14808Y87808*
G37*
G36*
X19192Y77808D02*
G01X17001Y79904D01*
X17000*
X16999*
X14808Y77808*
G03X12899Y79717I-3246J-1337*
G02X12782Y80000I284J283*
X12899Y80283I400J0*
G03X14808Y82192I-1338J3247*
G01X16999Y80096*
X17000*
X17001*
X19192Y82192*
G03X21101Y80283I3246J1337*
G02X21218Y80000I-284J-283*
X21101Y79717I-401J0*
G03X19192Y77808I1337J-3246*
G37*
G36*
X298020Y204259D02*
G02X297767Y204349I0J400D01*
G03X294954Y207159I-4797J-1989*
G01X298020Y210359*
X301086Y207159*
G03X298273Y204349I1984J-4799*
G02X298020Y204259I-253J310*
G37*
G36*
X239350Y207154D02*
G03X238000Y207424I-1350J-3241D01*
X236650Y207154I0J-3510*
G01X236581Y210226*
X234458Y212446*
G03X236367Y214355I-1337J3246*
G02X236650Y214472I283J-284*
X236933Y214355I0J-401*
G03X238842Y212446I3246J1337*
G01X236809Y210320*
G03X236810Y210319I1J0*
G01X239750Y210254*
G03X239480Y208904I3241J-1350*
X239750Y207554I3511J0*
G02X239350Y207154I-400J0*
G37*
G36*
X14808Y57808D02*
G03X12899Y59717I-3246J-1337D01*
G02X12782Y60000I284J283*
X12899Y60283I400J0*
G03X14808Y62192I-1338J3247*
G01X16933Y60160*
X16934*
X17000Y63100*
G03X18350Y62830I1350J3240*
X19700Y63100I0J3510*
G02X20100Y62700I0J-400*
G03X19830Y61350I3240J-1350*
X20100Y60000I3511J0*
G01X17028Y59931*
X14808Y57808*
G37*
G36*
X234404Y11797D02*
G02X234138Y11898I0J400D01*
G03X231759Y14018I-3734J-1795*
G01X231953Y16937*
X230571Y19192*
G03X233617Y22238I-2133J5179*
G02X233900Y22355I283J-283*
X234300Y21957I0J-400*
G03X234002Y20451I3663J-1507*
X234314Y18911I3961J1*
G01X232156Y17064*
G03X232157Y17062I1J-1*
G01X234804Y16696*
G03X234354Y14446I5400J-2250*
X234804Y12196I5850J0*
G02X234404Y11797I-400J1*
G37*
G36*
X17000Y46238D02*
G02X15939Y46677I0J1501D01*
G03X14808Y47808I-1924J-793*
X13677Y48939I-1923J-792*
G02X13238Y50000I1062J1061*
X13677Y51061I1500J0*
G03X14808Y52192I-793J1924*
G01X16972Y50344*
X16973*
X17000Y50375*
X17027Y50344*
X17028*
X19192Y52192*
G03X20323Y51061I1923J792*
G02X20762Y50000I-1062J-1061*
X20323Y48939I-1501J0*
G03X19192Y47808I792J-1923*
X18061Y46677I793J-1924*
G02X17000Y46238I-1061J1062*
G37*
G36*
X126646Y294181D02*
G02X125585Y294620I0J1501D01*
G03X124454Y295752I-1924J-791*
X123322Y296883I-1923J-793*
G02X122883Y297943I1062J1061*
X123322Y299004I1500J0*
G03X124454Y300136I-792J1924*
X125585Y301267I-792J1923*
G02X126646Y301706I1061J-1062*
X127707Y301267I0J-1501*
G03X128838Y300136I1923J792*
G01X126990Y297972*
G03Y297970J-1*
G01X127021Y297944*
X126990Y297917*
Y297916*
X128838Y295752*
G03X127707Y294620I793J-1923*
G02X126646Y294181I-1061J1062*
G37*
G36*
X244200Y14808D02*
G01X241908Y17000D01*
X241933Y17024*
G03Y17025I-1J1*
G01X239900Y19108*
Y21773*
X240183Y22055*
G03X243047Y19192I4868J2005*
G01X242219Y17300*
X242220Y17299*
X242221*
X244200Y19192*
G03X246109Y17282I3247J1336*
G02X246226Y16999I-284J-283*
X246109Y16717I-401J1*
G03X244200Y14808I1337J-3246*
G37*
G36*
X13900Y96934D02*
G03X11805Y99384I-4799J-1983D01*
G01X11804*
G03X10830Y98230I1728J-2447*
G01X9550Y100000*
X10830Y101770*
G03X11804Y100616I2702J1293*
G01X11805*
G03X13900Y103066I-2704J4433*
G01X17100Y100000*
X13900Y96934*
G37*
G36*
X19192Y68150D02*
G01X17009Y69912D01*
X17008*
X14808Y67808*
G03X12899Y69717I-3246J-1337*
G02X12783Y69975I284J283*
G03X12782Y69976I-1J0*
G01X12781Y69975*
G02X12698Y69755I-399J25*
G03X11012Y68230I1016J-2818*
G01X9732Y70000*
X11012Y71770*
G03X12698Y70245I2702J1293*
G02X12781Y70025I-316J-245*
G01X12782Y70024*
G03X12783Y70025I0J1*
G02X12899Y70283I399J-24*
G03X14808Y72192I-1338J3247*
G01X17008Y70088*
X17009*
X19192Y71850*
G03X20759Y70283I2665J1098*
G02X20876Y70000I-284J-283*
X20759Y69717I-401J0*
G03X19192Y68150I1098J-2665*
G37*
G36*
X220600Y123149D02*
G01X217850Y125524D01*
G03X219737Y127553I-2440J4161*
G01X219736Y127554*
G02X219539Y127720I865J1226*
G03X218337Y128922I-2045J-843*
G01X220255Y131158*
Y131159*
X220225Y131185*
X220426Y131357*
Y131358*
X220600Y131560*
X220626Y131530*
X220627*
X222863Y133447*
G03X224065Y132245I2044J842*
G02X224504Y131185I-1062J-1061*
X224065Y130124I-1501J0*
G03X222863Y128922I842J-2044*
X221661Y127720I842J-2044*
G02X221464Y127554I-1062J1060*
G01X221463Y127553*
G03X223350Y125524I4327J2132*
G01X220600Y123149*
G37*
G36*
Y100888D02*
G01X218337Y103525D01*
G03X219539Y104728I-842J2044*
G02X219736Y104894I1063J-1062*
G03X219737Y104895I0J1*
X217850Y106924I-4327J-2132*
G01X220600Y109299*
X220689Y109222*
X220690*
X223350Y110924*
G03X225305Y109287I3406J2082*
G01X225350Y108923*
X225305Y108560*
G03X223350Y106924I1451J-3720*
X221463Y104895I2440J-4161*
X221464Y104894I1J0*
G02X221661Y104728I-866J-1228*
G03X222863Y103525I2045J841*
G01X220600Y100888*
G37*
G36*
X265443Y187143D02*
G01X261707Y190254D01*
X261873Y190392*
Y190393*
X259222Y193364*
G03X261643Y196306I-2631J4632*
G02X262333Y196474I690J-1332*
X263022Y196306I-1J-1500*
G03X265443Y193364I5052J1690*
X268506Y190735I5550J3367*
G01X268553Y190253*
X268506Y189772*
G03X265443Y187143I2487J-5996*
G37*
G36*
X6853Y91700D02*
G01X6147D01*
X6032Y91807*
X6026Y91885*
G03X4530Y93270I-1496J-115*
G01X2170*
X2168*
G03X1562Y93142I0J-1500*
G01X1516Y93121*
X1415Y93129*
X1091Y93340*
G02X1000Y93507I109J168*
G01Y96493*
G02X1091Y96660I200J-1*
G01X1415Y96871*
X1516Y96879*
X1562Y96858*
G03X2168Y96730I606J1372*
G01X2170*
X4530*
G03X6026Y98115I0J1500*
G01X6032Y98193*
X6147Y98300*
X6853*
X6968Y98193*
X6974Y98115*
G03X8470Y96730I1496J115*
G01X10830*
X10831*
G03X11390Y96838I0J1500*
G01X11432Y96855*
X11522Y96850*
X11872Y96657*
X11924Y96584*
X11933Y96539*
G03X13900Y94900I1967J361*
G01X14550*
G02X14750Y94700I0J-200*
G01Y94644*
X14692Y94548*
X14642Y94523*
G03X12680Y92710I2359J-4521*
G01X12653Y92668*
X12568Y92619*
X12142Y92599*
X12052Y92641*
X12023Y92680*
G03X10830Y93270I-1193J-911*
G01X8470*
G03X6974Y91885I0J-1500*
G01X6968Y91807*
X6853Y91700*
G37*
G36*
Y81700D02*
G01X6147D01*
X6032Y81807*
X6026Y81885*
G03X4530Y83270I-1496J-115*
G01X2170*
X2168*
G03X1562Y83142I0J-1500*
G01X1516Y83121*
X1415Y83129*
X1091Y83340*
G02X1000Y83507I109J168*
G01Y86493*
G02X1091Y86660I200J-1*
G01X1415Y86871*
X1516Y86879*
X1562Y86858*
G03X2168Y86730I606J1372*
G01X2170*
X4530*
G03X6026Y88115I0J1500*
G01X6032Y88193*
X6147Y88300*
X6853*
X6968Y88193*
X6974Y88115*
G03X8470Y86730I1496J115*
G01X10830*
X10831*
G03X12023Y87320I0J1500*
G01X12052Y87359*
X12142Y87401*
X12568Y87381*
X12653Y87332*
X12680Y87290*
G03X14875Y85364I4321J2710*
G02X14992Y85182I-83J-182*
G01Y84818*
G02X14875Y84636I-200J0*
G03X12680Y82710I2125J-4636*
G01X12653Y82668*
X12568Y82619*
X12142Y82599*
X12052Y82641*
X12023Y82680*
G03X10830Y83270I-1193J-911*
G01X8470*
G03X6974Y81885I0J-1500*
G01X6968Y81807*
X6853Y81700*
G37*
G36*
X7035Y71700D02*
G01X6328D01*
X6214Y71807*
X6208Y71885*
G03X4712Y73270I-1496J-115*
G01X2352*
G03X1600Y73068I0J-1500*
G01X1554Y73042*
X1447*
X1100Y73241*
G02X1000Y73415I100J173*
G01Y76493*
G02X1091Y76660I200J-1*
G01X1415Y76871*
X1516Y76879*
X1562Y76858*
G03X2168Y76730I606J1372*
G01X2170*
X4530*
G03X6026Y78115I0J1500*
G01X6032Y78193*
X6147Y78300*
X6853*
X6968Y78193*
X6974Y78115*
G03X8470Y76730I1496J115*
G01X10830*
X10831*
G03X12023Y77320I0J1500*
G01X12052Y77359*
X12142Y77401*
X12568Y77381*
X12653Y77332*
X12680Y77290*
G03X14875Y75364I4321J2710*
G02X14992Y75182I-83J-182*
G01Y74818*
G02X14875Y74636I-200J0*
G03X12753Y72824I2124J-4636*
G01X12728Y72786*
X12648Y72739*
X12241Y72709*
X12155Y72743*
X12124Y72777*
G03X11012Y73270I-1112J-1007*
G01X8652*
G03X7156Y71885I0J-1500*
G01X7150Y71807*
X7035Y71700*
G37*
G36*
X6853Y61700D02*
G01X6147D01*
X6032Y61807*
X6026Y61885*
G03X4530Y63270I-1496J-115*
G01X2170*
X2168*
G03X1562Y63142I0J-1500*
G01X1516Y63121*
X1415Y63129*
X1091Y63340*
G02X1000Y63507I109J168*
G01Y66585*
G02X1100Y66759I200J1*
G01X1447Y66958*
X1554*
X1600Y66932*
G03X2352Y66730I752J1298*
G01X4712*
G03X6208Y68115I0J1500*
G01X6214Y68193*
X6328Y68300*
X7035*
X7150Y68193*
X7156Y68115*
G03X8652Y66730I1496J115*
G01X11012*
G03X12124Y67223I0J1500*
G01X12155Y67257*
X12241Y67291*
X12648Y67261*
X12728Y67214*
X12753Y67176*
G03X14875Y65364I4247J2825*
G02X14992Y65182I-83J-182*
G01Y64818*
G02X14875Y64636I-200J0*
G03X12680Y62710I2125J-4636*
G01X12653Y62668*
X12568Y62619*
X12142Y62599*
X12052Y62641*
X12023Y62680*
G03X10830Y63270I-1193J-911*
G01X8470*
G03X6974Y61885I0J-1500*
G01X6968Y61807*
X6853Y61700*
G37*
G36*
X53200Y13624D02*
G01X41700D01*
X40600Y14724*
Y25324*
X42400Y27124*
X54800*
X55000Y26924*
Y22324*
X53400Y20724*
Y13824*
X53200Y13624*
G37*
G36*
X115182Y19008D02*
G01X114818D01*
G02X114636Y19125I0J200*
G03X110000Y22100I-4636J-2125*
X105364Y19125I0J-5100*
G02X105182Y19008I-182J83*
G01X104818*
G02X104636Y19125I0J200*
G03X100000Y22100I-4636J-2125*
X95364Y19125I0J-5100*
G02X95182Y19008I-182J83*
G01X94818*
G02X94636Y19125I0J200*
G03X90000Y22100I-4636J-2125*
X85364Y19125I0J-5100*
G02X85182Y19008I-182J83*
G01X84818*
G02X84636Y19125I0J200*
G03X80000Y22100I-4636J-2125*
X75364Y19125I0J-5100*
G02X75182Y19008I-182J83*
G01X74818*
G02X74636Y19125I0J200*
G03X70000Y22100I-4636J-2125*
X65364Y19125I0J-5100*
G02X65182Y19008I-182J83*
G01X64818*
G02X64636Y19125I0J200*
G03X60000Y22100I-4636J-2125*
X58980Y21997I0J-5100*
G01X58936Y21988*
X58849Y22010*
X58574Y22234*
G02X58500Y22389I126J156*
G01Y28291*
G03X58442Y28432I-200J0*
G01X56352Y30521*
X56324Y30620*
X56335Y30670*
G03X56370Y30992I-1465J322*
G01Y30994*
Y31730*
X56372Y31743*
G03X56400Y32172I-3273J429*
G01Y32174*
Y40724*
G03X53100Y44024I-3300J0*
X51049Y43309I0J-3300*
G01X51004Y43273*
X50889Y43260*
X50513Y43442*
G02X50400Y43622I87J180*
G01Y43863*
G02X50459Y44005I200*
G01X51408Y44954*
G02X51550Y45013I142J-140*
G01X81661*
G02X81802Y44954I-1J-200*
G01X93148Y33608*
G03X93289Y33550I141J141*
G01X93290*
X116500*
G02X116700Y33350I0J-200*
G01Y32150*
Y32148*
G03X116728Y31719I3300J0*
G01X116730Y31706*
Y29670*
G03X116930Y29470I200*
G01X118011*
G02X118124Y29435I0J-200*
G01X118268Y29340*
G02X118364Y29170I-104J-171*
G01Y28830*
G02X118268Y28660I-200J1*
G01X118101Y28549*
G02X118014Y28514I-116J163*
G03X116730Y27030I216J-1484*
G01Y26293*
X116728Y26280*
G03X116700Y25851I3272J-429*
G01Y25850*
Y20980*
G02X116632Y20830I-200J0*
G03X115364Y19125I3369J-3829*
G02X115182Y19008I-182J83*
G37*
G36*
X45800Y158924D02*
G01X4300D01*
G02X2300Y160924I0J2000*
G01Y204924*
G02X4300Y206924I2000J0*
G01X45800*
G02X47800Y204924I0J-2000*
G01Y160924*
G02X45800Y158924I-2000J0*
G37*
G36*
X211700Y82918D02*
G02X211624Y82933I0J199D01*
G01X211568Y82957*
X211500Y83058*
Y88629*
G02X211689Y88829I200J0*
G03X214712Y92882I-189J3295*
X211500Y95424I-3212J-758*
X210430Y95246I-1J-3300*
G01X210384Y95230*
X210288Y95244*
X209984Y95461*
G02X209900Y95624I116J163*
G01Y131829*
G02X209959Y131971I200J0*
G01X217553Y139565*
G02X217694Y139623I141J-141*
G01X231317*
G02X231489Y139525I0J-200*
G01X231691Y139182*
X231692Y139075*
X231666Y139029*
G03X231250Y137424I2884J-1604*
G01Y134156*
G02X231121Y133970I-200J1*
G01X230713Y133814*
X230592Y133844*
X230551Y133891*
G03X229430Y134394I-1121J-997*
G01X228959*
X228936Y134399*
G03X228189Y134485I-748J-3214*
G01X224029*
G02X223889Y134542I0J200*
G03X220600Y135885I-3289J-3357*
X217243Y134474I0J-4700*
Y127895I3357J-3289*
G01X217270Y127867*
X217300Y127795*
Y127058*
G02X217208Y126890I-200J0*
G01X217091Y126818*
G03X216350Y125524I759J-1294*
G01Y121524*
G03X217732Y120028I1500J-1*
G02X217860Y119968I-15J-199*
G01X217943Y119882*
G02X218000Y119743I-142J-140*
G01Y112704*
G02X217943Y112565I-200J1*
G01X217860Y112479*
G02X217732Y112419I-143J139*
G03X216350Y110924I119J-1496*
G01Y106924*
G03X217091Y105630I1500J0*
G01X217208Y105558*
G02X217300Y105390I-108J-168*
G01Y104653*
X217270Y104580*
X217243Y104552*
G03X217311Y97906I3357J-3289*
X220600Y96563I3289J3357*
X223957Y97974I0J4700*
Y104552I-3357J3289*
G01X223930Y104580*
X223900Y104653*
Y105390*
G02X223992Y105558I200J0*
G01X224049Y105594*
G02X224153Y105623I104J-171*
G01X224154*
X227470*
G03X228828Y105916I-1J3300*
G01X228867Y105933*
X228980*
G03X230480Y107433J1500*
G01Y107558*
X230497Y107597*
G03Y110270I-3017J1337*
G01X230480Y110309*
Y110433*
G03X228980Y111934I-1501J0*
G01X228855*
X228817Y111951*
G03X227481Y112233I-1335J-3018*
G01X227233Y112224*
X227226*
X224150*
X224149*
G02X224056Y112247I0J200*
G03X223468Y112419I-706J-1324*
G02X223340Y112479I15J199*
G01X223257Y112565*
G02X223200Y112704I142J140*
G01Y119743*
G02X223257Y119882I200J-1*
G01X223340Y119968*
G02X223468Y120028I143J-139*
G03X224850Y121524I-119J1496*
G01Y125524*
G03X224109Y126818I-1500J0*
G01X223992Y126890*
G02X223900Y127058I108J168*
G01Y127838*
X223947Y127884*
X226766*
X226784Y127881*
G03X227070Y127853I289J1472*
G01X227807*
X227820Y127852*
G03X228250Y127824I429J3272*
X228680Y127852I1J3301*
G01X228693Y127853*
X229430*
G03X230914Y129138I-1J1500*
G02X230949Y129224I198J-30*
G01X231059Y129392*
G02X231229Y129487I170J-105*
G01X231230*
X231570*
X231571*
G02X231741Y129392I0J-200*
G01X231851Y129224*
G02X231886Y129138I-163J-116*
G03X233370Y127853I1485J215*
G01X234107*
X234120Y127852*
G03X234550Y127824I429J3272*
X234980Y127852I1J3301*
G01X234993Y127853*
X235730*
G03X237215Y129138I0J1500*
G02X237249Y129224I198J-29*
G03X237850Y131124I-2699J1899*
G01Y137424*
G03X237434Y139029I-3300J1*
G01X237408Y139075*
X237409Y139182*
X237611Y139525*
G02X237783Y139623I172J-101*
G01X242085*
X242201Y139514*
X242205Y139435*
G03X245114Y136346I3295J189*
G01X245306Y136329*
X245403Y136325*
X245500Y136324*
G03X248713Y138871I0J3300*
G02X248902Y139025I195J-46*
G03X252099Y142413I-102J3299*
G01X252098Y142453*
X252127Y142528*
X252356Y142763*
G02X252499Y142823I143J-140*
G01X303641*
G03X303782Y142882I-1J200*
G01X311540Y150640*
X311616Y150670*
X311658Y150669*
X311682Y150668*
X311707*
X311731*
X311755*
G03X313896Y151456I1J3300*
G01X313941Y151494*
X314057Y151509*
X314440Y151333*
G02X314556Y151151I-84J-182*
G01Y147471*
G02X314493Y147326I-200J1*
G03Y142522I2263J-2402*
G02X314556Y142376I-137J-146*
G01Y86239*
G03X314614Y86098I200J0*
G01X316170Y84542*
G02X316214Y84324I-140J-142*
G01X316191Y84268*
X316090Y84200*
X291118*
G02X290976Y84259J200*
G01X287770Y87465*
G03X287628Y87524I-142J-140*
G01X270394*
G02X270253Y87582I0J200*
G01X269270Y88565*
G03X269128Y88624I-142J-140*
G01X268448*
G02X268302Y88687I0J200*
G03X265900Y89724I-2402J-2263*
X264595Y89455I0J-3300*
X262601Y86335I1305J-3031*
G01X262602Y86294*
X262573Y86219*
X262344Y85984*
G02X262201Y85924I-143J140*
G01X251999*
G02X251856Y85984I0J200*
G01X251627Y86219*
X251598Y86294*
X251599Y86335*
G03X250563Y88826I-3299J89*
G02X250500Y88971I137J146*
G01Y103104*
G02X250598Y103276I200J0*
G01X250718Y103340*
G03X251570Y104694I-648J1353*
G01Y107054*
G03X250070Y108554I-1500J0*
G01X249600*
G02X249400Y108754J200*
G01Y109294*
G02X249600Y109494I200J0*
G01X250070*
G03X251570Y110994J1500*
G01Y113354*
G03X250070Y114854I-1500J0*
G01X249112*
X249084Y114862*
G03X248300Y114974I-784J-2688*
G01X243330*
G02X243225Y115004I0J200*
G03X241750Y115424I-1475J-2380*
G01X238888*
X238887*
G02X238783Y115453I0J200*
G03X238000Y115674I-784J-1280*
G01X235000*
G03X233500Y114174I0J-1500*
G01Y111174*
G03X235000Y109673I1501J0*
G01X238000*
G03X238616Y109806I-2J1500*
G01X238655Y109823*
X239423*
X239425*
G02X239542Y109785I0J-200*
G03X240430Y109494I888J1209*
G01X240900*
G02X241100Y109294I0J-200*
G01Y108754*
G02X240900Y108554I-200J0*
G01X240430*
G03X239303Y108044I0J-1500*
G01X239280Y108017*
X239217Y107983*
X238891Y107935*
X238822Y107949*
X238792Y107968*
G03X238000Y108194I-792J-1274*
G01X236539*
G03Y108192J-1*
G02X236816Y108142I-37J-1000*
G03X238000Y106694I2649J958*
X239449Y105510I2405J1464*
G02X239500Y105194I-950J-315*
X239449Y104878I-1001J-1*
G03X238000Y103694I956J-2649*
X236816Y102245I1465J-2405*
G01X236529Y102196*
X236528Y102195*
G03X236529Y102194I1J0*
G01X238000*
X238001*
G03X239372Y103086I0J1500*
G01X239387Y103122*
X239443Y103175*
X239770Y103310*
X239847Y103311*
X239883Y103297*
G03X240429Y103194I546J1397*
G01X240430*
X241729*
G03X241730Y103195I0J1*
X240430Y104694I-2894J-1197*
G01X242200Y106124*
X243970Y104694*
G03X242670Y103195I1595J-2696*
X242671Y103194I1J0*
G01X243970*
X243971*
G03X244981Y103585I0J1500*
G01X245008Y103610*
X245078Y103637*
X245422*
X245492Y103610*
X245519Y103585*
G03X245882Y103340I1012J1108*
G01X246002Y103276*
G02X246100Y103104I-102J-172*
G01Y88971*
G02X246037Y88826I-200J1*
G03X245001Y86335I2263J-2402*
G01X245002Y86294*
X244973Y86219*
X244744Y85984*
G02X244601Y85924I-143J140*
G01X214872*
G03X214730Y85865I0J-200*
G01X211842Y82977*
G02X211700Y82918I-142J140*
G37*
G36*
X372816Y1000D02*
G01X1200D01*
G02X1000Y1200J200*
G01Y56493*
G02X1091Y56660I200J-1*
G01X1415Y56871*
X1516Y56879*
X1562Y56858*
G03X2168Y56730I606J1372*
G01X2170*
X4530*
G03X6026Y58115I0J1500*
G01X6032Y58193*
X6147Y58300*
X6853*
X6968Y58193*
X6974Y58115*
G03X8470Y56730I1496J115*
G01X10830*
X10831*
G03X12023Y57320I0J1500*
G01X12052Y57359*
X12142Y57401*
X12568Y57381*
X12653Y57332*
X12680Y57290*
G03X14875Y55364I4321J2710*
G02X14992Y55182I-83J-182*
G01Y54818*
G02X14875Y54636I-200J0*
G03X13072Y46748I2125J-4636*
X17000Y44900I3929J3252*
X21158Y47048I-1J5100*
X19125Y54636I-4158J2952*
G02X19008Y54818I83J182*
G01Y55182*
G02X19125Y55364I200J0*
G03X21849Y61582I-2124J4636*
G01X21831Y61636*
X21857Y61746*
X34576Y74465*
G02X34717Y74523I141J-141*
G01X34718*
X88201*
G02X88344Y74463I0J-200*
G01X88573Y74228*
X88602Y74153*
X88601Y74113*
G03X91900Y70724I3299J-89*
G01X92089Y70729*
X92131Y70731*
X92211Y70701*
X98730Y64182*
G03X98872Y64123I142J140*
G01X168206*
G02X168347Y64065I0J-200*
G01X169930Y62482*
G03X170072Y62423I142J140*
G01X174106*
G02X174247Y62365I0J-200*
G01X174496Y62116*
X174507Y61966*
X174462Y61907*
G03X175605Y56982I2638J-1983*
X177100Y56624I1495J2942*
X180289Y59075I0J3300*
G01X180307Y59141*
X180414Y59223*
X203729*
G03X203870Y59282I-1J200*
G01X219561Y74973*
G02X219703Y75032I142J-140*
G01X252198*
G02X252339Y74973I-1J-200*
G01X252678Y74635*
G02Y74352I-141J-141*
G01X248958Y70633*
G03X248900Y70491I141J-141*
G01Y56624*
G02X248820Y56464I-200*
G01X248526Y56244*
X248434Y56227*
X248388Y56240*
G03X247467Y56371I-921J-3169*
G01X217363*
G03X217222Y56312I1J-200*
G01X208192Y47282*
G02X208051Y47224I-141J141*
G01X208050*
X140916*
G03X140774Y47165I0J-200*
G01X133818Y40209*
G02X133677Y40150I-142J140*
G01X123033*
G02X122846Y40279I0J200*
G01X122691Y40687*
X122720Y40808*
X122767Y40849*
G03X123270Y41970I-997J1121*
G01Y44330*
G03X121770Y45830I-1500J0*
G01X120471*
G03X120470Y45829I0J-1*
X121770Y44330I2895J1198*
X122938Y43301I2196J1315*
G02X122949Y43150I-991J-148*
X122938Y42999I-1002J-3*
G03X121770Y41970I1028J-2344*
G01X120075Y42960*
X120074*
X120000Y42900*
X119926Y42960*
X119925*
X118230Y41970*
G03X117062Y42999I-2196J-1316*
G02X117051Y43150I989J148*
X117062Y43301I1000J3*
G03X118230Y44330I-1028J2345*
X119530Y45829I-1595J2696*
X119529Y45830I-1J0*
G01X118230*
G03X116730Y44330I0J-1500*
G01Y41970*
G03X117233Y40849I1500J0*
G01X117280Y40808*
X117309Y40687*
X117154Y40279*
G02X116967Y40150I-187J71*
G01X96023*
G02X95882Y40209I1J200*
G01X84536Y51555*
G03X84395Y51613I-141J-141*
G01X84394*
X47100*
G03X43800Y48313I0J-3300*
G01Y32174*
G03X43828Y31743I3300J-2*
G01X43830Y31730*
Y30994*
G03X43837Y30844I1500J-5*
G01X43838Y30834*
Y30824*
G02X43638Y30624I-200*
G01X41033*
G03X40892Y30565I1J-200*
G01X37158Y26832*
G03X37100Y26691I141J-141*
G01Y26652*
X37068Y26577*
X36802Y26320*
X36726Y26291*
X36685Y26293*
X36630Y26294*
X34270*
G03X32770Y24794I0J-1500*
G01Y23494*
G03X32771Y23493I1J0*
X34270Y24794I-1198J2894*
X35299Y25962I-1316J2197*
G01X35601*
G03X36630Y24794I2345J1028*
G01X35640Y23099*
Y23098*
X35700Y23024*
X35640Y22950*
Y22949*
X36630Y21254*
G03X35601Y20085I1316J-2196*
G01X35299*
G03X34270Y21254I-2345J-1027*
X32771Y22554I-2697J-1595*
X32770Y22553I0J-1*
G01Y21254*
G03X33126Y20282I1501J-2*
G01X33150Y20255*
X33174Y20189*
Y19858*
X33150Y19792*
X33126Y19765*
G03X32770Y18794I1145J-970*
G01Y17494*
G03X32771Y17493I1J0*
X34270Y18794I-1198J2894*
X35299Y19962I-1316J2197*
G01X35601*
G03X36630Y18794I2345J1028*
G01X35640Y17099*
Y17098*
X35700Y17024*
X35640Y16950*
Y16949*
X36630Y15254*
G03X35601Y14085I1316J-2196*
G01X35299*
G03X34270Y15254I-2345J-1027*
X32771Y16554I-2697J-1595*
X32770Y16553I0J-1*
G01Y15254*
G03X34270Y13753I1501J0*
G01X36630*
X36685Y13754*
X36726Y13756*
X36802Y13727*
X37039Y13499*
G02X37100Y13355I-139J-144*
G01Y13317*
X37130Y13243*
X40192Y10182*
G03X40333Y10123I142J140*
G01X54567*
G03X54708Y10182I-1J200*
G01X56842Y12315*
G03X56900Y12457I-141J141*
G01Y12563*
G02X57100Y12763I200J0*
G01X57160*
X57210Y12731*
G03X60000Y11900I2790J4269*
X64636Y14875I0J5100*
G02X64818Y14992I182J-83*
G01X65182*
G02X65364Y14875I0J-200*
G03X70000Y11900I4636J2125*
X74636Y14875I0J5100*
G02X74818Y14992I182J-83*
G01X75182*
G02X75364Y14875I0J-200*
G03X80000Y11900I4636J2125*
X84636Y14875I0J5100*
G02X84818Y14992I182J-83*
G01X85182*
G02X85364Y14875I0J-200*
G03X90000Y11900I4636J2125*
X94636Y14875I0J5100*
G02X94818Y14992I182J-83*
G01X95182*
G02X95364Y14875I0J-200*
G03X100000Y11900I4636J2125*
X104636Y14875I0J5100*
G02X104818Y14992I182J-83*
G01X105182*
G02X105364Y14875I0J-200*
G03X110000Y11900I4636J2125*
X114636Y14875I0J5100*
G02X114818Y14992I182J-83*
G01X115182*
G02X115364Y14875I0J-200*
G03X120000Y11900I4636J2125*
X124636Y14875I0J5100*
G02X124818Y14992I182J-83*
G01X125182*
G02X125364Y14875I0J-200*
G03X130000Y11900I4636J2125*
X131582Y12151I2J5100*
G01X131636Y12169*
X131746Y12143*
X135307Y8582*
G03X135448Y8523I142J140*
G01X164552*
G03X164694Y8582I0J200*
G01X168254Y12143*
X168364Y12169*
X168418Y12151*
G03X169999Y11900I1580J4850*
X174636Y14875I0J5101*
G02X174818Y14992I182J-83*
G01X175182*
G02X175364Y14875I0J-200*
G03X180000Y11900I4636J2125*
X183252Y13072I-1J5100*
X182952Y21158I-3253J3928*
X180000Y22100I-2953J-4158*
X175364Y19125I0J-5100*
G02X175182Y19008I-182J83*
G01X174818*
G02X174636Y19125I0J200*
G03X170000Y22100I-4636J-2125*
X165364Y19125I0J-5100*
G02X165182Y19008I-182J83*
G01X164818*
G02X164636Y19125I0J200*
G03X160000Y22100I-4636J-2125*
X155364Y19125I0J-5100*
G02X155182Y19008I-182J83*
G01X154818*
G02X154636Y19125I0J200*
G03X150000Y22100I-4636J-2125*
X145364Y19125I0J-5100*
G02X145182Y19008I-182J83*
G01X144818*
G02X144636Y19125I0J200*
G03X140000Y22100I-4636J-2125*
X135364Y19125I0J-5100*
G02X135182Y19008I-182J83*
G01X134818*
G02X134636Y19125I0J200*
G03X130000Y22100I-4636J-2125*
X125364Y19125I0J-5100*
G02X125182Y19008I-182J83*
G01X124818*
G02X124636Y19125I0J200*
G03X123368Y20830I-4636J-2124*
G02X123300Y20980I132J150*
G01Y25850*
G03X123272Y26280I-3300J1*
G01X123270Y26293*
Y27030*
G03X121986Y28514I-1500J0*
G02X121899Y28549I29J198*
G01X121732Y28660*
G02X121636Y28830I104J171*
G01Y29170*
G02X121732Y29340I200J-1*
G01X121876Y29435*
G02X121989Y29470I113J-166*
G01X123070*
G03X123270Y29670I0J200*
G01Y31706*
X123272Y31719*
G03X123300Y32150I-3273J429*
G01Y33350*
G02X123500Y33550I200J0*
G01X136410*
X136411*
G03X136552Y33608I0J200*
G01X143508Y40565*
G02X143649Y40623I141J-141*
G01X143650*
X210784*
G03X210926Y40682I0J200*
G01X219956Y49712*
G02X220097Y49771I142J-140*
G01X247467*
G03X248388Y49902I0J3300*
G01X248434Y49915*
X248526Y49898*
X248820Y49678*
G02X248900Y49518I-120J-160*
G01Y21394*
G02X248841Y21253I-200J1*
G01X247055Y19466*
G02X246914Y19407I-142J140*
G01X246900Y19408*
X246887Y19409*
X246526Y19457*
X246449Y19509*
X246425Y19549*
G03X242289Y22092I-4417J-2549*
G02X242100Y22292I11J200*
G01Y23281*
G02X242198Y23453I200J0*
G01X242318Y23517*
G03X243170Y24870I-648J1353*
G01Y27230*
G03X241670Y28730I-1500J0*
G01X241200*
G02X241000Y28930J200*
G01Y29100*
G02X241126Y29286I200J0*
G03X241799Y29651I-1226J3064*
G02X241886Y29686I116J-163*
G03X243170Y31170I-216J1484*
G01Y31907*
X243172Y31920*
G03Y32780I-3272J430*
G01X243170Y32793*
Y33530*
G03X241886Y35014I-1500J0*
G02X241799Y35049I29J198*
G03X239900Y35650I-1899J-2699*
G01X229416*
G03X229275Y35592I0J-200*
G01X224258Y30575*
G03X224200Y30434I141J-141*
G01Y26173*
G02X224141Y26032I-200J1*
G01X219631Y21522*
G02X219585Y21487I-143J140*
G03X217486Y19357I2424J-4488*
G01X217460Y19308*
X217364Y19250*
X217308*
G02X217108Y19450J200*
G01Y20100*
G03X215108Y22100I-2000J0*
G01X213113*
G03X213112Y22099I0J-1*
X215108Y20100I4621J2618*
G01X212361Y17021*
Y17020*
X212383Y17000*
X212361Y16980*
Y16979*
X215108Y13900*
G03X213112Y11900I2626J-4617*
G01Y11899*
X215108*
G03X217108Y13900I0J2000*
G01Y14549*
G02X217308Y14749I200J0*
G01X217364*
X217460Y14691*
X217486Y14642*
G03X222008Y11900I4522J2358*
X226644Y14875I0J5100*
G02X226825Y14991I181J-84*
G01X226826*
X227190*
G02X227372Y14875I0J-200*
G03X231500Y11925I4636J2124*
G01X231534Y11921*
X231597Y11892*
X234830Y8658*
G03X234971Y8600I141J141*
G01X234972*
X248028*
X248029*
G03X248170Y8658I0J200*
G01X254842Y15330*
G03X254900Y15472I-141J141*
G01Y29905*
G02X255024Y30090I200J0*
G01X255080Y30113*
X255199Y30090*
X255330Y29958*
G03X255471Y29900I141J141*
G01X255472*
X255994*
X256070Y29867*
X256098Y29837*
G03X258500Y28800I2402J2263*
X260545Y29510I0J3300*
X261258Y33912I-2045J2590*
X258500Y35400I-2758J-1812*
X257073Y35076I-1J-3300*
G01X257027Y35054*
X256924Y35059*
X256594Y35267*
G02X256500Y35437I105J169*
G01Y67123*
G02X256700Y67323I200J0*
G01X273484*
G02X273671Y67194J-200*
G03X276756Y65067I3085J1174*
G01X276912Y65070*
X277067Y65081*
G03X277375Y65125I-312J3286*
X280050Y68575I-619J3242*
G01X280047Y68616*
X280075Y68694*
X280303Y68937*
G02X280449Y69000I146J-137*
G01X294328*
X294329*
G03X294470Y69058I0J200*
G01X298876Y73465*
G02X299017Y73523I141J-141*
G01X299018*
X299250*
X299326Y73491*
X299354Y73460*
G03X301756Y72423I2402J2263*
X303061Y72692I0J3300*
X305029Y76148I-1305J3031*
G01X305023Y76191*
X305048Y76274*
X305275Y76532*
G02X305425Y76600I150J-132*
G01X305426*
X312486*
G02X312627Y76541I-1J-200*
G01X313428Y75740*
X313459Y75663*
X313457Y75622*
G03X315536Y72457I3299J-98*
X316756Y72223I1221J3066*
X319083Y73183I0J3300*
G01X319110Y73210*
X319178Y73240*
X319524Y73254*
X319595Y73229*
X319624Y73205*
G03X321757Y72424I2132J2520*
X324248Y73559I0J3301*
G01X324275Y73591*
X324350Y73626*
X324684Y73638*
X324691*
G02X324832Y73580I0J-200*
G01X325841Y72571*
G02X325900Y72429I-140J-142*
G01Y22078*
G02X325841Y21937I-200J1*
G01X325762Y21857*
X325652Y21831*
X325598Y21849*
G03X324017Y22100I-1580J-4850*
X319380Y19125I0J-5101*
G02X319198Y19008I-182J83*
G01X318834*
G02X318652Y19125I0J200*
G03X314016Y22100I-4636J-2125*
X309380Y19125I0J-5100*
G02X309198Y19008I-182J83*
G01X308834*
G02X308652Y19125I0J200*
G03X304016Y22100I-4636J-2125*
X299380Y19125I0J-5100*
G02X299198Y19008I-182J83*
G01X298834*
G02X298652Y19125I0J200*
G03X294016Y22100I-4636J-2125*
X289380Y19125I0J-5100*
G02X289198Y19008I-182J83*
G01X288834*
G02X288652Y19125I0J200*
G03X284016Y22101I-4637J-2124*
X279493Y19358I0J-5100*
G01X279468Y19308*
X279372Y19250*
X279316*
G02X279116Y19450J200*
G01Y20100*
G03X277116Y22100I-2000J0*
G01X270916*
G03X268916Y20100I0J-2000*
G01Y13900*
G03X270916Y11900I2000*
G01X277116*
G03X279116Y13900I0J2000*
G01Y14550*
G02X279316Y14750I200J0*
G01X279372*
X279468Y14692*
X279493Y14642*
G03X284015Y11900I4523J2359*
X288652Y14875I0J5101*
G02X288834Y14992I182J-83*
G01X289198*
G02X289380Y14875I0J-200*
G03X294016Y11900I4636J2125*
X298652Y14875I0J5100*
G02X298834Y14992I182J-83*
G01X299198*
G02X299380Y14875I0J-200*
G03X304016Y11900I4636J2125*
X308652Y14875I0J5100*
G02X308834Y14992I182J-83*
G01X309198*
G02X309380Y14875I0J-200*
G03X311706Y12453I4636J2125*
G02X311816Y12274I-90J-179*
G01Y11779*
G03X311874Y11638I200J0*
G01X315230Y8282*
G03X315371Y8223I142J140*
G01X327728*
G03X327870Y8282I0J200*
G01X331842Y12254*
G03X331900Y12395I-141J141*
G01Y74952*
G03X331842Y75093I-200J0*
G01X319015Y87920*
G02X318956Y88062I140J142*
G01Y142376*
G02X319019Y142522I200J0*
G03Y147326I-2263J2402*
G02X318956Y147471I137J146*
G01Y181486*
G02X319015Y181627I200J-1*
G01X320053Y182665*
G02X320194Y182723I141J-141*
G01X348252*
G02X348398Y182660I0J-200*
G03X350800Y181623I2402J2263*
X353063Y182521I0J3300*
X353202Y187186I-2263J2402*
X350800Y188224I-2403J-2262*
X348398Y187187I0J-3300*
G02X348252Y187124I-146J137*
G01X318372*
G03X318230Y187065I0J-200*
G01X314614Y183450*
G03X314556Y183308I141J-141*
G01Y156784*
G02X314440Y156602I-200J0*
G01X314057Y156426*
X313941Y156442*
X313896Y156480*
G03X311756Y157268I-2140J-2512*
X309554Y156425I1J-3300*
G01X309526Y156400*
X309456Y156374*
X309110Y156378*
X309041Y156406*
X309013Y156431*
G03X306756Y157323I-2257J-2408*
X304478Y156411I0J-3300*
G01X304450Y156385*
X304381Y156357*
X304036Y156350*
X303965Y156376*
X303937Y156400*
G03X301756Y157224I-2182J-2476*
G01X301191Y157175*
X301127Y157164*
X301010Y157222*
X300804Y157618*
G02X300840Y157852I178J92*
G01X303442Y160454*
G03X303500Y160595I-141J141*
G01Y199723*
G02X303700Y199923I200J0*
G01X360714*
G03X360855Y199982I-1J200*
G01X366234Y205361*
G02X366376Y205420I142J-140*
X366438Y205410I0J-200*
G03X368020Y205158I1583J4849*
X372282Y207457I0J5101*
G01X372318Y207512*
X372442Y207557*
X372873Y207428*
G02X373016Y207237I-57J-192*
G01Y168540*
G02X372816Y168340I-200*
G01X333846*
G03X333646Y168140I0J-200*
G01Y64100*
G03X333846Y63900I200*
G01X372816*
G02X373016Y63700I0J-200*
G01Y1200*
G02X372816Y1000I-200*
G37*
G36*
X194200Y85424D02*
G01X34771D01*
X34770*
G02X34629Y85482I0J200*
G01X22159Y97953*
G02X22100Y98094I140J142*
G01Y103100*
G03X20100Y105100I-2000J0*
G01X13900*
G03X11933Y103461I0J-2000*
G01X11924Y103416*
X11872Y103343*
X11522Y103151*
X11432Y103145*
X11390Y103162*
G03X10831Y103270I-559J-1392*
G01X10830*
X8470*
G03X6974Y101885I0J-1500*
G01X6968Y101807*
X6853Y101700*
X6147*
X6032Y101807*
X6026Y101885*
G03X4530Y103270I-1496J-115*
G01X2170*
X2168*
G03X1562Y103142I0J-1500*
G01X1516Y103121*
X1415Y103129*
X1091Y103340*
G02X1000Y103507I109J168*
G01Y155785*
G02X1099Y155958I200J0*
G01X1444Y156159*
X1550Y156160*
X1597Y156134*
G03X4300Y155423I2705J4789*
G01X45800*
G03X51300Y160924I0J5500*
G01Y204924*
G03X45800Y210424I-5500J0*
G01X4300*
G03X1597Y209714I0J-5500*
G01X1550Y209687*
X1444Y209688*
X1099Y209889*
G02X1000Y210062I101J173*
G01Y313744*
G02X1200Y313944I200J0*
G01X372816*
G02X373016Y313744I0J-200*
G01Y263280*
G02X372873Y263089I-200J1*
G01X372442Y262960*
X372318Y263005*
X372282Y263061*
G03X368020Y265359I-4262J-2803*
X363384Y262384I1J-5101*
G02X363202Y262267I-182J83*
G01X362838*
G02X362656Y262384I0J200*
G03X358020Y265359I-4636J-2125*
X353384Y262384I0J-5100*
G02X353202Y262267I-182J83*
G01X352838*
G02X352656Y262384I0J200*
G03X348020Y265359I-4636J-2125*
X344033Y263439I0J-5100*
G01X343993Y263389*
X343871Y263354*
X343454Y263500*
G02X343320Y263688I66J189*
G01Y288285*
G03X343250Y288437I-200*
G01X329186Y300493*
G02X329116Y300645I130J152*
G01Y301044*
G03X327116Y303044I-2000J0*
G01X325458*
X325432Y303051*
G03X324016Y303244I-1417J-5107*
X322600Y303051I1J-5300*
G01X322573Y303044*
X320916*
G03X318916Y301044I0J-2000*
G01Y300394*
G02X318716Y300194I-200*
G01X318660*
X318564Y300252*
X318538Y300301*
G03X314015Y303043I-4522J-2358*
X309483Y300282I0J-5100*
G01X309457Y300232*
X309360Y300173*
X308890Y300178*
X308794Y300238*
X308769Y300289*
G03X304016Y303244I-4753J-2345*
X299263Y300289I0J-5300*
G01X299238Y300238*
X299142Y300178*
X298671Y300173*
X298574Y300232*
X298548Y300282*
G03X294015Y303044I-4533J-2338*
X291291Y302256I-1J-5100*
X289957Y294854I2724J-4312*
X294015Y292844I4058J3090*
X297447Y294171I0J5100*
X298003Y294763I-3428J3777*
G01X298043Y294813*
X298165Y294848*
X298582Y294702*
G02X298716Y294514I-66J-189*
G01Y287411*
G03X298774Y287270I200J0*
G01X308762Y277282*
G03X308903Y277223I142J140*
G01X318742*
G02X318883Y277165I0J-200*
G01X322661Y273387*
G02X322720Y273245I-140J-142*
G01Y263688*
G02X322586Y263500I-200J1*
G01X322169Y263354*
X322047Y263389*
X322007Y263439*
G03X318020Y265359I-3987J-3180*
X313384Y262384I0J-5100*
G02X313202Y262267I-182J83*
G01X312838*
G02X312656Y262384I0J200*
G03X308020Y265359I-4636J-2125*
X303384Y262384I0J-5100*
G02X303202Y262267I-182J83*
G01X302838*
G02X302656Y262384I0J200*
G03X298020Y265359I-4636J-2125*
X294768Y264187I1J-5100*
X295068Y256101I3253J-3928*
X298020Y255159I2953J4158*
X302656Y258134I0J5100*
G02X302837Y258250I181J-84*
G01X302838*
X303202*
G02X303384Y258134I0J-200*
G03X308020Y255159I4636J2125*
X312656Y258134I0J5100*
G02X312837Y258250I181J-84*
G01X312838*
X313202*
G02X313384Y258134I0J-200*
G03X318020Y255159I4636J2125*
X322552Y257920I0J5100*
G01X322578Y257971*
X322675Y258029*
X323146Y258025*
X323242Y257965*
X323267Y257914*
G03X328020Y254959I4753J2345*
X332669Y257714I0J5300*
G01X332696Y257762*
X332790Y257817*
X333250*
X333344Y257762*
X333371Y257714*
G03X338020Y254959I4649J2545*
X342773Y257914I0J5300*
G01X342798Y257965*
X342894Y258025*
X343365Y258029*
X343462Y257971*
X343488Y257920*
G03X348020Y255159I4532J2338*
X352656Y258134I0J5099*
G02X352837Y258250I181J-84*
G01X352838*
X353202*
G02X353384Y258134I0J-200*
G03X358020Y255159I4636J2125*
X362656Y258134I0J5100*
G02X362837Y258250I181J-84*
G01X362838*
X363202*
G02X363384Y258134I0J-200*
G03X368020Y255158I4637J2124*
X372282Y257457I0J5100*
G01X372318Y257512*
X372442Y257557*
X372873Y257428*
G02X373016Y257237I-57J-192*
G01Y213280*
G02X372873Y213089I-200J1*
G01X372442Y212960*
X372318Y213005*
X372282Y213061*
G03X368020Y215359I-4262J-2803*
X363384Y212384I1J-5101*
G02X363202Y212267I-182J83*
G01X362838*
G02X362656Y212384I0J200*
G03X358020Y215359I-4636J-2125*
X353384Y212384I0J-5100*
G02X353202Y212267I-182J83*
G01X352838*
G02X352656Y212384I0J200*
G03X348020Y215359I-4636J-2125*
X343473Y212568I0J-5100*
G02X343295Y212459I-178J91*
G01X343294*
X342746*
X342745*
G02X342567Y212568I0J200*
G03X338020Y215358I-4547J-2310*
X333384Y212384I0J-5100*
G02X333202Y212267I-182J83*
G01X332838*
G02X332656Y212384I0J200*
G03X328020Y215359I-4636J-2125*
X323384Y212384I0J-5100*
G02X323202Y212267I-182J83*
G01X322838*
G02X322656Y212384I0J200*
G03X318020Y215359I-4636J-2125*
X313384Y212384I0J-5100*
G02X313202Y212267I-182J83*
G01X312838*
G02X312656Y212384I0J200*
G03X308020Y215358I-4636J-2126*
X303498Y212616I0J-5100*
G01X303472Y212567*
X303376Y212509*
X303320*
G02X303120Y212709J200*
G01Y213359*
G03X301120Y215359I-2000J0*
G01X294920*
X294794Y215355*
X294750Y215352*
X294670Y215382*
X294639Y215413*
G02Y215696I141J142*
G01X304108Y225165*
G02X304249Y225223I141J-141*
G01X304250*
X355784*
G03X355926Y225282I0J200*
G01X362992Y232348*
G03X363050Y232490I-141J141*
G01Y248224*
G03X359750Y251524I-3300J0*
X356450Y248224I0J-3300*
G01Y235223*
G02X356391Y235082I-200J1*
G01X353192Y231882*
G02X353051Y231824I-141J141*
G01X353050*
X301516*
G03X301374Y231765I0J-200*
G01X279091Y209482*
G03X279032Y209340I140J-142*
G01Y194754*
G02X278832Y194554I-200*
G01X274032*
G02X273962Y194567I1J200*
G03X272333Y194865I-1631J-4312*
X270703Y194567I1J-4610*
G02X270633Y194554I-71J187*
G01X266422*
X266421*
G02X266307Y194590I0J200*
G03X266179Y194671I-865J-1226*
G01X266178Y194672*
X265709Y194987*
G02X265633Y195144I124J157*
G01Y208975*
G03X265574Y209117I-200J0*
G01X241809Y232882*
G02X241750Y233023I140J142*
G01Y248624*
G03X238450Y251924I-3300J0*
X235150Y248624I0J-3300*
G01Y230290*
G03X235208Y230148I200J-1*
G01X258974Y206383*
G02X259032Y206241I-141J-141*
G01Y195144*
G02X258956Y194987I-200J0*
G01X258487Y194672*
X258486Y194671*
G03X258161Y194425I734J-1308*
X257722Y193352I1061J-1061*
G01Y187143*
G03X259222Y185643I1500*
G01X265443*
G03X266307Y185917I0J1500*
G02X266422Y185953I115J-164*
G01X270633*
G02X270703Y185940I-1J-200*
G03X272333Y185642I1631J4312*
X273962Y185940I-2J4610*
G02X274032Y185953I71J-187*
G01X280633*
G02X280704Y185940I0J-200*
G03X282333Y185643I1628J4313*
X286077Y187563I0J4610*
X285687Y193416I-3744J2690*
G02X285633Y193554I145J136*
G01Y206606*
G02X285691Y206748I200J1*
G01X292583Y213639*
G02X292725Y213698I142J-140*
X292866Y213639I-1J-199*
G01X292896Y213609*
X292926Y213528*
X292924Y213485*
X292920Y213359*
Y207159*
G03X294920Y205158I2001J0*
G01X295304*
X295305*
G02X295438Y205107I0J-200*
X295772Y204766I-2466J-2750*
G01X295820Y204636*
Y163738*
G02X295761Y163596I-200J0*
G01X294747Y162582*
G02X294606Y162524I-141J141*
G01X282128*
G03X281986Y162465I0J-200*
G01X276972Y157452*
X276896Y157421*
X276854Y157422*
X276757Y157423*
G03X274554Y156581I-1J-3301*
G01X274526Y156556*
X274456Y156530*
X274110Y156534*
X274041Y156562*
X274013Y156587*
G03X271756Y157480I-2258J-2407*
X268671Y155353I0J-3300*
G02X268484Y155224I-187J71*
G01X247689*
G02X247531Y155301I0J200*
G01X247309Y155586*
X247290Y155676*
X247301Y155721*
G03X244855Y159736I-3201J802*
G01X244787Y159752*
X244700Y159861*
Y205109*
G02X244759Y205251I200J0*
G01X244904Y205396*
X245014Y205423*
X245068Y205405*
G03X246650Y205153I1583J4849*
X251748Y210426I0J5101*
X246650Y215354I-5098J-173*
X244798Y215006I0J-5101*
G02X244725Y214992I-73J186*
X244584Y215051I1J200*
G01X237756Y221879*
G03X237615Y221938I-142J-140*
G01X176344*
X176343*
G02X176202Y221996I0J200*
G01X166233Y231965*
G03X166092Y232024I-142J-140*
G01X154396*
G02X154212Y232145I0J200*
G01X154044Y232539*
X154066Y232657*
X154108Y232701*
G03X153980Y238869I-3148J3020*
X150960Y240083I-3020J-3148*
X147812Y238741I0J-4362*
Y232701I3148J-3020*
G01X147854Y232657*
X147876Y232539*
X147708Y232145*
G02X147524Y232024I-184J79*
G01X142994*
G02X142853Y232082J200*
G01X142718Y232217*
G02Y232500I141J142*
G01X142734Y232516*
X142753Y232528*
G03X142226Y238388I-1753J2796*
G02X142100Y238573I74J186*
G01Y274723*
G02X142300Y274923I200J0*
G01X151228*
G03X151370Y274982I0J200*
G01X154788Y278400*
G03X154846Y278541I-141J141*
G01Y280024*
G02X154944Y280196I200J0*
G01X155063Y280260*
G03X155916Y281614I-647J1353*
G01Y283974*
G03X154416Y285474I-1500J0*
G01X153946*
G02X153746Y285674J200*
G01Y286214*
G02X153946Y286414I200J0*
G01X154416*
G03X155916Y287914J1500*
G01Y290274*
G03X155063Y291627I-1500J0*
G01X154944Y291691*
G02X154846Y291863I102J172*
G01Y292643*
G02X155046Y292843I200J0*
G01X159746*
G03X161746Y294844I0J2000*
G01Y301044*
G03X159746Y303044I-2000J0*
G01X153546*
G03X151546Y301044I0J-2000*
G01Y300394*
G02X151346Y300194I-200*
G01X151290*
X151194Y300252*
X151168Y300301*
G03X146646Y303043I-4522J-2358*
X142010Y300069I0J-5100*
G02X141828Y299952I-182J83*
G01X141464*
G02X141282Y300069J200*
G03X136646Y303044I-4636J-2125*
X132010Y300069I0J-5100*
G02X131828Y299952I-182J83*
G01X131464*
G02X131282Y300069J200*
G03X126646Y303044I-4636J-2125*
X123394Y301872I1J-5100*
X123694Y293786I3253J-3928*
X126646Y292844I2953J4158*
X131282Y295818I0J5100*
G02X131464Y295935I182J-83*
G01X131828*
G02X132010Y295818I0J-200*
G03X136646Y292843I4636J2125*
X137944Y293011I0J5100*
G01X137989Y293023*
X138080Y293005*
X138368Y292783*
G02X138446Y292624I-122J-158*
G01Y291863*
G02X138348Y291691I-200J0*
G01X138228Y291627*
G03X137376Y290274I648J-1353*
G01Y287914*
G03X138876Y286414I1500J0*
G01X139346*
G02X139546Y286214I0J-200*
G01Y285674*
G02X139346Y285474I-200*
G01X138876*
G03X137376Y283974I0J-1500*
G01Y281748*
G02X137317Y281606I-200J0*
G01X134504Y278794*
G03X134446Y278652I141J-141*
G01Y232049*
G03X134504Y231908I200J0*
G01X140330Y226082*
G03X140472Y226023I142J140*
G01X163569*
G02X163710Y225965I0J-200*
G01X173679Y215996*
G03X173821Y215937I142J140*
G01X178739*
G02X178924Y215814I0J-200*
G01X178947Y215758*
X178924Y215639*
X178697Y215412*
G02X178556Y215354I-141J141*
G01X173550*
G03X171550Y213354I0J-2000*
G01Y207154*
G03X173550Y205153I2001J0*
G01X179750*
G03X181750Y207154I0J2000*
G01Y207803*
G02X181950Y208003I200J0*
G01X182006*
X182102Y207945*
X182128Y207896*
G03X186650Y205154I4522J2358*
X191286Y208128I0J5100*
G02X191468Y208245I182J-83*
G01X191832*
G02X192014Y208128I0J-200*
G03X196650Y205153I4636J2125*
X201286Y208128I0J5100*
G02X201468Y208245I182J-83*
G01X201832*
G02X202014Y208128I0J-200*
G03X206650Y205153I4636J2125*
X211286Y208128I0J5100*
G02X211468Y208245I182J-83*
G01X211832*
G02X212014Y208128I0J-200*
G03X216650Y205153I4636J2125*
X221197Y207944I0J5100*
G02X221375Y208053I178J-91*
G01X221376*
X221924*
X221925*
G02X222103Y207944I0J-200*
G03X226650Y205154I4547J2310*
X229620Y206108I0J5100*
G01X229654Y206132*
X229734Y206149*
X230058Y206088*
G02X230189Y206001I-37J-197*
G01X230395Y205684*
X230682Y205330*
X237041Y198971*
G02X237100Y198829I-140J-142*
G01Y153295*
G03X237158Y153154I200J0*
G01X237947Y152365*
G02X237990Y152147I-141J-141*
G01X237967Y152091*
X237866Y152024*
X212372*
G03X212230Y151965I0J-200*
G01X197558Y137294*
G03X197500Y137152I141J-141*
G01Y92875*
G02X197429Y92722I-200J0*
G01X197163Y92496*
X197078Y92473*
X197035Y92480*
X196768Y92513*
X196500Y92524*
G03X193492Y90583I0J-3301*
X194331Y86736I3008J-1359*
G02X194400Y86585I-131J-151*
G01Y85624*
G02X194200Y85424I-200J0*
G37*
%LPC*%
G36*
X233502Y105226D02*
G01X233551Y105510D01*
G03X235000Y106694I-956J2649*
X236184Y108142I-1464J2405*
G02X236462Y108192I314J-950*
G03Y108194J1*
G01X235000*
G03X233500Y106694I0J-1500*
G01Y105226*
G03X233501Y105225I1J0*
G01X233502Y105226*
G37*
G36*
X236472Y102195D02*
G01Y102196D01*
X236184Y102245*
G03X235000Y103694I-2649J-956*
X233551Y104878I-2405J-1465*
G01X233502Y105162*
X233501Y105163*
G03X233500Y105162I0J-1*
G01Y103694*
G03X235000Y102194I1500J0*
G01X236471*
G03X236472Y102195I0J1*
G37*
G36*
X23302Y15000D02*
G03X15000Y23302I-8302J0D01*
X6698Y15000I0J-8302*
X15000Y6698I8302J0*
X23302Y15000I0J8302*
G37*
G36*
X210904Y11900D02*
G03X208908Y13900I-4622J-2617D01*
X206909Y15896I-4618J-2626*
X206908Y15895I0J-1*
G01Y13900*
G03X208908Y11899I2000J-1*
G01X210904*
Y11900*
G37*
G36*
X206909Y18104D02*
G03X208908Y20100I-2618J4621D01*
X210904Y22099I-2626J4618*
X210903Y22100I-1J0*
G01X208908*
G03X206908Y20100I0J-2000*
G01Y18105*
G03X206909Y18104I1J0*
G37*
G36*
X367165Y42995D02*
G03X364016Y46072I-3149J-73D01*
X360867Y42849I0J-3150*
X364016Y39772I3149J73*
X367165Y42995I0J3150*
G37*
G36*
Y52051D02*
G03X364016Y55128I-3149J-73D01*
X360867Y51905I0J-3150*
X364016Y48828I3149J73*
X367165Y52051I0J3150*
G37*
G36*
Y180335D02*
G03X364016Y183412I-3149J-73D01*
X360867Y180189I0J-3150*
X364016Y177112I3149J73*
X367165Y180335I0J3150*
G37*
G36*
Y189391D02*
G03X364016Y192468I-3149J-73D01*
X360867Y189245I0J-3150*
X364016Y186168I3149J73*
X367165Y189391I0J3150*
G37*
G36*
X367318Y15000D02*
G03X359016Y23302I-8302J0D01*
X350714Y15000I0J-8302*
X359016Y6698I8302J0*
X367318Y15000I0J8302*
G37*
G36*
X113170Y115394D02*
G01Y117754D01*
G03X111856Y119242I-1500J0*
G01X111734Y119305*
X111654Y119391*
G02X111600Y119527I146J137*
G01Y119934*
G02X111692Y120102I200J0*
G01X111799Y120175*
G02X111886Y120209I114J-164*
G03X113170Y121693I-216J1484*
G01Y121694*
Y122430*
X113172Y122443*
X113193Y122657*
X113200Y122872*
Y122874*
Y124824*
G03X109900Y128124I-3300J0*
X106600Y124824I0J-3300*
G01Y122874*
Y122872*
X106607Y122657*
X106628Y122443*
X106630Y122430*
Y121694*
Y121693*
G03X107914Y120209I1500J0*
G02X108001Y120175I-27J-198*
G01X108108Y120102*
G02X108200Y119934I-108J-168*
G01Y119527*
G02X108146Y119391I-200J1*
G01X108066Y119305*
X107944Y119242*
G03X106630Y117754I186J-1488*
G01Y115394*
G03X108130Y113894I1500J0*
G01X109431*
G03X108130Y115394I-2895J-1197*
X106962Y116423I-2196J-1315*
G02X106951Y116573I989J148*
X106962Y116724I1000J3*
G03X108130Y117754I-1029J2344*
G01X109825Y116764*
X109900Y116824*
X109975Y116764*
X111670Y117754*
G03X112838Y116724I2197J1314*
G02X112849Y116573I-991J-148*
X112838Y116423I-1002J-2*
G03X111670Y115394I1028J-2344*
X110369Y113894I1594J-2697*
G01X111670*
G03X113170Y115394I0J1500*
G37*
G36*
X113200Y160624D02*
G01Y162636D01*
Y162638*
X113193Y162853*
X113172Y163067*
X113170Y163080*
Y163816*
Y163817*
G03X111886Y165301I-1500J0*
G02X111799Y165335I27J198*
G01X111692Y165408*
G02X111600Y165576I108J168*
G01Y165983*
G02X111654Y166119I200J-1*
G01X111734Y166205*
X111856Y166268*
G03X113170Y167756I-186J1489*
G01Y167757*
Y170116*
Y170117*
G03X111670Y171617I-1500J0*
G01X110369*
G03X111670Y170116I2896J1195*
X112838Y169087I2196J1315*
G02X112849Y168937I-991J-148*
X112838Y168786I-1002J-3*
G03X111670Y167757I1028J-2344*
G01X109975Y168746*
X109900Y168686*
X109825Y168746*
X108130Y167757*
G03X106962Y168786I-2196J-1315*
G02X106951Y168937I989J148*
X106962Y169087I1000J2*
G03X108130Y170116I-1028J2345*
X109431Y171617I-1594J2696*
G01X108130*
G03X106630Y170117I1J-1501*
G01Y170116*
Y167757*
Y167756*
G03X107944Y166268I1500J0*
G01X108066Y166205*
X108146Y166119*
G02X108200Y165983I-146J-137*
G01Y165576*
G02X108108Y165408I-200J1*
G01X108001Y165335*
G02X107914Y165301I-114J164*
G03X106630Y163817I216J-1484*
G01Y163816*
Y163080*
X106628Y163067*
X106607Y162853*
X106600Y162638*
Y162636*
Y160624*
G03X109900Y157324I3300J0*
X113200Y160624I0J3300*
G37*
G36*
X165075Y190253D02*
G01Y190281D01*
Y190310*
G03X160465Y194864I-4610J-56*
X158836Y194567I-1J-4611*
G02X158765Y194554I-71J187*
G01X152165*
G02X152094Y194567I0J200*
G03X150465Y194864I-1628J-4313*
X148836Y194567I-1J-4611*
G02X148765Y194554I-71J187*
G01X144554*
G02X144439Y194590I0J200*
G03X143575Y194864I-864J-1226*
G01X137355*
G03X135855Y193364I0J-1500*
G01Y187143*
G03X137355Y185643I1500*
G01X143575*
G03X144439Y185917I0J1500*
G02X144553Y185953I114J-164*
G01X144554*
X148765*
G02X148836Y185940I0J-200*
G03X150465Y185643I1628J4313*
X152094Y185940I1J4610*
G02X152165Y185953I71J-187*
G01X158765*
G02X158836Y185940I0J-200*
G03X160465Y185643I1628J4313*
X165075Y190253I0J4610*
G37*
G36*
X110743Y210373D02*
G01Y210374D01*
Y212023*
G03X109243Y210374I2982J-4219*
X107723Y208873I2316J-3865*
G01X109243*
G03X110743Y210373I0J1500*
G37*
G36*
X104243Y210374D02*
G03X102743Y212023I-4483J-2571D01*
G01Y210374*
Y210373*
G03X104243Y208873I1500J0*
G01X105763*
G03X104243Y210374I-3836J-2365*
G37*
G36*
X97357Y210373D02*
G01Y210374D01*
Y216374*
Y216375*
G03X96740Y217587I-1500J0*
G02X96657Y217749I117J162*
G01Y220404*
G03X93357Y223704I-3300J0*
G01X90457*
G03X87157Y220404I0J-3300*
G01Y214990*
G03X87216Y214848I199J0*
G01X89298Y212765*
G02X89357Y212624I-141J-142*
G01Y210374*
Y210373*
G03X90857Y208873I1500J0*
G01X95857*
G03X97357Y210373I0J1500*
G37*
G36*
X110743Y216374D02*
G03X109243Y217874I-1500J0D01*
G01X107723*
G03X109243Y216374I3836J2367*
X110743Y214724I4484J2569*
G01Y216374*
G37*
G36*
X104243D02*
G03X105763Y217874I-2315J3866D01*
G01X104243*
G03X102743Y216374I0J-1500*
G01Y214724*
G03X104243Y216374I-2983J4219*
G37*
G36*
X286942Y220301D02*
G03X282332Y224864I-4610J-47D01*
X277722Y220207I0J-4611*
X282332Y215644I4610J47*
X286942Y220301I0J4610*
G37*
G36*
X276942D02*
G03X272332Y224864I-4610J-47D01*
X267722Y220207I0J-4611*
X272332Y215644I4610J47*
X276942Y220301I0J4610*
G37*
G36*
X266942D02*
G03X262332Y224864I-4610J-47D01*
X257722Y220207I0J-4611*
X262332Y215644I4610J47*
X266942Y220301I0J4610*
G37*
G36*
X165075D02*
G03X160465Y224864I-4610J-47D01*
X155855Y220207I0J-4611*
X160465Y215644I4610J47*
X165075Y220301I0J4610*
G37*
G36*
X155075D02*
G03X150465Y224864I-4610J-47D01*
X145855Y220207I0J-4611*
X150465Y215644I4610J47*
X155075Y220301I0J4610*
G37*
G36*
X145075D02*
G03X140465Y224864I-4610J-47D01*
X135855Y220207I0J-4611*
X140465Y215644I4610J47*
X145075Y220301I0J4610*
G37*
G36*
X276686Y235974D02*
G03X272330Y240098I-4356J-238D01*
X267974Y235498I0J-4362*
X272330Y231374I4356J238*
X276686Y235974I0J4362*
G37*
G36*
X155322Y253044D02*
G01Y257768D01*
G03X153322Y259768I-2000J0*
G01X148598*
G03X146598Y257768I0J-2000*
G01Y253044*
G03X148598Y251044I2000J0*
G01X153322*
G03X155322Y253044I0J2000*
G37*
G36*
X276692Y253059D02*
G01Y257783D01*
Y257784*
G03X274692Y259784I-2000J0*
G01X269968*
G03X267968Y257784I1J-2001*
G01Y257783*
Y253059*
G03X269968Y251059I2000J0*
G01X274692*
G03X276692Y253059I0J2000*
G37*
G36*
X249602Y256096D02*
G03X251750Y260254I-2952J4159D01*
X249902Y264182I-5100J-1*
X246650Y265354I-3253J-3928*
X242014Y262379I0J-5100*
G02X241832Y262262I-182J83*
G01X241468*
G02X241286Y262379I0J200*
G03X236650Y265354I-4636J-2125*
X232663Y263434I0J-5100*
G01X232623Y263384*
X232501Y263349*
X232084Y263495*
G02X231950Y263683I66J189*
G01Y277386*
Y277387*
G03X231892Y277528I-199J0*
G01X222005Y287414*
G02X221946Y287556I141J142*
G01Y292765*
G02X222046Y292938I200J0*
G01X222393Y293138*
X222500*
X222546Y293111*
G03X223546Y292843I1000J1732*
G01X229746*
G03X231746Y294843I0J2000*
G01Y294844*
Y301044*
G03X229746Y303044I-2000J0*
G01X223546*
G03X221546Y301044I0J-2000*
G01Y300801*
G02X221346Y300601I-200*
G01X221293*
X221202Y300652*
X221175Y300697*
G03X216646Y303244I-4529J-2753*
X211893Y300289I0J-5300*
G01X211868Y300238*
X211772Y300178*
X211301Y300173*
X211204Y300232*
X211178Y300282*
G03X206646Y303043I-4532J-2339*
X202010Y300069I0J-5100*
G02X201828Y299952I-182J83*
G01X201464*
G02X201282Y300069J200*
G03X196646Y303043I-4636J-2126*
X193694Y302101I1J-5100*
X191546Y297943I2952J-4159*
X193394Y294015I5100J1*
X196646Y292843I3253J3928*
X201282Y295818I0J5100*
G02X201464Y295935I182J-83*
G01X201828*
G02X202010Y295818J-200*
G03X206646Y292843I4636J2125*
X210633Y294763I0J5100*
G01X210673Y294813*
X210795Y294848*
X211212Y294702*
G02X211346Y294514I-66J-189*
G01Y283165*
G03X211404Y283024I199J0*
G01X221291Y273137*
G02X221350Y272995I-141J-142*
G01Y263683*
G02X221216Y263495I-200J1*
G01X220799Y263349*
X220677Y263384*
X220637Y263434*
G03X216650Y265354I-3987J-3180*
X212014Y262379I0J-5100*
G02X211832Y262262I-182J83*
G01X211468*
G02X211286Y262379I0J200*
G03X206650Y265354I-4636J-2125*
X202014Y262379I0J-5100*
G02X201832Y262262I-182J83*
G01X201468*
G02X201286Y262379I0J200*
G03X196650Y265354I-4636J-2125*
X192014Y262379I0J-5100*
G02X191832Y262262I-182J83*
G01X191468*
G02X191286Y262379I0J200*
G03X186650Y265354I-4636J-2125*
X182014Y262379I0J-5100*
G02X181832Y262262I-182J83*
G01X181468*
G02X181286Y262379I0J200*
G03X176650Y265353I-4636J-2126*
X173698Y264411I1J-5100*
X171550Y260253I2952J-4159*
X173398Y256325I5100J1*
X176650Y255153I3253J3928*
X181286Y258128I0J5100*
G02X181468Y258245I182J-83*
G01X181832*
G02X182014Y258128J-200*
G03X186650Y255153I4636J2125*
X191286Y258128I0J5100*
G02X191468Y258245I182J-83*
G01X191832*
G02X192014Y258128J-200*
G03X196650Y255153I4636J2125*
X201286Y258128I0J5100*
G02X201468Y258245I182J-83*
G01X201832*
G02X202014Y258128J-200*
G03X206650Y255153I4636J2125*
X211286Y258128I0J5100*
G02X211468Y258245I182J-83*
G01X211832*
G02X212014Y258128J-200*
G03X216650Y255153I4636J2125*
X221182Y257915I0J5100*
G01X221208Y257966*
X221305Y258024*
X221776Y258020*
X221872Y257960*
X221897Y257909*
G03X226650Y254954I4753J2345*
X231403Y257909J5300*
G01X231428Y257960*
X231524Y258020*
X231995Y258024*
X232091Y257966*
X232118Y257915*
G03X236650Y255154I4532J2339*
X241286Y258128I0J5100*
G02X241468Y258245I182J-83*
G01X241832*
G02X242014Y258128J-200*
G03X246650Y255154I4636J2126*
X249602Y256096I-1J5100*
G37*
G36*
X108008Y264482D02*
G01X111842Y268315D01*
G03X111900Y268456I-142J141*
G01Y268457*
Y290191*
G03X111842Y290332I-199J0*
G01X101508Y300665*
G03X101367Y300724I-142J-141*
G01X60133*
G03X59992Y300665I1J-199*
G01X49758Y290432*
G03X49700Y290291I142J-141*
G01Y268557*
Y268556*
G03X49758Y268415I199J0*
G01X53692Y264482*
G03X53833Y264423I142J141*
G01X67167*
G03X67308Y264482I-1J199*
G01X71542Y268715*
G03X71600Y268856I-142J141*
G01Y268857*
Y279891*
G02X71659Y280032I199J-1*
G01X73591Y281965*
G02X73732Y282023I141J-142*
G01X73733*
X88367*
X88368*
G02X88509Y281965I0J-199*
G01X89441Y281032*
G02X89500Y280891I-141J-142*
G01Y268357*
Y268356*
G03X89558Y268215I199J0*
G01X93292Y264482*
G03X93433Y264423I142J141*
G01X107867*
G03X108008Y264482I-1J199*
G37*
G36*
X86684Y273350D02*
G03X80986Y279224I-5698J174D01*
X75288Y273698I0J-5700*
X80986Y267824I5698J-174*
X86684Y273350I0J5700*
G37*
G36*
X46684D02*
G03X40986Y279224I-5698J174D01*
X35288Y273698I0J-5700*
X40986Y267824I5698J-174*
X46684Y273350I0J5700*
G37*
G36*
X367318Y299944D02*
G03X359016Y308246I-8302J0D01*
X350714Y299944I0J-8302*
X359016Y291642I8302J0*
X367318Y299944I0J8302*
G37*
G36*
X23302D02*
G03X15000Y308246I-8302J0D01*
X6698Y299944I0J-8302*
X15000Y291642I8302J0*
X23302Y299944I0J8302*
G37*
G36*
X156276Y93132D02*
G01X162142Y98998D01*
G03X162200Y99139I-142J141*
G01Y99140*
Y101623*
G02X162400Y101823I200J0*
G01X170400*
G03X175900Y107323I0J5500*
G01Y107324*
Y132224*
G03X170400Y137724I-5500J0*
G01X148200*
G03X142700Y132224I0J-5500*
G01Y107324*
Y107323*
G03X148200Y101823I5500J0*
G01X155210*
X155311Y101756*
X155335Y101700*
G02X155350Y101624I-185J-76*
X155291Y101482I-199J0*
G01X153542Y99732*
G02X153401Y99674I-141J142*
G01X153400*
X40150*
G03X36849Y96374I0J-3301*
X40150Y93073I3301J0*
G01X156134*
G03X156276Y93132I0J199*
G37*
%LPD*%
G36*
X93357Y212999D02*
G01X90857Y216374D01*
G03X92800Y218766I-2315J3866*
G02X93357Y218873I556J-1393*
X93914Y218766I1J-1501*
G03X95857Y216374I4259J1474*
G01X93357Y212999*
G37*
G36*
X186650Y256491D02*
G02X185589Y256930I0J1501D01*
G03X184458Y258062I-1924J-791*
G01X186330Y260254*
X184458Y262446*
G03X185589Y263577I-792J1923*
G02X186650Y264016I1061J-1062*
X187711Y263577I0J-1501*
G03X188842Y262446I1923J792*
G01X186970Y260254*
X188842Y258062*
G03X187711Y256930I793J-1923*
G02X186650Y256491I-1061J1062*
G37*
G36*
X143575Y187143D02*
G01X139840Y190254D01*
X143575Y193364*
G03X146639Y190735I5549J3367*
G01X146686Y190253*
X146639Y189772*
G03X143575Y187143I2486J-5997*
G37*
G36*
X246650Y256491D02*
G02X245589Y256930I0J1501D01*
G03X244458Y258062I-1924J-791*
G01X246307Y260227*
X246275Y260254*
X246307Y260281*
X244458Y262446*
G03X245589Y263577I-792J1923*
G02X246650Y264016I1061J-1062*
X247711Y263577I0J-1501*
G03X248842Y262446I1924J793*
X249973Y261314I1923J791*
G02X250412Y260253I-1062J-1061*
X249973Y259193I-1501J1*
G03X248842Y258062I792J-1923*
X247711Y256930I793J-1923*
G02X246650Y256491I-1061J1062*
G37*
G36*
X40986Y268412D02*
G02X39572Y268998I0J2000D01*
G03X38016Y270554I-2645J-1089*
X36460Y272109I-2645J-1090*
G02X35874Y273523I1414J1414*
X36460Y274938I2000J1*
G03X38016Y276493I-1088J2645*
X39572Y278049I-1089J2645*
G02X40986Y278635I1414J-1414*
X42400Y278049I0J-2000*
G03X43956Y276493I2645J1089*
X45512Y274938I2644J1090*
G02X46098Y273523I-1414J-1414*
X45512Y272109I-2000J0*
G03X43956Y270554I1088J-2645*
X42400Y268998I1089J-2645*
G02X40986Y268412I-1414J1414*
G37*
G36*
X80986D02*
G02X79572Y268998I0J2000D01*
G03X78016Y270554I-2645J-1089*
X76460Y272109I-2645J-1090*
G02X75874Y273523I1414J1414*
X76460Y274938I2000J1*
G03X78016Y276493I-1088J2645*
X79572Y278049I-1089J2645*
G02X80986Y278635I1414J-1414*
X82400Y278049I0J-2000*
G03X83956Y276493I2645J1089*
X85512Y274938I2644J1090*
G02X86098Y273523I-1414J-1414*
X85512Y272109I-2000J0*
G03X83956Y270554I1088J-2645*
X82400Y268998I1089J-2645*
G02X80986Y268412I-1414J1414*
G37*
G36*
X170400Y105324D02*
G01X148200D01*
G02X146200Y107324I0J2000*
G01Y132224*
G02X148200Y134224I2000J0*
G01X170400*
G02X172400Y132224I0J-2000*
G01Y107324*
G02X170400Y105324I-2000*
G37*
G36*
X106500Y267924D02*
G01X94800D01*
X93000Y269724*
Y282424*
X89900Y285524*
X72200*
X68100Y281424*
Y270224*
X65800Y267924*
X55200*
X53200Y269924*
Y288924*
X61500Y297224*
X100000*
X108400Y288824*
Y269824*
X106500Y267924*
G37*
G54D10*
X4351Y27011D03*
X9862D03*
X15374D03*
X4351Y32523D03*
Y38035D03*
X9862Y32523D03*
Y38035D03*
X15374Y32523D03*
Y38035D03*
X15474Y122635D03*
Y117123D03*
Y111611D03*
X4451Y122635D03*
X9962D03*
Y117123D03*
X4451D03*
Y111611D03*
X9962D03*
X13162Y164211D03*
X7651D03*
Y169723D03*
X13162D03*
Y175235D03*
X7651D03*
X18674Y164211D03*
Y169723D03*
Y175235D03*
X12962Y190311D03*
X7451D03*
Y195823D03*
X12962D03*
Y201335D03*
X7451D03*
X18474Y190311D03*
Y195823D03*
Y201335D03*
X3751Y242323D03*
X9262D03*
Y247835D03*
X3751D03*
X14774Y242323D03*
Y247835D03*
X9262Y236811D03*
X3751D03*
X14774D03*
X14874Y275711D03*
X3851D03*
X9362D03*
X14874Y286735D03*
Y281223D03*
X3851Y286735D03*
X9362D03*
Y281223D03*
X3851D03*
X36674Y3211D03*
X25651D03*
X31162D03*
X36674Y8723D03*
X25651Y14235D03*
X31162D03*
Y8723D03*
X25651D03*
X47100Y42313D03*
Y45313D03*
Y48313D03*
X40150Y96374D03*
X43200D03*
X46200D03*
X35662Y164311D03*
X30151D03*
Y169823D03*
X35662D03*
Y175335D03*
X30151D03*
X41174Y164311D03*
Y169823D03*
Y175335D03*
X35262Y190211D03*
X29751D03*
Y195723D03*
X35262D03*
Y201235D03*
X29751D03*
X40774Y190211D03*
Y195723D03*
Y201235D03*
X37874Y300611D03*
X26851D03*
X32362D03*
X37874Y311635D03*
Y306123D03*
X26851Y311635D03*
X32362D03*
Y306123D03*
X26851D03*
X61200Y26624D03*
X65600D03*
X64000Y23124D03*
X53100Y34724D03*
Y37624D03*
Y40724D03*
X71274Y164023D03*
Y158511D03*
X65762Y164023D03*
Y158511D03*
X60251Y164023D03*
Y158511D03*
X54400Y163924D03*
X54600Y158524D03*
X91900Y74024D03*
X96800D03*
X90457Y220404D03*
X93357D03*
X114300Y26924D03*
X114200Y23024D03*
X101200Y72324D03*
X110000Y69024D03*
X106000Y70624D03*
X109900Y124824D03*
Y160624D03*
X118574Y304635D03*
Y299123D03*
Y293611D03*
X107551Y304635D03*
X113062D03*
Y299123D03*
X107551D03*
X113062Y293611D03*
X125200Y27124D03*
X125300Y22624D03*
X145551Y198811D03*
Y204323D03*
X144500Y240424D03*
X145500Y233524D03*
X141000Y235324D03*
X170100Y60324D03*
X170000Y56024D03*
X164700Y61924D03*
X164600Y56324D03*
X172800Y68924D03*
X158862Y114211D03*
X153351D03*
Y119723D03*
X158862D03*
Y125235D03*
X153351D03*
X164374Y114211D03*
Y119723D03*
Y125235D03*
X151062Y198811D03*
Y204323D03*
X156574Y198811D03*
Y204323D03*
X157600Y240624D03*
X158100Y233824D03*
X171151Y305423D03*
Y299911D03*
Y310935D03*
X190551Y20335D03*
X196062D03*
Y14823D03*
X190551D03*
Y9311D03*
X196062D03*
X184500Y56624D03*
X190800D03*
X196800Y56524D03*
X177100Y59924D03*
X180000Y70524D03*
X196500Y89224D03*
X182174Y305423D03*
Y299911D03*
X176662Y305423D03*
Y299911D03*
X182174Y310935D03*
X176662D03*
X201574Y20335D03*
Y14823D03*
Y9311D03*
X203100Y56524D03*
X211500Y92124D03*
X212100Y129924D03*
X212000Y121424D03*
X212100Y112224D03*
X215374Y252535D03*
Y247023D03*
Y241511D03*
X204351Y252535D03*
X209862D03*
Y247023D03*
X204351D03*
Y241511D03*
X209862D03*
X246000Y29124D03*
X241367Y53071D03*
X244467D03*
X247467D03*
X245900Y34624D03*
X242400Y95424D03*
X243800Y100224D03*
X234000Y95324D03*
X248300Y86424D03*
X228600Y124424D03*
X228700Y115524D03*
X234550Y134574D03*
Y137424D03*
X227400Y137524D03*
X248800Y142324D03*
X245500Y139624D03*
X244100Y156524D03*
X249600Y254024D03*
X249700Y249324D03*
X244400Y240324D03*
X238450Y248624D03*
Y242324D03*
X268800Y28724D03*
Y23624D03*
X270100Y10124D03*
X259600Y46724D03*
X259700Y40124D03*
X258500Y32100D03*
X266756Y75724D03*
X265900Y86424D03*
X271756Y154180D03*
X269951Y197611D03*
Y203123D03*
Y208635D03*
X266574Y305223D03*
Y299711D03*
X261062Y305223D03*
X255551D03*
Y299711D03*
X261062D03*
X266574Y310735D03*
X255551D03*
X261062D03*
X278400Y10124D03*
X276756Y68367D03*
X281756Y75724D03*
X286756D03*
X291756D03*
X290851Y126535D03*
X296362D03*
Y121023D03*
X290851D03*
Y115511D03*
X296362D03*
X296756Y154124D03*
X291756Y154024D03*
X276756Y154124D03*
X281756D03*
X286756D03*
X292000Y203024D03*
Y195524D03*
X291900Y187024D03*
X275462Y197611D03*
Y203123D03*
Y208635D03*
X290500Y231424D03*
X296800Y231324D03*
X276000Y241124D03*
X283900Y241224D03*
X285400Y235224D03*
X294500Y269924D03*
X316756Y75524D03*
X301756Y75724D03*
X321756D03*
X301874Y126535D03*
Y121023D03*
Y115511D03*
X316756Y144924D03*
X301756Y153924D03*
X306756Y154024D03*
X311756Y153968D03*
X306451Y168735D03*
X311962D03*
Y161223D03*
X306451D03*
X307600Y234224D03*
X315300Y234024D03*
X315500Y241624D03*
X315400Y249824D03*
X307700Y269824D03*
X301500D03*
X345974Y20035D03*
Y14523D03*
Y9011D03*
X334951Y20035D03*
X340462D03*
Y14523D03*
X334951D03*
Y9011D03*
X340462D03*
X345374Y54923D03*
Y49411D03*
X339862Y54923D03*
X334351D03*
Y49411D03*
X339862D03*
X345374Y60435D03*
X334351D03*
X339862D03*
X331674Y100323D03*
Y94811D03*
X326162Y100323D03*
Y94811D03*
X331674Y88635D03*
Y83123D03*
X326162Y88635D03*
X331674Y129311D03*
X326162D03*
X331774Y123335D03*
Y117823D03*
Y112311D03*
X326262Y123335D03*
Y117823D03*
Y112311D03*
X331674Y105835D03*
X326162D03*
X331674Y140335D03*
Y134823D03*
X326162Y140335D03*
Y134823D03*
X332100Y154924D03*
Y149024D03*
Y162324D03*
X331900Y170824D03*
X337800Y170924D03*
X344300D03*
X344100Y180124D03*
X337600Y180324D03*
X331100Y180424D03*
X349500Y198224D03*
X346274Y305223D03*
Y299711D03*
X340762Y305223D03*
X335251D03*
Y299711D03*
X340762D03*
X346274Y310735D03*
X335251D03*
X340762D03*
X371000Y50324D03*
X371100Y43424D03*
X371200Y36724D03*
X351000Y61824D03*
X356500D03*
X371000Y57024D03*
X350800Y170824D03*
X356900Y170724D03*
X371400Y178024D03*
X371300Y170224D03*
X355300Y198224D03*
X371200Y203824D03*
X371300Y194724D03*
X371400Y186024D03*
X350800Y184924D03*
X371300Y253324D03*
X371400Y244524D03*
Y236824D03*
X365700Y236624D03*
X359750Y241924D03*
Y248224D03*
X370374Y276711D03*
X359351D03*
X364862D03*
X370374Y287735D03*
Y282223D03*
X359351Y287735D03*
X364862D03*
Y282223D03*
X359351D03*
G54D20*
X150960Y235721D03*
X272330Y235736D03*
G54D11*
X17000Y50000D03*
Y60000D03*
Y70000D03*
Y80000D03*
Y90000D03*
X70000Y17000D03*
X60000D03*
X100000D03*
X90000D03*
X80000D03*
X120000D03*
X110000D03*
X150000D03*
X140000D03*
X130000D03*
X126646Y297944D03*
X136646D03*
X146646D03*
X170000Y17000D03*
X160000D03*
X180000D03*
X196650Y210254D03*
X186650D03*
X176650Y260254D03*
X186650D03*
X196650D03*
X196646Y297944D03*
X222008Y17000D03*
X216650Y210254D03*
X206650D03*
Y260254D03*
X216650D03*
X206646Y297944D03*
X216646D03*
X242008Y17000D03*
X232008D03*
X246650Y210254D03*
X236650D03*
X226650D03*
X246650Y260254D03*
X226650D03*
X236650D03*
X294016Y17000D03*
X284016D03*
X298020Y260259D03*
X294016Y297944D03*
X324016Y17000D03*
X314016D03*
X304016D03*
X318020Y210259D03*
X308020D03*
Y260259D03*
X318020D03*
X304016Y297944D03*
X314016D03*
X348020Y210259D03*
X338020D03*
X328020D03*
Y260259D03*
X338020D03*
X348020D03*
X368020Y210259D03*
X358020D03*
X368020Y260259D03*
X358020D03*
G54D12*
X9650Y80000D03*
X3350D03*
X9832Y70000D03*
X3532D03*
X9650Y60000D03*
X3350D03*
X9650Y100000D03*
X3350D03*
X9650Y90000D03*
X3350D03*
X41750Y23024D03*
X35450D03*
X41750Y17024D03*
X35450D03*
X234550Y131124D03*
X228250D03*
G54D21*
X220600Y101263D03*
Y131185D03*
G54D13*
X17000Y100000D03*
X50000Y17000D03*
X156646Y297944D03*
X176650Y210254D03*
X212008Y17000D03*
X226646Y297944D03*
X274016Y17000D03*
X298020Y210259D03*
X324016Y297944D03*
G54D22*
X220600Y108924D03*
Y123524D03*
G54D14*
X47100Y25874D03*
Y32174D03*
X53100Y25874D03*
Y32174D03*
X120000Y25850D03*
Y32150D03*
Y36850D03*
Y43150D03*
X109900Y122874D03*
Y116574D03*
Y162636D03*
Y168936D03*
X146646Y282794D03*
Y289094D03*
X140646Y282794D03*
Y289094D03*
X152646Y282794D03*
Y289094D03*
X239900Y26050D03*
X233900D03*
X239900Y32350D03*
X233900D03*
X248300Y105874D03*
Y112174D03*
X242200D03*
Y105874D03*
G54D23*
X236500Y105194D03*
Y112674D03*
X227480Y108933D03*
G54D15*
X40986Y273524D03*
X60986D03*
X80986D03*
X100986D03*
G54D24*
X364016Y51978D03*
Y42922D03*
Y189318D03*
Y180262D03*
G54D16*
X93357Y213374D03*
X106743D03*
G54D17*
X150465Y190254D03*
Y220254D03*
X140465D03*
X160465Y190254D03*
Y220254D03*
X272332Y190254D03*
Y220254D03*
X262332D03*
X282332Y190254D03*
Y220254D03*
G54D18*
X140465Y190254D03*
X262332D03*
G54D19*
X150960Y255406D03*
X272330Y255421D03*
G54D10*
X17000Y50000D02*
G01X11700D01*
X17000D02*
G01X22300D01*
X17000D02*
G01Y44700D01*
X47100Y32174D02*
G01Y42313D01*
Y45313D02*
G01Y48313D01*
Y42313D02*
G01Y45313D01*
X50100Y48313D02*
G01X47100D01*
Y45313D02*
G01X50100Y48313D01*
X40150Y96374D02*
G01X43200D01*
Y96374D02*
G01X46200D01*
X158900Y119724D02*
G01Y100424D01*
X154850Y96374*
X46200*
X60000Y17000D02*
G01Y22300D01*
Y17000D02*
G01Y11700D01*
X120000Y36850D02*
G01X94574D01*
X83110Y48313*
X50100*
X53100Y32174D02*
G01Y34724D01*
Y34724D02*
G01Y37624D01*
Y37624D02*
G01Y40724D01*
X93357Y213374D02*
G01Y220404D01*
X90457D02*
G01Y216274D01*
X93357Y213374*
Y220404D02*
G01X90457D01*
X120000Y25850D02*
G01Y17000D01*
Y36850D02*
G01Y32150D01*
Y36850D02*
G01X135126D01*
X142200Y43924*
X209500*
X218647Y53071*
X241367*
X109900Y122874D02*
G01Y124824D01*
Y162636D02*
G01Y160624D01*
X106743Y213374D02*
G01Y218074D01*
Y213374D02*
G01Y208673D01*
Y213374D02*
G01X102543D01*
X106743D02*
G01X110943D01*
X126646Y297944D02*
G01X121346D01*
X126646D02*
G01Y303244D01*
Y297944D02*
G01Y292643D01*
X186650Y260254D02*
G01Y265554D01*
Y260254D02*
G01Y254953D01*
X212008Y17000D02*
G01Y22300D01*
Y17000D02*
G01X206708D01*
X212008D02*
G01Y11699D01*
X233900Y32350D02*
G01X230700D01*
X227500Y29150*
Y24724*
X222008Y19232*
Y17000*
X220600Y108924D02*
G01Y101263D01*
Y108924D02*
G01X227470D01*
X227480Y108933*
X220600Y123524D02*
G01Y131185D01*
Y131185D02*
G01X228189D01*
X228250Y131124*
X241367Y53071D02*
G01X244467D01*
Y53071D02*
G01X247467D01*
X239900Y32350D02*
G01X233900D01*
X234550Y131124D02*
G01Y134574D01*
Y134574D02*
G01Y137424D01*
X262332Y190254D02*
G01Y207691D01*
X238450Y231574*
Y242324*
Y248624D02*
G01Y242324D01*
X246650Y260254D02*
G01Y265554D01*
Y260254D02*
G01Y254953D01*
Y260254D02*
G01X251950D01*
X284016Y17000D02*
G01Y22300D01*
Y17000D02*
G01Y11700D01*
X282332Y190254D02*
G01Y208056D01*
X302800Y228524*
X354500*
X359750Y233774*
Y241924*
X308020Y260259D02*
G01Y265559D01*
Y260259D02*
G01Y254958D01*
X359750Y241924D02*
G01Y248224D01*
X368020Y260259D02*
G01Y265559D01*
Y260259D02*
G01Y254958D01*
G54D30*
X3350Y60000D02*
G01Y56530D01*
Y60000D02*
G01Y63470D01*
X3532Y70000D02*
G01Y73470D01*
Y70000D02*
G01Y66530D01*
X3350Y80000D02*
G01Y76530D01*
Y80000D02*
G01Y83470D01*
Y90000D02*
G01Y93470D01*
Y90000D02*
G01Y86530D01*
Y100000D02*
G01Y103470D01*
Y100000D02*
G01Y96530D01*
G54D25*
X306756Y154024D02*
G01X299356Y146624D01*
X214600*
X202900Y134924*
Y82324*
X198900Y78324*
X28800*
X20476Y70000*
X17000*
X9832D02*
G01X17000D01*
X311756Y153968D02*
G01X302812Y145024D01*
X215300*
X204500Y134224*
Y81624*
X199600Y76724*
X33724*
X17000Y60000*
X9650D02*
G01X17000D01*
Y100000D02*
G01X33776Y83224D01*
X195800*
X196600Y84024*
Y89124*
X196500Y89224*
X9650Y100000D02*
G01X17000D01*
X296756Y154124D02*
G01X292456Y149824D01*
X213200*
X199700Y136324*
Y83724*
X197600Y81624*
X28800*
X20424Y90000*
X17000*
X9650D02*
G01X17000D01*
Y80000D02*
G01X198276D01*
X201300Y83024*
Y135624*
X213900Y148224*
X296056*
X301756Y153924*
X9650Y80000D02*
G01X17000D01*
X281756Y75724D02*
G01X275500D01*
X272392Y78832*
X217908*
X202100Y63024*
X176700*
X175100Y64624*
X170900*
X169200Y66324*
X99700*
X92000Y74024*
X91900*
X248800Y142324D02*
G01X246600D01*
X245500Y143424*
X216000*
X206100Y133524*
Y80961*
X200263Y75124*
X97900*
X96800Y74024*
X101200Y72324D02*
G01X102400Y73524D01*
X200926*
X207700Y80298*
Y132824*
X216700Y141824*
X243300*
X245500Y139624*
X110000Y69024D02*
G01X168800D01*
X171600Y66224*
X175800*
X177400Y64624*
X201300*
X217108Y80432*
X282048*
X286756Y75724*
X106000Y70624D02*
G01X107300Y71924D01*
X174700*
X178800Y67824*
X199800*
X215700Y83724*
X286076*
X289400Y80400*
X317080*
X321756Y75724*
X170000Y17000D02*
G01X163724Y10724D01*
X136276*
X130000Y17000*
X140646Y282794D02*
G01Y281824D01*
X136646Y277824*
Y232878*
X141300Y228224*
X164563*
X174649Y218138*
X233086*
X236650Y214574*
Y210254*
X152646Y282794D02*
G01Y279370D01*
X150400Y277124*
X140700*
X139900Y276324*
Y237324*
X141000Y236224*
Y235324*
X146646Y282794D02*
G01Y279524D01*
X145846Y278724*
X140000*
X138300Y277024*
Y233524*
X142000Y229824*
X165263*
X175349Y219738*
X236786*
X246270Y210254*
X246650*
X146646Y289094D02*
G01Y297944D01*
X140646Y289094D02*
G01Y293944D01*
X136646Y297944*
X152646Y289094D02*
G01Y293944D01*
X156646Y297944*
X266756Y75724D02*
G01X254700D01*
X253192Y77232*
X218708*
X202900Y61424*
X178600*
X177100Y59924*
X172800Y68924D02*
G01X175400D01*
X178100Y66224*
X200500*
X216308Y82032*
X285448*
X291756Y75724*
X180000Y70524D02*
G01X200200D01*
X209300Y79624*
Y89924*
X211500Y92124*
X291756Y154024D02*
G01X289156Y151424D01*
X242000*
X239300Y154124*
Y199824*
X232238Y206885*
X231800Y207558*
Y214024*
X229286Y216538*
X182934*
X176650Y210254*
X216650D02*
G01X226650D01*
X239900Y26050D02*
G01Y19108D01*
X242008Y17000*
X316756Y75524D02*
G01X313480Y78800D01*
X298800*
X292800Y72800*
X254237*
X251100Y69663*
Y20400*
X247700Y17000*
X242008*
X233900Y26050D02*
G01Y18892D01*
X232008Y17000*
Y17000D02*
G01Y14592D01*
X235800Y10800*
X247200*
X252700Y16300*
Y69000*
X254900Y71200*
X293500*
X298024Y75724*
X301756*
X271756Y154180D02*
G01X270600Y153024D01*
X242700*
X240900Y154824*
Y206004*
X236650Y210254*
X244100Y156524D02*
G01X242500Y158124D01*
Y206104*
X246650Y210254*
X258500Y32100D02*
G01X256300D01*
X254300Y34100*
Y68324*
X255500Y69524*
X275600*
X276756Y68367*
X248300Y105874D02*
G01Y86424D01*
X324016Y17000D02*
G01X328100Y21084D01*
Y73424*
X319524Y82000*
X290124*
X286800Y85324*
X269400*
X268300Y86424*
X265900*
X276756Y154124D02*
G01X282956Y160324D01*
X295600*
X298020Y162744*
Y210259*
X281756Y154124D02*
G01X286356Y158724D01*
X296300*
X299700Y162124*
Y202424*
X301000Y203724*
X351485*
X358020Y210259*
X286756Y154124D02*
G01X289756Y157124D01*
X297000*
X301300Y161424*
Y201324*
X302100Y202124*
X359885*
X368020Y210259*
X314016Y17000D02*
G01Y12608D01*
X316200Y10424*
X326900*
X329700Y13224*
Y74124*
X316756Y87068*
Y144924*
X350800Y184924D02*
G01X319200D01*
X316756Y182480*
Y144924*
X338020Y210259D02*
G01X348020D01*
G54D26*
X35450Y17024D02*
G01Y23024D01*
Y23024D02*
G01X32570D01*
X35450D02*
G01Y26494D01*
Y17024D02*
G01X32570D01*
X35450D02*
G01Y13553D01*
X120000Y43150D02*
G01X116530D01*
X120000D02*
G01Y46030D01*
Y43150D02*
G01X123470D01*
X109900Y116574D02*
G01X106050D01*
X109900D02*
G01Y113694D01*
Y116574D02*
G01X113370D01*
X109900Y168936D02*
G01X106430D01*
X109900D02*
G01X113370D01*
X109900D02*
G01Y171817D01*
X236500Y105194D02*
G01Y101994D01*
X242200Y105874D02*
G01Y101624D01*
X236500Y105194D02*
G01X233300D01*
X236500D02*
G01Y108394D01*
X242200Y105874D02*
G01X241520Y105194D01*
X236500*
Y112674D02*
G01X236550Y112624D01*
X241750*
X242200Y112174*
Y112174D02*
G01X248300D01*
G54D27*
X40986Y273524D02*
G01Y279424D01*
Y273524D02*
G01X35086D01*
X40986D02*
G01Y267623D01*
Y273524D02*
G01X46886D01*
X80986D02*
G01Y279424D01*
Y273524D02*
G01X75086D01*
X80986D02*
G01X86886D01*
X80986D02*
G01Y267623D01*
X150960Y235721D02*
G01X146398D01*
X150960D02*
G01Y240284D01*
Y235721D02*
G01X155522D01*
X272330Y235736D02*
G01X267768D01*
X272330D02*
G01Y240299D01*
Y235736D02*
G01X276892D01*
X272330D02*
G01Y231174D01*
G54D28*
X140465Y190254D02*
G01X150465D01*
Y190254D02*
G01X160465D01*
X262332D02*
G01X272332D01*
Y190254D02*
G01X282332D01*
G54D29*
X216646Y297944D02*
G01Y285278D01*
X226650Y275274*
Y260254*
X304016Y297944D02*
G01Y289524D01*
X311016Y282524*
X321020*
X328020Y275524*
Y260259*
X338020D02*
G01Y285940D01*
X324016Y297944*
M02*
