M48
INCH,LZ
VER,1
FMAT,2
T01C0.015F1B1S6H2000
T02C0.032F1B1S6H2000
T03C0.033465F1B1S6H2000
T04C0.03937F1B1S6H2000
T05C0.04F1B1S6H2000
T06C0.042F1B1S6H2000
T07C0.062F1B1S6H2000
DETECT,ON
ATC,ON
%
T01
X002565Y000321
X003116
X003667
X002565Y000872
X003116
X003667
X002565Y001423
X003116
X000435Y002701
X000986
X001537
X000435Y003252
X000986
X001537
X000435Y003803
X000986
X001537
X00471Y004231
Y004531
Y004831
X004015Y009637
X00432
X00462
X000445Y011161
X000996
X001547
X000445Y011712
X000996
X001547
X000445Y012263
X000996
X001547
X000765Y016421
X001316
X001867
X003015Y016431
X003566
X004117
X000765Y016972
X001316
X001867
X003015Y016982
X003566
X004117
X000765Y017523
X001316
X001867
X003015Y017533
X003566
X004117
X002975Y019021
X003526
X004077
X000745Y019031
X001296
X001847
X002975Y019572
X003526
X004077
X000745Y019582
X001296
X001847
X002975Y020123
X003526
X004077
X000745Y020133
X001296
X001847
X000375Y023681
X000926
X001477
X000375Y024232
X000926
X001477
X000375Y024783
X000926
X001477
X000385Y027571
X000936
X001487
X000385Y028122
X000936
X001487
X000385Y028673
X000936
X001487
X002685Y030061
X003236
X003787
X002685Y030612
X003236
X003787
X002685Y031163
X003236
X003787
X009336Y02204
X009046
X007127Y016402
X006576
X006025
X00544Y016392
X007127Y015851
X006576
X006025
X00546Y015852
X00968Y007402
X00919
X00531Y004072
Y003762
Y003472
X00656Y002662
X00612
X0064Y002312
X01253Y002262
X01142Y002302
X01143Y002692
X01252Y002712
X011Y006902
X0106Y007062
X01012Y007232
X01099Y012482
Y016062
X014555Y019881
Y020432
X01455Y023352
X0141Y023532
X01445Y024042
X011306Y029361
X011857
X010755Y029912
X011306
X011857
X010755Y030463
X011306
X011857
X018217Y031093
X017666
X017115
X018217Y030542
X017666
X017115
X018217Y029991
X017666
X017115
X01576Y024062
X01581Y023382
X015657Y020432
X015106
X015657Y019881
X015106
X016437Y012523
X015886
X015335
X016437Y011972
X015886
X015335
X016437Y011421
X015886
X015335
X01965Y008922
X018Y007052
X01728Y006892
X01647Y006192
X01701Y006032
X01771Y005992
X01908Y005662
X01845
X01968Y005652
X01646Y005632
X017Y005602
X019606Y002033
X019055
X019606Y001482
X019055
X019606Y000931
X019055
X020157
Y001482
Y002033
X0246Y002912
X02459Y003462
X024137Y005307
X024447
X024747
X02031Y005652
X02483Y008642
X02115Y009212
X0234Y009532
X02424Y009542
X02438Y010022
X02121Y011222
X02287Y011552
X0212Y012142
X02286Y012442
X02121Y012992
X023455Y013457
Y013742
X02274Y013752
X02455Y013962
X02488Y014232
X02441Y015652
X02444Y024032
X020435Y024151
X020986
X021537
X023845Y024232
X020435Y024702
X020986
X021537
X023845Y024862
X02497Y024932
X020435Y025253
X020986
X021537
X02496Y025402
X026657Y031073
X026106
X025555
X026657Y030522
X026106
X025555
X026657Y029971
X026106
X025555
X02945Y026992
X02839Y024122
X0276Y024112
X02854Y023522
X02905Y023142
X02968Y023132
X027546Y020863
X026995
X027546Y020312
X026995
X0292Y020302
X027546Y019761
X026995
X0292Y019552
X02919Y018702
X027176Y015418
X029676Y015412
X028676
X028176
X027676
X029176Y015402
X029636Y012653
X029085
X029636Y012102
X029085
X029636Y011551
X029085
X02659Y008642
X029176Y007572
X028676
X028176
X026676
X027676Y006837
X02596Y004672
X02597Y004012
X02585Y00321
X02688Y002872
Y002362
X02784Y001012
X02701
X033495Y000901
X034046
X034597
X033495Y001452
X034046
X034597
X033495Y002003
X034046
X034597
X033435Y004941
X033986
X034537
X033435Y005492
X033986
X034537
X033435Y006043
X033986
X034537
X031676Y007552
X030176Y007572
X032176
X033167Y008312
X032616Y008863
X033167
X032616Y009481
X033167
X032616Y010032
X033167
X032616Y010583
X033167
X032626Y011231
X033177
X030187Y011551
X032626Y011782
X033177
X030187Y012102
X032626Y012333
X033177
X030187Y012653
X032616Y012931
X033167
X032616Y013482
X033167
X032616Y014033
X033167
X031676Y014492
X03321Y014902
X030176Y015392
X030676Y015402
X031176Y015397
X03321Y015492
X030645Y016122
X031196
X03321Y016232
X030645Y016873
X031196
X03319Y017082
X03378Y017092
X03443
X03441Y018012
X03376Y018032
X03311Y018042
X03495Y019822
X03153Y023402
X03076Y023422
X03155Y024162
X03154Y024982
X03015Y026982
X03077
X033525Y029971
X034076
X034627
X033525Y030522
X034076
X034627
X033525Y031073
X034076
X034627
X037037Y028773
X036486
X035935
X037037Y028222
X036486
X035935
X037037Y027671
X036486
X035935
X03713Y025332
X035975Y024822
X03714Y024452
X035975Y024192
X03714Y023682
X03657Y023662
X03712Y020382
X03553Y019822
X03713Y019472
X03714Y018602
X03508Y018492
X03714Y017802
X03508Y017082
X03569Y017072
X03713Y017022
X03565Y006182
X0351
X0371Y005702
Y005032
X03711Y004342
X03712Y003672
T02
X036402Y004292
Y005198
Y018026
Y018932
T03
X015096Y023572
Y025541
X027233Y025542
Y023574
T04
X014047Y019025
X015047
X016047
X014047Y022025
X015047
X016047
X026233Y019025
X027233
X028233
X026233Y022025
X027233
X028233
T05
X02206Y010126
Y013118
T06
X005Y0017
X006
X007
X008
X009
X01
X011
X012
X013
X014
X015
X016
X017
X018
X021201
X022201
X023201
X024201
X027402
X028402
X029402
X030402
X031402
X032402
X0017Y005
Y006
Y007
Y008
Y009
Y01
X017665Y021025
X018665
X019665
X020665
X021665
X022665
X023665
X024665
X029802Y021026
X030802
X031802
X032802
X033802
X034802
X035802
X036802
Y026026
X035802
X034802
X033802
X032802
X031802
X030802
X029802
X024665Y026025
X023665
X022665
X021665
X020665
X019665
X018665
X017665
X012665Y029794
X013665
X014665
X015665
X019665
X020665
X021665
X022665
X029402
X030402
X031402
X032402
T07
X004099Y027352
X006099
X008099
X010099
M30
