G04 CAM350/DFMSTREAM V12.1 (Build 1022) Date:  Tue Apr 14 21:03:29 2026 *
G04 Database: (Untitled) *
G04 Layer 6: SILK_SCREEN_TOP.art *
%FSLAX25Y25*%
%MOIN*%
%SFA1.000B1.000*%

%MIA0B0*%
%IPPOS*%
%ADD70C,0.00400*%
%ADD25C,0.00800*%
%ADD51C,0.00600*%
%ADD52C,0.00787*%
%ADD53C,0.00591*%
%ADD54C,0.00787*%
%ADD55C,0.01000*%
%ADD56C,0.00500*%
%ADD57C,0.00700*%
%ADD58C,0.00780*%
%ADD59C,0.00591*%
%ADD60C,0.00394*%
%ADD61C,0.00984*%
%ADD62C,0.00984*%
%ADD63C,0.01200*%
%ADD64C,0.01181*%
%LNSILK_SCREEN_TOP.art*%
%LPD*%
G36*
X219290Y142602D02*
G75*
G02X220732Y144108I1507J0D01*
X222304Y142602I65J-1506*
X220862Y141096I-1507J0*
X219290Y142602I-65J1506*
G37*
G36*
X46489Y217314D02*
G01X49245Y220070D01*
X52001Y217314*
X46489*
G37*
G36*
X356992Y171207D02*
G01Y174266D01*
X361936*
G03X361937Y174267I0J1*
G01Y178994*
G03X361936Y178995I-1J0*
G01X359004*
Y190495*
X361857*
G03X361858Y190496I0J1*
G01Y195305*
G03X361857Y195306I-1J0*
G01X356992*
Y198463*
X358091Y199562*
X361095*
Y196216*
G03X361096Y196215I1J0*
G01X367992*
Y173377*
X361092*
G03X361091Y173376I0J-1*
G01Y169774*
X358425*
X356992Y171207*
G37*
G36*
Y33867D02*
G01Y36926D01*
X361936*
G03X361937Y36927I0J1*
G01Y41654*
G03X361936Y41655I-1J0*
G01X359004*
Y53155*
X361857*
G03X361858Y53156I0J1*
G01Y57965*
G03X361857Y57966I-1J0*
G01X356992*
Y61123*
X358091Y62222*
X361095*
Y58876*
G03X361096Y58875I1J0*
G01X367992*
Y36037*
X361092*
G03X361091Y36036I0J-1*
G01Y32434*
X358425*
X356992Y33867*
G37*
G36*
X311122Y176784D02*
G01Y194304D01*
X317681*
Y186371*
G03X317682Y186370I1J0*
G01X325463*
G03X325464Y186371I0J1*
G01Y194304*
X331988*
Y176788*
X328638Y173437*
X325472*
Y181373*
G03X325471Y181374I-1J0*
G01X317686*
G03X317685Y181373I0J-1*
G01Y173437*
X314468*
X311122Y176784*
G37*
G36*
X253216Y245579D02*
G01X291444D01*
G02X272330Y226465I-19114J0*
G01X272244*
X272157Y226466*
X272071Y226467*
X271985Y226468*
G02X253216Y245579I345J19111*
G37*
G36*
X131846Y245564D02*
G01X170074D01*
G02X150960Y226450I-19114J0*
G01X150874*
X150787Y226451*
X150701Y226452*
X150615Y226453*
G02X131846Y245564I345J19111*
G37*
G36*
X71900Y75224D02*
G01Y90924D01*
X127300*
Y75224*
X71900*
G37*
G36*
X174920Y138544D02*
G01Y163383D01*
X187317*
Y152210*
G03X187318Y152209I1J0*
G01X194541*
G03X194542Y152210I0J1*
G01Y163418*
X207380*
Y138552*
X199168Y130339*
X194542*
Y141409*
G03X194541Y141410I-1J0*
G01X187318*
G03X187317Y141409I0J-1*
G01Y130347*
X187306Y130335*
X183128*
X174920Y138544*
G37*
G36*
X93920Y157507D02*
G01Y182346D01*
X106317*
Y171173*
G03X106318Y171172I1J0*
G01X113541*
G03X113542Y171173I0J1*
G01Y182381*
X126380*
Y157515*
X118168Y149302*
X113542*
Y160372*
G03X113541Y160373I-1J0*
G01X106318*
G03X106317Y160372I0J-1*
G01Y149310*
X106306Y149298*
X102128*
X93920Y157507*
G37*
G36*
X93420Y103129D02*
G01Y127995D01*
X101632Y136208*
X106258*
Y125138*
G03X106259Y125137I1J0*
G01X113482*
G03X113483Y125138I0J1*
G01Y136200*
X113494Y136212*
X117672*
X125880Y128003*
Y103164*
X113483*
Y114337*
G03X113482Y114338I-1J0*
G01X106259*
G03X106258Y114337I0J-1*
G01Y103129*
X93420*
G37*
G36*
X133512Y169418D02*
G01Y173595D01*
X141720Y181804*
X166559*
Y169406*
X155387*
G03X155386Y169405I0J-1*
G01Y162183*
G03X155387Y162182I1J0*
G01X166594*
Y151334*
G03X166595Y151333I1J0*
G01X171111*
X168355Y148577*
X166595Y150337*
G03X166594Y150336I0J-1*
G01Y149343*
X141728*
X133516Y157556*
Y162182*
X144586*
G03X144587Y162183I0J1*
G01Y169405*
G03X144586Y169406I-1J0*
G01X133524*
X133512Y169418*
G37*
G36*
X41100Y117224D02*
G01Y122724D01*
X49099*
G03X49100Y122725I0J1*
G01Y145723*
G03X49099Y145724I-1J0*
G01X41100*
Y151224*
X44100Y154224*
X77600*
X80600Y151224*
Y145724*
X73101*
G03X73100Y145723I0J-1*
G01Y122725*
G03X73101Y122724I1J0*
G01X80600*
Y117224*
X77600Y114224*
X44100*
X41100Y117224*
G37*
G36*
X79750Y205074D02*
G01Y209374D01*
X93249*
G03X93250Y209375I0J1*
G01Y219473*
G03X93249Y219474I-1J0*
G01X79850*
Y224174*
X90050Y234374*
X120350*
Y219474*
X106951*
G03X106950Y219473I0J-1*
G01Y209375*
G03X106951Y209374I1J0*
G01X120350*
Y194874*
X89950*
X79750Y205074*
G37*
%LPC*%
G36*
X125500Y77424D02*
G01Y88524D01*
X73700*
Y77424*
X125500*
G37*
%LPD*%
G54D70*
X51607Y234637D02*
G01X46883D01*
Y234637D02*
G01Y232275D01*
X45308Y234637D02*
G01Y263324D01*
X71292*
Y234637*
X45308*
X48000Y29500D02*
G01Y26000D01*
Y26000D02*
G01X50000Y24000D01*
X52000Y26000D02*
G01Y29500D01*
X50000Y24000D02*
G01X52000Y26000D01*
Y29500D02*
G01X48000D01*
X69717Y234637D02*
G01X64993D01*
X51607Y232275D02*
G01Y234637D01*
X64993D02*
G01Y232275D01*
X69717D02*
G01Y234637D01*
X172292Y134010D02*
G01Y105324D01*
X146308*
Y134010*
X172292*
X147883D02*
G01X152607D01*
X165993D02*
G01X170717D01*
X165993Y136372D02*
G01Y134010D01*
X152607D02*
G01Y136372D01*
X147883D02*
G01Y134010D01*
X170717D02*
G01Y136372D01*
X288200Y41724D02*
G01Y36524D01*
X309200Y41924D02*
G01Y36724D01*
G54D61*
X33535Y100000D02*
G03X33535Y100000I-492D01*
X115510Y140590D02*
G03X115510Y140590I-492D01*
X105274Y144920D02*
G03X105274Y144920I-492D01*
X129626Y170942D02*
G03X129626Y170942I-492D01*
X186274Y125958D02*
G03X186274Y125958I-492D01*
G54D56*
X41100Y110724D02*
G01X39600D01*
X37600Y113724D02*
G01Y112724D01*
X39600Y110724*
X37600Y122224D02*
G01Y115224D01*
X49100Y110724D02*
G01X42100D01*
X39600Y122224D02*
G01Y115224D01*
X49100Y112724D02*
G01X42100D01*
X38600Y117224D02*
G01Y114224D01*
X41100Y111724*
X54100D02*
G01X47100D01*
X44600D02*
G01X41100D01*
X38600Y121224D02*
G01Y119224D01*
X37100Y152224D02*
G01Y146224D01*
X39600Y152224D02*
G01Y146224D01*
X38600Y148224D02*
G01Y147224D01*
Y153224D02*
G01Y149224D01*
X37100Y154724D02*
G01Y153224D01*
X40600Y157224D02*
G01X39600D01*
X37100Y154724*
X49100Y157224D02*
G01X42100D01*
X49100Y155224D02*
G01X42100D01*
X44100Y156224D02*
G01X41600D01*
X38600Y153224*
X54100Y156224D02*
G01X47100D01*
X59100Y110724D02*
G01X52100D01*
X69100D02*
G01X62100D01*
X79100D02*
G01X72100D01*
X59100Y112724D02*
G01X52100D01*
X69100D02*
G01X62100D01*
X79100D02*
G01X72100D01*
X74100Y111724D02*
G01X67100D01*
X64100D02*
G01X57100D01*
X79100Y157224D02*
G01X72100D01*
X69100D02*
G01X62100D01*
X59100D02*
G01X52100D01*
X79100Y155224D02*
G01X72100D01*
X69100D02*
G01X62100D01*
X59100D02*
G01X52100D01*
X64100Y156224D02*
G01X57100D01*
X74100D02*
G01X67100D01*
X84078Y114472D02*
G01Y113472D01*
X81578Y110972*
X81600Y110724D02*
G01X80100D01*
X84100Y122224D02*
G01Y115224D01*
X82100Y122224D02*
G01Y115224D01*
X80100Y111724D02*
G01X77100D01*
X83100Y121224D02*
G01Y120224D01*
X83032Y118833D02*
G01Y114833D01*
X80032Y111833*
X84100Y152224D02*
G01Y146224D01*
X82100Y152224D02*
G01Y146224D01*
X80100Y156224D02*
G01X83100Y153224D01*
Y149224*
Y148224D02*
G01Y147224D01*
X84100Y154724D02*
G01X81600Y157224D01*
X80100*
X84100Y154724D02*
G01Y153224D01*
X80100Y156224D02*
G01X77100D01*
X132670Y185765D02*
G01Y224742D01*
X168260*
Y185765*
X132670*
X171650Y205254D02*
G01Y265254D01*
X251650*
Y205254*
X171650*
X255851Y89586D02*
G01Y79684D01*
X258725*
Y150551D02*
G01X255851D01*
Y140649*
X254537Y185765D02*
G01Y224742D01*
X290128*
Y185765*
X254537*
X373020Y205259D02*
G01X293020D01*
Y265259*
X373020*
Y205259*
X329788Y150551D02*
G01X331441D01*
Y79684*
X329788*
G54D54*
X30780Y40158D02*
G01Y109055D01*
X7945*
Y40158*
X30780*
X8024Y89331D02*
G01Y89291D01*
X12906*
Y60433*
X8220*
X8102Y102441D02*
G01X9913D01*
X12394Y99961*
X9953Y97520*
X8260*
X30780Y60945D02*
G01Y61299D01*
X105428Y103188D02*
G01X93420D01*
Y127995*
X101636Y136212*
X105428*
X105928Y182322D02*
G01X93920D01*
Y157515*
X102136Y149298*
X105928*
X85206Y186868D02*
G01X84025Y188049D01*
X85206*
X84025Y189230*
X85206*
X84025Y190411*
X85206*
X84025Y191592*
X84813Y192380*
X85206*
Y191986*
X84025Y190805*
X85206Y189624*
X84025Y188442*
X85206Y187261*
X84813Y186868*
X84025*
Y192380D02*
G01Y186868D01*
X85206*
Y192380*
X84025*
X87175Y186868D02*
G01Y192380D01*
X84025Y189624D02*
G01X82450D01*
X88750D02*
G01X87175D01*
X74576D02*
G01X73395D01*
X97411Y188836D02*
G01Y190411D01*
X98198Y189624D02*
G01X96624D01*
X75758Y193954D02*
G01X95442D01*
Y185293*
X75758*
Y193954*
X113872Y103188D02*
G01X125880D01*
Y127995*
X117664Y136212*
X113872*
X114372Y182322D02*
G01X126380D01*
Y157515*
X118164Y149298*
X114372*
X116803Y306999D02*
G01Y284164D01*
Y284164D02*
G01X166488D01*
Y306999D02*
G01X116803D01*
X166535Y161351D02*
G01Y149343D01*
X141728*
X133512Y157560*
Y161351*
X166535Y169796D02*
G01Y181804D01*
X141728*
X133512Y173587*
Y169796*
X140622Y182813D02*
G03X140622Y182813I-394D01*
X170645Y245564D02*
G03X170645Y245564I-19685D01*
X151646Y302471D02*
G01X131646D01*
Y302471D02*
G01Y306999D01*
X151354Y273123D02*
G03X151354Y273123I-394D01*
X151646Y302471D02*
G01Y306999D01*
X166488Y284164D02*
G01Y306999D01*
X186928Y163359D02*
G01X174920D01*
Y138552*
X183136Y130335*
X186928*
X195372Y163359D02*
G01X207380D01*
Y138552*
X199164Y130335*
X195372*
X186803Y306999D02*
G01Y284164D01*
Y284164D02*
G01X236488D01*
Y306999D02*
G01X186803D01*
X217008Y12472D02*
G01X237008D01*
X217008D02*
G01Y7944D01*
X202166Y30779D02*
G01Y7944D01*
Y7944D02*
G01X251851D01*
Y30779D02*
G01X202166D01*
X221646Y302471D02*
G01X201646D01*
X221646D02*
G01Y306999D01*
X201646Y302471D02*
G01Y306999D01*
X237008Y12472D02*
G01Y7944D01*
X236488Y284164D02*
G01Y306999D01*
X271575Y8102D02*
G01Y9913D01*
X274055Y12394*
X276496Y9953*
Y8260*
X333858Y30780D02*
G01X264961D01*
Y7945*
X333858*
Y30780*
X251851Y7944D02*
G01Y30779D01*
X262490Y182813D02*
G03X262490Y182813I-394D01*
X292015Y245579D02*
G03X292015Y245579I-19685D01*
X272724Y273138D02*
G03X272724Y273138I-394D01*
X284685Y8024D02*
G01X284725D01*
Y12906*
X313583*
Y8220*
X284173Y306999D02*
G01Y284164D01*
Y284164D02*
G01X333858D01*
Y306999D02*
G01X284173D01*
X313071Y30780D02*
G01X312717D01*
X319016Y302471D02*
G01X299016D01*
X319016D02*
G01Y306999D01*
X299016Y302471D02*
G01Y306999D01*
X327150Y154488D02*
G03X327150Y154488I-394D01*
X333858Y284164D02*
G01Y306999D01*
X355370Y51954D02*
G01X355910Y51415D01*
X357008Y53009D02*
G01Y42048D01*
X356862Y48434D02*
G01X357602D01*
X358343Y47694D02*
G01X357823D01*
X355370Y43064D02*
G01X355815Y43509D01*
X355484Y51454D02*
G01X355095Y51064D01*
X355484Y52029D02*
G01Y51454D01*
X354984Y52029D02*
G01X355484D01*
X354410Y51454D02*
G01X354984Y52029D01*
X355244Y50619D02*
G01X354410Y51454D01*
X355910Y51415D02*
G01X356040D01*
Y51265D02*
G01X355394Y50619D01*
Y50619D02*
G01X355244D01*
X356040Y51415D02*
G01Y51265D01*
X356866Y48702D02*
G01X356862D01*
X357752Y47548D02*
G01X356866Y48434D01*
X356713Y46584D02*
G01X357677Y47548D01*
Y47548D02*
G01X357752D01*
X357602Y48434D02*
G01X358343Y47694D01*
Y47249D02*
G01X357677Y46584D01*
Y46584D02*
G01X356713D01*
X358343Y47694D02*
G01Y47249D01*
X357823Y47694D02*
G01X357677Y47548D01*
X354949Y44489D02*
G01X354394Y43934D01*
Y43934D02*
G01Y43615D01*
X355394Y44489D02*
G01X354949D01*
X356059Y43824D02*
G01X355394Y44489D01*
X355244Y43950D02*
G01X354984Y44210D01*
X355244Y42765D02*
G01Y43950D01*
X354394Y43615D02*
G01X355244Y42765D01*
X355815Y43509D02*
G01X356059D01*
Y43509D02*
G01Y43824D01*
X369827Y51426D02*
G01X369437Y51037D01*
X369827Y52001D02*
G01Y51426D01*
X369327Y52001D02*
G01X369827D01*
X369713Y51926D02*
G01X370252Y51387D01*
X370382Y51237D02*
G01X369736Y50592D01*
X370252Y51387D02*
G01X370382D01*
X368752Y51426D02*
G01X369327Y52001D01*
X369587Y50592D02*
G01X368752Y51426D01*
X370382Y51387D02*
G01Y51237D01*
X371350Y52982D02*
G01Y42021D01*
X369736Y50592D02*
G01X369587D01*
X371209Y48674D02*
G01X371205D01*
X372020Y46556D02*
G01X371055D01*
X372685Y47666D02*
G01X372166D01*
Y47666D02*
G01X372020Y47521D01*
X372685Y47222D02*
G01X372020Y46556D01*
Y47521D02*
G01X372095D01*
X371055Y46556D02*
G01X372020Y47521D01*
X371945Y48407D02*
G01X372685Y47666D01*
X371205Y48407D02*
G01X371945D01*
X372095Y47521D02*
G01X371209Y48407D01*
X372685Y47666D02*
G01Y47222D01*
X369736Y44462D02*
G01X369292D01*
X370402Y43796D02*
G01X369736Y44462D01*
X369292D02*
G01X368736Y43907D01*
X369587Y43922D02*
G01X369327Y44182D01*
X369713Y43037D02*
G01X370158Y43482D01*
Y43482D02*
G01X370402D01*
X368736Y43588D02*
G01X369587Y42737D01*
Y42737D02*
G01Y43922D01*
X368736Y43907D02*
G01Y43588D01*
X370402Y43482D02*
G01Y43796D01*
X355370Y189294D02*
G01X355910Y188755D01*
X357008Y190349D02*
G01Y179388D01*
X356862Y185774D02*
G01X357602D01*
X358343Y185034D02*
G01X357823D01*
X355370Y180404D02*
G01X355815Y180849D01*
X355484Y188794D02*
G01X355095Y188404D01*
X355484Y189369D02*
G01Y188794D01*
X354984Y189369D02*
G01X355484D01*
X354410Y188794D02*
G01X354984Y189369D01*
X355244Y187959D02*
G01X354410Y188794D01*
X355910Y188755D02*
G01X356040D01*
Y188605D02*
G01X355394Y187959D01*
Y187959D02*
G01X355244D01*
X356040Y188755D02*
G01Y188605D01*
X356866Y186042D02*
G01X356862D01*
X357752Y184888D02*
G01X356866Y185774D01*
X356713Y183924D02*
G01X357677Y184888D01*
Y184888D02*
G01X357752D01*
X357602Y185774D02*
G01X358343Y185034D01*
Y184589D02*
G01X357677Y183924D01*
Y183924D02*
G01X356713D01*
X358343Y185034D02*
G01Y184589D01*
X357823Y185034D02*
G01X357677Y184888D01*
X354949Y181829D02*
G01X354394Y181274D01*
Y181274D02*
G01Y180955D01*
X355394Y181829D02*
G01X354949D01*
X356059Y181164D02*
G01X355394Y181829D01*
X355244Y181290D02*
G01X354984Y181550D01*
X355244Y180105D02*
G01Y181290D01*
X354394Y180955D02*
G01X355244Y180105D01*
X355815Y180849D02*
G01X356059D01*
Y180849D02*
G01Y181164D01*
X369827Y188766D02*
G01X369437Y188377D01*
X369827Y189341D02*
G01Y188766D01*
X369327Y189341D02*
G01X369827D01*
X369713Y189266D02*
G01X370252Y188727D01*
X370382Y188577D02*
G01X369736Y187932D01*
X370252Y188727D02*
G01X370382D01*
X368752Y188766D02*
G01X369327Y189341D01*
X369587Y187932D02*
G01X368752Y188766D01*
X370382Y188727D02*
G01Y188577D01*
X371350Y190322D02*
G01Y179361D01*
X369736Y187932D02*
G01X369587D01*
X371209Y186014D02*
G01X371205D01*
X372020Y183896D02*
G01X371055D01*
X372685Y185006D02*
G01X372166D01*
Y185006D02*
G01X372020Y184861D01*
X372685Y184562D02*
G01X372020Y183896D01*
Y184861D02*
G01X372095D01*
X371055Y183896D02*
G01X372020Y184861D01*
X371945Y185747D02*
G01X372685Y185006D01*
X371205Y185747D02*
G01X371945D01*
X372095Y184861D02*
G01X371209Y185747D01*
X372685Y185006D02*
G01Y184562D01*
X369736Y181802D02*
G01X369292D01*
X370402Y181136D02*
G01X369736Y181802D01*
X369292D02*
G01X368736Y181247D01*
X369587Y181262D02*
G01X369327Y181522D01*
X369713Y180377D02*
G01X370158Y180822D01*
Y180822D02*
G01X370402D01*
X368736Y180928D02*
G01X369587Y180077D01*
Y180077D02*
G01Y181262D01*
X368736Y181247D02*
G01Y180928D01*
X370402Y180822D02*
G01Y181136D01*
G54D51*
X47000Y209524D02*
G01X49200D01*
X48100Y208524D02*
G01Y210424D01*
X67300Y209324D02*
G01X69200D01*
G54D62*
X29656Y134224D02*
G03X29656Y134224I-492D01*
X73967Y200870D02*
G03X73967Y200870I-492D01*
X78477Y226960D02*
G03X78477Y226960I-492D01*
X145692Y137424D02*
G03X145692Y137424I-492D01*
X274508Y59764D02*
G03X274508Y59764I-492D01*
G54D57*
X144930Y73824D02*
G01Y79824D01*
X149930Y73824D02*
G01X129930D01*
Y79824D02*
G01Y73824D01*
Y85824D02*
G01Y91824D01*
Y85824D02*
G01X164930D01*
X144930D02*
G01Y91824D01*
X164930Y79824D02*
G01X129930D01*
Y79824D02*
G01Y85824D01*
Y91824D02*
G01X149930D01*
X144930Y79824D02*
G01Y85824D01*
X184930Y73824D02*
G01X149930D01*
X184930Y91824D02*
G01X149930D01*
X164930Y85824D02*
G01X184930D01*
Y79824D02*
G01X164930D01*
X184930Y73824D02*
G01Y79824D01*
Y85824D02*
G01Y79824D01*
Y85824D02*
G01Y91824D01*
G54D55*
X2750Y159424D02*
G01X47250D01*
Y165924*
X72250*
Y199924*
X47250*
Y206424*
X2750*
Y159424*
X80600Y122224D02*
G01Y117224D01*
X77600Y114224*
X44100*
X41100Y117224*
Y122224*
Y146224D02*
G01Y151224D01*
Y151224D02*
G01X44100Y154224D01*
X77600*
X80600Y151224*
Y146224*
X90986Y265524D02*
G01X30986D01*
X30956Y265539D02*
G01Y313539D01*
X30986Y313524D02*
G01X90986D01*
X55700Y209124D02*
G01X59700D01*
Y217124*
X55700*
X50400Y209124D02*
G01X65900D01*
X50500Y217124D02*
G01X66000D01*
X110986Y265524D02*
G01X50986D01*
Y313524D02*
G01X110986D01*
Y265524*
X50986Y308524D02*
G01Y313524D01*
X70986Y308524D02*
G01X50986D01*
X90986Y313524D02*
G01Y308524D01*
X70986*
X77041Y169639D02*
G03X77041Y169639I-1580D01*
G54D25*
X4000Y52350D02*
G01Y51517D01*
X2950*
X2600Y51767*
X2367Y52058*
X2250Y52475*
X2367Y52892*
X2600Y53183*
X2950Y53433*
X3358Y53600*
X3825Y53683*
X4233*
X4583Y53600*
X4992Y53433*
X5342Y53183*
X5575Y52933*
X5750Y52600*
Y52308*
X5633Y51975*
X5400Y51725*
X2250Y50958D02*
G01X5750D01*
X2250Y49042*
X5750*
X2250Y48317D02*
G01X5750D01*
Y47483*
X5575Y47150*
X5342Y46900*
X4992Y46692*
X4583Y46525*
X4000Y46483*
X3417Y46525*
X3008Y46692*
X2658Y46900*
X2425Y47150*
X2250Y47483*
Y48317*
X4117Y82267D02*
G01X4292Y82100D01*
X4583Y81975*
X4992Y81892*
X5342Y81975*
X5575Y82142*
X5750Y82433*
Y83558*
X2250*
Y82183*
X2483Y81892*
X2833Y81725*
X3242Y81642*
X3650Y81725*
X4000Y81975*
X4117Y82267*
Y83558*
X5750Y80000D02*
G01X2250D01*
X5750Y80958D02*
G01Y79042D01*
X2950Y78317D02*
G01X2542Y78067D01*
X2308Y77733*
X2250Y77358*
X2308Y77025*
X2600Y76692*
X2950Y76483*
X3300Y76442*
X3708Y76525*
X4000Y76817*
X4117Y77108*
Y77483*
Y77108D02*
G01X4292Y76858D01*
X4583Y76650*
X4933Y76567*
X5283Y76650*
X5575Y76858*
X5750Y77233*
X5692Y77608*
X5458Y77983*
X4117Y72267D02*
G01X4292Y72100D01*
X4583Y71975*
X4992Y71892*
X5342Y71975*
X5575Y72142*
X5750Y72433*
Y73558*
X2250*
Y72183*
X2483Y71892*
X2833Y71725*
X3242Y71642*
X3650Y71725*
X4000Y71975*
X4117Y72267*
Y73558*
X5750Y70000D02*
G01X2250D01*
X5750Y70958D02*
G01Y69042D01*
X2250Y66900D02*
G01X5750D01*
X3242Y68442*
Y66358*
X4117Y62267D02*
G01X4292Y62100D01*
X4583Y61975*
X4992Y61892*
X5342Y61975*
X5575Y62142*
X5750Y62433*
Y63558*
X2250*
Y62183*
X2483Y61892*
X2833Y61725*
X3242Y61642*
X3650Y61725*
X4000Y61975*
X4117Y62267*
Y63558*
X5750Y60000D02*
G01X2250D01*
X5750Y60958D02*
G01Y59042D01*
X2775Y58317D02*
G01X2483Y58067D01*
X2308Y57775*
X2250Y57400*
X2367Y57025*
X2600Y56733*
X3008Y56525*
X3475Y56483*
X3942Y56567*
X4233Y56775*
X4467Y57067*
X4525Y57358*
X4467Y57650*
X4233Y58025*
X5750Y57900*
Y56775*
X4117Y102267D02*
G01X4292Y102100D01*
X4583Y101975*
X4992Y101892*
X5342Y101975*
X5575Y102142*
X5750Y102433*
Y103558*
X2250*
Y102183*
X2483Y101892*
X2833Y101725*
X3242Y101642*
X3650Y101725*
X4000Y101975*
X4117Y102267*
Y103558*
X5750Y100000D02*
G01X2250D01*
X5750Y100958D02*
G01Y99042D01*
X2250Y97400D02*
G01X5750D01*
X5050Y97900*
X2250D02*
G01Y96900D01*
X4117Y92267D02*
G01X4292Y92100D01*
X4583Y91975*
X4992Y91892*
X5342Y91975*
X5575Y92142*
X5750Y92433*
Y93558*
X2250*
Y92183*
X2483Y91892*
X2833Y91725*
X3242Y91642*
X3650Y91725*
X4000Y91975*
X4117Y92267*
Y93558*
X5750Y90000D02*
G01X2250D01*
X5750Y90958D02*
G01Y89042D01*
X5167Y88192D02*
G01X5517Y87942D01*
X5692Y87650*
X5750Y87317*
X5633Y86900*
X5342Y86608*
X4992Y86525*
X4642Y86567*
X4350Y86733*
X3767Y87567*
X3358Y87942*
X2775Y88192*
X2250Y88275*
Y86525*
X12183Y141174D02*
G01Y144674D01*
X13017*
X13350Y144498*
X13600Y144265*
X13808Y143915*
X13975Y143507*
X14017Y142924*
X13975Y142340*
X13808Y141932*
X13600Y141582*
X13350Y141349*
X13017Y141174*
X12183*
X14908Y144090D02*
G01X15158Y144440D01*
X15450Y144615*
X15783Y144674*
X16200Y144557*
X16492Y144265*
X16575Y143915*
X16533Y143565*
X16367Y143274*
X15533Y142690*
X15158Y142282*
X14908Y141698*
X14825Y141174*
X16575*
X16330Y134174D02*
G01X12330Y137924D01*
X17130Y134174D02*
G01X11630D01*
X12330Y130424D02*
G01X16330Y134174D01*
Y137924D02*
G01Y130424D01*
X12330D02*
G01Y137924D01*
X3083Y212474D02*
G01Y209965D01*
X3250Y209440*
X3583Y209090*
X4000Y208974*
X4417Y209090*
X4750Y209440*
X4917Y209965*
Y212474*
X5808Y210432D02*
G01X6100Y210840D01*
X6350Y211074*
X6683Y211190*
X6975Y211074*
X7183Y210840*
X7350Y210490*
X7392Y210082*
X7350Y209732*
X7183Y209382*
X6933Y209090*
X6642Y208974*
X6308Y209090*
X6017Y209440*
X5850Y209965*
X5808Y210549*
X5892Y211307*
X6017Y211715*
X6225Y212124*
X6517Y212415*
X6808Y212474*
X7100Y212357*
X7308Y212065*
X22183Y253374D02*
G01Y256874D01*
X23017*
X23350Y256699*
X23600Y256465*
X23808Y256115*
X23975Y255707*
X24017Y255124*
X23975Y254540*
X23808Y254132*
X23600Y253782*
X23350Y253549*
X23017Y253374*
X22183*
X24783Y254074D02*
G01X25033Y253665D01*
X25367Y253432*
X25742Y253374*
X26075Y253432*
X26408Y253724*
X26617Y254074*
X26658Y254424*
X26575Y254832*
X26283Y255124*
X25992Y255240*
X25617*
X25992D02*
G01X26242Y255415D01*
X26450Y255707*
X26533Y256057*
X26450Y256407*
X26242Y256699*
X25867Y256874*
X25492Y256815*
X25117Y256582*
X46358Y5750D02*
G01X47400Y2250D01*
X48442Y5750*
X50917Y5458D02*
G01X50667Y5633D01*
X50375Y5750*
X50042*
X49667Y5575*
X49375Y5283*
X49167Y4933*
X49000Y4350*
X48958Y3825*
X49042Y3300*
X49167Y2950*
X49417Y2600*
X49708Y2367*
X50000Y2250*
X50292*
X50583Y2367*
X50833Y2542*
X51042Y2775*
X53517Y5458D02*
G01X53267Y5633D01*
X52975Y5750*
X52642*
X52267Y5575*
X51975Y5283*
X51767Y4933*
X51600Y4350*
X51558Y3825*
X51642Y3300*
X51767Y2950*
X52017Y2600*
X52308Y2367*
X52600Y2250*
X52892*
X53183Y2367*
X53433Y2542*
X53642Y2775*
X34417Y54790D02*
G01X34592Y54624D01*
X34883Y54499*
X35292Y54415*
X35642Y54499*
X35875Y54665*
X36050Y54957*
Y56082*
X32550*
Y54707*
X32783Y54415*
X33133Y54249*
X33542Y54165*
X33950Y54249*
X34300Y54499*
X34417Y54790*
Y56082*
X36050Y53440D02*
G01X33542D01*
X33017Y53274*
X32667Y52940*
X32550Y52524*
X32667Y52107*
X33017Y51774*
X33542Y51607*
X36050*
Y49924D02*
G01X32550D01*
X36050Y50882D02*
G01Y48965D01*
Y47324D02*
G01X32550D01*
X36050Y48282D02*
G01Y46365D01*
X32550Y44724D02*
G01X32608Y45057D01*
X32842Y45349*
X33192Y45599*
X33600Y45765*
X34067Y45849*
X34533*
X35000Y45765*
X35408Y45599*
X35758Y45349*
X35992Y45057*
X36050Y44724*
X35992Y44390*
X35758Y44099*
X35408Y43849*
X35000Y43682*
X34533Y43599*
X34067*
X33600Y43682*
X33192Y43849*
X32842Y44099*
X32608Y44390*
X32550Y44724*
Y43082D02*
G01X36050D01*
X32550Y41165*
X36050*
X42767Y33374D02*
G01X42975Y33024D01*
X43225Y32790*
X43517Y32674*
X43850Y32790*
X44100Y33024*
X44350Y33374*
X44433Y33840*
Y36174*
X46700Y32674D02*
G01Y36174D01*
X45158Y33665*
X47242*
X43117Y78500D02*
G01Y82000D01*
X44158*
X44492Y81825*
X44700Y81592*
X44783Y81125*
X44700Y80658*
X44450Y80367*
X44158Y80192*
X43117*
X44158D02*
G01X44783Y78500D01*
X45758Y79958D02*
G01X46050Y80367D01*
X46300Y80600*
X46633Y80717*
X46925Y80600*
X47133Y80367*
X47300Y80017*
X47342Y79608*
X47300Y79258*
X47133Y78908*
X46883Y78617*
X46592Y78500*
X46258Y78617*
X45967Y78967*
X45800Y79492*
X45758Y80075*
X45842Y80833*
X45967Y81242*
X46175Y81650*
X46467Y81942*
X46758Y82000*
X47050Y81883*
X47258Y81592*
X43117Y72500D02*
G01Y76000D01*
X44158*
X44492Y75825*
X44700Y75592*
X44783Y75125*
X44700Y74658*
X44450Y74367*
X44158Y74192*
X43117*
X44158D02*
G01X44783Y72500D01*
X46467D02*
G01X46550Y73258D01*
X46675Y73900*
X46842Y74483*
X47050Y75125*
X47383Y76000*
X45717*
X43117Y66500D02*
G01Y70000D01*
X44158*
X44492Y69825*
X44700Y69592*
X44783Y69125*
X44700Y68658*
X44450Y68367*
X44158Y68192*
X43117*
X44158D02*
G01X44783Y66500D01*
X46550D02*
G01X46842Y66558D01*
X47175Y66733*
X47383Y67025*
X47467Y67433*
X47383Y67842*
X47133Y68192*
X46758Y68367*
X46342*
X46092Y68483*
X45883Y68775*
X45800Y69183*
X45925Y69592*
X46217Y69883*
X46550Y70000*
X46883Y69883*
X47175Y69592*
X47300Y69183*
X47217Y68775*
X47008Y68483*
X46758Y68367*
X46342*
X45967Y68192*
X45717Y67842*
X45633Y67433*
X45717Y67025*
X45925Y66733*
X46258Y66558*
X46550Y66500*
X32067Y104974D02*
G01X32275Y104624D01*
X32525Y104390*
X32817Y104274*
X33150Y104390*
X33400Y104624*
X33650Y104974*
X33733Y105440*
Y107774*
X34583Y104798D02*
G01X34833Y104507D01*
X35125Y104332*
X35500Y104274*
X35875Y104390*
X36167Y104624*
X36375Y105032*
X36417Y105499*
X36333Y105965*
X36125Y106257*
X35833Y106490*
X35542Y106548*
X35250Y106490*
X34875Y106257*
X35000Y107774*
X36125*
X43117Y90500D02*
G01Y94000D01*
X44158*
X44492Y93825*
X44700Y93592*
X44783Y93125*
X44700Y92658*
X44450Y92367*
X44158Y92192*
X43117*
X44158D02*
G01X44783Y90500D01*
X46550D02*
G01Y94000D01*
X46050Y93300*
Y90500D02*
G01X47050D01*
X43117Y84500D02*
G01Y88000D01*
X44158*
X44492Y87825*
X44700Y87592*
X44783Y87125*
X44700Y86658*
X44450Y86367*
X44158Y86192*
X43117*
X44158D02*
G01X44783Y84500D01*
X45633Y85025D02*
G01X45883Y84733D01*
X46175Y84558*
X46550Y84500*
X46925Y84617*
X47217Y84850*
X47425Y85258*
X47467Y85725*
X47383Y86192*
X47175Y86483*
X46883Y86717*
X46592Y86775*
X46300Y86717*
X45925Y86483*
X46050Y88000*
X47175*
X36850Y219390D02*
G01X33350D01*
Y220432*
X33525Y220765*
X33758Y220974*
X34225Y221057*
X34692Y220974*
X34983Y220724*
X35158Y220432*
Y219390*
Y220432D02*
G01X36850Y221057D01*
X33933Y222032D02*
G01X33583Y222282D01*
X33408Y222574*
X33350Y222907*
X33467Y223324*
X33758Y223615*
X34108Y223699*
X34458Y223657*
X34750Y223490*
X35333Y222657*
X35742Y222282*
X36325Y222032*
X36850Y221949*
Y223699*
X36150Y224507D02*
G01X36558Y224757D01*
X36792Y225090*
X36850Y225465*
X36792Y225799*
X36500Y226132*
X36150Y226340*
X35800Y226382*
X35392Y226299*
X35100Y226007*
X34983Y225715*
Y225340*
Y225715D02*
G01X34808Y225965D01*
X34517Y226174*
X34167Y226257*
X33817Y226174*
X33525Y225965*
X33350Y225590*
X33408Y225215*
X33642Y224840*
X32167Y253374D02*
G01Y256874D01*
X33208*
X33542Y256699*
X33750Y256465*
X33833Y255999*
X33750Y255532*
X33500Y255240*
X33208Y255065*
X32167*
X33208D02*
G01X33833Y253374D01*
X35600D02*
G01Y256874D01*
X35100Y256174*
Y253374D02*
G01X36100D01*
X38117D02*
G01X38200Y254132D01*
X38325Y254774*
X38492Y255357*
X38700Y255999*
X39033Y256874*
X37367*
X41200Y235874D02*
G01X40867Y235932D01*
X40575Y236165*
X40325Y236515*
X40158Y236924*
X40075Y237390*
Y237857*
X40158Y238324*
X40325Y238732*
X40575Y239082*
X40867Y239315*
X41200Y239374*
X41533Y239315*
X41825Y239082*
X42075Y238732*
X42242Y238324*
X42325Y237857*
Y237390*
X42242Y236924*
X42075Y236515*
X41825Y236165*
X41533Y235932*
X41200Y235874*
X41533Y236807D02*
G01X42033Y235874D01*
X43800D02*
G01Y239374D01*
X43300Y238674*
Y235874D02*
G01X44300D01*
X57650Y4000D02*
G01X58483D01*
Y2950*
X58233Y2600*
X57942Y2367*
X57525Y2250*
X57108Y2367*
X56817Y2600*
X56567Y2950*
X56400Y3358*
X56317Y3825*
Y4233*
X56400Y4583*
X56567Y4992*
X56817Y5342*
X57067Y5575*
X57400Y5750*
X57692*
X58025Y5633*
X58275Y5400*
X59042Y2250D02*
G01Y5750D01*
X60958Y2250*
Y5750*
X61683Y2250D02*
G01Y5750D01*
X62517*
X62850Y5575*
X63100Y5342*
X63308Y4992*
X63475Y4583*
X63517Y4000*
X63475Y3417*
X63308Y3008*
X63100Y2658*
X62850Y2425*
X62517Y2250*
X61683*
X69617Y5458D02*
G01X69367Y5633D01*
X69075Y5750*
X68742*
X68367Y5575*
X68075Y5283*
X67867Y4933*
X67700Y4350*
X67658Y3825*
X67742Y3300*
X67867Y2950*
X68117Y2600*
X68408Y2367*
X68700Y2250*
X68992*
X69283Y2367*
X69533Y2542*
X69742Y2775*
X70425Y2717D02*
G01X70758Y2425D01*
X71133Y2250*
X71467*
X71800Y2425*
X72050Y2717*
X72175Y3125*
X72092Y3533*
X71883Y3883*
X71508Y4117*
X71008Y4233*
X70717Y4467*
X70592Y4875*
X70675Y5283*
X70883Y5575*
X71175Y5750*
X71467*
X71758Y5633*
X72008Y5342*
X55583Y204274D02*
G01Y207774D01*
X56417*
X56750Y207599*
X57000Y207365*
X57208Y207015*
X57375Y206607*
X57417Y206024*
X57375Y205440*
X57208Y205032*
X57000Y204682*
X56750Y204449*
X56417Y204274*
X55583*
X58308Y207774D02*
G01X59892D01*
X58308Y204274*
X59892*
X61700D02*
G01Y207774D01*
X61200Y207074*
Y204274D02*
G01X62200D01*
X57200Y215424D02*
G01X59600Y213024D01*
X57100Y210524*
Y215424*
X54500Y213024D02*
G01X61900D01*
X76567Y2250D02*
G01Y5750D01*
X77608*
X77942Y5575*
X78150Y5342*
X78233Y4875*
X78150Y4408*
X77900Y4117*
X77608Y3942*
X76567*
X77608D02*
G01X78233Y2250D01*
X79125Y2717D02*
G01X79458Y2425D01*
X79833Y2250*
X80167*
X80500Y2425*
X80750Y2717*
X80875Y3125*
X80792Y3533*
X80583Y3883*
X80208Y4117*
X79708Y4233*
X79417Y4467*
X79292Y4875*
X79375Y5283*
X79583Y5575*
X79875Y5750*
X80167*
X80458Y5633*
X80708Y5342*
X82600Y5750D02*
G01Y2250D01*
X81642Y5750D02*
G01X83558D01*
X87783Y2250D02*
G01Y5750D01*
X88617*
X88950Y5575*
X89200Y5342*
X89408Y4992*
X89575Y4583*
X89617Y4000*
X89575Y3417*
X89408Y3008*
X89200Y2658*
X88950Y2425*
X88617Y2250*
X87783*
X92217Y5458D02*
G01X91967Y5633D01*
X91675Y5750*
X91342*
X90967Y5575*
X90675Y5283*
X90467Y4933*
X90300Y4350*
X90258Y3825*
X90342Y3300*
X90467Y2950*
X90717Y2600*
X91008Y2367*
X91300Y2250*
X91592*
X91883Y2367*
X92133Y2542*
X92342Y2775*
X96525Y2717D02*
G01X96858Y2425D01*
X97233Y2250*
X97567*
X97900Y2425*
X98150Y2717*
X98275Y3125*
X98192Y3533*
X97983Y3883*
X97608Y4117*
X97108Y4233*
X96817Y4467*
X96692Y4875*
X96775Y5283*
X96983Y5575*
X97275Y5750*
X97567*
X97858Y5633*
X98108Y5342*
X99083Y2250D02*
G01Y5750D01*
X99917*
X100250Y5575*
X100500Y5342*
X100708Y4992*
X100875Y4583*
X100917Y4000*
X100875Y3417*
X100708Y3008*
X100500Y2658*
X100250Y2425*
X99917Y2250*
X99083*
X102100Y5750D02*
G01X103100D01*
X102600D02*
G01Y2250D01*
X102100D02*
G01X103100D01*
X75367Y109174D02*
G01Y105674D01*
X77033*
X78800D02*
G01Y109174D01*
X78300Y108474*
Y105674D02*
G01X79300D01*
X92550Y167090D02*
G01X89050D01*
Y168132*
X89225Y168465*
X89458Y168674*
X89925Y168757*
X90392Y168674*
X90683Y168424*
X90858Y168132*
Y167090*
Y168132D02*
G01X92550Y168757D01*
X89633Y169732D02*
G01X89283Y169982D01*
X89108Y170274*
X89050Y170607*
X89167Y171024*
X89458Y171315*
X89808Y171399*
X90158Y171357*
X90450Y171190*
X91033Y170357*
X91442Y169982*
X92025Y169732*
X92550Y169649*
Y171399*
X89050Y173124D02*
G01X89167Y172790D01*
X89458Y172540*
X89808Y172374*
X90275Y172249*
X90800Y172207*
X91325Y172249*
X91792Y172374*
X92142Y172540*
X92433Y172790*
X92550Y173124*
X92433Y173457*
X92142Y173707*
X91792Y173874*
X91325Y173999*
X90800Y174040*
X90275Y173999*
X89808Y173874*
X89458Y173707*
X89167Y173457*
X89050Y173124*
X89242Y159840D02*
G01X89067Y159590D01*
X88950Y159299*
Y158965*
X89125Y158590*
X89417Y158299*
X89767Y158090*
X90350Y157924*
X90875Y157882*
X91400Y157965*
X91750Y158090*
X92100Y158340*
X92333Y158632*
X92450Y158924*
Y159215*
X92333Y159507*
X92158Y159757*
X91925Y159965*
X91750Y160607D02*
G01X92158Y160857D01*
X92392Y161190*
X92450Y161565*
X92392Y161899*
X92100Y162232*
X91750Y162440*
X91400Y162482*
X90992Y162399*
X90700Y162107*
X90583Y161815*
Y161440*
Y161815D02*
G01X90408Y162065D01*
X90117Y162274*
X89767Y162357*
X89417Y162274*
X89125Y162065*
X88950Y161690*
X89008Y161315*
X89242Y160940*
X91750Y163207D02*
G01X92158Y163457D01*
X92392Y163790*
X92450Y164165*
X92392Y164499*
X92100Y164832*
X91750Y165040*
X91400Y165082*
X90992Y164999*
X90700Y164707*
X90583Y164415*
Y164040*
Y164415D02*
G01X90408Y164665D01*
X90117Y164874*
X89767Y164957*
X89417Y164874*
X89125Y164665*
X88950Y164290*
X89008Y163915*
X89242Y163540*
X79567Y179774D02*
G01Y183274D01*
X80608*
X80942Y183098*
X81150Y182865*
X81233Y182399*
X81150Y181932*
X80900Y181640*
X80608Y181465*
X79567*
X80608D02*
G01X81233Y179774D01*
X82208Y182690D02*
G01X82458Y183040D01*
X82750Y183215*
X83083Y183274*
X83500Y183157*
X83792Y182865*
X83875Y182515*
X83833Y182165*
X83667Y181874*
X82833Y181290*
X82458Y180882*
X82208Y180298*
X82125Y179774*
X83875*
X85600D02*
G01Y183274D01*
X85100Y182574*
Y179774D02*
G01X86100D01*
X77617Y198182D02*
G01X77367Y198357D01*
X77075Y198474*
X76742*
X76367Y198298*
X76075Y198007*
X75867Y197657*
X75700Y197074*
X75658Y196549*
X75742Y196024*
X75867Y195674*
X76117Y195323*
X76408Y195090*
X76700Y194974*
X76992*
X77283Y195090*
X77533Y195265*
X77742Y195498*
X78383Y195674D02*
G01X78633Y195265D01*
X78967Y195032*
X79342Y194974*
X79675Y195032*
X80008Y195323*
X80217Y195674*
X80258Y196024*
X80175Y196432*
X79883Y196723*
X79592Y196840*
X79217*
X79592D02*
G01X79842Y197015D01*
X80050Y197307*
X80133Y197657*
X80050Y198007*
X79842Y198298*
X79467Y198474*
X79092Y198415*
X78717Y198182*
X81900Y194974D02*
G01Y198474D01*
X81400Y197774*
Y194974D02*
G01X82400D01*
X84883Y240574D02*
G01Y244074D01*
X85717*
X86050Y243899*
X86300Y243665*
X86508Y243315*
X86675Y242907*
X86717Y242324*
X86675Y241740*
X86508Y241332*
X86300Y240982*
X86050Y240749*
X85717Y240574*
X84883*
X87608Y242032D02*
G01X87900Y242440D01*
X88150Y242674*
X88483Y242790*
X88775Y242674*
X88983Y242440*
X89150Y242090*
X89192Y241682*
X89150Y241332*
X88983Y240982*
X88733Y240690*
X88442Y240574*
X88108Y240690*
X87817Y241040*
X87650Y241565*
X87608Y242149*
X87692Y242907*
X87817Y243315*
X88025Y243724*
X88317Y244015*
X88608Y244074*
X88900Y243957*
X89108Y243665*
X77935Y239794D02*
G01X81685Y243794D01*
X77935Y238994D02*
G01Y244494D01*
X74185Y243794D02*
G01X77935Y239794D01*
X81685D02*
G01X74185D01*
Y243794D02*
G01X81685D01*
X106525Y2717D02*
G01X106858Y2425D01*
X107233Y2250*
X107567*
X107900Y2425*
X108150Y2717*
X108275Y3125*
X108192Y3533*
X107983Y3883*
X107608Y4117*
X107108Y4233*
X106817Y4467*
X106692Y4875*
X106775Y5283*
X106983Y5575*
X107275Y5750*
X107567*
X107858Y5633*
X108108Y5342*
X110917Y5458D02*
G01X110667Y5633D01*
X110375Y5750*
X110042*
X109667Y5575*
X109375Y5283*
X109167Y4933*
X109000Y4350*
X108958Y3825*
X109042Y3300*
X109167Y2950*
X109417Y2600*
X109708Y2367*
X110000Y2250*
X110292*
X110583Y2367*
X110833Y2542*
X111042Y2775*
X111683Y2250D02*
G01Y5750D01*
X113267D02*
G01X111683Y3592D01*
X113517Y2250D02*
G01X112392Y4583D01*
X116567Y5750D02*
G01Y2250D01*
X118233*
X120833D02*
G01X119167D01*
Y5750*
X120833*
X120167Y4058D02*
G01X119167D01*
X121683Y2250D02*
G01Y5750D01*
X122517*
X122850Y5575*
X123100Y5342*
X123308Y4992*
X123475Y4583*
X123517Y4000*
X123475Y3417*
X123308Y3008*
X123100Y2658*
X122850Y2425*
X122517Y2250*
X121683*
X101617Y101282D02*
G01X101367Y101457D01*
X101075Y101574*
X100742*
X100367Y101399*
X100075Y101107*
X99867Y100757*
X99700Y100174*
X99658Y99649*
X99742Y99124*
X99867Y98774*
X100117Y98424*
X100408Y98190*
X100700Y98074*
X100992*
X101283Y98190*
X101533Y98365*
X101742Y98598*
X102383Y98774D02*
G01X102633Y98365D01*
X102967Y98132*
X103342Y98074*
X103675Y98132*
X104008Y98424*
X104217Y98774*
X104258Y99124*
X104175Y99532*
X103883Y99824*
X103592Y99940*
X103217*
X103592D02*
G01X103842Y100115D01*
X104050Y100407*
X104133Y100757*
X104050Y101107*
X103842Y101399*
X103467Y101574*
X103092Y101515*
X102717Y101282*
X117917Y186982D02*
G01X117667Y187157D01*
X117375Y187274*
X117042*
X116667Y187098*
X116375Y186807*
X116167Y186457*
X116000Y185874*
X115958Y185349*
X116042Y184824*
X116167Y184474*
X116417Y184124*
X116708Y183890*
X117000Y183774*
X117292*
X117583Y183890*
X117833Y184065*
X118042Y184298*
X119600Y183774D02*
G01Y187274D01*
X119100Y186574*
Y183774D02*
G01X120100D01*
X122200Y187274D02*
G01X121867Y187157D01*
X121617Y186865*
X121450Y186515*
X121325Y186048*
X121283Y185524*
X121325Y184999*
X121450Y184532*
X121617Y184182*
X121867Y183890*
X122200Y183774*
X122533Y183890*
X122783Y184182*
X122950Y184532*
X123075Y184999*
X123117Y185524*
X123075Y186048*
X122950Y186515*
X122783Y186865*
X122533Y187157*
X122200Y187274*
X123717Y225082D02*
G01X123467Y225257D01*
X123175Y225374*
X122842*
X122467Y225199*
X122175Y224907*
X121967Y224557*
X121800Y223974*
X121758Y223449*
X121842Y222924*
X121967Y222574*
X122217Y222224*
X122508Y221990*
X122800Y221874*
X123092*
X123383Y221990*
X123633Y222165*
X123842Y222399*
X124608Y224790D02*
G01X124858Y225140D01*
X125150Y225315*
X125483Y225374*
X125900Y225257*
X126192Y224965*
X126275Y224615*
X126233Y224265*
X126067Y223974*
X125233Y223390*
X124858Y222982*
X124608Y222399*
X124525Y221874*
X126275*
X133300Y278090D02*
G01Y281590D01*
X134258Y278090D02*
G01X132342D01*
X130367Y279724D02*
G01X130200Y279549D01*
X130075Y279257*
X129992Y278849*
X130075Y278499*
X130242Y278265*
X130533Y278090*
X131658*
Y281590*
X130283*
X129992Y281357*
X129825Y281007*
X129742Y280599*
X129825Y280190*
X130075Y279840*
X130367Y279724*
X131658*
X129350Y282757D02*
G01X126850D01*
X126292Y280132D02*
G01X126000Y279724D01*
X125750Y279490*
X125417Y279374*
X125125Y279490*
X124917Y279724*
X124750Y280074*
X124708Y280482*
X124750Y280832*
X124917Y281182*
X125167Y281474*
X125458Y281590*
X125792Y281474*
X126083Y281124*
X126250Y280599*
X126292Y280015*
X126208Y279257*
X126083Y278849*
X125875Y278440*
X125583Y278149*
X125292Y278090*
X125000Y278207*
X124792Y278499*
X123692Y280132D02*
G01X123400Y279724D01*
X123150Y279490*
X122817Y279374*
X122525Y279490*
X122317Y279724*
X122150Y280074*
X122108Y280482*
X122150Y280832*
X122317Y281182*
X122567Y281474*
X122858Y281590*
X123192Y281474*
X123483Y281124*
X123650Y280599*
X123692Y280015*
X123608Y279257*
X123483Y278849*
X123275Y278440*
X122983Y278149*
X122692Y278090*
X122400Y278207*
X122192Y278499*
X120300Y278090D02*
G01X120633Y278207D01*
X120883Y278499*
X121050Y278849*
X121175Y279315*
X121217Y279840*
X121175Y280365*
X121050Y280832*
X120883Y281182*
X120633Y281474*
X120300Y281590*
X119967Y281474*
X119717Y281182*
X119550Y280832*
X119425Y280365*
X119383Y279840*
X119425Y279315*
X119550Y278849*
X119717Y278499*
X119967Y278207*
X120300Y278090*
X117700D02*
G01X118033Y278207D01*
X118283Y278499*
X118450Y278849*
X118575Y279315*
X118617Y279840*
X118575Y280365*
X118450Y280832*
X118283Y281182*
X118033Y281474*
X117700Y281590*
X117367Y281474*
X117117Y281182*
X116950Y280832*
X116825Y280365*
X116783Y279840*
X116825Y279315*
X116950Y278849*
X117117Y278499*
X117367Y278207*
X117700Y278090*
X110733Y262574D02*
G01X110525Y262924D01*
X110275Y263157*
X109983Y263274*
X109650Y263157*
X109400Y262924*
X109150Y262574*
X109067Y262107*
Y259774*
X108092Y260357D02*
G01X107842Y260007D01*
X107550Y259832*
X107217Y259774*
X106800Y259890*
X106508Y260182*
X106425Y260532*
X106467Y260882*
X106633Y261174*
X107467Y261757*
X107842Y262165*
X108092Y262749*
X108175Y263274*
X106425*
X126525Y2717D02*
G01X126858Y2425D01*
X127233Y2250*
X127567*
X127900Y2425*
X128150Y2717*
X128275Y3125*
X128192Y3533*
X127983Y3883*
X127608Y4117*
X127108Y4233*
X126817Y4467*
X126692Y4875*
X126775Y5283*
X126983Y5575*
X127275Y5750*
X127567*
X127858Y5633*
X128108Y5342*
X129083Y2250D02*
G01Y5750D01*
X129917*
X130250Y5575*
X130500Y5342*
X130708Y4992*
X130875Y4583*
X130917Y4000*
X130875Y3417*
X130708Y3008*
X130500Y2658*
X130250Y2425*
X129917Y2250*
X129083*
X132600D02*
G01X132267Y2308D01*
X131975Y2542*
X131725Y2892*
X131558Y3300*
X131475Y3767*
Y4233*
X131558Y4700*
X131725Y5108*
X131975Y5458*
X132267Y5692*
X132600Y5750*
X132933Y5692*
X133225Y5458*
X133475Y5108*
X133642Y4700*
X133725Y4233*
Y3767*
X133642Y3300*
X133475Y2892*
X133225Y2542*
X132933Y2308*
X132600Y2250*
X138317Y5458D02*
G01X138067Y5633D01*
X137775Y5750*
X137442*
X137067Y5575*
X136775Y5283*
X136567Y4933*
X136400Y4350*
X136358Y3825*
X136442Y3300*
X136567Y2950*
X136817Y2600*
X137108Y2367*
X137400Y2250*
X137692*
X137983Y2367*
X138233Y2542*
X138442Y2775*
X139167Y5750D02*
G01Y2250D01*
X140833*
X141683D02*
G01Y5750D01*
X143267D02*
G01X141683Y3592D01*
X143517Y2250D02*
G01X142392Y4583D01*
X149617Y5458D02*
G01X149367Y5633D01*
X149075Y5750*
X148742*
X148367Y5575*
X148075Y5283*
X147867Y4933*
X147700Y4350*
X147658Y3825*
X147742Y3300*
X147867Y2950*
X148117Y2600*
X148408Y2367*
X148700Y2250*
X148992*
X149283Y2367*
X149533Y2542*
X149742Y2775*
X150425Y2717D02*
G01X150758Y2425D01*
X151133Y2250*
X151467*
X151800Y2425*
X152050Y2717*
X152175Y3125*
X152092Y3533*
X151883Y3883*
X151508Y4117*
X151008Y4233*
X150717Y4467*
X150592Y4875*
X150675Y5283*
X150883Y5575*
X151175Y5750*
X151467*
X151758Y5633*
X152008Y5342*
X134358Y78874D02*
G01X135400Y75374D01*
X136442Y78874*
X137375Y76949D02*
G01X138708D01*
X138583Y77357*
X138375Y77590*
X138083Y77707*
X137792Y77648*
X137542Y77474*
X137375Y77065*
X137292Y76715*
Y76365*
X137375Y76015*
X137583Y75665*
X137833Y75432*
X138125Y75374*
X138417Y75490*
X138708Y75840*
X140017Y75374D02*
G01Y77707D01*
Y77240D02*
G01X140225Y77474D01*
X140433Y77648*
X140725Y77707*
X140933Y77648*
X141183Y77474*
X132942Y87274D02*
G01Y90774D01*
X134858Y87274*
Y90774*
X137250Y87274D02*
G01Y89607D01*
Y89199D02*
G01X137083Y89432D01*
X136833Y89549*
X136542Y89607*
X136250Y89490*
X136000Y89257*
X135833Y88907*
X135750Y88440*
X135833Y87974*
X136000Y87624*
X136250Y87390*
X136542Y87274*
X136833Y87332*
X137083Y87507*
X137250Y87740*
X137850Y87274D02*
G01Y89607D01*
Y88965D02*
G01X137975Y89257D01*
X138183Y89490*
X138475Y89607*
X138767Y89490*
X138975Y89257*
X139100Y88965*
Y87274*
Y88965D02*
G01X139225Y89257D01*
X139433Y89490*
X139725Y89607*
X140017Y89490*
X140225Y89257*
X140350Y88907*
Y87274*
X141075Y88849D02*
G01X142408D01*
X142283Y89257*
X142075Y89490*
X141783Y89607*
X141492Y89549*
X141242Y89374*
X141075Y88965*
X140992Y88615*
Y88265*
X141075Y87915*
X141283Y87565*
X141533Y87332*
X141825Y87274*
X142117Y87390*
X142408Y87740*
X132983Y81374D02*
G01Y84874D01*
X133817*
X134150Y84698*
X134400Y84465*
X134608Y84115*
X134775Y83707*
X134817Y83124*
X134775Y82540*
X134608Y82132*
X134400Y81782*
X134150Y81549*
X133817Y81374*
X132983*
X137250D02*
G01Y83707D01*
Y83299D02*
G01X137083Y83532D01*
X136833Y83648*
X136542Y83707*
X136250Y83590*
X136000Y83357*
X135833Y83007*
X135750Y82540*
X135833Y82074*
X136000Y81724*
X136250Y81490*
X136542Y81374*
X136833Y81432*
X137083Y81607*
X137250Y81840*
X139100Y84874D02*
G01Y81374D01*
X138517Y83707D02*
G01X139683D01*
X141075Y82949D02*
G01X142408D01*
X142283Y83357*
X142075Y83590*
X141783Y83707*
X141492Y83648*
X141242Y83474*
X141075Y83065*
X140992Y82715*
Y82365*
X141075Y82015*
X141283Y81665*
X141533Y81432*
X141825Y81374*
X142117Y81490*
X142408Y81840*
X136817Y123182D02*
G01X136567Y123357D01*
X136275Y123474*
X135942*
X135567Y123298*
X135275Y123007*
X135067Y122657*
X134900Y122074*
X134858Y121549*
X134942Y121024*
X135067Y120674*
X135317Y120323*
X135608Y120090*
X135900Y119974*
X136192*
X136483Y120090*
X136733Y120265*
X136942Y120498*
X138500Y119974D02*
G01Y123474D01*
X138000Y122774*
Y119974D02*
G01X139000D01*
X140308Y122890D02*
G01X140558Y123240D01*
X140850Y123415*
X141183Y123474*
X141600Y123357*
X141892Y123065*
X141975Y122715*
X141933Y122365*
X141767Y122074*
X140933Y121490*
X140558Y121082*
X140308Y120498*
X140225Y119974*
X141975*
X127583Y149174D02*
G01Y152674D01*
X128417*
X128750Y152498*
X129000Y152265*
X129208Y151915*
X129375Y151507*
X129417Y150924*
X129375Y150340*
X129208Y149932*
X129000Y149582*
X128750Y149349*
X128417Y149174*
X127583*
X131100D02*
G01Y152674D01*
X130600Y151974*
Y149174D02*
G01X131600D01*
X135230Y142374D02*
G01X131230Y146124D01*
X136030Y142374D02*
G01X130530D01*
X131230Y138624D02*
G01X135230Y142374D01*
Y146124D02*
G01Y138624D01*
X131230D02*
G01Y146124D01*
X127167Y134932D02*
G01X126917Y135107D01*
X126625Y135224*
X126292*
X125917Y135048*
X125625Y134757*
X125417Y134407*
X125250Y133824*
X125208Y133299*
X125292Y132774*
X125417Y132424*
X125667Y132074*
X125958Y131840*
X126250Y131724*
X126542*
X126833Y131840*
X127083Y132015*
X127292Y132248*
X128850Y131724D02*
G01Y135224D01*
X128350Y134524*
Y131724D02*
G01X129350D01*
X131450D02*
G01Y135224D01*
X130950Y134524*
Y131724D02*
G01X131950D01*
X133317Y180482D02*
G01X133067Y180657D01*
X132775Y180774*
X132442*
X132067Y180598*
X131775Y180307*
X131567Y179957*
X131400Y179374*
X131358Y178849*
X131442Y178324*
X131567Y177974*
X131817Y177624*
X132108Y177390*
X132400Y177274*
X132692*
X132983Y177390*
X133233Y177565*
X133442Y177798*
X134083D02*
G01X134333Y177507D01*
X134625Y177332*
X135000Y177274*
X135375Y177390*
X135667Y177624*
X135875Y178032*
X135917Y178499*
X135833Y178965*
X135625Y179257*
X135333Y179490*
X135042Y179548*
X134750Y179490*
X134375Y179257*
X134500Y180774*
X135625*
X148917Y270282D02*
G01X148667Y270457D01*
X148375Y270574*
X148042*
X147667Y270399*
X147375Y270107*
X147167Y269757*
X147000Y269174*
X146958Y268649*
X147042Y268124*
X147167Y267774*
X147417Y267424*
X147708Y267190*
X148000Y267074*
X148292*
X148583Y267190*
X148833Y267365*
X149042Y267598*
X149808Y269990D02*
G01X150058Y270340D01*
X150350Y270515*
X150683Y270574*
X151100Y270457*
X151392Y270165*
X151475Y269815*
X151433Y269465*
X151267Y269174*
X150433Y268590*
X150058Y268182*
X149808Y267598*
X149725Y267074*
X151475*
X153700D02*
G01Y270574D01*
X152158Y268065*
X154242*
X150163Y312694D02*
G01Y309194D01*
X149329*
X148996Y309369*
X148746Y309602*
X148538Y309952*
X148371Y310360*
X148329Y310944*
X148371Y311527*
X148538Y311935*
X148746Y312285*
X148996Y312519*
X149329Y312694*
X150163*
X147146Y309194D02*
G01X146146D01*
X146646D02*
G01Y312694D01*
X147146D02*
G01X146146D01*
X144879D02*
G01Y309194D01*
X143838*
X143504Y309369*
X143296Y309602*
X143213Y310069*
X143296Y310535*
X143546Y310827*
X143838Y311002*
X144879*
X143838D02*
G01X143213Y312694D01*
X140079D02*
G01Y309194D01*
X139079*
X138746Y309369*
X138496Y309777*
X138413Y310244*
X138496Y310710*
X138704Y311060*
X139079Y311235*
X140079*
X137563Y309194D02*
G01Y311702D01*
X137396Y312227*
X137063Y312577*
X136646Y312694*
X136229Y312577*
X135896Y312227*
X135729Y311702*
Y309194*
X134879D02*
G01Y312694D01*
X133213*
X128996Y310944D02*
G01X128162D01*
Y311994*
X128413Y312344*
X128704Y312577*
X129121Y312694*
X129538Y312577*
X129829Y312344*
X130079Y311994*
X130246Y311585*
X130329Y311119*
Y310710*
X130246Y310360*
X130079Y309952*
X129829Y309602*
X129579Y309369*
X129246Y309194*
X128954*
X128621Y309310*
X128371Y309544*
X127604Y312694D02*
G01Y309194D01*
X125688Y312694*
Y309194*
X124963Y312694D02*
G01Y309194D01*
X124129*
X123796Y309369*
X123546Y309602*
X123338Y309952*
X123171Y310360*
X123129Y310944*
X123171Y311527*
X123338Y311935*
X123546Y312285*
X123796Y312519*
X124129Y312694*
X124963*
X156483Y2250D02*
G01Y5750D01*
X157317*
X157650Y5575*
X157900Y5342*
X158108Y4992*
X158275Y4583*
X158317Y4000*
X158275Y3417*
X158108Y3008*
X157900Y2658*
X157650Y2425*
X157317Y2250*
X156483*
X159500Y5750D02*
G01X160500D01*
X160000D02*
G01Y2250D01*
X159500D02*
G01X160500D01*
X161642D02*
G01Y5750D01*
X163558Y2250*
Y5750*
X167783Y2250D02*
G01Y5750D01*
X168617*
X168950Y5575*
X169200Y5342*
X169408Y4992*
X169575Y4583*
X169617Y4000*
X169575Y3417*
X169408Y3008*
X169200Y2658*
X168950Y2425*
X168617Y2250*
X167783*
X171300D02*
G01X170967Y2308D01*
X170675Y2542*
X170425Y2892*
X170258Y3300*
X170175Y3767*
Y4233*
X170258Y4700*
X170425Y5108*
X170675Y5458*
X170967Y5692*
X171300Y5750*
X171633Y5692*
X171925Y5458*
X172175Y5108*
X172342Y4700*
X172425Y4233*
Y3767*
X172342Y3300*
X172175Y2892*
X171925Y2542*
X171633Y2308*
X171300Y2250*
X156367Y37057D02*
G01Y33557D01*
X158033*
X160717Y36765D02*
G01X160467Y36940D01*
X160175Y37057*
X159842*
X159467Y36882*
X159175Y36590*
X158967Y36240*
X158800Y35657*
X158758Y35132*
X158842Y34607*
X158967Y34257*
X159217Y33907*
X159508Y33674*
X159800Y33557*
X160092*
X160383Y33674*
X160633Y33848*
X160842Y34082*
X161483Y33557D02*
G01Y37057D01*
X162317*
X162650Y36882*
X162900Y36648*
X163108Y36299*
X163275Y35890*
X163317Y35307*
X163275Y34724*
X163108Y34315*
X162900Y33965*
X162650Y33732*
X162317Y33557*
X161483*
X163750Y32390D02*
G01X166250D01*
X167600Y37057D02*
G01Y33557D01*
X166642Y37057D02*
G01X168558D01*
X169408Y33557D02*
G01Y37057D01*
X170992*
X170408Y35365D02*
G01X169408D01*
X172800Y37057D02*
G01Y33557D01*
X171842Y37057D02*
G01X173758D01*
X174150Y32390D02*
G01X176650D01*
X178000Y37057D02*
G01Y33557D01*
X177042Y37057D02*
G01X178958D01*
X180600Y33557D02*
G01X180267Y33615D01*
X179975Y33848*
X179725Y34199*
X179558Y34607*
X179475Y35074*
Y35540*
X179558Y36007*
X179725Y36415*
X179975Y36765*
X180267Y36999*
X180600Y37057*
X180933Y36999*
X181225Y36765*
X181475Y36415*
X181642Y36007*
X181725Y35540*
Y35074*
X181642Y34607*
X181475Y34199*
X181225Y33848*
X180933Y33615*
X180600Y33557*
X182283Y37057D02*
G01Y34549D01*
X182450Y34024*
X182783Y33674*
X183200Y33557*
X183617Y33674*
X183950Y34024*
X184117Y34549*
Y37057*
X186717Y36765D02*
G01X186467Y36940D01*
X186175Y37057*
X185842*
X185467Y36882*
X185175Y36590*
X184967Y36240*
X184800Y35657*
X184758Y35132*
X184842Y34607*
X184967Y34257*
X185217Y33907*
X185508Y33674*
X185800Y33557*
X186092*
X186383Y33674*
X186633Y33848*
X186842Y34082*
X187525Y33557D02*
G01Y37057D01*
X189275D02*
G01Y33557D01*
Y35307D02*
G01X187525D01*
X161808Y78274D02*
G01X162058Y78624D01*
X162350Y78799*
X162683Y78857*
X163100Y78740*
X163392Y78448*
X163475Y78099*
X163433Y77748*
X163267Y77457*
X162433Y76874*
X162058Y76465*
X161808Y75882*
X161725Y75357*
X163475*
X165200Y75240D02*
G01X165117Y75299D01*
Y75415*
X165200Y75474*
X165283Y75415*
Y75299*
X165200Y75240*
X167800Y75357D02*
G01Y78857D01*
X167300Y78157*
Y75357D02*
G01X168300D01*
X159917Y87174D02*
G01Y90674D01*
X161000Y87757*
X162083Y90674*
Y87174*
X162558D02*
G01X163600Y90674D01*
X164642Y87174*
X164267Y88399D02*
G01X162933D01*
X165700Y90674D02*
G01X166700D01*
X166200D02*
G01Y87174D01*
X165700D02*
G01X166700D01*
X167842D02*
G01Y90674D01*
X169758Y87174*
Y90674*
X156100Y84533D02*
G01X155767Y84417D01*
X155517Y84125*
X155350Y83775*
X155225Y83308*
X155183Y82783*
X155225Y82258*
X155350Y81792*
X155517Y81442*
X155767Y81150*
X156100Y81033*
X156433Y81150*
X156683Y81442*
X156850Y81792*
X156975Y82258*
X157017Y82783*
X156975Y83308*
X156850Y83775*
X156683Y84125*
X156433Y84417*
X156100Y84533*
X159200Y81033D02*
G01Y84533D01*
X157658Y82025*
X159742*
X160550Y80917D02*
G01X162050Y84533D01*
X163108Y83950D02*
G01X163358Y84300D01*
X163650Y84475*
X163983Y84533*
X164400Y84417*
X164692Y84125*
X164775Y83775*
X164733Y83425*
X164567Y83133*
X163733Y82550*
X163358Y82142*
X163108Y81558*
X163025Y81033*
X164775*
X166500Y84533D02*
G01X166167Y84417D01*
X165917Y84125*
X165750Y83775*
X165625Y83308*
X165583Y82783*
X165625Y82258*
X165750Y81792*
X165917Y81442*
X166167Y81150*
X166500Y81033*
X166833Y81150*
X167083Y81442*
X167250Y81792*
X167375Y82258*
X167417Y82783*
X167375Y83308*
X167250Y83775*
X167083Y84125*
X166833Y84417*
X166500Y84533*
X168308Y83950D02*
G01X168558Y84300D01*
X168850Y84475*
X169183Y84533*
X169600Y84417*
X169892Y84125*
X169975Y83775*
X169933Y83425*
X169767Y83133*
X168933Y82550*
X168558Y82142*
X168308Y81558*
X168225Y81033*
X169975*
X170908Y82492D02*
G01X171200Y82900D01*
X171450Y83133*
X171783Y83250*
X172075Y83133*
X172283Y82900*
X172450Y82550*
X172492Y82142*
X172450Y81792*
X172283Y81442*
X172033Y81150*
X171742Y81033*
X171408Y81150*
X171117Y81500*
X170950Y82025*
X170908Y82608*
X170992Y83367*
X171117Y83775*
X171325Y84183*
X171617Y84475*
X171908Y84533*
X172200Y84417*
X172408Y84125*
X169625Y187040D02*
G01X169958Y186749D01*
X170333Y186574*
X170667*
X171000Y186749*
X171250Y187040*
X171375Y187449*
X171292Y187857*
X171083Y188207*
X170708Y188440*
X170208Y188557*
X169917Y188790*
X169792Y189199*
X169875Y189607*
X170083Y189898*
X170375Y190074*
X170667*
X170958Y189957*
X171208Y189665*
X173100Y186574D02*
G01Y190074D01*
X172600Y189374*
Y186574D02*
G01X173600D01*
X166083Y264550D02*
G01Y262042D01*
X166250Y261517*
X166583Y261167*
X167000Y261050*
X167417Y261167*
X167750Y261517*
X167917Y262042*
Y264550*
X170100Y261050D02*
G01Y264550D01*
X168558Y262042*
X170642*
X166533Y282074D02*
G01X166325Y282424D01*
X166075Y282657*
X165783Y282774*
X165450Y282657*
X165200Y282424*
X164950Y282074*
X164867Y281607*
Y279274*
X163100Y282774D02*
G01X162808Y282715D01*
X162475Y282540*
X162267Y282249*
X162183Y281840*
X162267Y281432*
X162517Y281082*
X162892Y280907*
X163308*
X163558Y280790*
X163767Y280499*
X163850Y280090*
X163725Y279682*
X163433Y279390*
X163100Y279274*
X162767Y279390*
X162475Y279682*
X162350Y280090*
X162433Y280499*
X162642Y280790*
X162892Y280907*
X163308*
X163683Y281082*
X163933Y281432*
X164017Y281840*
X163933Y282249*
X163725Y282540*
X163392Y282715*
X163100Y282774*
X158413Y312694D02*
G01X160079D01*
Y309194*
X158413*
X159079Y310885D02*
G01X160079D01*
X157604Y312694D02*
G01Y309194D01*
X155688Y312694*
Y309194*
X153713Y310827D02*
G01X153546Y310652D01*
X153421Y310360*
X153338Y309952*
X153421Y309602*
X153588Y309369*
X153879Y309194*
X155004*
Y312694*
X153629*
X153338Y312460*
X153171Y312110*
X153088Y311702*
X153171Y311294*
X153421Y310944*
X153713Y310827*
X155004*
X176900Y5750D02*
G01X177900D01*
X177400D02*
G01Y2250D01*
X176900D02*
G01X177900D01*
X179167D02*
G01Y5750D01*
X180208*
X180542Y5575*
X180750Y5342*
X180833Y4875*
X180750Y4408*
X180500Y4117*
X180208Y3942*
X179167*
X180208D02*
G01X180833Y2250D01*
X182600D02*
G01X182267Y2308D01*
X181975Y2542*
X181725Y2892*
X181558Y3300*
X181475Y3767*
Y4233*
X181558Y4700*
X181725Y5108*
X181975Y5458*
X182267Y5692*
X182600Y5750*
X182933Y5692*
X183225Y5458*
X183475Y5108*
X183642Y4700*
X183725Y4233*
Y3767*
X183642Y3300*
X183475Y2892*
X183225Y2542*
X182933Y2308*
X182600Y2250*
X182933Y3183D02*
G01X183433Y2250D01*
X174183Y109774D02*
G01Y107265D01*
X174350Y106740*
X174683Y106390*
X175100Y106274*
X175517Y106390*
X175850Y106740*
X176017Y107265*
Y109774*
X176908Y109190D02*
G01X177158Y109540D01*
X177450Y109715*
X177783Y109774*
X178200Y109657*
X178492Y109365*
X178575Y109015*
X178533Y108665*
X178367Y108374*
X177533Y107790*
X177158Y107382*
X176908Y106798*
X176825Y106274*
X178575*
X191933Y115740D02*
G01X192100Y115915D01*
X192225Y116207*
X192308Y116615*
X192225Y116965*
X192058Y117198*
X191767Y117374*
X190642*
Y113874*
X192017*
X192308Y114107*
X192475Y114457*
X192558Y114865*
X192475Y115273*
X192225Y115623*
X191933Y115740*
X190642*
X194200Y113874D02*
G01Y117374D01*
X193700Y116674*
Y113874D02*
G01X194700D01*
X198317Y167882D02*
G01X198067Y168057D01*
X197775Y168174*
X197442*
X197067Y167998*
X196775Y167707*
X196567Y167357*
X196400Y166774*
X196358Y166249*
X196442Y165724*
X196567Y165374*
X196817Y165024*
X197108Y164790*
X197400Y164674*
X197692*
X197983Y164790*
X198233Y164965*
X198442Y165198*
X200000Y164674D02*
G01Y168174D01*
X199500Y167474*
Y164674D02*
G01X200500D01*
X201683Y165198D02*
G01X201933Y164907D01*
X202225Y164732*
X202600Y164674*
X202975Y164790*
X203267Y165024*
X203475Y165432*
X203517Y165899*
X203433Y166365*
X203225Y166657*
X202933Y166890*
X202642Y166948*
X202350Y166890*
X201975Y166657*
X202100Y168174*
X203225*
X178350Y200433D02*
G01Y198767D01*
X174850*
Y200433*
X176542Y199767D02*
G01Y198767D01*
X178350Y201242D02*
G01X174850D01*
X178350Y203158*
X174850*
X188450Y198817D02*
G01X184950D01*
X187867Y199900*
X184950Y200983*
X188450*
Y202500D02*
G01X184950D01*
X185650Y202000*
X188450D02*
G01Y203000D01*
X198450Y198517D02*
G01X194950D01*
X197867Y199600*
X194950Y200683*
X198450*
X195533Y201408D02*
G01X195183Y201658D01*
X195008Y201950*
X194950Y202283*
X195067Y202700*
X195358Y202992*
X195708Y203075*
X196058Y203033*
X196350Y202867*
X196933Y202033*
X197342Y201658*
X197925Y201408*
X198450Y201325*
Y203075*
X193217Y242682D02*
G01X192967Y242857D01*
X192675Y242974*
X192342*
X191967Y242798*
X191675Y242507*
X191467Y242157*
X191300Y241574*
X191258Y241049*
X191342Y240524*
X191467Y240174*
X191717Y239824*
X192008Y239590*
X192300Y239474*
X192592*
X192883Y239590*
X193133Y239765*
X193342Y239998*
X194900Y239474D02*
G01Y242974D01*
X194400Y242274*
Y239474D02*
G01X195400D01*
X197500D02*
G01X197792Y239532D01*
X198125Y239707*
X198333Y239998*
X198417Y240407*
X198333Y240815*
X198083Y241165*
X197708Y241340*
X197292*
X197042Y241457*
X196833Y241748*
X196750Y242157*
X196875Y242565*
X197167Y242857*
X197500Y242974*
X197833Y242857*
X198125Y242565*
X198250Y242157*
X198167Y241748*
X197958Y241457*
X197708Y241340*
X197292*
X196917Y241165*
X196667Y240815*
X196583Y240407*
X196667Y239998*
X196875Y239707*
X197208Y239532*
X197500Y239474*
X173500Y238224D02*
G01Y245224D01*
X180500*
X173500Y238224D02*
G01Y237224D01*
X180500*
X182500D02*
G01X189500D01*
Y245224*
X182500*
X193517Y251382D02*
G01X193267Y251557D01*
X192975Y251674*
X192642*
X192267Y251499*
X191975Y251207*
X191767Y250857*
X191600Y250274*
X191558Y249749*
X191642Y249224*
X191767Y248874*
X192017Y248524*
X192308Y248290*
X192600Y248174*
X192892*
X193183Y248290*
X193433Y248465*
X193642Y248699*
X195200Y248174D02*
G01Y251674D01*
X194700Y250974*
Y248174D02*
G01X195700D01*
X197717D02*
G01X197800Y248932D01*
X197925Y249574*
X198092Y250157*
X198300Y250799*
X198633Y251674*
X196967*
X173500Y247224D02*
G01Y254224D01*
X180500*
X173500Y247224D02*
G01Y246224D01*
X180500*
X182500D02*
G01X189500D01*
Y254224*
X182500*
X174250Y267358D02*
G01X177750Y268400D01*
X174250Y269442*
X177750Y269917D02*
G01X174250D01*
X177167Y271000*
X174250Y272083*
X177750*
Y273600D02*
G01X177692Y273267D01*
X177458Y272975*
X177108Y272725*
X176700Y272558*
X176233Y272475*
X175767*
X175300Y272558*
X174892Y272725*
X174542Y272975*
X174308Y273267*
X174250Y273600*
X174308Y273933*
X174542Y274225*
X174892Y274475*
X175300Y274642*
X175767Y274725*
X176233*
X176700Y274642*
X177108Y274475*
X177458Y274225*
X177692Y273933*
X177750Y273600*
X174250Y276200D02*
G01X177750D01*
X174250Y275242D02*
G01Y277158D01*
X186000Y269650D02*
G01Y270483D01*
X187050*
X187400Y270233*
X187633Y269942*
X187750Y269525*
X187633Y269108*
X187400Y268817*
X187050Y268567*
X186642Y268400*
X186175Y268317*
X185767*
X185417Y268400*
X185008Y268567*
X184658Y268817*
X184425Y269067*
X184250Y269400*
Y269692*
X184367Y270025*
X184600Y270275*
X187750Y271042D02*
G01X184250D01*
X187750Y272958*
X184250*
X187750Y273683D02*
G01X184250D01*
Y274517*
X184425Y274850*
X184658Y275100*
X185008Y275308*
X185417Y275475*
X186000Y275517*
X186583Y275475*
X186992Y275308*
X187342Y275100*
X187575Y274850*
X187750Y274517*
Y273683*
X195833Y268308D02*
G01X195483Y268558D01*
X195308Y268850*
X195250Y269183*
X195367Y269600*
X195658Y269892*
X196008Y269975*
X196358Y269933*
X196650Y269767*
X197233Y268933*
X197642Y268558*
X198225Y268308*
X198750Y268225*
Y269975*
X196883Y272033D02*
G01X196708Y272200D01*
X196417Y272325*
X196008Y272408*
X195658Y272325*
X195425Y272158*
X195250Y271867*
Y270742*
X198750*
Y272117*
X198517Y272408*
X198167Y272575*
X197758Y272658*
X197350Y272575*
X197000Y272325*
X196883Y272033*
Y270742*
X198738Y309777D02*
G01X198488Y309427D01*
X198196Y309252*
X197862Y309194*
X197446Y309310*
X197154Y309602*
X197071Y309952*
X197113Y310302*
X197279Y310594*
X198113Y311177*
X198488Y311585*
X198738Y312169*
X198821Y312694*
X197071*
X195013Y310827D02*
G01X194846Y310652D01*
X194721Y310360*
X194638Y309952*
X194721Y309602*
X194888Y309369*
X195179Y309194*
X196304*
Y312694*
X194929*
X194638Y312460*
X194471Y312110*
X194388Y311702*
X194471Y311294*
X194721Y310944*
X195013Y310827*
X196304*
X209658Y3999D02*
G01X210491D01*
Y2950*
X210241Y2600*
X209950Y2366*
X209533Y2250*
X209116Y2366*
X208825Y2600*
X208575Y2950*
X208408Y3358*
X208325Y3825*
Y4233*
X208408Y4583*
X208575Y4991*
X208825Y5341*
X209075Y5574*
X209408Y5750*
X209700*
X210033Y5633*
X210283Y5400*
X211050Y2250D02*
G01Y5750D01*
X212966Y2250*
Y5750*
X213691Y2250D02*
G01Y5750D01*
X214525*
X214858Y5574*
X215108Y5341*
X215316Y4991*
X215483Y4583*
X215525Y3999*
X215483Y3416*
X215316Y3008*
X215108Y2658*
X214858Y2425*
X214525Y2250*
X213691*
X219791Y2775D02*
G01X220041Y2483D01*
X220333Y2308*
X220708Y2250*
X221083Y2366*
X221375Y2600*
X221583Y3008*
X221625Y3475*
X221541Y3941*
X221333Y4233*
X221041Y4466*
X220750Y4524*
X220458Y4466*
X220083Y4233*
X220208Y5750*
X221333*
X222266D02*
G01X223308Y2250D01*
X224350Y5750*
X201967Y33674D02*
G01X202175Y33324D01*
X202425Y33090*
X202717Y32974*
X203050Y33090*
X203300Y33324*
X203550Y33674*
X203633Y34140*
Y36474*
X204483Y33674D02*
G01X204733Y33265D01*
X205067Y33032*
X205442Y32974*
X205775Y33032*
X206108Y33324*
X206317Y33674*
X206358Y34024*
X206275Y34432*
X205983Y34724*
X205692Y34840*
X205317*
X205692D02*
G01X205942Y35015D01*
X206150Y35307*
X206233Y35657*
X206150Y36007*
X205942Y36298*
X205567Y36474*
X205192Y36415*
X204817Y36182*
X209542Y157340D02*
G01X209367Y157090D01*
X209250Y156799*
Y156465*
X209425Y156090*
X209717Y155799*
X210067Y155590*
X210650Y155424*
X211175Y155382*
X211700Y155465*
X212050Y155590*
X212400Y155840*
X212633Y156132*
X212750Y156424*
Y156715*
X212633Y157007*
X212458Y157257*
X212225Y157465*
X212750Y159024D02*
G01X209250D01*
X209950Y158524*
X212750D02*
G01Y159524D01*
X212050Y160707D02*
G01X212458Y160957D01*
X212692Y161290*
X212750Y161665*
X212692Y161999*
X212400Y162332*
X212050Y162540*
X211700Y162582*
X211292Y162499*
X211000Y162207*
X210883Y161915*
Y161540*
Y161915D02*
G01X210708Y162165D01*
X210417Y162374*
X210067Y162457*
X209717Y162374*
X209425Y162165*
X209250Y161790*
X209308Y161415*
X209542Y161040*
X215142Y157440D02*
G01X214967Y157190D01*
X214850Y156898*
Y156565*
X215025Y156190*
X215317Y155898*
X215667Y155690*
X216250Y155523*
X216775Y155482*
X217300Y155565*
X217650Y155690*
X218000Y155940*
X218233Y156232*
X218350Y156524*
Y156815*
X218233Y157107*
X218058Y157357*
X217825Y157565*
X218350Y159124D02*
G01X214850D01*
X215550Y158623*
X218350D02*
G01Y159623D01*
Y162224D02*
G01X214850D01*
X217358Y160682*
Y162765*
X208050Y198317D02*
G01X204550D01*
X207467Y199400*
X204550Y200483*
X208050*
X207350Y201083D02*
G01X207758Y201333D01*
X207992Y201667*
X208050Y202042*
X207992Y202375*
X207700Y202708*
X207350Y202917*
X207000Y202958*
X206592Y202875*
X206300Y202583*
X206183Y202292*
Y201917*
Y202292D02*
G01X206008Y202542D01*
X205717Y202750*
X205367Y202833*
X205017Y202750*
X204725Y202542*
X204550Y202167*
X204608Y201792*
X204842Y201417*
X218350Y195767D02*
G01X214850D01*
Y196808*
X215025Y197142*
X215258Y197350*
X215725Y197433*
X216192Y197350*
X216483Y197100*
X216658Y196808*
Y195767*
Y196808D02*
G01X218350Y197433D01*
X217883Y198325D02*
G01X218175Y198658D01*
X218350Y199033*
Y199367*
X218175Y199700*
X217883Y199950*
X217475Y200075*
X217067Y199992*
X216717Y199783*
X216483Y199408*
X216367Y198908*
X216133Y198617*
X215725Y198492*
X215317Y198575*
X215025Y198783*
X214850Y199075*
Y199367*
X214967Y199658*
X215258Y199908*
X214850Y201800D02*
G01X218350D01*
X214850Y200842D02*
G01Y202758D01*
X205533Y268308D02*
G01X205183Y268558D01*
X205008Y268850*
X204950Y269183*
X205067Y269600*
X205358Y269892*
X205708Y269975*
X206058Y269933*
X206350Y269767*
X206933Y268933*
X207342Y268558*
X207925Y268308*
X208450Y268225*
Y269975*
Y270658D02*
G01X204950Y271700D01*
X208450Y272742*
X207225Y272367D02*
G01Y271033D01*
X218050Y268700D02*
G01X214550D01*
X215250Y268200*
X218050D02*
G01Y269200D01*
Y270258D02*
G01X214550Y271300D01*
X218050Y272342*
X216825Y271967D02*
G01Y270633D01*
X217946Y312694D02*
G01Y309194D01*
X218446Y309894*
Y312694D02*
G01X217446D01*
X215013Y310827D02*
G01X214846Y310652D01*
X214721Y310360*
X214638Y309952*
X214721Y309602*
X214888Y309369*
X215179Y309194*
X216304*
Y312694*
X214929*
X214638Y312460*
X214471Y312110*
X214388Y311702*
X214471Y311294*
X214721Y310944*
X215013Y310827*
X216304*
X208738Y309777D02*
G01X208488Y309427D01*
X208196Y309252*
X207863Y309194*
X207446Y309310*
X207154Y309602*
X207071Y309952*
X207113Y310302*
X207279Y310594*
X208113Y311177*
X208488Y311585*
X208738Y312169*
X208821Y312694*
X207071*
X206388D02*
G01X205346Y309194D01*
X204304Y312694*
X204679Y311469D02*
G01X206013D01*
X238925Y2817D02*
G01X239258Y2525D01*
X239633Y2350*
X239967*
X240300Y2525*
X240550Y2817*
X240675Y3225*
X240592Y3633*
X240383Y3983*
X240008Y4217*
X239508Y4333*
X239217Y4567*
X239092Y4975*
X239175Y5383*
X239383Y5675*
X239675Y5850*
X239967*
X240258Y5733*
X240508Y5442*
X243317Y5558D02*
G01X243067Y5733D01*
X242775Y5850*
X242442*
X242067Y5675*
X241775Y5383*
X241567Y5033*
X241400Y4450*
X241358Y3925*
X241442Y3400*
X241567Y3050*
X241817Y2700*
X242108Y2467*
X242400Y2350*
X242692*
X242983Y2467*
X243233Y2642*
X243442Y2875*
X244167Y5850D02*
G01Y2350D01*
X245833*
X228525Y2717D02*
G01X228858Y2425D01*
X229233Y2250*
X229567*
X229900Y2425*
X230150Y2717*
X230275Y3125*
X230192Y3533*
X229983Y3883*
X229608Y4117*
X229108Y4233*
X228817Y4467*
X228692Y4875*
X228775Y5283*
X228983Y5575*
X229275Y5750*
X229567*
X229858Y5633*
X230108Y5342*
X231083Y2250D02*
G01Y5750D01*
X231917*
X232250Y5575*
X232500Y5342*
X232708Y4992*
X232875Y4583*
X232917Y4000*
X232875Y3417*
X232708Y3008*
X232500Y2658*
X232250Y2425*
X231917Y2250*
X231083*
X233558D02*
G01X234600Y5750D01*
X235642Y2250*
X235267Y3475D02*
G01X233933D01*
X244100Y35874D02*
G01X245100D01*
X244600D02*
G01Y32374D01*
X244100D02*
G01X245100D01*
X246408Y35290D02*
G01X246658Y35640D01*
X246950Y35815*
X247283Y35874*
X247700Y35757*
X247992Y35465*
X248075Y35115*
X248033Y34765*
X247867Y34474*
X247033Y33890*
X246658Y33482*
X246408Y32898*
X246325Y32374*
X248075*
X250717Y35582D02*
G01X250467Y35757D01*
X250175Y35874*
X249842*
X249467Y35698*
X249175Y35407*
X248967Y35057*
X248800Y34474*
X248758Y33949*
X248842Y33424*
X248967Y33074*
X249217Y32724*
X249508Y32490*
X249800Y32374*
X250092*
X250383Y32490*
X250633Y32665*
X250842Y32898*
X247983Y147574D02*
G01Y145065D01*
X248150Y144540*
X248483Y144190*
X248900Y144074*
X249317Y144190*
X249650Y144540*
X249817Y145065*
Y147574*
X250583Y144774D02*
G01X250833Y144365D01*
X251167Y144132*
X251542Y144074*
X251875Y144132*
X252208Y144424*
X252417Y144774*
X252458Y145124*
X252375Y145532*
X252083Y145824*
X251792Y145940*
X251417*
X251792D02*
G01X252042Y146115D01*
X252250Y146407*
X252333Y146757*
X252250Y147107*
X252042Y147398*
X251667Y147574*
X251292Y147515*
X250917Y147282*
X228183Y195325D02*
G01X228475Y195658D01*
X228650Y196033*
Y196367*
X228475Y196700*
X228183Y196950*
X227775Y197075*
X227367Y196992*
X227017Y196783*
X226783Y196408*
X226667Y195908*
X226433Y195617*
X226025Y195492*
X225617Y195575*
X225325Y195783*
X225150Y196075*
Y196367*
X225267Y196658*
X225558Y196908*
X225150Y197967D02*
G01X228650D01*
Y199633*
Y200567D02*
G01X225150D01*
Y201567*
X225325Y201900*
X225733Y202150*
X226200Y202233*
X226667Y202150*
X227017Y201942*
X227192Y201567*
Y200567*
X238883Y193025D02*
G01X239175Y193358D01*
X239350Y193733*
Y194067*
X239175Y194400*
X238883Y194650*
X238475Y194775*
X238067Y194692*
X237717Y194483*
X237483Y194108*
X237367Y193608*
X237133Y193317*
X236725Y193192*
X236317Y193275*
X236025Y193483*
X235850Y193775*
Y194067*
X235967Y194358*
X236258Y194608*
X235850Y196500D02*
G01X239350D01*
X235850Y195542D02*
G01Y197458D01*
X239350Y199933D02*
G01Y198267D01*
X235850*
Y199933*
X237542Y199267D02*
G01Y198267D01*
X239350Y200867D02*
G01X235850D01*
Y201867*
X236025Y202200*
X236433Y202450*
X236900Y202533*
X237367Y202450*
X237717Y202242*
X237892Y201867*
Y200867*
X248750Y194483D02*
G01X245250D01*
Y195317*
X245425Y195650*
X245658Y195900*
X246008Y196108*
X246417Y196275*
X247000Y196317*
X247583Y196275*
X247992Y196108*
X248342Y195900*
X248575Y195650*
X248750Y195317*
Y194483*
X245250Y197500D02*
G01Y198500D01*
Y198000D02*
G01X248750D01*
Y197500D02*
G01Y198500D01*
Y199767D02*
G01X245250D01*
Y200808*
X245425Y201142*
X245658Y201350*
X246125Y201433*
X246592Y201350*
X246883Y201100*
X247058Y200808*
Y199767*
Y200808D02*
G01X248750Y201433D01*
X230317Y253382D02*
G01X230067Y253557D01*
X229775Y253674*
X229442*
X229067Y253499*
X228775Y253207*
X228567Y252857*
X228400Y252274*
X228358Y251749*
X228442Y251224*
X228567Y250874*
X228817Y250524*
X229108Y250290*
X229400Y250174*
X229692*
X229983Y250290*
X230233Y250465*
X230442Y250699*
X231208Y253090D02*
G01X231458Y253440D01*
X231750Y253615*
X232083Y253674*
X232500Y253557*
X232792Y253265*
X232875Y252915*
X232833Y252565*
X232667Y252274*
X231833Y251690*
X231458Y251282*
X231208Y250699*
X231125Y250174*
X232875*
X233808Y253090D02*
G01X234058Y253440D01*
X234350Y253615*
X234683Y253674*
X235100Y253557*
X235392Y253265*
X235475Y252915*
X235433Y252565*
X235267Y252274*
X234433Y251690*
X234058Y251282*
X233808Y250699*
X233725Y250174*
X235475*
X230517Y247282D02*
G01X230267Y247457D01*
X229975Y247574*
X229642*
X229267Y247399*
X228975Y247107*
X228767Y246757*
X228600Y246174*
X228558Y245649*
X228642Y245124*
X228767Y244774*
X229017Y244424*
X229308Y244190*
X229600Y244074*
X229892*
X230183Y244190*
X230433Y244365*
X230642Y244599*
X231408Y246990D02*
G01X231658Y247340D01*
X231950Y247515*
X232283Y247574*
X232700Y247457*
X232992Y247165*
X233075Y246815*
X233033Y246465*
X232867Y246174*
X232033Y245590*
X231658Y245182*
X231408Y244599*
X231325Y244074*
X233075*
X233883Y244774D02*
G01X234133Y244365D01*
X234467Y244132*
X234842Y244074*
X235175Y244132*
X235508Y244424*
X235717Y244774*
X235758Y245124*
X235675Y245532*
X235383Y245824*
X235092Y245940*
X234717*
X235092D02*
G01X235342Y246115D01*
X235550Y246407*
X235633Y246757*
X235550Y247107*
X235342Y247399*
X234967Y247574*
X234592Y247515*
X234217Y247282*
X228250Y268600D02*
G01X224750D01*
X225450Y268100*
X228250D02*
G01Y269100D01*
X226383Y271533D02*
G01X226208Y271700D01*
X225917Y271825*
X225508Y271908*
X225158Y271825*
X224925Y271658*
X224750Y271367*
Y270242*
X228250*
Y271617*
X228017Y271908*
X227667Y272075*
X227258Y272158*
X226850Y272075*
X226500Y271825*
X226383Y271533*
Y270242*
X234850Y267858D02*
G01X238350Y268900D01*
X234850Y269942*
X238350Y270583D02*
G01X234850D01*
Y271417*
X235025Y271750*
X235258Y272000*
X235608Y272208*
X236017Y272375*
X236600Y272417*
X237183Y272375*
X237592Y272208*
X237942Y272000*
X238175Y271750*
X238350Y271417*
Y270583*
Y273183D02*
G01X234850D01*
Y274017*
X235025Y274350*
X235258Y274600*
X235608Y274808*
X236017Y274975*
X236600Y275017*
X237183Y274975*
X237592Y274808*
X237942Y274600*
X238175Y274350*
X238350Y274017*
Y273183*
X246300Y268950D02*
G01Y269783D01*
X247350*
X247700Y269533*
X247933Y269242*
X248050Y268825*
X247933Y268408*
X247700Y268117*
X247350Y267867*
X246942Y267700*
X246475Y267617*
X246067*
X245717Y267700*
X245308Y267867*
X244958Y268117*
X244725Y268367*
X244550Y268700*
Y268992*
X244667Y269325*
X244900Y269575*
X248050Y270342D02*
G01X244550D01*
X248050Y272258*
X244550*
X248050Y272983D02*
G01X244550D01*
Y273817*
X244725Y274150*
X244958Y274400*
X245308Y274608*
X245717Y274775*
X246300Y274817*
X246883Y274775*
X247292Y274608*
X247642Y274400*
X247875Y274150*
X248050Y273817*
Y272983*
X235933Y282174D02*
G01X235725Y282524D01*
X235475Y282757*
X235183Y282874*
X234850Y282757*
X234600Y282524*
X234350Y282174*
X234267Y281707*
Y279374*
X233292Y281415D02*
G01X233000Y281007D01*
X232750Y280774*
X232417Y280657*
X232125Y280774*
X231917Y281007*
X231750Y281357*
X231708Y281765*
X231750Y282115*
X231917Y282465*
X232167Y282757*
X232458Y282874*
X232792Y282757*
X233083Y282407*
X233250Y281882*
X233292Y281299*
X233208Y280540*
X233083Y280132*
X232875Y279724*
X232583Y279432*
X232292Y279374*
X232000Y279490*
X231792Y279782*
X227946Y312694D02*
G01Y309194D01*
X228446Y309894*
Y312694D02*
G01X227446D01*
X226388D02*
G01X225346Y309194D01*
X224304Y312694*
X224679Y311469D02*
G01X226013D01*
X269199Y3033D02*
G01X269449Y2625D01*
X269782Y2392*
X270158Y2333*
X270491Y2392*
X270824Y2683*
X271033Y3033*
X271074Y3383*
X270991Y3791*
X270699Y4083*
X270408Y4200*
X270032*
X270408D02*
G01X270658Y4375D01*
X270866Y4667*
X270949Y5017*
X270866Y5367*
X270658Y5658*
X270283Y5833*
X269908Y5775*
X269533Y5542*
X272716Y2217D02*
G01X272632Y2275D01*
Y2392*
X272716Y2450*
X272799Y2392*
Y2275*
X272716Y2217*
X274399Y3033D02*
G01X274649Y2625D01*
X274982Y2392*
X275358Y2333*
X275691Y2392*
X276024Y2683*
X276233Y3033*
X276274Y3383*
X276191Y3791*
X275899Y4083*
X275608Y4200*
X275232*
X275608D02*
G01X275858Y4375D01*
X276066Y4667*
X276149Y5017*
X276066Y5367*
X275858Y5658*
X275483Y5833*
X275108Y5775*
X274733Y5542*
X276874Y5833D02*
G01X277916Y2333D01*
X278958Y5833*
X256583Y4550D02*
G01Y8050D01*
X257417*
X257750Y7875*
X258000Y7642*
X258208Y7292*
X258375Y6883*
X258417Y6300*
X258375Y5717*
X258208Y5308*
X258000Y4958*
X257750Y4725*
X257417Y4550*
X256583*
X260600D02*
G01Y8050D01*
X259058Y5542*
X261142*
X255167Y32450D02*
G01Y35950D01*
X256208*
X256542Y35775*
X256750Y35542*
X256833Y35075*
X256750Y34608*
X256500Y34317*
X256208Y34142*
X255167*
X256208D02*
G01X256833Y32450D01*
X258600D02*
G01Y35950D01*
X258100Y35250*
Y32450D02*
G01X259100D01*
X260408Y33908D02*
G01X260700Y34317D01*
X260950Y34550*
X261283Y34667*
X261575Y34550*
X261783Y34317*
X261950Y33967*
X261992Y33558*
X261950Y33208*
X261783Y32858*
X261533Y32567*
X261242Y32450*
X260908Y32567*
X260617Y32917*
X260450Y33442*
X260408Y34025*
X260492Y34783*
X260617Y35192*
X260825Y35600*
X261117Y35892*
X261408Y35950*
X261700Y35833*
X261908Y35542*
X263283Y42774D02*
G01Y46274D01*
X264117*
X264450Y46098*
X264700Y45865*
X264908Y45515*
X265075Y45107*
X265117Y44524*
X265075Y43940*
X264908Y43532*
X264700Y43182*
X264450Y42949*
X264117Y42774*
X263283*
X266717D02*
G01X266800Y43532D01*
X266925Y44174*
X267092Y44757*
X267300Y45399*
X267633Y46274*
X265967*
X274066Y46930D02*
G01X270316Y42930D01*
Y46930D02*
G01X277816D01*
Y42930D02*
G01X270316D01*
X248625Y186940D02*
G01X248958Y186649D01*
X249333Y186474*
X249667*
X250000Y186649*
X250250Y186940*
X250375Y187349*
X250292Y187757*
X250083Y188107*
X249708Y188340*
X249208Y188457*
X248917Y188690*
X248792Y189099*
X248875Y189507*
X249083Y189798*
X249375Y189974*
X249667*
X249958Y189857*
X250208Y189565*
X251308Y189390D02*
G01X251558Y189740D01*
X251850Y189915*
X252183Y189974*
X252600Y189857*
X252892Y189565*
X252975Y189215*
X252933Y188865*
X252767Y188574*
X251933Y187990*
X251558Y187582*
X251308Y186998*
X251225Y186474*
X252975*
X270817Y269982D02*
G01X270567Y270157D01*
X270275Y270274*
X269942*
X269567Y270098*
X269275Y269807*
X269067Y269457*
X268900Y268874*
X268858Y268349*
X268942Y267824*
X269067Y267474*
X269317Y267124*
X269608Y266890*
X269900Y266774*
X270192*
X270483Y266890*
X270733Y267065*
X270942Y267298*
X271708Y269690D02*
G01X271958Y270040D01*
X272250Y270215*
X272583Y270274*
X273000Y270157*
X273292Y269865*
X273375Y269515*
X273333Y269165*
X273167Y268874*
X272333Y268290*
X271958Y267882*
X271708Y267298*
X271625Y266774*
X273375*
X275100D02*
G01Y270274D01*
X274600Y269574*
Y266774D02*
G01X275600D01*
X281666Y4000D02*
G01X282499D01*
Y2950*
X282249Y2600*
X281958Y2367*
X281541Y2250*
X281124Y2367*
X280833Y2600*
X280583Y2950*
X280416Y3358*
X280332Y3825*
Y4233*
X280416Y4583*
X280583Y4992*
X280833Y5342*
X281082Y5575*
X281416Y5750*
X281708*
X282041Y5633*
X282291Y5400*
X283058Y2250D02*
G01Y5750D01*
X284974Y2250*
Y5750*
X285699Y2250D02*
G01Y5750D01*
X286532*
X286866Y5575*
X287116Y5342*
X287324Y4992*
X287491Y4583*
X287533Y4000*
X287491Y3417*
X287324Y3008*
X287116Y2658*
X286866Y2425*
X286532Y2250*
X285699*
X292716Y5750D02*
G01Y2250D01*
X291758Y5750D02*
G01X293674D01*
X294441Y2250D02*
G01X296191Y5750D01*
X294441D02*
G01X296191Y2250D01*
X286900Y35574D02*
G01Y32074D01*
X285942Y35574D02*
G01X287858D01*
X288625Y32074D02*
G01X290375Y35574D01*
X288625D02*
G01X290375Y32074D01*
X284867Y42374D02*
G01Y45874D01*
X285908*
X286242Y45698*
X286450Y45465*
X286533Y44999*
X286450Y44532*
X286200Y44240*
X285908Y44065*
X284867*
X285908D02*
G01X286533Y42374D01*
X287425D02*
G01X289175Y45874D01*
X287425D02*
G01X289175Y42374D01*
X290900Y45874D02*
G01X290567Y45757D01*
X290317Y45465*
X290150Y45115*
X290025Y44648*
X289983Y44124*
X290025Y43599*
X290150Y43132*
X290317Y42782*
X290567Y42490*
X290900Y42374*
X291233Y42490*
X291483Y42782*
X291650Y43132*
X291775Y43599*
X291817Y44124*
X291775Y44648*
X291650Y45115*
X291483Y45465*
X291233Y45757*
X290900Y45874*
X297450Y43090D02*
G01X293950D01*
Y44132*
X294125Y44465*
X294358Y44674*
X294825Y44757*
X295292Y44674*
X295583Y44424*
X295758Y44132*
Y43090*
Y44132D02*
G01X297450Y44757D01*
Y46524D02*
G01X293950D01*
X294650Y46024*
X297450D02*
G01Y47024D01*
X296750Y48207D02*
G01X297158Y48457D01*
X297392Y48790*
X297450Y49165*
X297392Y49499*
X297100Y49832*
X296750Y50040*
X296400Y50082*
X295992Y49999*
X295700Y49707*
X295583Y49415*
Y49040*
Y49415D02*
G01X295408Y49665D01*
X295117Y49874*
X294767Y49957*
X294417Y49874*
X294125Y49665*
X293950Y49290*
X294008Y48915*
X294242Y48540*
X274066Y47730D02*
G01Y42230D01*
X277816Y42930D02*
G01X274066Y46930D01*
X299850Y220833D02*
G01Y219167D01*
X296350*
Y220833*
X298042Y220167D02*
G01Y219167D01*
X299850Y221642D02*
G01X296350D01*
X299850Y223558*
X296350*
X295100Y237924D02*
G01Y244924D01*
X302100*
X295100Y237924D02*
G01Y236924D01*
X302100*
X295100Y246924D02*
G01Y253924D01*
X302100*
X295100Y246924D02*
G01Y245924D01*
X302100*
X295650Y267258D02*
G01X299150Y268300D01*
X295650Y269342*
X299150Y269817D02*
G01X295650D01*
X298567Y270900*
X295650Y271983*
X299150*
Y273500D02*
G01X299092Y273167D01*
X298858Y272875*
X298508Y272625*
X298100Y272458*
X297633Y272375*
X297167*
X296700Y272458*
X296292Y272625*
X295942Y272875*
X295708Y273167*
X295650Y273500*
X295708Y273833*
X295942Y274125*
X296292Y274375*
X296700Y274542*
X297167Y274625*
X297633*
X298100Y274542*
X298508Y274375*
X298858Y274125*
X299092Y273833*
X299150Y273500*
X295650Y276100D02*
G01X299150D01*
X295650Y275142D02*
G01Y277058D01*
X287183Y264450D02*
G01Y261942D01*
X287350Y261417*
X287683Y261067*
X288100Y260950*
X288517Y261067*
X288850Y261417*
X289017Y261942*
Y264450*
X289783Y261475D02*
G01X290033Y261183D01*
X290325Y261008*
X290700Y260950*
X291075Y261067*
X291367Y261300*
X291575Y261708*
X291617Y262175*
X291533Y262642*
X291325Y262933*
X291033Y263167*
X290742Y263225*
X290450Y263167*
X290075Y262933*
X290200Y264450*
X291325*
X296108Y309777D02*
G01X295858Y309427D01*
X295566Y309252*
X295232Y309194*
X294816Y309310*
X294524Y309602*
X294441Y309952*
X294483Y310302*
X294649Y310594*
X295483Y311177*
X295858Y311585*
X296108Y312169*
X296191Y312694*
X294441*
X292383Y310827D02*
G01X292216Y310652D01*
X292091Y310360*
X292008Y309952*
X292091Y309602*
X292258Y309369*
X292549Y309194*
X293674*
Y312694*
X292299*
X292008Y312460*
X291841Y312110*
X291758Y311702*
X291841Y311294*
X292091Y310944*
X292383Y310827*
X293674*
X301883Y2250D02*
G01Y5750D01*
X302924*
X303258Y5575*
X303466Y5342*
X303549Y4875*
X303466Y4408*
X303216Y4117*
X302924Y3942*
X301883*
X302924D02*
G01X303549Y2250D01*
X304441D02*
G01X306191Y5750D01*
X304441D02*
G01X306191Y2250D01*
X313549D02*
G01X311883D01*
Y5750*
X313549*
X312883Y4058D02*
G01X311883D01*
X314358Y2250D02*
G01Y5750D01*
X316274Y2250*
Y5750*
X320449Y4117D02*
G01X320616Y4292D01*
X320741Y4583*
X320824Y4992*
X320741Y5342*
X320574Y5575*
X320283Y5750*
X319158*
Y2250*
X320533*
X320824Y2483*
X320991Y2833*
X321074Y3242*
X320991Y3650*
X320741Y4000*
X320449Y4117*
X319158*
X322716Y2250D02*
G01X322382Y2308D01*
X322091Y2542*
X321841Y2892*
X321674Y3300*
X321591Y3767*
Y4233*
X321674Y4700*
X321841Y5108*
X322091Y5458*
X322382Y5692*
X322716Y5750*
X323049Y5692*
X323341Y5458*
X323591Y5108*
X323758Y4700*
X323841Y4233*
Y3767*
X323758Y3300*
X323591Y2892*
X323341Y2542*
X323049Y2308*
X322716Y2250*
X325316D02*
G01X324982Y2308D01*
X324691Y2542*
X324441Y2892*
X324274Y3300*
X324191Y3767*
Y4233*
X324274Y4700*
X324441Y5108*
X324691Y5458*
X324982Y5692*
X325316Y5750*
X325649Y5692*
X325941Y5458*
X326191Y5108*
X326358Y4700*
X326441Y4233*
Y3767*
X326358Y3300*
X326191Y2892*
X325941Y2542*
X325649Y2308*
X325316Y2250*
X327916Y5750D02*
G01Y2250D01*
X326958Y5750D02*
G01X328874D01*
X307267Y32174D02*
G01Y35674D01*
X308308*
X308642Y35498*
X308850Y35265*
X308933Y34799*
X308850Y34332*
X308600Y34040*
X308308Y33865*
X307267*
X308308D02*
G01X308933Y32174D01*
X309825D02*
G01X311575Y35674D01*
X309825D02*
G01X311575Y32174D01*
X306600Y46174D02*
G01Y42674D01*
X305642Y46174D02*
G01X307558D01*
X308325Y42674D02*
G01X310075Y46174D01*
X308325D02*
G01X310075Y42674D01*
X311800Y46174D02*
G01X311467Y46057D01*
X311217Y45765*
X311050Y45415*
X310925Y44948*
X310883Y44424*
X310925Y43899*
X311050Y43432*
X311217Y43082*
X311467Y42790*
X311800Y42674*
X312133Y42790*
X312383Y43082*
X312550Y43432*
X312675Y43899*
X312717Y44424*
X312675Y44948*
X312550Y45415*
X312383Y45765*
X312133Y46057*
X311800Y46174*
X321083Y32274D02*
G01Y35774D01*
X321917*
X322250Y35598*
X322500Y35365*
X322708Y35015*
X322875Y34607*
X322917Y34024*
X322875Y33440*
X322708Y33032*
X322500Y32682*
X322250Y32449*
X321917Y32274*
X321083*
X325433D02*
G01X323767D01*
Y35774*
X325433*
X324767Y34082D02*
G01X323767D01*
X327533Y34140D02*
G01X327700Y34315D01*
X327825Y34607*
X327908Y35015*
X327825Y35365*
X327658Y35598*
X327367Y35774*
X326242*
Y32274*
X327617*
X327908Y32507*
X328075Y32857*
X328158Y33265*
X328075Y33674*
X327825Y34024*
X327533Y34140*
X326242*
X328883Y35774D02*
G01Y33265D01*
X329050Y32740*
X329383Y32390*
X329800Y32274*
X330217Y32390*
X330550Y32740*
X330717Y33265*
Y35774*
X332650Y34024D02*
G01X333483D01*
Y32974*
X333233Y32624*
X332942Y32390*
X332525Y32274*
X332108Y32390*
X331817Y32624*
X331567Y32974*
X331400Y33382*
X331317Y33849*
Y34257*
X331400Y34607*
X331567Y35015*
X331817Y35365*
X332067Y35598*
X332400Y35774*
X332692*
X333025Y35657*
X333275Y35424*
X303750Y43090D02*
G01X300250D01*
Y44132*
X300425Y44465*
X300658Y44674*
X301125Y44757*
X301592Y44674*
X301883Y44424*
X302058Y44132*
Y43090*
Y44132D02*
G01X303750Y44757D01*
Y46524D02*
G01X300250D01*
X300950Y46024*
X303750D02*
G01Y47024D01*
X300250Y49124D02*
G01X300367Y48790D01*
X300658Y48540*
X301008Y48374*
X301475Y48249*
X302000Y48207*
X302525Y48249*
X302992Y48374*
X303342Y48540*
X303633Y48790*
X303750Y49124*
X303633Y49457*
X303342Y49707*
X302992Y49874*
X302525Y49999*
X302000Y50040*
X301475Y49999*
X301008Y49874*
X300658Y49707*
X300367Y49457*
X300250Y49124*
X316317Y160882D02*
G01X316067Y161057D01*
X315775Y161174*
X315442*
X315067Y160998*
X314775Y160707*
X314567Y160357*
X314400Y159774*
X314358Y159249*
X314442Y158724*
X314567Y158374*
X314817Y158023*
X315108Y157790*
X315400Y157674*
X315692*
X315983Y157790*
X316233Y157965*
X316442Y158198*
X317208Y159132D02*
G01X317500Y159540D01*
X317750Y159774*
X318083Y159890*
X318375Y159774*
X318583Y159540*
X318750Y159190*
X318792Y158782*
X318750Y158432*
X318583Y158082*
X318333Y157790*
X318042Y157674*
X317708Y157790*
X317417Y158140*
X317250Y158665*
X317208Y159249*
X317292Y160007*
X317417Y160415*
X317625Y160824*
X317917Y161115*
X318208Y161174*
X318500Y161057*
X318708Y160765*
X316417Y166782D02*
G01X316167Y166957D01*
X315875Y167074*
X315542*
X315167Y166898*
X314875Y166607*
X314667Y166257*
X314500Y165674*
X314458Y165149*
X314542Y164624*
X314667Y164274*
X314917Y163924*
X315208Y163690*
X315500Y163574*
X315792*
X316083Y163690*
X316333Y163865*
X316542Y164098*
X318017Y163574D02*
G01X318100Y164332D01*
X318225Y164974*
X318392Y165557*
X318600Y166199*
X318933Y167074*
X317267*
X306742Y184040D02*
G01X306567Y183790D01*
X306450Y183499*
Y183165*
X306625Y182790*
X306917Y182499*
X307267Y182290*
X307850Y182124*
X308375Y182082*
X308900Y182165*
X309250Y182290*
X309600Y182540*
X309833Y182832*
X309950Y183124*
Y183415*
X309833Y183707*
X309658Y183957*
X309425Y184165*
X307033Y184932D02*
G01X306683Y185182D01*
X306508Y185474*
X306450Y185807*
X306567Y186224*
X306858Y186515*
X307208Y186599*
X307558Y186557*
X307850Y186390*
X308433Y185557*
X308842Y185182*
X309425Y184932*
X309950Y184849*
Y186599*
X309542Y187615D02*
G01X309833Y187907D01*
X309950Y188240*
X309833Y188574*
X309483Y188865*
X308958Y189074*
X308433Y189157*
X307792*
X307267Y189074*
X306800Y188865*
X306567Y188615*
X306450Y188324*
X306567Y187990*
X306800Y187740*
X307150Y187574*
X307617Y187490*
X308025Y187574*
X308433Y187782*
X308667Y188032*
X308725Y188324*
X308608Y188657*
X308317Y188907*
X307792Y189157*
X319950Y218917D02*
G01X316450D01*
X319367Y220000*
X316450Y221083*
X319950*
X317033Y221808D02*
G01X316683Y222058D01*
X316508Y222350*
X316450Y222683*
X316567Y223100*
X316858Y223392*
X317208Y223475*
X317558Y223433*
X317850Y223267*
X318433Y222433*
X318842Y222058*
X319425Y221808*
X319950Y221725*
Y223475*
X309950Y219217D02*
G01X306450D01*
X309367Y220300*
X306450Y221383*
X309950*
Y222900D02*
G01X306450D01*
X307150Y222400*
X309950D02*
G01Y223400D01*
X314217Y242582D02*
G01X313967Y242757D01*
X313675Y242874*
X313342*
X312967Y242699*
X312675Y242407*
X312467Y242057*
X312300Y241474*
X312258Y240949*
X312342Y240424*
X312467Y240074*
X312717Y239724*
X313008Y239490*
X313300Y239374*
X313592*
X313883Y239490*
X314133Y239665*
X314342Y239898*
X315108Y242290D02*
G01X315358Y242640D01*
X315650Y242815*
X315983Y242874*
X316400Y242757*
X316692Y242465*
X316775Y242115*
X316733Y241765*
X316567Y241474*
X315733Y240890*
X315358Y240482*
X315108Y239898*
X315025Y239374*
X316775*
X317708Y240832D02*
G01X318000Y241240D01*
X318250Y241474*
X318583Y241590*
X318875Y241474*
X319083Y241240*
X319250Y240890*
X319292Y240482*
X319250Y240132*
X319083Y239782*
X318833Y239490*
X318542Y239374*
X318208Y239490*
X317917Y239840*
X317750Y240365*
X317708Y240949*
X317792Y241707*
X317917Y242115*
X318125Y242524*
X318417Y242815*
X318708Y242874*
X319000Y242757*
X319208Y242465*
X304100Y236924D02*
G01X311100D01*
Y244924*
X304100*
X314517Y251282D02*
G01X314267Y251457D01*
X313975Y251574*
X313642*
X313267Y251399*
X312975Y251107*
X312767Y250757*
X312600Y250174*
X312558Y249649*
X312642Y249124*
X312767Y248774*
X313017Y248424*
X313308Y248190*
X313600Y248074*
X313892*
X314183Y248190*
X314433Y248365*
X314642Y248599*
X315408Y250990D02*
G01X315658Y251340D01*
X315950Y251515*
X316283Y251574*
X316700Y251457*
X316992Y251165*
X317075Y250815*
X317033Y250465*
X316867Y250174*
X316033Y249590*
X315658Y249182*
X315408Y248599*
X315325Y248074*
X317075*
X317883Y248599D02*
G01X318133Y248307D01*
X318425Y248132*
X318800Y248074*
X319175Y248190*
X319467Y248424*
X319675Y248832*
X319717Y249299*
X319633Y249765*
X319425Y250057*
X319133Y250290*
X318842Y250348*
X318550Y250290*
X318175Y250057*
X318300Y251574*
X319425*
X304100Y245924D02*
G01X311100D01*
Y253924*
X304100*
X318283Y269333D02*
G01X318108Y269500D01*
X317817Y269625*
X317408Y269708*
X317058Y269625*
X316825Y269458*
X316650Y269167*
Y268042*
X320150*
Y269417*
X319917Y269708*
X319567Y269875*
X319158Y269958*
X318750Y269875*
X318400Y269625*
X318283Y269333*
Y268042*
X317233Y270808D02*
G01X316883Y271058D01*
X316708Y271350*
X316650Y271683*
X316767Y272100*
X317058Y272392*
X317408Y272475*
X317758Y272433*
X318050Y272267*
X318633Y271433*
X319042Y271058*
X319625Y270808*
X320150Y270725*
Y272475*
X307400Y269550D02*
G01Y270383D01*
X308450*
X308800Y270133*
X309033Y269842*
X309150Y269425*
X309033Y269008*
X308800Y268717*
X308450Y268467*
X308042Y268300*
X307575Y268217*
X307167*
X306817Y268300*
X306408Y268467*
X306058Y268717*
X305825Y268967*
X305650Y269300*
Y269592*
X305767Y269925*
X306000Y270175*
X309150Y270942D02*
G01X305650D01*
X309150Y272858*
X305650*
X309150Y273583D02*
G01X305650D01*
Y274417*
X305825Y274750*
X306058Y275000*
X306408Y275208*
X306817Y275375*
X307400Y275417*
X307983Y275375*
X308392Y275208*
X308742Y275000*
X308975Y274750*
X309150Y274417*
Y273583*
X306108Y309777D02*
G01X305858Y309427D01*
X305566Y309252*
X305232Y309194*
X304816Y309310*
X304524Y309602*
X304441Y309952*
X304483Y310302*
X304649Y310594*
X305483Y311177*
X305858Y311585*
X306108Y312169*
X306191Y312694*
X304441*
X303758D02*
G01X302716Y309194D01*
X301674Y312694*
X302049Y311469D02*
G01X303383D01*
X315316Y312694D02*
G01Y309194D01*
X315816Y309894*
Y312694D02*
G01X314816D01*
X312383Y310827D02*
G01X312216Y310652D01*
X312091Y310360*
X312008Y309952*
X312091Y309602*
X312258Y309369*
X312549Y309194*
X313674*
Y312694*
X312299*
X312008Y312460*
X311841Y312110*
X311758Y311702*
X311841Y311294*
X312091Y310944*
X312383Y310827*
X313674*
X325316Y312694D02*
G01Y309194D01*
X325816Y309894*
Y312694D02*
G01X324816D01*
X323758D02*
G01X322716Y309194D01*
X321674Y312694*
X322049Y311469D02*
G01X323383D01*
X335367Y27074D02*
G01X335575Y26724D01*
X335825Y26490*
X336117Y26374*
X336450Y26490*
X336700Y26724*
X336950Y27074*
X337033Y27540*
Y29874*
X338800Y26374D02*
G01Y29874D01*
X338300Y29174*
Y26374D02*
G01X339300D01*
X347050Y38990D02*
G01X343550D01*
Y40032*
X343725Y40365*
X343958Y40574*
X344425Y40657*
X344892Y40574*
X345183Y40324*
X345358Y40032*
Y38990*
Y40032D02*
G01X347050Y40657D01*
Y42424D02*
G01X343550D01*
X344250Y41924*
X347050D02*
G01Y42924D01*
X344133Y44232D02*
G01X343783Y44482D01*
X343608Y44774*
X343550Y45107*
X343667Y45524*
X343958Y45815*
X344308Y45899*
X344658Y45857*
X344950Y45690*
X345533Y44857*
X345942Y44482*
X346525Y44232*
X347050Y44149*
Y45899*
X344242Y53240D02*
G01X344067Y52990D01*
X343950Y52699*
Y52365*
X344125Y51990*
X344417Y51699*
X344767Y51490*
X345350Y51324*
X345875Y51282*
X346400Y51365*
X346750Y51490*
X347100Y51740*
X347333Y52032*
X347450Y52324*
Y52615*
X347333Y52907*
X347158Y53157*
X346925Y53365*
X347042Y54215D02*
G01X347333Y54507D01*
X347450Y54840*
X347333Y55174*
X346983Y55465*
X346458Y55674*
X345933Y55757*
X345292*
X344767Y55674*
X344300Y55465*
X344067Y55215*
X343950Y54924*
X344067Y54590*
X344300Y54340*
X344650Y54174*
X345117Y54090*
X345525Y54174*
X345933Y54382*
X346167Y54632*
X346225Y54924*
X346108Y55257*
X345817Y55507*
X345292Y55757*
X348125Y170040D02*
G01X348458Y169749D01*
X348833Y169574*
X349167*
X349500Y169749*
X349750Y170040*
X349875Y170449*
X349792Y170857*
X349583Y171207*
X349208Y171440*
X348708Y171557*
X348417Y171790*
X348292Y172199*
X348375Y172607*
X348583Y172898*
X348875Y173074*
X349167*
X349458Y172957*
X349708Y172665*
X350350Y173074D02*
G01X350933Y169574D01*
X351600Y173074*
X352267Y169574*
X352850Y173074*
X353408Y172490D02*
G01X353658Y172840D01*
X353950Y173015*
X354283Y173074*
X354700Y172957*
X354992Y172665*
X355075Y172315*
X355033Y171965*
X354867Y171674*
X354033Y171090*
X353658Y170682*
X353408Y170098*
X353325Y169574*
X355075*
X347050Y175790D02*
G01X343550D01*
Y176832*
X343725Y177165*
X343958Y177374*
X344425Y177457*
X344892Y177374*
X345183Y177124*
X345358Y176832*
Y175790*
Y176832D02*
G01X347050Y177457D01*
Y179224D02*
G01X343550D01*
X344250Y178724*
X347050D02*
G01Y179724D01*
Y181824D02*
G01X343550D01*
X344250Y181324*
X347050D02*
G01Y182324D01*
X343942Y190040D02*
G01X343767Y189790D01*
X343650Y189499*
Y189165*
X343825Y188790*
X344117Y188499*
X344467Y188290*
X345050Y188124*
X345575Y188082*
X346100Y188165*
X346450Y188290*
X346800Y188540*
X347033Y188832*
X347150Y189124*
Y189415*
X347033Y189707*
X346858Y189957*
X346625Y190165*
X347150Y191724D02*
G01X347092Y192015D01*
X346917Y192349*
X346625Y192557*
X346217Y192640*
X345808Y192557*
X345458Y192307*
X345283Y191932*
Y191515*
X345167Y191265*
X344875Y191057*
X344467Y190974*
X344058Y191099*
X343767Y191390*
X343650Y191724*
X343767Y192057*
X344058Y192349*
X344467Y192474*
X344875Y192390*
X345167Y192182*
X345283Y191932*
Y191515*
X345458Y191140*
X345808Y190890*
X346217Y190807*
X346625Y190890*
X346917Y191099*
X347092Y191432*
X347150Y191724*
X338850Y218967D02*
G01X335350D01*
Y220008*
X335525Y220342*
X335758Y220550*
X336225Y220633*
X336692Y220550*
X336983Y220300*
X337158Y220008*
Y218967*
Y220008D02*
G01X338850Y220633D01*
X338383Y221525D02*
G01X338675Y221858D01*
X338850Y222233*
Y222567*
X338675Y222900*
X338383Y223150*
X337975Y223275*
X337567Y223192*
X337217Y222983*
X336983Y222608*
X336867Y222108*
X336633Y221817*
X336225Y221692*
X335817Y221775*
X335525Y221983*
X335350Y222275*
Y222567*
X335467Y222858*
X335758Y223108*
X335350Y225000D02*
G01X338850D01*
X335350Y224042D02*
G01Y225958D01*
X329550Y218717D02*
G01X326050D01*
X328967Y219800*
X326050Y220883*
X329550*
X328850Y221483D02*
G01X329258Y221733D01*
X329492Y222067*
X329550Y222442*
X329492Y222775*
X329200Y223108*
X328850Y223317*
X328500Y223358*
X328092Y223275*
X327800Y222983*
X327683Y222692*
Y222317*
Y222692D02*
G01X327508Y222942D01*
X327217Y223150*
X326867Y223233*
X326517Y223150*
X326225Y222942*
X326050Y222567*
X326108Y222192*
X326342Y221817*
X348683Y218525D02*
G01X348975Y218858D01*
X349150Y219233*
Y219567*
X348975Y219900*
X348683Y220150*
X348275Y220275*
X347867Y220192*
X347517Y219983*
X347283Y219608*
X347167Y219108*
X346933Y218817*
X346525Y218692*
X346117Y218775*
X345825Y218983*
X345650Y219275*
Y219567*
X345767Y219858*
X346058Y220108*
X345650Y221167D02*
G01X349150D01*
Y222833*
Y223767D02*
G01X345650D01*
Y224767*
X345825Y225100*
X346233Y225350*
X346700Y225433*
X347167Y225350*
X347517Y225142*
X347692Y224767*
Y223767*
X329850Y269000D02*
G01X326350D01*
X327050Y268500*
X329850D02*
G01Y269500D01*
X327983Y271933D02*
G01X327808Y272100D01*
X327517Y272225*
X327108Y272308*
X326758Y272225*
X326525Y272058*
X326350Y271767*
Y270642*
X329850*
Y272017*
X329617Y272308*
X329267Y272475*
X328858Y272558*
X328450Y272475*
X328100Y272225*
X327983Y271933*
Y270642*
X339450Y267558D02*
G01X335950Y268600D01*
X339450Y269642*
X338225Y269267D02*
G01Y267933D01*
X339450Y271200D02*
G01X335950D01*
X336650Y270700*
X339450D02*
G01Y271700D01*
X349550Y267758D02*
G01X346050Y268800D01*
X349550Y269842*
X348325Y269467D02*
G01Y268133D01*
X346633Y270608D02*
G01X346283Y270858D01*
X346108Y271150*
X346050Y271483*
X346167Y271900*
X346458Y272192*
X346808Y272275*
X347158Y272233*
X347450Y272067*
X348033Y271233*
X348442Y270858*
X349025Y270608*
X349550Y270525*
Y272275*
X333533Y281674D02*
G01X333325Y282024D01*
X333075Y282257*
X332783Y282374*
X332450Y282257*
X332200Y282024*
X331950Y281674*
X331867Y281207*
Y278874*
X330183Y282374D02*
G01X330100Y281615D01*
X329975Y280974*
X329808Y280390*
X329600Y279749*
X329267Y278874*
X330933*
X349225Y32240D02*
G01X349558Y31949D01*
X349933Y31774*
X350267*
X350600Y31949*
X350850Y32240*
X350975Y32649*
X350892Y33057*
X350683Y33407*
X350308Y33640*
X349808Y33757*
X349517Y33990*
X349392Y34399*
X349475Y34807*
X349683Y35099*
X349975Y35274*
X350267*
X350558Y35157*
X350808Y34865*
X351450Y35274D02*
G01X352033Y31774D01*
X352700Y35274*
X353367Y31774*
X353950Y35274*
X355300Y31774D02*
G01Y35274D01*
X354800Y34574*
Y31774D02*
G01X355800D01*
X359383Y216225D02*
G01X359675Y216558D01*
X359850Y216933*
Y217267*
X359675Y217600*
X359383Y217850*
X358975Y217975*
X358567Y217892*
X358217Y217683*
X357983Y217308*
X357867Y216808*
X357633Y216517*
X357225Y216392*
X356817Y216475*
X356525Y216683*
X356350Y216975*
Y217267*
X356467Y217558*
X356758Y217808*
X356350Y219700D02*
G01X359850D01*
X356350Y218742D02*
G01Y220658D01*
X359850Y223133D02*
G01Y221467D01*
X356350*
Y223133*
X358042Y222467D02*
G01Y221467D01*
X359850Y224067D02*
G01X356350D01*
Y225067*
X356525Y225400*
X356933Y225650*
X357400Y225733*
X357867Y225650*
X358217Y225442*
X358392Y225067*
Y224067*
X369250Y217683D02*
G01X365750D01*
Y218517*
X365925Y218850*
X366158Y219100*
X366508Y219308*
X366917Y219475*
X367500Y219517*
X368083Y219475*
X368492Y219308*
X368842Y219100*
X369075Y218850*
X369250Y218517*
Y217683*
X365750Y220700D02*
G01Y221700D01*
Y221200D02*
G01X369250D01*
Y220700D02*
G01Y221700D01*
Y222967D02*
G01X365750D01*
Y224008*
X365925Y224342*
X366158Y224550*
X366625Y224633*
X367092Y224550*
X367383Y224300*
X367558Y224008*
Y222967*
Y224008D02*
G01X369250Y224633D01*
X351617Y252782D02*
G01X351367Y252957D01*
X351075Y253074*
X350742*
X350367Y252898*
X350075Y252607*
X349867Y252257*
X349700Y251674*
X349658Y251149*
X349742Y250624*
X349867Y250274*
X350117Y249924*
X350408Y249690*
X350700Y249574*
X350992*
X351283Y249690*
X351533Y249865*
X351742Y250098*
X353300Y249574D02*
G01Y253074D01*
X352800Y252374*
Y249574D02*
G01X353800D01*
X355192Y249982D02*
G01X355483Y249690D01*
X355817Y249574*
X356150Y249690*
X356442Y250040*
X356650Y250565*
X356733Y251090*
Y251732*
X356650Y252257*
X356442Y252724*
X356192Y252957*
X355900Y253074*
X355567Y252957*
X355317Y252724*
X355150Y252374*
X355067Y251907*
X355150Y251499*
X355358Y251090*
X355608Y250857*
X355900Y250799*
X356233Y250915*
X356483Y251207*
X356733Y251732*
X351517Y246882D02*
G01X351267Y247057D01*
X350975Y247174*
X350642*
X350267Y246999*
X349975Y246707*
X349767Y246357*
X349600Y245774*
X349558Y245249*
X349642Y244724*
X349767Y244374*
X350017Y244024*
X350308Y243790*
X350600Y243674*
X350892*
X351183Y243790*
X351433Y243965*
X351642Y244199*
X352408Y246590D02*
G01X352658Y246940D01*
X352950Y247115*
X353283Y247174*
X353700Y247057*
X353992Y246765*
X354075Y246415*
X354033Y246065*
X353867Y245774*
X353033Y245190*
X352658Y244782*
X352408Y244199*
X352325Y243674*
X354075*
X355800Y247174D02*
G01X355467Y247057D01*
X355217Y246765*
X355050Y246415*
X354925Y245949*
X354883Y245424*
X354925Y244899*
X355050Y244432*
X355217Y244082*
X355467Y243790*
X355800Y243674*
X356133Y243790*
X356383Y244082*
X356550Y244432*
X356675Y244899*
X356717Y245424*
X356675Y245949*
X356550Y246415*
X356383Y246765*
X356133Y247057*
X355800Y247174*
X367700Y268850D02*
G01Y269683D01*
X368750*
X369100Y269433*
X369333Y269142*
X369450Y268725*
X369333Y268308*
X369100Y268017*
X368750Y267767*
X368342Y267600*
X367875Y267517*
X367467*
X367117Y267600*
X366708Y267767*
X366358Y268017*
X366125Y268267*
X365950Y268600*
Y268892*
X366067Y269225*
X366300Y269475*
X369450Y270242D02*
G01X365950D01*
X369450Y272158*
X365950*
X369450Y272883D02*
G01X365950D01*
Y273717*
X366125Y274050*
X366358Y274300*
X366708Y274508*
X367117Y274675*
X367700Y274717*
X368283Y274675*
X368692Y274508*
X369042Y274300*
X369275Y274050*
X369450Y273717*
Y272883*
X356250Y267758D02*
G01X359750Y268800D01*
X356250Y269842*
X359750Y270483D02*
G01X356250D01*
Y271317*
X356425Y271650*
X356658Y271900*
X357008Y272108*
X357417Y272275*
X358000Y272317*
X358583Y272275*
X358992Y272108*
X359342Y271900*
X359575Y271650*
X359750Y271317*
Y270483*
Y273083D02*
G01X356250D01*
Y273917*
X356425Y274250*
X356658Y274500*
X357008Y274708*
X357417Y274875*
X358000Y274917*
X358583Y274875*
X358992Y274708*
X359342Y274500*
X359575Y274250*
X359750Y273917*
Y273083*
G54D63*
X75125Y80990D02*
G01X78275Y86490D01*
X75125D02*
G01X78275Y80990D01*
X84925Y82824D02*
G01X86875D01*
X93675Y80990D02*
G01Y86490D01*
X96525*
X95475Y83832D02*
G01X93675D01*
X99700Y84657D02*
G01Y80990D01*
Y86123D02*
G01X99550Y86215D01*
Y86399*
X99700Y86490*
X99850Y86399*
Y86215*
X99700Y86123*
X103175Y81632D02*
G01X103550Y81265D01*
X104075Y80990*
X104525*
X104975Y81174*
X105275Y81448*
X105425Y81815*
X105350Y82365*
X105050Y82640*
X103700Y83190*
X103400Y83832*
X103550Y84290*
X103850Y84565*
X104300Y84657*
X104750Y84565*
X105200Y84290*
X107625Y80990D02*
G01Y86490D01*
Y83832D02*
G01X108000Y84290D01*
X108375Y84565*
X108975Y84657*
X109425Y84565*
X109950Y84198*
X110175Y83648*
Y80990*
X113500Y84657D02*
G01Y80990D01*
Y86123D02*
G01X113350Y86215D01*
Y86399*
X113500Y86490*
X113650Y86399*
Y86215*
X113500Y86123*
X116825Y80990D02*
G01Y84657D01*
Y83740D02*
G01X117125Y84198D01*
X117575Y84565*
X118175Y84657*
X118700Y84565*
X119150Y84198*
X119375Y83557*
Y80990*
X121650Y79615D02*
G01X122175Y79249D01*
X122775Y79157*
X123300Y79249*
X123750Y79707*
X124050Y80348*
Y84657*
Y83924D02*
G01X123750Y84290D01*
X123300Y84565*
X122775Y84657*
X122175Y84474*
X121800Y84107*
X121500Y83465*
X121350Y82824*
X121425Y82273*
X121725Y81632*
X122175Y81174*
X122775Y80990*
X123225Y81082*
X123750Y81448*
X124050Y81815*
G54D58*
X189850Y30780D02*
G01X41730D01*
Y7940*
X189850*
Y30780*
X170000Y12470D02*
G01X60000D01*
Y12470D02*
G01Y7940D01*
X170000Y12470D02*
G01Y7940D01*
G54D64*
X244222Y116224D02*
G03X244222Y116224I-23622D01*
X217017Y121144D02*
G01X220718D01*
X220836Y121263*
Y110752*
X220639Y110555*
X216860*
X216820Y110594*
Y120948*
X217017Y121144*
X220718D02*
G01X220915D01*
X224183Y124413*
Y107522*
X224065*
X220836Y110752*
G54D59*
X29718Y258658D02*
G01Y258264D01*
X19482*
Y258658*
X29718Y263186D02*
G01Y263383D01*
X19482*
Y262989*
X23419Y259052D02*
G01Y262595D01*
X25584Y259052D02*
G01X23813Y260824D01*
X25584Y262595*
Y259052*
X25191Y259446*
Y261808*
X24797Y261414*
Y260036*
X24403Y260430*
Y261020*
X260665Y19518D02*
G01X261059D01*
Y9282*
X260665*
X256138Y19518D02*
G01X255941D01*
Y9282*
X256335*
X260272Y13219D02*
G01X256728D01*
X260272Y15384D02*
G01X258500Y13613D01*
X256728Y15384*
X260272*
X259878Y14991*
X257516*
X257909Y14597*
X259287*
X258894Y14203*
X258303*
G54D60*
X159894Y284755D02*
G01X153398D01*
Y288003D02*
G01X156646Y291251D01*
Y291251D02*
G01X159894Y288003D01*
Y288003D02*
G01Y284755D01*
X153398D02*
G01Y288003D01*
X215256Y26940D02*
G01X212008Y23693D01*
Y23693D02*
G01X208760Y26940D01*
Y26940D02*
G01Y30189D01*
X215256D02*
G01Y26940D01*
X208760Y30189D02*
G01X215256D01*
X229894Y284755D02*
G01X223398D01*
Y288003D02*
G01X226646Y291251D01*
Y291251D02*
G01X229894Y288003D01*
Y288003D02*
G01Y284755D01*
X223398D02*
G01Y288003D01*
X327264Y284755D02*
G01X320768D01*
Y288003D02*
G01X324016Y291251D01*
X320768Y284755D02*
G01Y288003D01*
X324016Y291251D02*
G01X327264Y288003D01*
Y288003D02*
G01Y284755D01*
G54D52*
X24636Y139539D02*
G01X4164D01*
X24636Y128909D02*
G01X4164D01*
X83806Y162724D02*
G01Y165724D01*
X82594Y162724D02*
G01Y165724D01*
X82413Y164224D02*
G01X81625D01*
X84775D02*
G01X83987D01*
X120326Y209280D02*
G01Y194909D01*
X89912*
X79774Y205046*
Y209280*
X120326Y219968D02*
G01Y234339D01*
X89912*
X79774Y224201*
Y219968*
X83300Y231488D02*
G01Y251959D01*
X72670Y231488D02*
G01Y251959D01*
X138806Y125924D02*
G01Y128924D01*
X137594Y125924D02*
G01Y128924D01*
X137413Y127424D02*
G01X136625D01*
X139775D02*
G01X138987D01*
X143536Y147739D02*
G01X123064D01*
X143536Y137109D02*
G01X123064D01*
X138806Y131924D02*
G01Y134924D01*
X137594Y131924D02*
G01Y134924D01*
X137413Y133424D02*
G01X136625D01*
X139775D02*
G01X138987D01*
X209200Y148918D02*
G01X212200D01*
X209200Y150130D02*
G01X212200D01*
X210700Y150311D02*
G01Y151098D01*
Y147949D02*
G01Y148737D01*
X215200Y148918D02*
G01X218200D01*
X215200Y150130D02*
G01X218200D01*
X216700Y150311D02*
G01Y151098D01*
Y147949D02*
G01Y148737D01*
X226702Y111066D02*
G03X226820Y120988I-3923J5008D01*
X230639Y108035D02*
G03X230639Y124531I-9626J8248D01*
X235954Y105594D02*
G03X235403Y127681I-18275J10594D01*
X240994Y253124D02*
G01Y250124D01*
X242206Y253124D02*
G01Y250124D01*
X242387Y251624D02*
G01X243175D01*
X240025D02*
G01X240813D01*
X240994Y247124D02*
G01Y244124D01*
X242206Y247124D02*
G01Y244124D01*
X242387Y245624D02*
G01X243175D01*
X240025D02*
G01X240813D01*
X268701Y55236D02*
G01Y34764D01*
X279331Y55236D02*
G01Y34764D01*
X324294Y160824D02*
G01Y157824D01*
X325506Y160824D02*
G01Y157824D01*
X325687Y159324D02*
G01X326475D01*
X323325D02*
G01X324113D01*
X324294Y166824D02*
G01Y163824D01*
X325506Y166824D02*
G01Y163824D01*
X325687Y165324D02*
G01X326475D01*
X323325D02*
G01X324113D01*
X349500Y52818D02*
G01X352500D01*
X351000Y51849D02*
G01Y52637D01*
X349500Y54030D02*
G01X352500D01*
X351000Y54211D02*
G01Y54998D01*
X349300Y189718D02*
G01X352300D01*
X349300Y190930D02*
G01X352300D01*
X350800Y191111D02*
G01Y191898D01*
Y188749D02*
G01Y189537D01*
X362294Y252724D02*
G01Y249724D01*
X363506Y252724D02*
G01Y249724D01*
X363687Y251224D02*
G01X364475D01*
X361325D02*
G01X362113D01*
X362294Y246724D02*
G01Y243724D01*
X363506Y246724D02*
G01Y243724D01*
X363687Y245224D02*
G01X364475D01*
X361325D02*
G01X362113D01*
G54D53*
X42118Y77835D02*
G01Y77441D01*
X31882*
Y77835*
X42118Y71835D02*
G01Y71441D01*
X31882*
Y71835*
X42118Y76362D02*
G01Y76559D01*
X31882*
Y76165*
X42118Y65835D02*
G01Y65441D01*
X31882*
Y65835*
X42118Y70362D02*
G01Y70559D01*
X31882*
Y70165*
X42118Y89835D02*
G01Y89441D01*
X31882*
Y89835*
X42118Y94362D02*
G01Y94559D01*
X31882*
Y94165*
X42118Y83835D02*
G01Y83441D01*
X31882*
Y83835*
X42118Y88362D02*
G01Y88559D01*
X31882*
Y88165*
X42118Y82362D02*
G01Y82559D01*
X31882*
Y82165*
X38735Y217806D02*
G01X38341D01*
Y228042*
X38735*
X43262Y217806D02*
G01X43459D01*
Y228042*
X43065*
X30482Y262989D02*
G01Y263383D01*
X40718*
Y262989*
X30482Y258462D02*
G01Y258264D01*
X40718*
Y258659*
X78082Y172389D02*
G01Y172783D01*
X88318*
Y172389*
X78082Y167862D02*
G01Y167664D01*
X88318*
Y168059*
Y174059D02*
G01Y173664D01*
X78082*
Y174059*
X88318Y162452D02*
G01Y161664D01*
X78082*
Y162452*
X88318Y165996D02*
G01Y166783D01*
X78082*
Y165996*
X88318Y178585D02*
G01Y178783D01*
X78082*
Y178389*
X143318Y125652D02*
G01Y124864D01*
X133082*
Y125652*
X143318Y131652D02*
G01Y130864D01*
X133082*
Y131652*
X143318Y135196D02*
G01Y135983D01*
X133082*
Y135196*
X143318Y129196D02*
G01Y129983D01*
X133082*
Y129196*
X208928Y144406D02*
G01X208141D01*
Y154642*
X208928*
X212472Y144406D02*
G01X213259D01*
Y154642*
X212472*
X214928Y144406D02*
G01X214141D01*
Y154642*
X214928*
X218472Y144406D02*
G01X219259D01*
Y154642*
X218472*
X236482Y249852D02*
G01Y249065D01*
X246718*
Y249852*
X236482Y247396D02*
G01Y248183D01*
X246718*
Y247396*
X236482Y243852D02*
G01Y243065D01*
X246718*
Y243852*
X236482Y253396D02*
G01Y254183D01*
X246718*
Y253396*
X256335Y20882D02*
G01X255941D01*
Y31118*
X256335*
X260862Y20882D02*
G01X261059D01*
Y31118*
X260665*
X293654Y42118D02*
G01X293457D01*
Y31882*
X293851*
X304181Y42118D02*
G01X304575D01*
Y31882*
X304181*
X299654Y42118D02*
G01X299457D01*
Y31882*
X299851*
X298181Y42118D02*
G01X298575D01*
Y31882*
X298181*
X319782Y161096D02*
G01Y161883D01*
X330018*
Y161096*
X319782Y157552D02*
G01Y156764D01*
X330018*
Y157552*
X319782Y167096D02*
G01Y167883D01*
X330018*
Y167096*
X319782Y163552D02*
G01Y162764D01*
X330018*
Y163552*
X353165Y47542D02*
G01X353559D01*
Y37306*
X353165*
X348638Y47542D02*
G01X348441D01*
Y37306*
X348835*
X349228Y48306D02*
G01X348441D01*
Y58542*
X349228*
X352772Y48306D02*
G01X353559D01*
Y58542*
X352772*
X352965Y184442D02*
G01X353359D01*
Y174206*
X352965*
X348438Y184442D02*
G01X348241D01*
Y174206*
X348635*
X349028Y185206D02*
G01X348241D01*
Y195442*
X349028*
X352572Y185206D02*
G01X353359D01*
Y195442*
X352572*
X357782Y252996D02*
G01Y253783D01*
X368018*
Y252996*
X357782Y249452D02*
G01Y248665D01*
X368018*
Y249452*
X357782Y246996D02*
G01Y247783D01*
X368018*
Y246996*
X357782Y243452D02*
G01Y242665D01*
X368018*
Y243452*
M02*
