G04 CAM350/DFMSTREAM V12.1 (Build 1022) Date:  Thu Mar 05 20:23:43 2026 *
G04 Database: (Untitled) *
G04 Layer 5: SILK_SCREEN_BOTTOM.art *
%FSLAX25Y25*%
%MOIN*%
%SFA1.000B1.000*%

%MIA0B0*%
%IPPOS*%
%ADD25C,0.00800*%
%ADD51C,0.00600*%
%ADD52C,0.00787*%
%ADD53C,0.00591*%
%ADD54C,0.00787*%
%ADD55C,0.01000*%
%LNSILK_SCREEN_BOTTOM.art*%
%LPD*%
G54D51*
X217000Y104924D02*
G01Y107124D01*
X216000Y106024D02*
G01X217900D01*
X216800Y125224D02*
G01Y127124D01*
G54D25*
X8415Y76508D02*
G01X8665Y76683D01*
X8957Y76800*
X9290*
X9665Y76625*
X9957Y76333*
X10165Y75983*
X10332Y75400*
X10374Y74875*
X10290Y74350*
X10165Y74000*
X9915Y73650*
X9623Y73417*
X9332Y73300*
X9040*
X8748Y73417*
X8498Y73592*
X8290Y73825*
X7648Y74000D02*
G01X7398Y73592D01*
X7065Y73358*
X6690Y73300*
X6357Y73358*
X6023Y73650*
X5815Y74000*
X5774Y74350*
X5857Y74758*
X6148Y75050*
X6440Y75167*
X6815*
X6440D02*
G01X6190Y75342D01*
X5982Y75633*
X5898Y75983*
X5982Y76333*
X6190Y76625*
X6565Y76800*
X6940Y76742*
X7315Y76508*
X4215Y73300D02*
G01X4132Y74058D01*
X4007Y74700*
X3840Y75283*
X3632Y75925*
X3298Y76800*
X4965*
X8233Y66508D02*
G01X8483Y66683D01*
X8775Y66800*
X9108*
X9483Y66625*
X9775Y66333*
X9983Y65983*
X10150Y65400*
X10192Y64875*
X10108Y64350*
X9983Y64000*
X9733Y63650*
X9442Y63417*
X9150Y63300*
X8858*
X8567Y63417*
X8317Y63592*
X8108Y63825*
X7467Y64000D02*
G01X7217Y63592D01*
X6883Y63358*
X6508Y63300*
X6175Y63358*
X5842Y63650*
X5633Y64000*
X5592Y64350*
X5675Y64758*
X5967Y65050*
X6258Y65167*
X6633*
X6258D02*
G01X6008Y65342D01*
X5800Y65633*
X5717Y65983*
X5800Y66333*
X6008Y66625*
X6383Y66800*
X6758Y66742*
X7133Y66508*
X3950Y63300D02*
G01X3658Y63358D01*
X3325Y63533*
X3117Y63825*
X3033Y64233*
X3117Y64642*
X3367Y64992*
X3742Y65167*
X4158*
X4408Y65283*
X4617Y65575*
X4700Y65983*
X4575Y66392*
X4283Y66683*
X3950Y66800*
X3617Y66683*
X3325Y66392*
X3200Y65983*
X3283Y65575*
X3492Y65283*
X3742Y65167*
X4158*
X4533Y64992*
X4783Y64642*
X4867Y64233*
X4783Y63825*
X4575Y63533*
X4242Y63358*
X3950Y63300*
X8233Y106508D02*
G01X8483Y106683D01*
X8775Y106800*
X9108*
X9483Y106625*
X9775Y106333*
X9983Y105983*
X10150Y105400*
X10192Y104875*
X10108Y104350*
X9983Y104000*
X9733Y103650*
X9442Y103417*
X9150Y103300*
X8858*
X8567Y103417*
X8317Y103592*
X8108Y103825*
X7467Y104000D02*
G01X7217Y103592D01*
X6883Y103358*
X6508Y103300*
X6175Y103358*
X5842Y103650*
X5633Y104000*
X5592Y104350*
X5675Y104758*
X5967Y105050*
X6258Y105167*
X6633*
X6258D02*
G01X6008Y105342D01*
X5800Y105633*
X5717Y105983*
X5800Y106333*
X6008Y106625*
X6383Y106800*
X6758Y106742*
X7133Y106508*
X3450Y103300D02*
G01Y106800D01*
X4992Y104292*
X2908*
X8233Y96508D02*
G01X8483Y96683D01*
X8775Y96800*
X9108*
X9483Y96625*
X9775Y96333*
X9983Y95983*
X10150Y95400*
X10192Y94875*
X10108Y94350*
X9983Y94000*
X9733Y93650*
X9442Y93417*
X9150Y93300*
X8858*
X8567Y93417*
X8317Y93592*
X8108Y93825*
X7467Y94000D02*
G01X7217Y93592D01*
X6883Y93358*
X6508Y93300*
X6175Y93358*
X5842Y93650*
X5633Y94000*
X5592Y94350*
X5675Y94758*
X5967Y95050*
X6258Y95167*
X6633*
X6258D02*
G01X6008Y95342D01*
X5800Y95633*
X5717Y95983*
X5800Y96333*
X6008Y96625*
X6383Y96800*
X6758Y96742*
X7133Y96508*
X4867Y93825D02*
G01X4617Y93533D01*
X4325Y93358*
X3950Y93300*
X3575Y93417*
X3283Y93650*
X3075Y94058*
X3033Y94525*
X3117Y94992*
X3325Y95283*
X3617Y95517*
X3908Y95575*
X4200Y95517*
X4575Y95283*
X4450Y96800*
X3325*
X8233Y86508D02*
G01X8483Y86683D01*
X8775Y86800*
X9108*
X9483Y86625*
X9775Y86333*
X9983Y85983*
X10150Y85400*
X10192Y84875*
X10108Y84350*
X9983Y84000*
X9733Y83650*
X9442Y83417*
X9150Y83300*
X8858*
X8567Y83417*
X8317Y83592*
X8108Y83825*
X7467Y84000D02*
G01X7217Y83592D01*
X6883Y83358*
X6508Y83300*
X6175Y83358*
X5842Y83650*
X5633Y84000*
X5592Y84350*
X5675Y84758*
X5967Y85050*
X6258Y85167*
X6633*
X6258D02*
G01X6008Y85342D01*
X5800Y85633*
X5717Y85983*
X5800Y86333*
X6008Y86625*
X6383Y86800*
X6758Y86742*
X7133Y86508*
X4742Y84758D02*
G01X4450Y85167D01*
X4200Y85400*
X3867Y85517*
X3575Y85400*
X3367Y85167*
X3200Y84817*
X3158Y84408*
X3200Y84058*
X3367Y83708*
X3617Y83417*
X3908Y83300*
X4242Y83417*
X4533Y83767*
X4700Y84292*
X4742Y84875*
X4658Y85633*
X4533Y86042*
X4325Y86450*
X4033Y86742*
X3742Y86800*
X3450Y86683*
X3242Y86392*
X30433Y24932D02*
G01X30683Y25107D01*
X30975Y25224*
X31308*
X31683Y25048*
X31975Y24757*
X32183Y24407*
X32350Y23824*
X32392Y23299*
X32308Y22774*
X32183Y22424*
X31933Y22074*
X31642Y21840*
X31350Y21724*
X31058*
X30767Y21840*
X30517Y22015*
X30308Y22248*
X29542Y24640D02*
G01X29292Y24990D01*
X29000Y25165*
X28667Y25224*
X28250Y25107*
X27958Y24815*
X27875Y24465*
X27917Y24115*
X28083Y23824*
X28917Y23240*
X29292Y22832*
X29542Y22248*
X29625Y21724*
X27875*
X26233D02*
G01X26150Y22482D01*
X26025Y23124*
X25858Y23707*
X25650Y24349*
X25317Y25224*
X26983*
X30433Y18932D02*
G01X30683Y19107D01*
X30975Y19224*
X31308*
X31683Y19048*
X31975Y18757*
X32183Y18407*
X32350Y17824*
X32392Y17299*
X32308Y16774*
X32183Y16424*
X31933Y16074*
X31642Y15840*
X31350Y15724*
X31058*
X30767Y15840*
X30517Y16015*
X30308Y16249*
X29542Y18640D02*
G01X29292Y18990D01*
X29000Y19165*
X28667Y19224*
X28250Y19107*
X27958Y18815*
X27875Y18465*
X27917Y18115*
X28083Y17824*
X28917Y17240*
X29292Y16832*
X29542Y16249*
X29625Y15724*
X27875*
X26150D02*
G01X25858Y15782D01*
X25525Y15957*
X25317Y16249*
X25233Y16657*
X25317Y17065*
X25567Y17415*
X25942Y17590*
X26358*
X26608Y17707*
X26817Y17998*
X26900Y18407*
X26775Y18815*
X26483Y19107*
X26150Y19224*
X25817Y19107*
X25525Y18815*
X25400Y18407*
X25483Y17998*
X25692Y17707*
X25942Y17590*
X26358*
X26733Y17415*
X26983Y17065*
X27067Y16657*
X26983Y16249*
X26775Y15957*
X26442Y15782*
X26150Y15724*
X48933Y35774D02*
G01Y39274D01*
X47892*
X47558Y39098*
X47350Y38865*
X47267Y38399*
X47350Y37932*
X47600Y37640*
X47892Y37465*
X48933*
X47892D02*
G01X47267Y35774D01*
X46292Y38690D02*
G01X46042Y39040D01*
X45750Y39215*
X45417Y39274*
X45000Y39157*
X44708Y38865*
X44625Y38515*
X44667Y38165*
X44833Y37874*
X45667Y37290*
X46042Y36882*
X46292Y36298*
X46375Y35774*
X44625*
X38250Y284324D02*
G01X39083D01*
Y285374*
X38833Y285724*
X38542Y285957*
X38125Y286074*
X37708Y285957*
X37417Y285724*
X37167Y285374*
X37000Y284965*
X36917Y284499*
Y284090*
X37000Y283740*
X37167Y283332*
X37417Y282982*
X37667Y282749*
X38000Y282574*
X38292*
X38625Y282690*
X38875Y282924*
X39642Y286074D02*
G01Y282574D01*
X41558Y286074*
Y282574*
X42283Y286074D02*
G01Y282574D01*
X43117*
X43450Y282749*
X43700Y282982*
X43908Y283332*
X44075Y283740*
X44117Y284324*
X44075Y284907*
X43908Y285315*
X43700Y285665*
X43450Y285899*
X43117Y286074*
X42283*
X60933Y30674D02*
G01Y34174D01*
X59892*
X59558Y33999*
X59350Y33765*
X59267Y33299*
X59350Y32832*
X59600Y32540*
X59892Y32365*
X60933*
X59892D02*
G01X59267Y30674D01*
X58417Y31374D02*
G01X58167Y30965D01*
X57833Y30732*
X57458Y30674*
X57125Y30732*
X56792Y31024*
X56583Y31374*
X56542Y31724*
X56625Y32132*
X56917Y32424*
X57208Y32540*
X57583*
X57208D02*
G01X56958Y32715D01*
X56750Y33007*
X56667Y33357*
X56750Y33707*
X56958Y33999*
X57333Y34174*
X57708Y34115*
X58083Y33882*
X62300Y261974D02*
G01Y258474D01*
X61800Y259174*
Y261974D02*
G01X62800D01*
X64108Y259057D02*
G01X64358Y258707D01*
X64650Y258532*
X64983Y258474*
X65400Y258590*
X65692Y258882*
X65775Y259232*
X65733Y259582*
X65567Y259874*
X64733Y260457*
X64358Y260865*
X64108Y261449*
X64025Y261974*
X65775*
X66958Y260807D02*
G01X68042D01*
X69308Y259057D02*
G01X69558Y258707D01*
X69850Y258532*
X70183Y258474*
X70600Y258590*
X70892Y258882*
X70975Y259232*
X70933Y259582*
X70767Y259874*
X69933Y260457*
X69558Y260865*
X69308Y261449*
X69225Y261974*
X70975*
X73200D02*
G01Y258474D01*
X71658Y260982*
X73742*
X74258Y258474D02*
G01X75300Y261974D01*
X76342Y258474*
X76983Y261974D02*
G01Y258474D01*
X77817*
X78150Y258649*
X78400Y258882*
X78608Y259232*
X78775Y259640*
X78817Y260224*
X78775Y260807*
X78608Y261215*
X78400Y261565*
X78150Y261799*
X77817Y261974*
X76983*
X81417Y258765D02*
G01X81167Y258590D01*
X80875Y258474*
X80542*
X80167Y258649*
X79875Y258940*
X79667Y259290*
X79500Y259874*
X79458Y260399*
X79542Y260924*
X79667Y261274*
X79917Y261624*
X80208Y261857*
X80500Y261974*
X80792*
X81083Y261857*
X81333Y261682*
X81542Y261449*
X56558Y282074D02*
G01X57600Y285574D01*
X58642Y282074*
X61117Y282365D02*
G01X60867Y282190D01*
X60575Y282074*
X60242*
X59867Y282249*
X59575Y282540*
X59367Y282890*
X59200Y283474*
X59158Y283999*
X59242Y284524*
X59367Y284874*
X59617Y285224*
X59908Y285457*
X60200Y285574*
X60492*
X60783Y285457*
X61033Y285282*
X61242Y285049*
X63717Y282365D02*
G01X63467Y282190D01*
X63175Y282074*
X62842*
X62467Y282249*
X62175Y282540*
X61967Y282890*
X61800Y283474*
X61758Y283999*
X61842Y284524*
X61967Y284874*
X62217Y285224*
X62508Y285457*
X62800Y285574*
X63092*
X63383Y285457*
X63633Y285282*
X63842Y285049*
X99583Y207382D02*
G01X99833Y207557D01*
X100125Y207674*
X100458*
X100833Y207499*
X101125Y207207*
X101333Y206857*
X101500Y206274*
X101542Y205749*
X101458Y205224*
X101333Y204874*
X101083Y204524*
X100792Y204290*
X100500Y204174*
X100208*
X99917Y204290*
X99667Y204465*
X99458Y204698*
X97900Y204174D02*
G01Y207674D01*
X98400Y206974*
Y204174D02*
G01X97400D01*
X78850Y283224D02*
G01X79683D01*
Y284274*
X79433Y284624*
X79142Y284857*
X78725Y284974*
X78308Y284857*
X78017Y284624*
X77767Y284274*
X77600Y283865*
X77517Y283399*
Y282990*
X77600Y282640*
X77767Y282232*
X78017Y281882*
X78267Y281649*
X78600Y281474*
X78892*
X79225Y281590*
X79475Y281824*
X80242Y284974D02*
G01Y281474D01*
X82158Y284974*
Y281474*
X82883Y284974D02*
G01Y281474D01*
X83717*
X84050Y281649*
X84300Y281882*
X84508Y282232*
X84675Y282640*
X84717Y283224*
X84675Y283807*
X84508Y284215*
X84300Y284565*
X84050Y284799*
X83717Y284974*
X82883*
X97158Y280974D02*
G01X98200Y284474D01*
X99242Y280974*
X101717Y281265D02*
G01X101467Y281090D01*
X101175Y280974*
X100842*
X100467Y281149*
X100175Y281440*
X99967Y281790*
X99800Y282374*
X99758Y282899*
X99842Y283424*
X99967Y283774*
X100217Y284124*
X100508Y284357*
X100800Y284474*
X101092*
X101383Y284357*
X101633Y284182*
X101842Y283949*
X104317Y281265D02*
G01X104067Y281090D01*
X103775Y280974*
X103442*
X103067Y281149*
X102775Y281440*
X102567Y281790*
X102400Y282374*
X102358Y282899*
X102442Y283424*
X102567Y283774*
X102817Y284124*
X103108Y284357*
X103400Y284474*
X103692*
X103983Y284357*
X104233Y284182*
X104442Y283949*
X123550Y26990D02*
G01X127050D01*
Y28032*
X126875Y28365*
X126642Y28574*
X126175Y28657*
X125708Y28574*
X125417Y28324*
X125242Y28032*
Y26990*
Y28032D02*
G01X123550Y28657D01*
Y30924D02*
G01X127050D01*
X124542Y29382*
Y31465*
X126958Y38640D02*
G01X127133Y38390D01*
X127250Y38099*
Y37765*
X127075Y37390*
X126783Y37099*
X126433Y36890*
X125850Y36724*
X125325Y36682*
X124800Y36765*
X124450Y36890*
X124100Y37140*
X123867Y37432*
X123750Y37724*
Y38015*
X123867Y38307*
X124042Y38557*
X124275Y38765*
X124450Y39407D02*
G01X124042Y39657D01*
X123808Y39990*
X123750Y40365*
X123808Y40699*
X124100Y41032*
X124450Y41240*
X124800Y41282*
X125208Y41199*
X125500Y40907*
X125617Y40615*
Y40240*
Y40615D02*
G01X125792Y40865D01*
X126083Y41074*
X126433Y41157*
X126783Y41074*
X127075Y40865*
X127250Y40490*
X127192Y40115*
X126958Y39740*
X127250Y42924D02*
G01X127133Y42590D01*
X126842Y42340*
X126492Y42174*
X126025Y42049*
X125500Y42007*
X124975Y42049*
X124508Y42174*
X124158Y42340*
X123867Y42590*
X123750Y42924*
X123867Y43257*
X124158Y43507*
X124508Y43674*
X124975Y43799*
X125500Y43840*
X126025Y43799*
X126492Y43674*
X126842Y43507*
X127133Y43257*
X127250Y42924*
X105758Y117840D02*
G01X105933Y117590D01*
X106050Y117299*
Y116965*
X105875Y116590*
X105583Y116299*
X105233Y116090*
X104650Y115924*
X104125Y115882*
X103600Y115965*
X103250Y116090*
X102900Y116340*
X102667Y116632*
X102550Y116924*
Y117215*
X102667Y117507*
X102842Y117757*
X103075Y117965*
X103250Y118607D02*
G01X102842Y118857D01*
X102608Y119190*
X102550Y119565*
X102608Y119899*
X102900Y120232*
X103250Y120440*
X103600Y120482*
X104008Y120399*
X104300Y120107*
X104417Y119815*
Y119440*
Y119815D02*
G01X104592Y120065D01*
X104883Y120274*
X105233Y120357*
X105583Y120274*
X105875Y120065*
X106050Y119690*
X105992Y119315*
X105758Y118940*
X105467Y121332D02*
G01X105817Y121582D01*
X105992Y121874*
X106050Y122207*
X105933Y122624*
X105642Y122915*
X105292Y122999*
X104942Y122957*
X104650Y122790*
X104067Y121957*
X103658Y121582*
X103075Y121332*
X102550Y121249*
Y122999*
X106058Y165340D02*
G01X106233Y165090D01*
X106350Y164799*
Y164465*
X106175Y164090*
X105883Y163799*
X105533Y163590*
X104950Y163424*
X104425Y163382*
X103900Y163465*
X103550Y163590*
X103200Y163840*
X102967Y164132*
X102850Y164424*
Y164715*
X102967Y165007*
X103142Y165257*
X103375Y165465*
X102850Y167524D02*
G01X106350D01*
X103842Y165982*
Y168065*
X144846Y272760D02*
G01X148346D01*
Y273802*
X148171Y274135*
X147938Y274344*
X147471Y274427*
X147004Y274344*
X146713Y274094*
X146538Y273802*
Y272760*
Y273802D02*
G01X144846Y274427D01*
Y276194D02*
G01X148346D01*
X147646Y275694*
X144846D02*
G01Y276694D01*
Y279294D02*
G01X148346D01*
X145838Y277752*
Y279835*
X138846Y272760D02*
G01X142346D01*
Y273802*
X142171Y274135*
X141938Y274344*
X141471Y274427*
X141004Y274344*
X140713Y274094*
X140538Y273802*
Y272760*
Y273802D02*
G01X138846Y274427D01*
Y276194D02*
G01X142346D01*
X141646Y275694*
X138846D02*
G01Y276694D01*
X139371Y277877D02*
G01X139079Y278127D01*
X138904Y278419*
X138846Y278794*
X138962Y279169*
X139196Y279460*
X139604Y279669*
X140071Y279710*
X140538Y279627*
X140829Y279419*
X141062Y279127*
X141121Y278835*
X141062Y278544*
X140829Y278169*
X142346Y278294*
Y279419*
X150750Y275590D02*
G01X154250D01*
Y276632*
X154075Y276965*
X153842Y277174*
X153375Y277257*
X152908Y277174*
X152617Y276924*
X152442Y276632*
Y275590*
Y276632D02*
G01X150750Y277257D01*
X151158Y278315D02*
G01X150867Y278607D01*
X150750Y278940*
X150867Y279274*
X151217Y279565*
X151742Y279774*
X152267Y279857*
X152908*
X153433Y279774*
X153900Y279565*
X154133Y279315*
X154250Y279024*
X154133Y278690*
X153900Y278440*
X153550Y278274*
X153083Y278190*
X152675Y278274*
X152267Y278482*
X152033Y278732*
X151975Y279024*
X152092Y279357*
X152383Y279607*
X152908Y279857*
X211450Y113307D02*
G01X214950D01*
Y114140*
X214775Y114474*
X214542Y114724*
X214192Y114932*
X213783Y115099*
X213200Y115140*
X212617Y115099*
X212208Y114932*
X211858Y114724*
X211625Y114474*
X211450Y114140*
Y113307*
Y116824D02*
G01X214950D01*
X214250Y116324*
X211450D02*
G01Y117324D01*
Y119424D02*
G01X214950D01*
X214250Y118924*
X211450D02*
G01Y119923D01*
X222900Y115124D02*
G01X220500Y117524D01*
X218000Y115024*
X222900*
X220500Y112424D02*
G01Y119824D01*
X232050Y35590D02*
G01X235550D01*
Y36632*
X235375Y36965*
X235142Y37174*
X234675Y37257*
X234208Y37174*
X233917Y36924*
X233742Y36632*
Y35590*
Y36632D02*
G01X232050Y37257D01*
Y39024D02*
G01X235550D01*
X234850Y38524*
X232050D02*
G01Y39524D01*
Y41624D02*
G01X232108Y41915D01*
X232283Y42249*
X232575Y42457*
X232983Y42540*
X233392Y42457*
X233742Y42207*
X233917Y41832*
Y41415*
X234033Y41165*
X234325Y40957*
X234733Y40874*
X235142Y40999*
X235433Y41290*
X235550Y41624*
X235433Y41957*
X235142Y42249*
X234733Y42374*
X234325Y42290*
X234033Y42082*
X233917Y41832*
Y41415*
X233742Y41040*
X233392Y40790*
X232983Y40707*
X232575Y40790*
X232283Y40999*
X232108Y41332*
X232050Y41624*
X238350Y35190D02*
G01X241850D01*
Y36232*
X241675Y36565*
X241442Y36774*
X240975Y36857*
X240508Y36774*
X240217Y36524*
X240042Y36232*
Y35190*
Y36232D02*
G01X238350Y36857D01*
Y38624D02*
G01X241850D01*
X241150Y38124*
X238350D02*
G01Y39124D01*
X238758Y40515D02*
G01X238467Y40807D01*
X238350Y41140*
X238467Y41474*
X238817Y41765*
X239342Y41974*
X239867Y42057*
X240508*
X241033Y41974*
X241500Y41765*
X241733Y41515*
X241850Y41224*
X241733Y40890*
X241500Y40640*
X241150Y40474*
X240683Y40390*
X240275Y40474*
X239867Y40682*
X239633Y40932*
X239575Y41224*
X239692Y41557*
X239983Y41807*
X240508Y42057*
X244333Y129274D02*
G01Y132774D01*
X243292*
X242958Y132598*
X242750Y132365*
X242667Y131899*
X242750Y131432*
X243000Y131140*
X243292Y130965*
X244333*
X243292D02*
G01X242667Y129274D01*
X241817Y129974D02*
G01X241567Y129565D01*
X241233Y129332*
X240858Y129274*
X240525Y129332*
X240192Y129624*
X239983Y129974*
X239942Y130324*
X240025Y130732*
X240317Y131023*
X240608Y131140*
X240983*
X240608D02*
G01X240358Y131315D01*
X240150Y131607*
X240067Y131957*
X240150Y132307*
X240358Y132598*
X240733Y132774*
X241108Y132715*
X241483Y132482*
X239217Y129974D02*
G01X238967Y129565D01*
X238633Y129332*
X238258Y129274*
X237925Y129332*
X237592Y129624*
X237383Y129974*
X237342Y130324*
X237425Y130732*
X237717Y131023*
X238008Y131140*
X238383*
X238008D02*
G01X237758Y131315D01*
X237550Y131607*
X237467Y131957*
X237550Y132307*
X237758Y132598*
X238133Y132774*
X238508Y132715*
X238883Y132482*
X246550Y115690D02*
G01X250050D01*
Y116732*
X249875Y117065*
X249642Y117274*
X249175Y117357*
X248708Y117274*
X248417Y117024*
X248242Y116732*
Y115690*
Y116732D02*
G01X246550Y117357D01*
X247250Y118207D02*
G01X246842Y118457D01*
X246608Y118790*
X246550Y119165*
X246608Y119499*
X246900Y119832*
X247250Y120040*
X247600Y120082*
X248008Y119999*
X248300Y119707*
X248417Y119415*
Y119040*
Y119415D02*
G01X248592Y119665D01*
X248883Y119874*
X249233Y119957*
X249583Y119874*
X249875Y119665*
X250050Y119290*
X249992Y118915*
X249758Y118540*
X246550Y122224D02*
G01X250050D01*
X247542Y120682*
Y122765*
X240450Y115490D02*
G01X243950D01*
Y116532*
X243775Y116865*
X243542Y117074*
X243075Y117157*
X242608Y117074*
X242317Y116824*
X242142Y116532*
Y115490*
Y116532D02*
G01X240450Y117157D01*
X241150Y118007D02*
G01X240742Y118257D01*
X240508Y118590*
X240450Y118965*
X240508Y119299*
X240800Y119632*
X241150Y119840*
X241500Y119882*
X241908Y119799*
X242200Y119507*
X242317Y119215*
Y118840*
Y119215D02*
G01X242492Y119465D01*
X242783Y119674*
X243133Y119757*
X243483Y119674*
X243775Y119465*
X243950Y119090*
X243892Y118715*
X243658Y118340*
X240975Y120607D02*
G01X240683Y120857D01*
X240508Y121149*
X240450Y121524*
X240567Y121899*
X240800Y122190*
X241208Y122399*
X241675Y122440*
X242142Y122357*
X242433Y122149*
X242667Y121857*
X242725Y121565*
X242667Y121274*
X242433Y120899*
X243950Y121024*
Y122149*
X234800Y117574D02*
G01X235133Y117632D01*
X235425Y117865*
X235675Y118215*
X235842Y118624*
X235925Y119090*
Y119557*
X235842Y120024*
X235675Y120432*
X235425Y120782*
X235133Y121015*
X234800Y121074*
X234467Y121015*
X234175Y120782*
X233925Y120432*
X233758Y120024*
X233675Y119557*
Y119090*
X233758Y118624*
X233925Y118215*
X234175Y117865*
X234467Y117632*
X234800Y117574*
X234467Y118507D02*
G01X233967Y117574D01*
X233117Y118274D02*
G01X232867Y117865D01*
X232533Y117632*
X232158Y117574*
X231825Y117632*
X231492Y117924*
X231283Y118274*
X231242Y118624*
X231325Y119032*
X231617Y119323*
X231908Y119440*
X232283*
X231908D02*
G01X231658Y119615D01*
X231450Y119907*
X231367Y120257*
X231450Y120607*
X231658Y120898*
X232033Y121074*
X232408Y121015*
X232783Y120782*
X370183Y50490D02*
G01X370008Y50324D01*
X369717Y50199*
X369308Y50115*
X368958Y50199*
X368725Y50365*
X368550Y50657*
Y51782*
X372050*
Y50407*
X371817Y50115*
X371467Y49949*
X371058Y49865*
X370650Y49949*
X370300Y50199*
X370183Y50490*
Y51782*
X372050Y48224D02*
G01X371992Y48557D01*
X371758Y48849*
X371408Y49099*
X371000Y49265*
X370533Y49349*
X370067*
X369600Y49265*
X369192Y49099*
X368842Y48849*
X368608Y48557*
X368550Y48224*
X368608Y47890*
X368842Y47599*
X369192Y47349*
X369600Y47182*
X370067Y47099*
X370533*
X371000Y47182*
X371408Y47349*
X371758Y47599*
X371992Y47890*
X372050Y48224*
Y45624D02*
G01X371992Y45957D01*
X371758Y46249*
X371408Y46499*
X371000Y46665*
X370533Y46749*
X370067*
X369600Y46665*
X369192Y46499*
X368842Y46249*
X368608Y45957*
X368550Y45624*
X368608Y45290*
X368842Y44999*
X369192Y44749*
X369600Y44582*
X370067Y44499*
X370533*
X371000Y44582*
X371408Y44749*
X371758Y44999*
X371992Y45290*
X372050Y45624*
X368550Y43024D02*
G01X372050D01*
X368550Y43982D02*
G01Y42065D01*
X372150Y190457D02*
G01X368650D01*
Y189415*
X368825Y189082*
X369058Y188874*
X369525Y188790*
X369992Y188874*
X370283Y189124*
X370458Y189415*
Y190457*
Y189415D02*
G01X372150Y188790D01*
Y186190D02*
G01Y187857D01*
X368650*
Y186190*
X370342Y186857D02*
G01Y187857D01*
X371683Y185299D02*
G01X371975Y184965D01*
X372150Y184590*
Y184257*
X371975Y183924*
X371683Y183674*
X371275Y183549*
X370867Y183632*
X370517Y183840*
X370283Y184215*
X370167Y184715*
X369933Y185007*
X369525Y185132*
X369117Y185049*
X368825Y184840*
X368650Y184549*
Y184257*
X368767Y183965*
X369058Y183715*
X372150Y180990D02*
G01Y182657D01*
X368650*
Y180990*
X370342Y181657D02*
G01Y182657D01*
X368650Y179224D02*
G01X372150D01*
X368650Y180182D02*
G01Y178265D01*
G54D52*
X7288Y71500D02*
G01Y68500D01*
X6076Y71500D02*
G01Y68500D01*
X5895Y70000D02*
G01X5107D01*
X8257D02*
G01X7469D01*
X7106Y61500D02*
G01Y58500D01*
X5894Y61500D02*
G01Y58500D01*
X5713Y60000D02*
G01X4925D01*
X8075D02*
G01X7287D01*
X7106Y101500D02*
G01Y98500D01*
X5894Y101500D02*
G01Y98500D01*
X5713Y100000D02*
G01X4925D01*
X8075D02*
G01X7287D01*
X7106Y91500D02*
G01Y88500D01*
X5894Y91500D02*
G01Y88500D01*
X5713Y90000D02*
G01X4925D01*
X8075D02*
G01X7287D01*
X7106Y81500D02*
G01Y78500D01*
X5894Y81500D02*
G01Y78500D01*
X5713Y80000D02*
G01X4925D01*
X8075D02*
G01X7287D01*
X39206Y24524D02*
G01Y21524D01*
X37994Y24524D02*
G01Y21524D01*
X37813Y23024D02*
G01X37025D01*
X40175D02*
G01X39387D01*
X39206Y18524D02*
G01Y15524D01*
X37994Y18524D02*
G01Y15524D01*
X37813Y17024D02*
G01X37025D01*
X40175D02*
G01X39387D01*
X121500Y39394D02*
G01X118500D01*
X121500Y40606D02*
G01X118500D01*
X120000Y40787D02*
G01Y41575D01*
Y38425D02*
G01Y39213D01*
X108400Y120330D02*
G01X111400D01*
X108400Y119118D02*
G01X111400D01*
X109900Y118937D02*
G01Y118149D01*
Y121298D02*
G01Y120511D01*
X111400Y165181D02*
G01X108400D01*
X111400Y166392D02*
G01X108400D01*
X109900Y166574D02*
G01Y167361D01*
Y164212D02*
G01Y165000D01*
G54D53*
X11618Y78228D02*
G01Y77441D01*
X1382*
Y78228*
X11800Y71772D02*
G01Y72559D01*
X1564*
Y71772*
X11800Y68228D02*
G01Y67441D01*
X1564*
Y68228*
X11618Y61772D02*
G01Y62559D01*
X1382*
Y61772*
X11618Y58228D02*
G01Y57441D01*
X1382*
Y58228*
X11618Y101772D02*
G01Y102559D01*
X1382*
Y101772*
X11618Y98228D02*
G01Y97441D01*
X1382*
Y98228*
X11618Y91772D02*
G01Y92559D01*
X1382*
Y91772*
X11618Y88228D02*
G01Y87441D01*
X1382*
Y88228*
X11618Y81772D02*
G01Y82559D01*
X1382*
Y81772*
X44738Y23906D02*
G01X44541D01*
Y34142*
X44935*
X43718Y24796D02*
G01Y25583D01*
X33482*
Y24796*
X43718Y21252D02*
G01Y20465D01*
X33482*
Y21252*
X43718Y18796D02*
G01Y19583D01*
X33482*
Y18796*
X43718Y15252D02*
G01Y14465D01*
X33482*
Y15252*
X55265Y23906D02*
G01X55659D01*
Y34142*
X55265*
X50738Y23906D02*
G01X50541D01*
Y34142*
X50935*
X49265Y23906D02*
G01X49659D01*
Y34142*
X49265*
X122165Y23882D02*
G01X122559D01*
Y34118*
X122165*
X117638Y23882D02*
G01X117441D01*
Y34118*
X117835*
X121772Y34882D02*
G01X122559D01*
Y45118*
X121772*
X118228Y34882D02*
G01X117441D01*
Y45118*
X118228*
X108128Y124842D02*
G01X107341D01*
Y114606*
X108128*
X111672Y124842D02*
G01X112459D01*
Y114606*
X111672*
Y160668D02*
G01X112459D01*
Y170905*
X111672*
X108128Y160668D02*
G01X107341D01*
Y170905*
X108128*
X144284Y280826D02*
G01X144087D01*
Y291062*
X144481*
X142811Y280826D02*
G01X143205D01*
Y291062*
X142811*
X138284Y280826D02*
G01X138087D01*
Y291062*
X138481*
X154811Y280826D02*
G01X155205D01*
Y291062*
X154811*
X150284Y280826D02*
G01X150087D01*
Y291062*
X150481*
X148811Y280826D02*
G01X149205D01*
Y291062*
X148811*
X231843Y34118D02*
G01X231449D01*
Y23882*
X231843*
X236370Y34118D02*
G01X236567D01*
Y23882*
X236173*
X237843Y34118D02*
G01X237449D01*
Y23882*
X237843*
X242370Y34118D02*
G01X242567D01*
Y23882*
X242173*
X245938Y103906D02*
G01X245741D01*
Y114142*
X246135*
X240035D02*
G01X239641D01*
Y103906*
X240035*
X244562Y114142D02*
G01X244759D01*
Y103906*
X244365*
X236518Y133288D02*
G01Y133683D01*
X226282*
Y133288*
X236518Y128762D02*
G01Y128564D01*
X226282*
Y128959*
X250465Y103906D02*
G01X250859D01*
Y114142*
X250465*
G54D54*
X96900Y213374D02*
G01X98475D01*
X88239Y212586D02*
G01Y214161D01*
X87452Y213374D02*
G01X89026D01*
X109892Y217704D02*
G01X90208D01*
Y209043*
X109892*
Y217704*
X100444Y210618D02*
G01X101625Y211799D01*
X100444*
X101625Y212980*
X100444*
X101625Y214161*
X100444*
X101625Y215342*
X100837Y216130*
X100444*
Y215736*
X101625Y214555*
X100444Y213374*
X101625Y212192*
X100444Y211011*
X100837Y210618*
X101625*
Y216130D02*
G01Y210618D01*
X100444*
Y216130*
X101625*
X98475Y210618D02*
G01Y216130D01*
X101625Y213374D02*
G01X103200D01*
X111074D02*
G01X112255D01*
G54D55*
X216600Y113624D02*
G01Y117624D01*
X224600*
Y113624*
X216600Y108324D02*
G01Y123824D01*
X230000Y115674D02*
G01Y102174D01*
X234000*
Y115674*
X230000*
X224600Y108424D02*
G01Y123924D01*
M02*
