G04 CAM350/DFMSTREAM V12.1 (Build 1022) Date:  Thu Mar 05 20:23:43 2026 *
G04 Database: (Untitled) *
G04 Layer 7: SOLDERMASK_BOTTOM.art *
%FSLAX25Y25*%
%MOIN*%
%SFA1.000B1.000*%

%MIA0B0*%
%IPPOS*%
%ADD67R,0.06100X0.04600*%
%ADD68R,0.05500X0.06500*%
%ADD69C,0.03600*%
%ADD74C,0.08100*%
%ADD75C,0.07200*%
%ADD76R,0.03500X0.03500*%
%ADD77C,0.06900*%
%ADD78R,0.07200X0.07200*%
%ADD79C,0.05512*%
%ADD80C,0.07008*%
%ADD81R,0.05512X0.05512*%
%ADD82R,0.07008X0.07008*%
%ADD83R,0.03740X0.02560*%
%ADD84R,0.02560X0.03740*%
%LNSOLDERMASK_BOTTOM.art*%
%LPD*%
G54D75*
X17000Y50000D03*
Y60000D03*
Y70000D03*
Y80000D03*
Y90000D03*
X70000Y17000D03*
X60000D03*
X100000D03*
X90000D03*
X80000D03*
X120000D03*
X110000D03*
X150000D03*
X140000D03*
X130000D03*
X126646Y297944D03*
X136646D03*
X146646D03*
X170000Y17000D03*
X160000D03*
X180000D03*
X196650Y210254D03*
X186650D03*
X176650Y260254D03*
X186650D03*
X196650D03*
X196646Y297944D03*
X222008Y17000D03*
X216650Y210254D03*
X206650D03*
Y260254D03*
X216650D03*
X206646Y297944D03*
X216646D03*
X242008Y17000D03*
X232008D03*
X246650Y210254D03*
X236650D03*
X226650D03*
X246650Y260254D03*
X226650D03*
X236650D03*
X294016Y17000D03*
X284016D03*
X298020Y260259D03*
X294016Y297944D03*
X324016Y17000D03*
X314016D03*
X304016D03*
X318020Y210259D03*
X308020D03*
Y260259D03*
X318020D03*
X304016Y297944D03*
X314016D03*
X348020Y210259D03*
X338020D03*
X328020D03*
Y260259D03*
X338020D03*
X348020D03*
X368020Y210259D03*
X358020D03*
X368020Y260259D03*
X358020D03*
G54D84*
X9650Y80000D03*
X3350D03*
X9832Y70000D03*
X3532D03*
X9650Y60000D03*
X3350D03*
X9650Y100000D03*
X3350D03*
X9650Y90000D03*
X3350D03*
X41750Y23024D03*
X35450D03*
X41750Y17024D03*
X35450D03*
X234550Y131124D03*
X228250D03*
G54D77*
X220600Y101263D03*
Y131185D03*
G54D78*
X17000Y100000D03*
X50000Y17000D03*
X156646Y297944D03*
X176650Y210254D03*
X212008Y17000D03*
X226646Y297944D03*
X274016Y17000D03*
X298020Y210259D03*
X324016Y297944D03*
G54D67*
X220600Y108924D03*
Y123524D03*
G54D83*
X47100Y25874D03*
Y32174D03*
X53100Y25874D03*
Y32174D03*
X120000Y25850D03*
Y32150D03*
Y36850D03*
Y43150D03*
X109900Y122874D03*
Y116574D03*
Y162636D03*
Y168936D03*
X146646Y282794D03*
Y289094D03*
X140646Y282794D03*
Y289094D03*
X152646Y282794D03*
Y289094D03*
X234008Y25850D03*
X240008D03*
X234008Y32150D03*
X240008D03*
X248300Y105874D03*
Y112174D03*
X242200D03*
Y105874D03*
G54D76*
X236500Y105194D03*
Y112674D03*
X227480Y108933D03*
G54D74*
X40986Y273524D03*
X60986D03*
X80986D03*
X100986D03*
G54D69*
X364016Y51978D03*
Y42922D03*
Y189318D03*
Y180262D03*
G54D68*
X93357Y213374D03*
X106743D03*
G54D80*
X150465Y190254D03*
Y220254D03*
X140465D03*
X160465Y190254D03*
Y220254D03*
X272332Y190254D03*
Y220254D03*
X262332D03*
X282332Y190254D03*
Y220254D03*
G54D82*
X140465Y190254D03*
X262332D03*
G54D81*
X150960Y255406D03*
X272330Y255421D03*
G54D79*
X150960Y235721D03*
X272330Y235736D03*
M02*
