G04 CAM350/DFMSTREAM V12.1 (Build 1022) Date:  Tue Apr 14 21:03:29 2026 *
G04 Database: (Untitled) *
G04 Layer 8: SOLDERMASK_TOP.art *
%FSLAX25Y25*%
%MOIN*%
%SFA1.000B1.000*%

%MIA0B0*%
%IPPOS*%
%ADD67R,0.05500X0.06500*%
%ADD68C,0.03600*%
%ADD69C,0.08100*%
%ADD74C,0.07200*%
%ADD76C,0.06900*%
%ADD77R,0.07200X0.07200*%
%ADD78C,0.05512*%
%ADD79C,0.07008*%
%ADD80R,0.05512X0.05512*%
%ADD81R,0.07008X0.07008*%
%ADD82R,0.03740X0.02560*%
%ADD83R,0.02560X0.03740*%
%ADD84R,0.08000X0.10000*%
%ADD85R,0.10000X0.08000*%
%ADD86R,0.11500X0.04700*%
%ADD87R,0.06500X0.11500*%
%ADD88R,0.06800X0.16500*%
%ADD89R,0.16500X0.06800*%
%ADD90R,0.19500X0.09500*%
%ADD91R,0.07480X0.12205*%
%ADD92R,0.18000X0.23000*%
%ADD93R,0.43000X0.46000*%
%ADD94R,0.25300X0.24500*%
%ADD95R,0.04600X0.06100*%
%ADD96R,0.06500X0.05500*%
%ADD97R,0.06800X0.04400*%
%ADD98R,0.04331X0.04331*%
%ADD99R,0.06693X0.04331*%
%ADD100R,0.04331X0.06693*%
%LNSOLDERMASK_TOP.art*%
%LPD*%
G54D74*
X17000Y50000D03*
Y60000D03*
Y70000D03*
Y80000D03*
Y90000D03*
X70000Y17000D03*
X60000D03*
X100000D03*
X90000D03*
X80000D03*
X120000D03*
X110000D03*
X150000D03*
X140000D03*
X130000D03*
X126646Y297944D03*
X136646D03*
X146646D03*
X170000Y17000D03*
X160000D03*
X180000D03*
X196650Y210254D03*
X186650D03*
X176650Y260254D03*
X186650D03*
X196650D03*
X196646Y297944D03*
X222008Y17000D03*
X216650Y210254D03*
X206650D03*
Y260254D03*
X216650D03*
X206646Y297944D03*
X216646D03*
X242008Y17000D03*
X232008D03*
X246650Y210254D03*
X236650D03*
X226650D03*
X246650Y260254D03*
X226650D03*
X236650D03*
X294016Y17000D03*
X284016D03*
X298020Y260259D03*
X294016Y297944D03*
X324016Y17000D03*
X314016D03*
X304016D03*
X318020Y210259D03*
X308020D03*
Y260259D03*
X318020D03*
X304016Y297944D03*
X314016D03*
X348020Y210259D03*
X338020D03*
X328020D03*
Y260259D03*
X338020D03*
X348020D03*
X368020Y210259D03*
X358020D03*
X368020Y260259D03*
X358020D03*
G54D77*
X17000Y100000D03*
X50000Y17000D03*
X156646Y297944D03*
X176650Y210254D03*
X212008Y17000D03*
X226646Y297944D03*
X274016Y17000D03*
X298020Y210259D03*
X324016Y297944D03*
G54D86*
X65750Y176224D03*
Y169524D03*
Y182924D03*
Y189624D03*
Y196324D03*
G54D78*
X150960Y235721D03*
X272330Y235736D03*
G54D95*
X51000Y213124D03*
X65600D03*
G54D85*
X22471Y134224D03*
X6329D03*
X125229Y142424D03*
X141371D03*
G54D67*
X78907Y189624D03*
X92293D03*
G54D96*
X185500Y241224D03*
X177500D03*
X185500Y250224D03*
X177500D03*
X299100Y240924D03*
Y249924D03*
X307100Y240924D03*
Y249924D03*
G54D93*
X24750Y182924D03*
G54D83*
X21450Y260824D03*
X40150Y80000D03*
X33850D03*
X40150Y74000D03*
X33850D03*
X40150Y68000D03*
X33850D03*
X40150Y92000D03*
X33850D03*
X40150Y86000D03*
X33850D03*
X27750Y260824D03*
X32450D03*
X38750D03*
X80050Y170224D03*
X86350D03*
Y176224D03*
X80050D03*
X86350Y164224D03*
X80050D03*
X141350Y127424D03*
X135050D03*
X141350Y133424D03*
X135050D03*
X238450Y251624D03*
X244750D03*
X238450Y245624D03*
X244750D03*
X321750Y159324D03*
Y165324D03*
X328050Y159324D03*
Y165324D03*
X359750Y251224D03*
X366050D03*
X359750Y245224D03*
X366050D03*
G54D76*
X220600Y101263D03*
Y131185D03*
G54D90*
X83050Y214374D03*
X117050D03*
G54D100*
X271756Y80669D03*
X266756D03*
X261756D03*
Y149566D03*
X266756D03*
X271756D03*
X296756Y80669D03*
X291756D03*
X286756D03*
X281756D03*
X276756D03*
X286756Y149566D03*
X291756D03*
X296756D03*
X276756D03*
X281756D03*
X321756Y80669D03*
X316756D03*
X311756D03*
X306756D03*
X301756D03*
Y149566D03*
X306756D03*
X311756D03*
X316756D03*
X321756D03*
X326756Y80669D03*
Y149566D03*
G54D92*
X40100Y134224D03*
X82100D03*
G54D84*
X77985Y233653D03*
Y249794D03*
X274016Y53071D03*
Y36929D03*
G54D99*
X256835Y92618D03*
Y97618D03*
Y102618D03*
Y107617D03*
Y112617D03*
Y117618D03*
Y122618D03*
Y127618D03*
Y132618D03*
Y137618D03*
G54D82*
X40900Y219774D03*
Y226074D03*
X210700Y146374D03*
Y152674D03*
X216700Y146374D03*
Y152674D03*
X258500Y17550D03*
Y11250D03*
Y22850D03*
Y29150D03*
X296016Y40150D03*
Y33850D03*
X302016Y40150D03*
Y33850D03*
X351000Y45574D03*
Y39274D03*
Y50274D03*
Y56574D03*
X350800Y176174D03*
Y182474D03*
Y187174D03*
Y193474D03*
G54D88*
X109900Y105747D03*
Y133700D03*
Y151810D03*
Y179763D03*
X190900Y132847D03*
Y160800D03*
G54D98*
X290851Y115511D03*
Y121023D03*
Y126535D03*
X296362Y115511D03*
Y121023D03*
Y126535D03*
X301874Y115511D03*
Y121023D03*
Y126535D03*
G54D89*
X136024Y165824D03*
X163976D03*
G54D87*
X49300Y226172D03*
X67300D03*
X150300Y142475D03*
X168300D03*
G54D79*
X150465Y190254D03*
Y220254D03*
X140465D03*
X160465Y190254D03*
Y220254D03*
X272332Y190254D03*
Y220254D03*
X262332D03*
X282332Y190254D03*
Y220254D03*
G54D94*
X58300Y250779D03*
X159300Y117869D03*
G54D91*
X321555Y175209D03*
Y192532D03*
G54D81*
X140465Y190254D03*
X262332D03*
G54D69*
X40986Y273524D03*
X60986D03*
X80986D03*
X100986D03*
G54D97*
X358307Y39281D03*
X364606Y33670D03*
X358307Y55619D03*
X364606Y61229D03*
X358307Y176621D03*
X364606Y171010D03*
X358307Y192959D03*
X364606Y198570D03*
G54D80*
X150960Y255406D03*
X272330Y255421D03*
G54D68*
X364016Y51978D03*
Y42922D03*
Y189318D03*
Y180262D03*
M02*
