G04 CAM350/DFMSTREAM V12.1 (Build 1022) Date:  Thu Mar 05 20:23:44 2026 *
G04 Database: (Untitled) *
G04 Layer 9: TOP.art *
%FSLAX25Y25*%
%MOIN*%
%SFA1.000B1.000*%

%MIA0B0*%
%IPPOS*%
%ADD10C,0.03000*%
%ADD11C,0.06200*%
%ADD12R,0.02360X0.03540*%
%ADD13R,0.06200X0.06200*%
%ADD14R,0.03540X0.02360*%
%ADD15C,0.08400*%
%ADD16R,0.05000X0.06000*%
%ADD17C,0.06221*%
%ADD18R,0.06221X0.06221*%
%ADD19R,0.04724X0.04724*%
%ADD20C,0.04724*%
%ADD21C,0.06400*%
%ADD24C,0.03300*%
%ADD25C,0.00800*%
%ADD26C,0.02000*%
%ADD27C,0.04000*%
%ADD29C,0.07000*%
%ADD72R,0.11000X0.04200*%
%ADD73R,0.06000X0.11000*%
%ADD36R,0.06300X0.15940*%
%ADD37R,0.15940X0.06300*%
%ADD38R,0.07087X0.11811*%
%ADD39R,0.19090X0.09060*%
%ADD40R,0.17000X0.22000*%
%ADD41R,0.06000X0.05000*%
%ADD42R,0.42000X0.45000*%
%ADD43R,0.06400X0.04000*%
%ADD44R,0.04000X0.05500*%
%ADD45R,0.24800X0.24000*%
%ADD46R,0.03543X0.03543*%
%ADD47R,0.05905X0.03543*%
%ADD48R,0.03543X0.05905*%
%ADD49R,0.07480X0.09450*%
%ADD50R,0.09450X0.07480*%
%ADD55C,0.01000*%
%ADD102C,0.04500*%
%LNTOP.art*%
%LPD*%
G36*
X212600Y90624D02*
G75*
G03X212050Y90734I-550J-1321D01*
X211500Y90624I0J-1430*
G01X211429Y92194*
X213000Y92124*
G03X212890Y91574I1321J-550*
X213000Y91024I1431J0*
G02X212600Y90624I-400J0*
G37*
G36*
X244100Y155024D02*
G03X243550Y155134I-550J-1321D01*
X243000Y155024I0J-1431*
G02X242600Y155424I0J400*
G03X242710Y155974I-1322J550*
X242600Y156524I-1431J0*
G01X244171Y156594*
X244100Y155024*
G37*
G36*
X264839Y85363D02*
G03X264062Y86141I-1323J-544D01*
G02X263945Y86423I284J283*
X264062Y86706I400J0*
G03X264839Y87484I-546J1322*
G01X266000Y86424*
X264839Y85363*
G37*
G36*
X197561Y88163D02*
G01X196400Y89224D01*
X197561Y90284*
G03X198338Y89506I1323J544*
G02X198455Y89223I-284J-283*
X198338Y88941I-401J1*
G03X197561Y88163I545J-1322*
G37*
G36*
X248800Y142224D02*
G01X247739Y143384D01*
G03X248517Y144162I-544J1322*
G02X248800Y144279I283J-284*
X249083Y144162I0J-401*
G03X249861Y143384I1322J544*
G01X248800Y142224*
G37*
G36*
X245500Y139524D02*
G01X244439Y140684D01*
G03X245217Y141462I-544J1322*
G02X245500Y141579I283J-284*
X245783Y141462I0J-401*
G03X246561Y140684I1322J544*
G01X245500Y139524*
G37*
G36*
X276756Y68267D02*
G01X275696Y69428D01*
G03X276473Y70206I-545J1322*
G02X276756Y70323I283J-284*
X277039Y70206I0J-401*
G03X277817Y69428I1322J544*
G01X276756Y68267*
G37*
G36*
X141000Y233824D02*
G03X140000Y234024I-1000J-2401D01*
X139000Y233824I0J-2601*
G02X138600Y234224I0J400*
X138690Y234477I400J0*
G03X139590Y235577I-871J1631*
G01X141088Y235372*
X141000Y233824*
G37*
G36*
X249361Y85363D02*
G01X248207Y86387D01*
X249300Y87424*
X250856*
X251138Y87141*
G03X249361Y85363I1245J-3022*
G37*
G36*
X349230Y38094D02*
G03X348116Y39053I-1753J-910D01*
G02X348050Y39273I335J220*
X348116Y39494I401J1*
G03X349230Y40454I-640J1869*
G01X351100Y39274*
X349230Y38094*
G37*
G36*
X16929Y59929D02*
G01X17000Y63100D01*
G03X18350Y62830I1350J3240*
X19700Y63100I0J3510*
G02X20100Y62700I0J-400*
G03X19830Y61350I3240J-1350*
X20100Y60000I3511J0*
G01X16929Y59929*
G37*
G36*
X323945Y16929D02*
G01X324016Y20100D01*
G03X325366Y19830I1350J3240*
X326716Y20100I0J3510*
G02X327116Y19700I0J-400*
G03X326846Y18350I3240J-1350*
X327116Y17000I3511J0*
G01X323945Y16929*
G37*
G36*
X186721Y210183D02*
G01X183550Y210254D01*
G03X183820Y211604I-3241J1350*
X183550Y212954I-3511J0*
G02X183950Y213354I400J0*
G03X185300Y213084I1350J3240*
X186650Y213354I0J3511*
G01X186721Y210183*
G37*
G36*
X196721D02*
G01X193550Y210254D01*
G03X193820Y211604I-3241J1350*
X193550Y212954I-3511J0*
G02X193950Y213354I400J0*
G03X195300Y213084I1350J3240*
X196650Y213354I0J3511*
G01X196721Y210183*
G37*
G36*
X206721D02*
G01X203550Y210254D01*
G03X203820Y211604I-3241J1350*
X203550Y212954I-3511J0*
G02X203950Y213354I400J0*
G03X205300Y213084I1350J3240*
X206650Y213354I0J3511*
G01X206721Y210183*
G37*
G36*
X308091Y210188D02*
G01X304920Y210259D01*
G03X305190Y211609I-3241J1350*
X304920Y212959I-3511J0*
G02X305320Y213359I400J0*
G03X306670Y213089I1350J3240*
X308020Y213359I0J3511*
G01X308091Y210188*
G37*
G36*
X318091D02*
G01X314920Y210259D01*
G03X315190Y211609I-3241J1350*
X314920Y212959I-3511J0*
G02X315320Y213359I400J0*
G03X316670Y213089I1350J3240*
X318020Y213359I0J3511*
G01X318091Y210188*
G37*
G36*
X328091D02*
G01X324920Y210259D01*
G03X325190Y211609I-3241J1350*
X324920Y212959I-3511J0*
G02X325320Y213359I400J0*
G03X326670Y213089I1350J3240*
X328020Y213359I0J3511*
G01X328091Y210188*
G37*
G36*
X143175Y217143D02*
G03X141820Y217414I-1355J-3253D01*
X140465Y217143I0J-3523*
G01X140394Y220324*
X143575Y220254*
G03X143304Y218899I3253J-1355*
X143575Y217543I3524J-1*
G02X143175Y217143I-400J0*
G37*
G36*
X153175D02*
G03X151820Y217414I-1355J-3253D01*
X150465Y217143I0J-3523*
G01X150394Y220324*
X153575Y220254*
G03X153304Y218899I3253J-1355*
X153575Y217543I3524J-1*
G02X153175Y217143I-400J0*
G37*
G36*
X275043D02*
G03X273688Y217414I-1355J-3253D01*
X272332Y217143I-1J-3523*
G01X272262Y220324*
X275443Y220254*
G03X275172Y218899I3253J-1355*
X275443Y217543I3524J-1*
G02X275043Y217143I-400J0*
G37*
G36*
X265043Y216981D02*
G01X265019Y216982D01*
G03X263470Y217340I-1549J-3172*
X262309Y217144I-1J-3530*
G01X262264Y220326*
X265443Y220254*
G03X265156Y218817I3448J-1436*
X265443Y217381I3735J0*
G02X265043Y216981I-400J0*
G37*
G36*
X296016Y30900D02*
G02X295771Y30984I0J400D01*
G03X294246Y32670I-2818J-1016*
G01X296016Y33950*
X297786Y32670*
G03X296261Y30984I1293J-2702*
G02X296016Y30900I-245J316*
G37*
G36*
X302016D02*
G02X301771Y30984I0J400D01*
G03X300246Y32670I-2818J-1016*
G01X302016Y33950*
X303786Y32670*
G03X302261Y30984I1293J-2702*
G02X302016Y30900I-245J316*
G37*
G36*
X296016Y40050D02*
G01X294246Y41330D01*
G03X295771Y43016I-1293J2702*
G02X296016Y43100I245J-316*
X296261Y43016I0J-400*
G03X297786Y41330I2818J1016*
G01X296016Y40050*
G37*
G36*
X302016D02*
G01X300246Y41330D01*
G03X301771Y43016I-1293J2702*
G02X302016Y43100I245J-316*
X302261Y43016I0J-400*
G03X303786Y41330I2818J1016*
G01X302016Y40050*
G37*
G36*
X32670Y90230D02*
G03X30984Y91755I-2702J-1293D01*
G02X30900Y92000I316J245*
X30984Y92245I400J0*
G03X32670Y93770I-1016J2818*
G01X33950Y92000*
X32670Y90230*
G37*
G36*
Y84230D02*
G03X30984Y85755I-2702J-1293D01*
G02X30900Y86000I316J245*
X30984Y86245I400J0*
G03X32670Y87770I-1016J2818*
G01X33950Y86000*
X32670Y84230*
G37*
G36*
Y78230D02*
G03X30984Y79755I-2702J-1293D01*
G02X30900Y80000I316J245*
X30984Y80245I400J0*
G03X32670Y81770I-1016J2818*
G01X33950Y80000*
X32670Y78230*
G37*
G36*
Y72230D02*
G03X30984Y73755I-2702J-1293D01*
G02X30900Y74000I316J245*
X30984Y74245I400J0*
G03X32670Y75770I-1016J2818*
G01X33950Y74000*
X32670Y72230*
G37*
G36*
Y66230D02*
G03X30984Y67755I-2702J-1293D01*
G02X30900Y68000I316J245*
X30984Y68245I400J0*
G03X32670Y69770I-1016J2818*
G01X33950Y68000*
X32670Y66230*
G37*
G36*
X19192Y68250D02*
G01X16900Y70000D01*
X19192Y71750*
G03X20659Y70283I2495J1028*
G02X20776Y70000I-284J-283*
X20659Y69717I-401J0*
G03X19192Y68250I1028J-2495*
G37*
G36*
Y88103D02*
G01X16900Y90000D01*
X19192Y91897*
G03X20806Y90283I2745J1131*
G02X20923Y90000I-284J-283*
X20806Y89717I-401J0*
G03X19192Y88103I1131J-2745*
G37*
G36*
X304054Y16908D02*
G01X302016Y19000D01*
Y21869*
X302299Y22151*
G03X305258Y19192I5031J2072*
G01X304054Y16908*
G37*
G36*
X293978D02*
G01X292774Y19192D01*
G03X295733Y22151I-2072J5031*
G01X296016Y21869*
Y19000*
X293978Y16908*
G37*
G36*
X253882Y130846D02*
G03X252194Y132373I-2705J-1294D01*
G02X252111Y132617I317J244*
X252194Y132862I400J1*
G03X253882Y134389I-1017J2821*
G01X256935Y132618*
X253882Y130846*
G37*
G36*
X271756Y80569D02*
G01X269984Y83621D01*
G03X271511Y85309I-1294J2705*
G02X271756Y85393I245J-316*
X272001Y85309I0J-400*
G03X273528Y83621I2821J1017*
G01X271756Y80569*
G37*
G36*
X261756D02*
G01X259984Y83621D01*
G03X261511Y85309I-1294J2705*
G02X261756Y85393I245J-316*
X262001Y85309I0J-400*
G03X263528Y83621I2821J1017*
G01X261756Y80569*
G37*
G36*
X276756Y75944D02*
G02X276511Y76028I0J400D01*
G03X274984Y77716I-2821J-1017*
G01X276756Y80769*
X278528Y77716*
G03X277001Y76028I1294J-2705*
G02X276756Y75944I-245J316*
G37*
G36*
X266756Y149466D02*
G01X264984Y152519D01*
G03X266511Y154207I-1294J2705*
G02X266756Y154291I245J-316*
X267001Y154207I0J-400*
G03X268528Y152519I2821J1017*
G01X266756Y149466*
G37*
G36*
X271756D02*
G01X269984Y152519D01*
G03X270784Y153078I-1295J2705*
G01Y153079*
X270696Y153119*
X271345Y153829*
G03X271511Y154207I-2659J1393*
G02X271756Y154291I245J-316*
X272001Y154207I0J-400*
G03X272167Y153831I2820J1020*
G01Y153830*
X272817Y153119*
X272728Y153079*
Y153078*
G03X273528Y152519I2095J2146*
G01X271756Y149466*
G37*
G36*
X276756D02*
G01X274984Y152519D01*
G03X275745Y153040I-1294J2706*
Y153042J1*
G01X275696Y153063*
X276263Y153684*
G03X276511Y154207I-2575J1541*
G02X276756Y154291I245J-316*
X277001Y154207I0J-400*
G03X277248Y153685I2823J1016*
G01X277817Y153063*
X277767Y153041*
Y153040*
G03X278528Y152519I2055J2185*
G01X276756Y149466*
G37*
G36*
X281756D02*
G01X279984Y152519D01*
G03X280745Y153040I-1294J2706*
Y153042J1*
G01X280696Y153063*
X281263Y153684*
G03X281511Y154207I-2575J1541*
G02X281756Y154291I245J-316*
X282001Y154207I0J-400*
G03X282248Y153685I2823J1016*
G01X282817Y153063*
X282767Y153041*
Y153040*
G03X283528Y152519I2055J2185*
G01X281756Y149466*
G37*
G36*
X286756D02*
G01X284984Y152519D01*
G03X285745Y153040I-1294J2706*
Y153042J1*
G01X285696Y153063*
X286263Y153684*
G03X286511Y154207I-2575J1541*
G02X286756Y154291I245J-316*
X287001Y154207I0J-400*
G03X287248Y153685I2823J1016*
G01X287817Y153063*
X287767Y153041*
Y153040*
G03X288528Y152519I2055J2185*
G01X286756Y149466*
G37*
G36*
X291756D02*
G01X289984Y152519D01*
G03X291511Y154207I-1294J2705*
G02X291756Y154291I245J-316*
X292001Y154207I0J-400*
G03X293528Y152519I2821J1017*
G01X291756Y149466*
G37*
G36*
X296756D02*
G01X294984Y152519D01*
G03X295745Y153040I-1294J2706*
Y153042J1*
G01X295696Y153063*
X296263Y153684*
G03X296511Y154207I-2575J1541*
G02X296756Y154291I245J-316*
X297001Y154207I0J-400*
G03X297248Y153685I2823J1016*
G01X297817Y153063*
X297767Y153041*
Y153040*
G03X298528Y152519I2055J2185*
G01X296756Y149466*
G37*
G36*
X301756D02*
G01X299984Y152519D01*
G03X301511Y154207I-1294J2705*
G02X301756Y154291I245J-316*
X302001Y154207I0J-400*
G03X303528Y152519I2821J1017*
G01X301756Y149466*
G37*
G36*
X306756D02*
G01X304984Y152519D01*
G03X306511Y154207I-1294J2705*
G02X306756Y154291I245J-316*
X307001Y154207I0J-400*
G03X308528Y152519I2821J1017*
G01X306756Y149466*
G37*
G36*
X311756D02*
G01X309984Y152519D01*
G03X311511Y154207I-1294J2705*
G02X311756Y154291I245J-316*
X312001Y154207I0J-400*
G03X313528Y152519I2821J1017*
G01X311756Y149466*
G37*
G36*
X261756D02*
G01X259984Y152519D01*
G03X261511Y154207I-1294J2705*
G02X261756Y154291I245J-316*
X262001Y154207I0J-400*
G03X263528Y152519I2821J1017*
G01X261756Y149466*
G37*
G36*
X316756Y144824D02*
G01X316739Y144842D01*
Y144843*
G02X316511Y144926I16J400*
G03X316379Y145237I-2822J-1014*
G01X315696Y145984*
X315804Y146034*
G03Y146035I-1J1*
X314984Y146614I-2115J-2126*
G01X316756Y149666*
X318528Y146614*
G03X317708Y146036I1294J-2706*
Y146034J-1*
G01X317817Y145984*
X317133Y145236*
G03X317001Y144926I2689J-1328*
G02X316773Y144843I-244J317*
G01Y144842*
X316756Y144824*
G37*
G36*
X222008Y16625D02*
G01X219816Y19192D01*
G03X220947Y20323I-792J1923*
G02X222008Y20762I1061J-1062*
X223069Y20323I0J-1501*
G03X224200Y19192I1923J792*
G01X222008Y16625*
G37*
G36*
X308020Y256496D02*
G02X306959Y256935I0J1501D01*
G03X305828Y258067I-1924J-791*
G01X308020Y260634*
X310212Y258067*
G03X309081Y256935I793J-1923*
G02X308020Y256496I-1061J1062*
G37*
G36*
X266756Y75624D02*
G01X265696Y76784D01*
G03X265982Y76943I-547J1321*
X265983Y76944I0J1*
X264984Y77716I-2292J-1934*
G01X266756Y80769*
X268528Y77716*
G03X267530Y76944I1295J-2705*
Y76943I1J0*
X267817Y76784I832J1163*
G01X266756Y75624*
G37*
G36*
X281756D02*
G01X280696Y76784D01*
G03X280982Y76943I-547J1321*
X280983Y76944I0J1*
X279984Y77716I-2292J-1934*
G01X281756Y80769*
X283528Y77716*
G03X282530Y76944I1295J-2705*
Y76943I1J0*
X282817Y76784I832J1163*
G01X281756Y75624*
G37*
G36*
X286756D02*
G01X285696Y76784D01*
G03X285982Y76943I-547J1321*
X285983Y76944I0J1*
X284984Y77716I-2292J-1934*
G01X286756Y80769*
X288528Y77716*
G03X287530Y76944I1295J-2705*
Y76943I1J0*
X287817Y76784I832J1163*
G01X286756Y75624*
G37*
G36*
X291756D02*
G01X290696Y76784D01*
G03X290982Y76943I-547J1321*
X290983Y76944I0J1*
X289984Y77716I-2292J-1934*
G01X291756Y80769*
X293528Y77716*
G03X292530Y76944I1295J-2705*
Y76943I1J0*
X292817Y76784I832J1163*
G01X291756Y75624*
G37*
G36*
X301756D02*
G01X300696Y76784D01*
G03X300982Y76943I-547J1321*
X300983Y76944I0J1*
X299984Y77716I-2292J-1934*
G01X301756Y80769*
X303528Y77716*
G03X302530Y76944I1295J-2705*
Y76943I1J0*
X302817Y76784I832J1163*
G01X301756Y75624*
G37*
G36*
X321756D02*
G01X320696Y76784D01*
G03X320982Y76943I-547J1321*
X320983Y76944I0J1*
X319984Y77716I-2292J-1934*
G01X321756Y80769*
X323528Y77716*
G03X322530Y76944I1295J-2705*
Y76943I1J0*
X322817Y76784I832J1163*
G01X321756Y75624*
G37*
G36*
X31270Y259054D02*
G03X30100Y260195I-2696J-1594D01*
X28930Y259054I1526J-2735*
G01X27500Y260824*
X28930Y262594*
G03X30100Y261452I2697J1593*
X31270Y262594I-1527J2735*
G01X32700Y260824*
X31270Y259054*
G37*
G36*
X224458Y208062D02*
G03X222549Y209971I-3246J-1337D01*
G02X222432Y210253I284J283*
X222549Y210536I400J0*
G03X224458Y212446I-1338J3246*
G01X226750Y210254*
X224458Y208062*
G37*
G36*
X345828Y208067D02*
G03X343919Y209976I-3246J-1337D01*
G02X343802Y210259I284J283*
X343919Y210541I400J-1*
G03X345828Y212451I-1338J3246*
G01X348120Y210259*
X345828Y208067*
G37*
G36*
X218842Y208062D02*
G01X216550Y210254D01*
X218842Y212446*
G03X220751Y210536I3247J1336*
G02X220868Y210253I-284J-283*
X220751Y209971I-401J1*
G03X218842Y208062I1337J-3246*
G37*
G36*
X340212Y208067D02*
G01X337920Y210259D01*
X340212Y212451*
G03X342121Y210541I3247J1336*
G02X342238Y210259I-284J-283*
X342121Y209976I-401J0*
G03X340212Y208067I1337J-3246*
G37*
G36*
X19192Y77808D02*
G01X16900Y80000D01*
X19192Y82192*
G03X21101Y80283I3246J1337*
G02X21218Y80000I-284J-283*
X21101Y79717I-401J0*
G03X19192Y77808I1337J-3246*
G37*
G36*
X316756Y75424D02*
G01X315696Y76584D01*
G03X316081Y76820I-545J1322*
G01Y76821*
G03X314984Y77716I-2391J-1811*
G01X316756Y80769*
X318528Y77716*
G03X317431Y76821I1294J-2706*
G01Y76820*
G03X317817Y76584I930J1087*
G01X316756Y75424*
G37*
G36*
X162664Y218054D02*
G01X160365Y220254D01*
X162664Y222453*
G03X164581Y220536I3259J1342*
G02X164698Y220253I-284J-283*
X164581Y219971I-401J1*
G03X162664Y218054I1341J-3258*
G37*
G36*
X284532D02*
G01X282232Y220254D01*
X284532Y222453*
G03X286448Y220536I3259J1341*
G02X286565Y220253I-284J-283*
X286448Y219971I-401J1*
G03X284532Y218054I1343J-3258*
G37*
G36*
X253882Y90846D02*
G03X252153Y91333I-1729J-2827D01*
X251392Y91244I2J-3314*
G02X251117Y91624I125J380*
X251213Y91884I400J0*
G03X253882Y94389I-1691J4476*
G01X256933Y92636*
X253882Y90846*
G37*
G36*
Y95846D02*
G03X252242Y96268I-1640J-2977D01*
X251311Y96138I0J-3399*
G02X251018Y96523I107J385*
X251114Y96784I400J1*
G03X253882Y99389I-1760J4644*
G01X256933Y97637*
X253882Y95846*
G37*
G36*
X308000Y74816D02*
G02X307745Y74908I0J400D01*
G03X304984Y77716I-4767J-1926*
G01X306734Y80766*
X308528Y77716*
G03X308199Y76258I3067J-1458*
X308391Y75133I3396J1*
G02X308000Y74816I-391J83*
G37*
G36*
X310500D02*
G02X310108Y75135I0J400D01*
G03X310305Y76275I-3197J1139*
X309984Y77716I-3393J0*
G01X311778Y80766*
X313528Y77716*
G03X310755Y74908I2002J-4750*
G02X310500Y74816I-255J308*
G37*
G36*
X358689Y255205D02*
G03X355828Y258067I-4864J-2001D01*
G01X357871Y260603*
X359750Y258529*
Y256266*
X358689Y255205*
G37*
G36*
X237389Y255130D02*
G03X234458Y258062I-4983J-2050D01*
G01X236498Y260597*
X238450Y258454*
Y256191*
X237389Y255130*
G37*
G36*
X352570Y181294D02*
G01X350828Y182393D01*
X350827Y182394*
Y182393*
X350800Y182374*
X349030Y183654*
G03X350412Y184919I-1177J2674*
G01Y184920*
G03X349164Y185994I-2260J-1365*
G01X350800Y187274*
X352436Y185994*
G03X351188Y184920I1012J-2438*
G01Y184919*
G03X352570Y183654I2559J1409*
X353684Y182694I1753J908*
G02X353750Y182473I-335J-220*
X353684Y182253I-401J0*
G03X352570Y181294I639J-1869*
G37*
G36*
X352770Y44394D02*
G01X351028Y45493D01*
X351027Y45494*
Y45493*
X351000Y45474*
X349230Y46754*
G03X350511Y47923I-1293J2703*
G01Y47924*
G03X349230Y49094I-2574J-1532*
G01X351000Y50374*
X352770Y49094*
G03X351489Y47924I1293J-2702*
G01Y47923*
G03X352770Y46754I2573J1534*
X353884Y45794I1753J908*
G02X353950Y45573I-334J-220*
X353884Y45353I-400J0*
G03X352770Y44394I639J-1869*
G37*
G36*
X358307Y176521D02*
G01X355241Y178620D01*
G03X358054Y181431I-1984J4798*
G02X358307Y181521I253J-311*
X358560Y181431I0J-401*
G03X361373Y178620I4797J1987*
G01X358307Y176521*
G37*
G36*
Y39181D02*
G01X355241Y41280D01*
G03X358054Y44091I-1984J4798*
G02X358307Y44181I253J-311*
X358560Y44091I0J-401*
G03X361373Y41280I4797J1987*
G01X358307Y39181*
G37*
G36*
X138800Y86649D02*
G01X135800D01*
X133739Y88084*
G03X136239Y90584I-1750J4250*
G02X137300Y91023I1061J-1062*
X138361Y90584I0J-1501*
G03X140861Y88084I4250J1750*
G01X138800Y86649*
G37*
G36*
X284016Y13238D02*
G02X282955Y13677I0J1501D01*
G03X281824Y14808I-1924J-793*
G01X283695Y16999*
G03Y17001J1*
G01X281824Y19192*
G03X282955Y20323I-792J1923*
G02X284016Y20762I1061J-1062*
X285076Y20323I-1J-1501*
G03X286208Y19192I1923J793*
G01X284337Y17001*
G03Y16999J-1*
G01X286208Y14808*
G03X285076Y13677I791J-1924*
G02X284016Y13238I-1061J1062*
G37*
G36*
X186650Y256491D02*
G02X185589Y256930I0J1501D01*
G03X184458Y258062I-1924J-791*
G01X186329Y260253*
G03Y260255J1*
G01X184458Y262446*
G03X185589Y263577I-792J1923*
G02X186650Y264016I1061J-1062*
X187711Y263577I0J-1501*
G03X188842Y262446I1923J792*
G01X186971Y260255*
G03Y260253J-1*
G01X188842Y258062*
G03X187711Y256930I793J-1923*
G02X186650Y256491I-1061J1062*
G37*
G36*
X368020Y256496D02*
G02X366959Y256935I0J1501D01*
G03X365828Y258067I-1924J-791*
G01X367699Y260258*
G03Y260260J1*
G01X365828Y262451*
G03X366959Y263582I-792J1923*
G02X368020Y264021I1061J-1062*
X369081Y263582I0J-1501*
G03X370212Y262451I1923J792*
G01X368341Y260260*
G03Y260258J-1*
G01X370212Y258067*
G03X369081Y256935I793J-1923*
G02X368020Y256496I-1061J1062*
G37*
G36*
X76407Y186624D02*
G03X73510Y188991I-4811J-2931D01*
G02X73407Y189623I1897J633*
X73510Y190256I1999J0*
G03X76407Y192624I-1915J5298*
G01X79407Y189624*
X76407Y186624*
G37*
G36*
X173550Y207188D02*
G03X170740Y210001I-4798J-1983D01*
G02X170650Y210253I311J253*
X170740Y210506I400J0*
G03X173550Y213319I-1989J4797*
G01X176750Y210254*
X173550Y207188*
G37*
G36*
X274016Y16625D02*
G01X270916Y20100D01*
G03X273328Y23033I-2626J4617*
G02X274016Y23200I688J-1333*
X274704Y23033I0J-1500*
G03X277116Y20100I5037J1684*
G01X274016Y16625*
G37*
G36*
X143575Y187143D02*
G01X139965Y190254D01*
X143575Y193364*
G03X146569Y190926I4917J2981*
G02X146685Y190253I-1885J-671*
X146569Y189581I-2001J-1*
G03X143575Y187143I1923J-5419*
G37*
G36*
X17000Y46238D02*
G02X15939Y46677I0J1501D01*
G03X14808Y47808I-1924J-793*
X13677Y48939I-1923J-792*
G02X13238Y50000I1062J1061*
X13677Y51061I1500J0*
G03X14808Y52192I-793J1924*
G01X16972Y50344*
X16973*
X17000Y50375*
X17027Y50344*
X17028*
X19192Y52192*
G03X20323Y51061I1923J792*
G02X20762Y50000I-1062J-1061*
X20323Y48939I-1501J0*
G03X19192Y47808I792J-1923*
X18061Y46677I793J-1924*
G02X17000Y46238I-1061J1062*
G37*
G36*
X246650Y256491D02*
G02X245589Y256930I0J1501D01*
G03X244458Y258062I-1924J-791*
G01X246306Y260226*
Y260227*
X246275Y260254*
X246306Y260281*
Y260282*
X244458Y262446*
G03X245589Y263577I-792J1923*
G02X246650Y264016I1061J-1062*
X247711Y263577I0J-1501*
G03X248842Y262446I1924J793*
X249973Y261314I1924J791*
G02X250412Y260253I-1062J-1061*
X249973Y259193I-1501J1*
G03X248842Y258062I792J-1923*
X247711Y256930I793J-1923*
G02X246650Y256491I-1061J1062*
G37*
G36*
X49620Y50566D02*
G01X49501Y50590D01*
X43509Y56582*
G02X43450Y56723I140J142*
G01Y58223*
G02X43574Y58408I200J0*
G01X43630Y58431*
X43749Y58408*
X49741Y52415*
G02X49800Y52274I-140J-142*
G01Y50774*
G02X49676Y50589I-200*
G01X49620Y50566*
G37*
G36*
X274016Y28464D02*
G02X273245Y28677I0J1500D01*
G03X270276Y32204I-5960J-2004*
G01X274016Y37304*
X277756Y32204*
G03X274787Y28677I2992J-5531*
G02X274016Y28464I-771J1287*
G37*
G36*
X265443Y187143D02*
G01X262333Y189823D01*
X262332*
X259222Y187143*
G03X256228Y189581I-4917J-2981*
G02X256112Y190253I1884J671*
X256228Y190926I2000J2*
G03X259222Y193364I-1923J5420*
G01X262332Y190685*
X262333*
X265443Y193364*
G03X268436Y190926I4917J2981*
G02X268552Y190253I-1885J-671*
X268436Y189581I-2001J-1*
G03X265443Y187143I1924J-5419*
G37*
G36*
X270296Y48466D02*
G03X266524Y52290I-6725J-2861D01*
G01X266523*
G03X265283Y50692I2273J-3044*
G02X265000Y50575I-283J283*
X264717Y50692I0J400*
G03X262652Y52758I-3513J-1446*
G01X264600Y53140*
X265400*
X266277Y52968*
G03X266278Y52969I0J1*
G01X266276Y53040*
G02X266457Y53754I1500J0*
G03X270276Y57662I-2968J6720*
G01X274391Y53073*
X270296Y48466*
G37*
G36*
X53100Y210324D02*
G01X48900D01*
X48500Y210724*
Y215224*
X45400Y218324*
Y222724*
X43400Y224724*
X39000*
Y231624*
X40000Y232624*
X52000*
X53300Y231324*
Y210524*
X53100Y210324*
G37*
G36*
X81200Y162324D02*
G01X78500D01*
X78300Y162524*
Y173424*
X77700Y174024*
X60100*
X59800Y174324*
Y178124*
X60100Y178424*
X80900*
X81400Y177924*
Y162524*
X81200Y162324*
G37*
G36*
X323500Y146424D02*
G01X320000D01*
X319800Y146624*
Y154524*
X317800Y156524*
Y170353*
G03X313701Y174359I-7620J-3697*
G02X313511Y175209I1811J851*
X313701Y176059I2001J-1*
G03X318012Y180538I-3521J7703*
G01X318705Y179624*
X318706*
X324900*
X325300Y179224*
Y177984*
Y177983*
G03X327992Y175516I4751J2482*
G02X328097Y175209I-395J-307*
X327992Y174902I-500J0*
G03X325300Y172435I2059J-4949*
G01Y172434*
Y169224*
X324400Y168324*
X324100*
X322900Y167124*
Y157824*
X323700Y157024*
Y146624*
X323500Y146424*
G37*
G36*
X77500Y154724D02*
G01X44433D01*
G02X44248Y154847I0J200*
G01X44225Y154903*
X44249Y155022*
X44591Y155365*
G02X44732Y155423I141J-141*
G01X44733*
X47367*
G03X47508Y155482I-1J200*
G01X51142Y159115*
G03X51200Y159256I-141J141*
G01Y159257*
Y170591*
G02X51259Y170732I200J-1*
G01X55958Y175432*
G02X56099Y175490I141J-141*
X56176Y175475I1J-199*
G01X56232Y175452*
X56300Y175351*
Y172957*
Y172956*
G03X56358Y172815I200J0*
G01X58592Y170582*
G03X58733Y170523I142J140*
G01X58750*
Y167424*
Y167423*
G03X60250Y165923I1500J0*
G01X62822*
G03Y165924I-1J1*
X60422Y167424I-5626J-6332*
G01X65750Y170024*
X71078Y167424*
G03X68678Y165924I3226J-7832*
G01X68679Y165923*
X71250*
G03X72750Y167423I0J1500*
G01Y167424*
Y170323*
G02X72950Y170523I200J0*
G01X74600*
G02X74800Y170323I0J-200*
G01Y161157*
Y161156*
G03X74858Y161015I200J0*
G01X76992Y158882*
G03X77133Y158823I142J140*
G01X80267*
G02X80452Y158700I0J-200*
G01X80475Y158644*
X80451Y158525*
X77758Y155832*
G03X77700Y155691I141J-141*
G01Y154924*
G02X77500Y154724I-200*
G37*
G36*
X143200Y125524D02*
G01X140200D01*
X140000Y125724*
Y135124*
X136600Y138524*
Y148124*
X128100Y156624*
Y170224*
X128700Y170824*
X133467*
G03X135174Y173284I-5996J5983*
G02X136023Y173473I849J-1812*
X136873Y173284I1J-2001*
G03X138580Y170824I7703J3523*
G01X145200*
X145800Y170224*
Y155624*
X154000Y147424*
Y137724*
X152900Y136624*
X144700*
X143400Y135324*
Y125724*
X143200Y125524*
G37*
G36*
X70800Y238724D02*
G01X45800D01*
X44700Y239824*
Y258624*
X44300Y259024*
X37600*
X37500Y259124*
Y262624*
X37800Y262924*
X51100*
X53200Y265024*
Y277524*
X54600Y278924*
X66600*
X68100Y277424*
Y264724*
X69900Y262924*
X71000*
X71600Y262324*
Y256324*
X72900Y255024*
X81200*
X81800Y254424*
Y245224*
X81600Y245024*
X73100*
X71500Y243424*
Y239424*
X70800Y238724*
G37*
G36*
X328700Y7924D02*
G01X269394D01*
G02X269253Y7982I0J200*
G01X267259Y9976*
G02X267200Y10118I140J142*
G01Y47651*
G02X267283Y47813I200J0*
G03X267996Y48478I-2283J3162*
G01X268028Y48516*
X268120Y48554*
X268498Y48518*
G02X268654Y48416I-19J-199*
G01X268773Y48189*
G02X268792Y48129I-179J-90*
G03X270046Y46863I1484J216*
G01X270119Y46852*
X270216Y46740*
Y43260*
X270119Y43148*
X270046Y43137*
G03X268776Y41655I230J-1482*
G01Y41654*
Y32204*
Y32203*
G03X269568Y30881I1500J0*
G01X269569*
G02X270657Y30073I-2282J-4210*
X270716Y29931I-141J-142*
G01Y29930*
Y22191*
X270623Y22080*
X270552Y22067*
G03X268916Y20100I365J-1967*
G01Y13900*
G03X270916Y11900I2000*
G01X277116*
G03X279116Y13900I0J2000*
G01Y14550*
G02X279316Y14750I200J0*
G01X279372*
X279468Y14692*
X279493Y14642*
G03X284015Y11900I4523J2359*
X288652Y14875I0J5101*
G02X288834Y14992I182J-83*
G01X289198*
G02X289380Y14875I0J-200*
G03X294016Y11900I4636J2125*
X298652Y14875I0J5100*
G02X298834Y14992I182J-83*
G01X299198*
G02X299380Y14875I0J-200*
G03X304016Y11900I4636J2125*
X308652Y14875I0J5100*
G02X308834Y14992I182J-83*
G01X309198*
G02X309380Y14875I0J-200*
G03X314016Y11900I4636J2125*
X318652Y14875I0J5100*
G02X318834Y14992I182J-83*
G01X319198*
G02X319380Y14875I0J-200*
G03X324016Y11899I4637J2124*
X328174Y14046I0J5100*
G01X328211Y14100*
X328335Y14141*
X328761Y14005*
G02X328900Y13815I-62J-191*
G01Y8124*
G02X328700Y7924I-200J0*
G37*
G36*
X110900Y123124D02*
G01X73600D01*
X73400Y123324*
Y145224*
X73600Y145424*
X81000*
X81200Y145624*
Y154324*
X85000Y158124*
Y171924*
X85200Y172124*
X92100*
X93500Y170724*
Y161424*
X94900Y160024*
X107465*
X107466*
G03X109490Y162066I-2304J4308*
G02X109900Y162123I410J-1444*
X110310Y162066I0J-1501*
G03X112334Y160024I4328J2266*
G01X112335*
X112900*
X113400Y159524*
Y148424*
X115500Y146324*
X129900*
X130000Y146224*
Y138724*
X129900Y138624*
X115500*
X113300Y136424*
Y125524*
X110900Y123124*
G37*
G36*
X171700Y105524D02*
G01X146900D01*
X146500Y105924*
Y129624*
X146800Y129924*
X180800*
X181900Y131024*
Y137524*
X186950Y142574*
X195150*
X200400Y147824*
X221900*
X227950Y153874*
X229250*
X230100Y153024*
Y144624*
X228400Y142924*
X209200*
X205400Y139124*
Y135024*
X200800Y130424*
X196500*
X194300Y128224*
Y120824*
X191000Y117524*
X174500*
X172100Y115124*
Y105924*
X171700Y105524*
G37*
G36*
X363202Y212267D02*
G01X362838D01*
G02X362656Y212384I0J200*
G03X358020Y215359I-4636J-2125*
X353384Y212384I0J-5100*
G02X353202Y212267I-182J83*
G01X352838*
G02X352656Y212384I0J200*
G03X348020Y215359I-4636J-2125*
X343473Y212568I0J-5100*
G02X343295Y212459I-178J91*
G01X343294*
X342746*
X342745*
G02X342567Y212568I0J200*
G03X338020Y215358I-4547J-2310*
X333384Y212384I0J-5100*
G02X333202Y212267I-182J83*
G01X332838*
G02X332656Y212384I0J200*
G03X328020Y215359I-4636J-2125*
X326438Y215107I1J-5100*
G02X326407Y215100I-59J191*
G01X326391Y215098*
X326384Y215097*
X326376*
G02X326234Y215156I0J200*
G01X318995Y222395*
G03X318854Y222454I-142J-140*
G01X286501*
G02X286328Y222554I0J200*
G03X282332Y224865I-3996J-2300*
X280032Y224250I1J-4611*
X278247Y218116I2300J-3996*
G01X278258Y218095*
X278270Y218048*
Y218024*
G02X278070Y217824I-200*
G01X277957*
X277956*
G02X277815Y217882I0J200*
G01X276798Y218899*
X276770Y219003*
X276784Y219055*
G03X272332Y224865I-4452J1199*
G01X271936Y224848*
G03X268035Y218583I396J-4594*
G01X268061Y218517*
X268018Y218382*
X267630Y218130*
G02X267521Y218098I-109J168*
X267380Y218156I0J200*
G01X266800Y218735*
G02X266750Y218934I141J141*
G03X262333Y224865I-4417J1321*
G01X262262Y224864*
X262201Y224863*
X262098Y224929*
X261930Y225327*
G02X261973Y225546I184J78*
G01X266742Y230315*
G03X266800Y230457I-141J141*
G01Y236591*
G02X266859Y236732I200J-1*
G01X267474Y237347*
G02X267615Y237406I142J-140*
X267717Y237378I0J-199*
G01X268110Y237146*
X268160Y237019*
X268141Y236953*
G03X271859Y231399I4189J-1217*
G01X272094Y231380*
X272330Y231374*
G03X276683Y236025I0J4362*
X272330Y240098I-4353J-289*
X271113Y239925I-1J-4362*
G01X271047Y239906*
X270920Y239957*
X270688Y240349*
G02X270719Y240592I172J101*
G01X273391Y243265*
G02X273532Y243323I141J-141*
G01X273533*
X286307*
X286381Y243293*
X286400Y243274*
Y237057*
G03X286458Y236915I200J-1*
G01X289292Y234082*
G03X289433Y234023I142J140*
G01X302667*
G03X302808Y234082I-1J200*
G01X305591Y236865*
G02X305732Y236923I141J-141*
G01X305733*
X305748*
G03X305749Y236924I0J1*
X304100Y238424I-4219J-2982*
G01X306708Y240923*
G03Y240925J1*
G01X304100Y243424*
G03X305752Y244929I-2572J4482*
G01Y244930*
G02X305600Y245124I48J194*
G01Y245723*
G02X305752Y245917I200J0*
G01X305753Y245918*
G03X304100Y247424I-4224J-2976*
G01X306680Y249897*
G03Y249898I-1J1*
G01X304105Y252419*
X304100Y252424*
G03X305752Y253929I-2572J4482*
G01Y253930*
G02X305600Y254124I48J194*
G01Y255143*
G02X305688Y255308I200J-1*
G01X306002Y255522*
X306101Y255533*
X306147Y255515*
G03X306636Y255350I1873J4744*
G01X306637*
G02X306947Y255416I466J-1427*
G01X306948*
X307232Y256120*
G02X308020Y256344I789J-1277*
X309158Y255821I0J-1501*
G01X309143Y255597*
X309139Y255484*
X309138Y255372*
X309139Y255284*
Y255283*
X309140*
G03X312552Y257920I-1121J4976*
G01X312578Y257971*
X312675Y258029*
X313146Y258025*
X313242Y257965*
X313267Y257914*
G03X318020Y254959I4753J2345*
X322773Y257914I0J5300*
G01X322798Y257965*
X322894Y258025*
X323365Y258029*
X323462Y257971*
X323488Y257920*
G03X328020Y255159I4532J2338*
X332656Y258134I0J5099*
G02X332837Y258250I181J-84*
G01X332838*
X333202*
G02X333384Y258134I0J-200*
G03X338021Y255159I4636J2125*
X342553Y257920I0J5100*
G01X342578Y257971*
X342675Y258029*
X343146Y258025*
X343242Y257965*
X343267Y257914*
G03X348020Y254959I4753J2345*
X352773Y257914I0J5300*
G01X352798Y257965*
X352894Y258025*
X353365Y258029*
X353462Y257971*
X353488Y257920*
G03X356317Y255451I4533J2338*
G02X356450Y255263I-68J-189*
G01Y241924*
G03X359750Y238624I3300J0*
X363050Y241924I0J3300*
G01Y242191*
G02X363179Y242378I200J0*
G01X363587Y242533*
X363708Y242503*
X363749Y242457*
G03X364870Y241953I1122J996*
G01X367230*
G03X368730Y243454I0J1500*
G01Y244753*
G03X368729Y244754I-1J0*
X367230Y243454I1197J-2895*
X366201Y242285I1316J-2196*
G01X365899*
G03X364870Y243454I-2345J-1027*
G01X365860Y245149*
Y245150*
X365800Y245224*
X365860Y245298*
Y245299*
X364870Y246994*
G03X365899Y248162I-1315J2196*
G01X366201*
G03X367230Y246994I2345J1029*
X368729Y245693I2697J1593*
X368730Y245694I0J1*
G01Y246994*
G03X368374Y247965I-1500J1*
G01X368350Y247992*
X368326Y248058*
Y248389*
X368350Y248455*
X368374Y248482*
G03X368730Y249454I-1145J970*
G01Y250753*
G03X368729Y250754I-1J0*
X367230Y249454I1197J-2895*
X366201Y248285I1316J-2196*
G01X365899*
G03X364870Y249454I-2345J-1027*
G01X365860Y251149*
Y251150*
X365800Y251224*
X365860Y251298*
Y251299*
X364870Y252994*
G03X365899Y254162I-1315J2196*
G01X366201*
G03X367230Y252994I2345J1029*
X368729Y251693I2697J1593*
X368730Y251694I0J1*
G01Y252994*
G03X367230Y254494I-1500J0*
G01X364870*
G03X363749Y253991I0J-1500*
G01X363708Y253944*
X363587Y253914*
X363179Y254070*
G02X363050Y254257I71J187*
G01Y257198*
G02X363192Y257389I200J0*
G01X363621Y257520*
X363746Y257475*
X363782Y257420*
G03X368020Y255158I4238J2838*
X372282Y257457I0J5100*
G01X372318Y257512*
X372442Y257557*
X372873Y257428*
G02X373016Y257237I-57J-192*
G01Y213280*
G02X372873Y213089I-200J1*
G01X372442Y212960*
X372318Y213005*
X372282Y213061*
G03X368020Y215359I-4262J-2803*
X363384Y212384I1J-5101*
G02X363202Y212267I-182J83*
G37*
G36*
X48700Y123124D02*
G01X24900D01*
X17700Y130324*
Y156224*
X15000Y158924*
X3400*
X2300Y160024*
Y206324*
X2800Y206824*
X47000*
X47700Y206124*
Y193824*
X56400Y185124*
X72000*
X72500Y184624*
Y181324*
X71900Y180724*
X56300*
X47700Y172124*
Y160624*
X46000Y158924*
X43200*
X40300Y156024*
Y145924*
X40600Y145624*
X48500*
X48900Y145224*
Y123324*
X48700Y123124*
G37*
G36*
X95000Y186324D02*
G01X86900D01*
X86300Y186924*
Y196424*
X85100Y197624*
X76000*
X72500Y194124*
X60100*
X60000Y194224*
Y206324*
X63500Y209824*
Y231324*
X64000Y231824*
X72100*
X74200Y233924*
Y238024*
X74600Y238424*
X85500*
X87300Y240224*
Y251724*
X88800Y253224*
X107200*
X117300Y263324*
X178300*
X180600Y261024*
Y237424*
X183000Y235024*
X248400*
X252200Y238824*
Y243924*
X256300Y248024*
Y257624*
X262200Y263524*
X299600*
X302100Y261024*
Y238324*
X301300Y237524*
X290800*
X289900Y238424*
Y244724*
X287800Y246824*
X272000*
X263300Y238124*
Y231824*
X254800Y223324*
X171500*
X163700Y231124*
Y244924*
X162700Y245924*
X132800*
X114500Y227624*
X105800*
X95200Y217024*
Y186524*
X95000Y186324*
G37*
G36*
X178200Y133424D02*
G01X155133D01*
G02X154948Y133547I0J200*
G01X154925Y133603*
X154949Y133722*
X157442Y136215*
G03X157500Y136357I-141J141*
G01Y148791*
G03X157442Y148932I-200J0*
G01X149359Y157015*
G02X149300Y157156I140J142*
G01Y171591*
G03X149242Y171732I-200J0*
G01X146708Y174265*
G03X146567Y174324I-142J-140*
G01X140024*
G02X139824Y174524J200*
G01Y184155*
G02X139882Y184297I200J1*
G01X141170Y185585*
G02X141311Y185643I141J-141*
G01X141312*
X143575*
X143576*
G03X144854Y186358I0J1500*
G02X145024Y186453I170J-105*
G01X147793*
X147794*
G02X147904Y186420I0J-200*
G03X150465Y185643I2561J3834*
X153026Y186420I0J4611*
G02X153136Y186453I110J-167*
G01X153137*
X157793*
X157794*
G02X157904Y186420I0J-200*
G03X160465Y185643I2561J3834*
X163026Y186420I0J4611*
G02X163136Y186453I110J-167*
G01X163137*
X257774*
G02X257944Y186358I0J-200*
G01X258161Y186083*
G03X259222Y185643I1062J1060*
G01X265443*
G03X266504Y186083I0J1500*
G01X266721Y186358*
G02X266891Y186453I170J-105*
G01X269661*
X269662*
G02X269772Y186420I0J-200*
G03X272333Y185644I2560J3835*
X274893Y186420J4611*
G02X275003Y186453I110J-167*
G01X275004*
X279661*
X279662*
G02X279772Y186420I0J-200*
G03X282333Y185643I2561J3834*
X285664Y187066I0J4611*
X286051Y192981I-3331J3188*
X282333Y194865I-3718J-2727*
X280293Y194389I0J-4611*
X279772Y194088I2041J-4134*
G02X279661Y194054I-111J166*
G01X275004*
G02X274893Y194088I1J200*
G03X272333Y194864I-2560J-3835*
X269772Y194088I-1J-4611*
G02X269661Y194054I-111J166*
G01X266891*
G02X266721Y194149I0J200*
G01X266504Y194425*
G03X265443Y194864I-1061J-1062*
G01X259222*
X259221*
G03X258161Y194425I0J-1500*
G01X257944Y194149*
G02X257774Y194054I-170J105*
G01X163137*
G02X163026Y194088I1J200*
G03X160465Y194865I-2561J-3834*
X157904Y194088I0J-4611*
G02X157793Y194054I-111J166*
G01X153137*
G02X153026Y194088I1J200*
G03X150465Y194865I-2561J-3834*
X147904Y194088I0J-4611*
G02X147793Y194054I-111J166*
G01X145024*
G02X144854Y194149I0J200*
G03X143576Y194864I-1278J-785*
G01X143575*
X137355*
G03X135855Y193364I0J-1500*
G01Y191100*
G02X135796Y190959I-200J1*
G01X132282Y187445*
G03X132223Y187304I140J-142*
G01Y174524*
G02X132023Y174324I-200*
G01X127333*
G03X127192Y174265I1J-200*
G01X124658Y171732*
G03X124600Y171591I141J-141*
G01Y155257*
G03X124658Y155115I200J-1*
G01X129608Y150165*
G02X129652Y149947I-140J-142*
G01X129629Y149891*
X129528Y149824*
X116993*
X116919Y149854*
X116900Y149873*
Y160891*
G03X116842Y161032I-200J0*
G01X114408Y163465*
G03X114267Y163524I-142J-140*
G01X111525*
G02X111432Y163547I0J200*
G03X109900Y163924I-1532J-2923*
X108368Y163547I0J-3300*
G02X108275Y163524I-93J177*
G01X97200*
G02X97000Y163724I0J200*
G01Y172091*
G03X96942Y172232I-200J0*
G01X93608Y175565*
G03X93467Y175624I-142J-140*
G01X89230*
G02X89041Y175758I0J200*
G03X89040Y175759I-1J0*
X87530Y174454I1186J-2899*
G01X86100Y176224*
X86160Y176298*
Y176299*
X85170Y177994*
G03X86199Y179162I-1315J2196*
G01X86501*
G03X87530Y177994I2345J1029*
X89029Y176693I2697J1593*
X89030Y176694I0J1*
G01Y177994*
G03X87530Y179494I-1500J0*
G01X85170*
G03X84920Y179473I0J-1500*
G01X84872Y179465*
X84779Y179494*
X82408Y181865*
G03X82267Y181924I-142J-140*
G01X76200*
G02X76000Y182124I0J200*
G01Y184723*
G02X76059Y184865I200J0*
G01X76288Y185093*
X76362Y185124*
X76402Y185123*
X81407*
G03X82450Y185545I0J1500*
G01X82509Y185602*
X82673Y185601*
X85392Y182882*
G03X85533Y182823I142J140*
G01X96367*
G03X96508Y182882I-1J200*
G01X98642Y185015*
G03X98700Y185157I-141J141*
G01Y215491*
G02X98759Y215632I200J-1*
G01X107191Y224065*
G02X107332Y224123I141J-141*
G01X107333*
X115867*
G03X116008Y224182I-1J200*
G01X134191Y242365*
G02X134332Y242423I141J-141*
G01X134333*
X160000*
G02X160200Y242223I0J-200*
G01Y229757*
G03X160258Y229615I200J-1*
G01X167078Y222795*
G02X167122Y222577I-140J-142*
G01X167098Y222521*
X166998Y222454*
X164634*
X164633*
G02X164460Y222554I0J200*
G03X160464Y224865I-3996J-2300*
X158521Y224435I1J-4611*
X156084Y218816I1944J-4181*
G01X156106Y218750*
X156058Y218620*
X155668Y218380*
G02X155563Y218350I-105J170*
X155421Y218409I0J200*
G01X154931Y218899*
X154903Y219003*
X154917Y219055*
G03X150471Y224865I-4452J1199*
G01X150465*
G03X146084Y218816I0J-4611*
G01X146106Y218750*
X146058Y218620*
X145668Y218380*
G02X145563Y218350I-105J170*
X145421Y218409I0J200*
G01X144931Y218899*
X144903Y219003*
X144917Y219055*
G03X142047Y224585I-4452J1199*
X140466Y224864I-1580J-4332*
X136357Y222346I-1J-4611*
G01X136325Y222284*
X136199Y222226*
X135754Y222333*
G02X135600Y222527I46J195*
G01Y227629*
G02X135659Y227771I200J0*
G01X140006Y232118*
X140109Y232146*
X140160Y232132*
G03X141000Y232023I841J3192*
X144192Y234484I0J3301*
X141840Y238516I-3192J840*
X141001Y238625I-841J-3192*
X137815Y236188I0J-3301*
G01X137808Y236162*
X137782Y236117*
X137450Y235786*
Y235785*
X137438Y235773*
X131258Y229594*
G03X131200Y229452I141J-141*
G01Y215295*
G03X131258Y215154I200J0*
G01X138300Y208112*
G03X138442Y208053I142J140*
G01X171027*
X171157Y208005*
G02X171499Y207671I-2403J-2802*
X171550Y207538I-149J-134*
G01Y207154*
G03X173550Y205153I2001J0*
G01X179750*
G03X181750Y207154I0J2000*
G01Y207803*
G02X181950Y208003I200J0*
G01X182006*
X182102Y207945*
X182128Y207896*
G03X186650Y205154I4522J2358*
X191286Y208128I0J5100*
G02X191468Y208245I182J-83*
G01X191832*
G02X192014Y208128I0J-200*
G03X196650Y205153I4636J2125*
X201286Y208128I0J5100*
G02X201468Y208245I182J-83*
G01X201832*
G02X202014Y208128I0J-200*
G03X206650Y205153I4636J2125*
X211286Y208128I0J5100*
G02X211468Y208245I182J-83*
G01X211832*
G02X212014Y208128I0J-200*
G03X216650Y205153I4636J2125*
X221197Y207944I0J5100*
G02X221375Y208053I178J-91*
G01X221376*
X221924*
X221925*
G02X222103Y207944I0J-200*
G03X226650Y205154I4547J2310*
X231286Y208128I0J5100*
G02X231468Y208245I182J-83*
G01X231832*
G02X232014Y208128I0J-200*
G03X236650Y205153I4636J2125*
X241286Y208128I0J5100*
G02X241468Y208245I182J-83*
G01X241832*
G02X242014Y208128I0J-200*
G03X246650Y205153I4636J2125*
X249902Y206325I-1J5100*
X249602Y214411I-3253J3928*
X246650Y215353I-2953J-4158*
X242014Y212379I0J-5100*
G02X241832Y212262I-182J83*
G01X241468*
G02X241286Y212379I0J200*
G03X236650Y215354I-4636J-2125*
X232014Y212379I0J-5100*
G02X231832Y212262I-182J83*
G01X231468*
G02X231286Y212379I0J200*
G03X226650Y215354I-4636J-2125*
X222103Y212563I0J-5100*
G02X221925Y212454I-178J91*
G01X221924*
X221376*
X221375*
G02X221197Y212563I0J200*
G03X216650Y215353I-4547J-2310*
X212014Y212379I0J-5100*
G02X211832Y212262I-182J83*
G01X211468*
G02X211286Y212379I0J200*
G03X206650Y215354I-4636J-2125*
X205068Y215102I1J-5100*
G02X205037Y215095I-59J191*
G01X205021Y215093*
X205014Y215092*
X205006*
G02X204864Y215151I0J200*
G01X200533Y219482*
G02X200490Y219700I141J141*
G01X200513Y219756*
X200614Y219823*
X256167*
G03X256308Y219882I-1J200*
G01X257040Y220613*
G02X257181Y220672I142J-140*
X257259Y220656I0J-199*
G01X257657Y220488*
X257724Y220386*
X257723Y220324*
G03X262333Y215643I4610J-70*
X263407Y215770I-1J4611*
G01X263458Y215782*
X263558Y215754*
X267430Y211882*
G03X267572Y211823I142J140*
G01X291187*
G03X291328Y211882I-1J200*
G01X292578Y213132*
G02X292720Y213191I142J-140*
X292796Y213176I0J-199*
G01X292852Y213152*
X292920Y213052*
Y207159*
G03X294920Y205158I2001J0*
G01X301120*
G03X303120Y207159I0J2000*
G01Y207808*
G02X303320Y208008I200J0*
G01X303376*
X303472Y207950*
X303498Y207901*
G03X308020Y205159I4522J2358*
X312656Y208134I0J5100*
G02X312837Y208250I181J-84*
G01X312838*
X313202*
G02X313384Y208134I0J-200*
G03X318020Y205159I4636J2125*
X322656Y208134I0J5100*
G02X322837Y208250I181J-84*
G01X322838*
X323202*
G02X323384Y208134I0J-200*
G03X328020Y205159I4636J2125*
X332656Y208134I0J5100*
G02X332837Y208250I181J-84*
G01X332838*
X333202*
G02X333384Y208134I0J-200*
G03X338020Y205159I4636J2125*
X342567Y207949I0J5100*
G02X342745Y208058I178J-91*
G01X342746*
X343294*
X343295*
G02X343473Y207949I0J-200*
G03X348020Y205159I4547J2310*
X352656Y208134I0J5100*
G02X352837Y208250I181J-84*
G01X352838*
X353202*
G02X353384Y208134I0J-200*
G03X358020Y205159I4636J2125*
X362656Y208134I0J5100*
G02X362837Y208250I181J-84*
G01X362838*
X363202*
G02X363384Y208134I0J-200*
G03X368020Y205158I4637J2124*
X372282Y207457I0J5100*
G01X372318Y207512*
X372442Y207557*
X372873Y207428*
G02X373016Y207237I-57J-192*
G01Y168540*
G02X372816Y168340I-200*
G01X369687*
G02X369536Y168409I0J200*
G01X369310Y168670*
X369285Y168754*
X369291Y168797*
G03X369307Y169010I-1484J219*
G01Y173010*
G03X367806Y174511I-1501J0*
G01X363207*
G02X363007Y174711J200*
G01Y176765*
G02X363079Y176918I200J-1*
G01X363347Y177143*
X363432Y177166*
X363476Y177159*
X363745Y177124*
X364016Y177112*
G03X367061Y179455I0J3151*
X365087Y183226I-3045J808*
X364016Y183414I-1072J-2963*
X361158Y181588I1J-3151*
X360990Y181138I2859J-1324*
G02X360846Y181000I-192J56*
G01X360736Y180972*
G02X360688Y180966I-49J194*
X360535Y181037I0J200*
G01X360507Y181071*
Y182502*
G03X360449Y182644I-200J1*
G01X358477Y184615*
G03X358336Y184674I-142J-140*
G01X354300*
G02X354100Y184874J200*
G01Y184875*
Y184877*
G03X354034Y185584I-3300J49*
G02Y185667I196J42*
G03X354070Y185994I-1464J327*
G01Y188354*
G03X352756Y189842I-1500J0*
G01X352634Y189905*
X352554Y189991*
G02X352500Y190127I146J137*
G01Y190520*
G02X352554Y190656I200J-1*
G01X352634Y190742*
X352756Y190805*
X353113Y190895*
X353154Y190911*
X353240Y190906*
X353584Y190725*
X353637Y190657*
X353647Y190614*
G03X355107Y189459I1460J345*
G01X356807*
G03X356808Y189460I0J1*
X355107Y190959I-4381J-3257*
G01X357801Y192958*
G03Y192960J1*
G01X355107Y194959*
G03X356808Y196459I-2681J4755*
G01Y196460*
X355107*
G03X353973Y195941I1J-1500*
G01X353948Y195913*
X353883Y195878*
X353541Y195837*
X353469Y195855*
X353439Y195877*
G03X352570Y196154I-869J-1223*
G01X351270*
X351269Y196153*
G03X352570Y194654I2894J1198*
G01X350800Y193224*
X350726Y193284*
X350725*
X349030Y192294*
G03X347862Y193323I-2196J-1316*
G02X347851Y193473I989J148*
X347862Y193624I1000J3*
G03X349030Y194654I-1029J2344*
X350330Y196153I-1595J2696*
G01Y196154*
X349030*
G03X347530Y194654I0J-1500*
G01Y192294*
G03X348844Y190805I1500J0*
G01X348966Y190742*
X349047Y190656*
G02X349100Y190520I-147J-136*
G01Y190127*
G02X349047Y189991I-200J0*
G01X348966Y189905*
X348844Y189842*
G03X347530Y188354I186J-1488*
G01Y185994*
G03X347566Y185667I1500J0*
G02Y185584I-196J-41*
G03X347589Y184163I3234J-658*
G02X347586Y184062I-195J-45*
G03X347530Y183654I1444J-406*
G01Y181294*
G03X349030Y179794I1500*
G01X349500*
G02X349700Y179594I0J-200*
G01Y179054*
G02X349500Y178854I-200*
G01X349030*
G03X347563Y177667I0J-1500*
G01X347548Y177598*
X347438Y177509*
X329000*
G02X328800Y177709J200*
G01Y180591*
G03X328742Y180732I-200J0*
G01X326408Y183065*
G03X326267Y183124I-142J-140*
G01X316833*
G03X316692Y183065I1J-200*
G01X314358Y180732*
G03X314300Y180591I141J-141*
G01Y179209*
G02X314100Y179009I-200*
G01X233894*
G03X233753Y178951I0J-200*
G01X224358Y169556*
G03X224300Y169415I141J-141*
G01Y155256*
G02X224241Y155115I-200J1*
G01X220509Y151382*
G02X220368Y151324I-141J141*
G01X220367*
X220170*
G02X219970Y151524J200*
G01Y153854*
G03X218470Y155354I-1500J0*
G01X217170*
X217169Y155353*
G03X218470Y153854I2895J1199*
X219639Y152824I2196J1314*
G02X219650Y152673I-991J-148*
X219639Y152523I-1002J-2*
G03X218470Y151494I1027J-2345*
G01X216775Y152484*
X216774*
X216700Y152424*
X216626Y152484*
X216625*
X214930Y151494*
G03X213761Y152523I-2196J-1316*
G02X213750Y152673I989J148*
X213761Y152824I1000J3*
G03X214930Y153854I-1028J2345*
X216230Y155353I-1595J2696*
G01Y155354*
X214930*
G03X213959Y154997I0J-1500*
G01X213932Y154974*
X213865Y154949*
X213535*
X213468Y154974*
X213441Y154997*
G03X212470Y155354I-972J-1144*
G01X211170*
X211169Y155353*
G03X212470Y153854I2895J1199*
X213639Y152824I2196J1314*
G02X213650Y152673I-991J-148*
X213639Y152523I-1002J-2*
G03X212470Y151494I1027J-2345*
G01X210775Y152484*
X210774*
X210700Y152424*
X210626Y152484*
X210625*
X208930Y151494*
G03X207761Y152523I-2196J-1316*
G02X207750Y152673I989J148*
X207761Y152824I1000J3*
G03X208930Y153854I-1028J2345*
X210230Y155353I-1595J2696*
G01Y155354*
X208930*
G03X207430Y153854I0J-1500*
G01Y151524*
G02X207230Y151324I-200*
G01X199033*
G03X198892Y151265I1J-200*
G01X193759Y146132*
G02X193618Y146074I-141J141*
G01X193617*
X185583*
G03X185442Y146015I1J-200*
G01X178458Y139032*
G03X178400Y138891I141J-141*
G01Y133624*
G02X178200Y133424I-200*
G37*
G36*
X1189Y210245D02*
G01X1124Y210272D01*
G02X1000Y210457I76J185*
G01Y313744*
G02X1200Y313944I200J0*
G01X372816*
G02X373016Y313744I0J-200*
G01Y263280*
G02X372873Y263089I-200J1*
G01X372442Y262960*
X372318Y263005*
X372282Y263061*
G03X368020Y265359I-4262J-2803*
X363384Y262384I1J-5101*
G02X363202Y262267I-182J83*
G01X362838*
G02X362656Y262384I0J200*
G03X358020Y265359I-4636J-2125*
X354033Y263439I0J-5100*
G01X353993Y263389*
X353871Y263354*
X353454Y263500*
G02X353320Y263688I66J189*
G01Y276236*
G03X353262Y276378I-200J1*
G01X343274Y286365*
G03X343133Y286424I-142J-140*
G01X325678*
G02X325537Y286482I0J200*
G01X319375Y292644*
G02X319316Y292786I140J142*
G01Y293019*
G02X319431Y293200I200J0*
G01X319532Y293248*
G02X319618Y293267I85J-181*
X319736Y293229I1J-201*
G03X320916Y292843I1181J1614*
G01X327116*
G03X329116Y294844I0J2000*
G01Y301044*
G03X327116Y303044I-2000J0*
G01X320916*
G03X318916Y301044I0J-2000*
G01Y300801*
G02X318716Y300601I-200*
G01X318663*
X318572Y300652*
X318545Y300697*
G03X314016Y303244I-4529J-2753*
X309263Y300289I0J-5300*
G01X309238Y300238*
X309142Y300178*
X308671Y300173*
X308574Y300232*
X308548Y300282*
G03X304015Y303043I-4532J-2339*
X299483Y300282I0J-5100*
G01X299457Y300232*
X299360Y300173*
X298890Y300178*
X298794Y300238*
X298769Y300289*
G03X294016Y303244I-4753J-2345*
X292981Y303142I0J-5300*
X288716Y297944I1035J-5198*
G01Y285611*
G03X288774Y285470I200J0*
G01X298762Y275482*
G03X298903Y275423I142J140*
G01X305122*
G02X305263Y275365I0J-200*
G01X312661Y267967*
G02X312720Y267825I-140J-142*
G01Y263688*
G02X312586Y263500I-200J1*
G01X312169Y263354*
X312047Y263389*
X312007Y263439*
G03X308020Y265359I-3987J-3180*
X304451Y263902I0J-5100*
G01X304392Y263845*
X304228Y263846*
X301108Y266965*
G03X300967Y267024I-142J-140*
G01X260833*
G03X260692Y266965I1J-200*
G01X252858Y259132*
G03X252800Y258991I141J-141*
G01Y249556*
G02X252741Y249415I-200J1*
G01X248758Y245432*
G03X248700Y245291I141J-141*
G01Y240356*
G02X248641Y240215I-200J1*
G01X247009Y238582*
G02X246868Y238524I-141J141*
G01X246867*
X190200*
G02X190000Y238724J200*
G01Y240242*
G03X189999Y240243I-1J0*
X188500Y238724I2367J-3835*
G01X185558Y240903*
X185557Y240904*
Y240903*
X185500Y240849*
X182500Y243724*
G03X184178Y245265I-2571J4483*
G01X184177Y245266*
G02X184100Y245424I123J158*
G01Y246023*
G02X184178Y246181I200J0*
G01Y246182*
G03X182500Y247724I-4249J-2940*
G01X185108Y250223*
G03Y250225J1*
G01X182500Y252724*
G03X184178Y254265I-2571J4483*
G01X184177Y254266*
G02X184100Y254424I123J158*
G01Y255191*
G02X184190Y255358I200J0*
G01X184510Y255570*
X184610Y255579*
X184656Y255559*
X184805Y255498*
X184806*
Y255499*
X184829Y255565*
G02X185500Y255723I670J-1343*
X186171Y255565I1J-1501*
G01X186324Y255164*
X186325Y255163*
X186650Y255153*
G03X191182Y257915I0J5100*
G01X191208Y257966*
X191305Y258024*
X191776Y258020*
X191872Y257960*
X191897Y257909*
G03X196650Y254954I4753J2345*
X201299Y257709I0J5300*
G01X201326Y257757*
X201420Y257812*
X201880*
X201974Y257757*
X202001Y257709*
G03X206650Y254954I4649J2545*
X211299Y257709I0J5300*
G01X211326Y257757*
X211420Y257812*
X211880*
X211974Y257757*
X212001Y257709*
G03X216650Y254954I4649J2545*
X221403Y257909I0J5300*
G01X221428Y257960*
X221524Y258020*
X221995Y258024*
X222092Y257966*
X222118Y257915*
G03X226650Y255153I4532J2338*
X231286Y258128I0J5100*
G02X231468Y258245I182J-83*
G01X231832*
G02X232014Y258128I0J-200*
G03X235014Y255423I4636J2125*
G02X235150Y255234I-64J-189*
G01Y242324*
G03X238450Y239024I3300J0*
X241750Y242324I0J3300*
G01Y242591*
G02X241879Y242778I200J0*
G01X242287Y242933*
X242408Y242903*
X242449Y242857*
G03X243570Y242353I1122J996*
G01X245930*
G03X247430Y243854I0J1500*
G01Y245153*
G03X247429Y245154I-1J0*
X245930Y243854I1197J-2895*
X244901Y242685I1316J-2196*
G01X244599*
G03X243570Y243854I-2345J-1027*
G01X244560Y245549*
Y245550*
X244500Y245624*
X244560Y245698*
Y245699*
X243570Y247394*
G03X244599Y248562I-1315J2196*
G01X244901*
G03X245930Y247394I2345J1029*
X247429Y246093I2697J1593*
X247430Y246094I0J1*
G01Y247394*
G03X247074Y248365I-1500J1*
G01X247050Y248392*
X247026Y248458*
Y248789*
X247050Y248855*
X247074Y248882*
G03X247430Y249854I-1145J970*
G01Y251153*
G03X247429Y251154I-1J0*
X245930Y249854I1197J-2895*
X244901Y248685I1316J-2196*
G01X244599*
G03X243570Y249854I-2345J-1027*
G01X244560Y251549*
Y251550*
X244500Y251624*
X244560Y251698*
Y251699*
X243570Y253394*
G03X244599Y254562I-1315J2196*
G01X244901*
G03X245930Y253394I2345J1029*
X247429Y252093I2697J1593*
X247430Y252094I0J1*
G01Y253394*
G03X246953Y254491I-1500J0*
G01X246910Y254531*
X246881Y254645*
X247034Y255102*
X247125Y255175*
X247184Y255181*
G03X251738Y259898I-534J5072*
X247883Y265202I-5088J355*
X246650Y265353I-1232J-4949*
X242014Y262379I0J-5100*
G02X241832Y262262I-182J83*
G01X241468*
G02X241286Y262379I0J200*
G03X236650Y265354I-4636J-2125*
X232014Y262379I0J-5100*
G02X231832Y262262I-182J83*
G01X231468*
G02X231286Y262379I0J200*
G03X226650Y265354I-4636J-2125*
X222663Y263434I0J-5100*
G01X222623Y263384*
X222501Y263349*
X222084Y263495*
G02X221950Y263683I66J189*
G01Y274495*
G02X222009Y274637I200J0*
G01X231888Y284516*
G03X231946Y284657I-141J141*
G01Y297944*
G03X231753Y299360I-5300J-1*
G01X231746Y299386*
Y301044*
G03X229746Y303044I-2000J0*
G01X228088*
X228062Y303051*
G03X226646Y303244I-1417J-5107*
X225230Y303051I1J-5300*
G01X225203Y303044*
X223546*
G03X221546Y301044I0J-2000*
G01Y300394*
G02X221346Y300194I-200*
G01X221290*
X221194Y300252*
X221168Y300301*
G03X216645Y303043I-4522J-2358*
X212114Y300284I0J-5100*
G01X212088Y300234*
X211992Y300175*
X211521Y300179*
X211426Y300239*
X211400Y300290*
G03X210398Y301687I-4751J-2350*
G01X210394Y301691*
G03X206646Y303243I-3748J-3749*
X201998Y300490I0J-5301*
G01X201971Y300442*
X201877Y300386*
X201417*
X201323Y300442*
X201296Y300490*
G03X200398Y301687I-4646J-2550*
G01X200394Y301691*
G03X196646Y303243I-3748J-3749*
X194406Y302747I-1J-5301*
X191350Y297739I2241J-4804*
G01Y297735*
Y263683*
G02X191216Y263495I-200J1*
G01X190799Y263349*
X190677Y263384*
X190637Y263434*
G03X186650Y265354I-3987J-3180*
X183078Y263894I0J-5100*
G02X182939Y263837I-140J143*
G01X182820*
X182819*
G02X182678Y263895I0J200*
G01X179808Y266765*
G03X179667Y266824I-142J-140*
G01X115933*
G03X115792Y266765I1J-200*
G01X105809Y256782*
G02X105668Y256724I-141J141*
G01X105667*
X87433*
G03X87292Y256665I1J-200*
G01X85642Y255015*
G02X85501Y254957I-141J141*
X85424Y254972I-1J199*
G01X85368Y254995*
X85300Y255096*
Y255791*
G03X85242Y255932I-200J0*
G01X82708Y258465*
G03X82567Y258524I-142J-140*
G01X75300*
G02X75100Y258724I0J200*
G01Y263691*
G03X75042Y263832I-200J0*
G01X72508Y266365*
G03X72367Y266424I-142J-140*
G01X71800*
G02X71600Y266624I0J200*
G01Y278791*
G03X71542Y278932I-200J0*
G01X68108Y282365*
G03X67967Y282424I-142J-140*
G01X53233*
G03X53092Y282365I1J-200*
G01X49758Y279032*
G03X49700Y278891I141J-141*
G01Y266516*
X49669Y266443*
X49650Y266424*
X36433*
G03X36292Y266365I1J-200*
G01X34021Y264094*
X33928Y264065*
X33880Y264073*
G03X33630Y264094I-250J-1479*
G01X31270*
G03X30291Y263730I1J-1500*
G01X30161Y263682*
X30160*
X30039*
X30038*
X29908Y263730*
G03X28930Y264094I-980J-1137*
G01X26570*
G03X25070Y262594I0J-1500*
G01Y262124*
G02X24870Y261924I-200*
G01X24331*
G02X24131Y262124J200*
G01Y262594*
G03X22631Y264094I-1500J0*
G01X22630*
X20271*
X20270*
G03X18770Y262594I1J-1501*
G01Y261293*
X18771Y261292*
G03X20271Y262594I-1197J2895*
X21300Y263762I-1316J2197*
G01X21601*
G03X22630Y262594I2345J1028*
G01X21640Y260899*
Y260898*
X21700Y260824*
X21640Y260750*
Y260749*
X22630Y259054*
G03X21601Y257885I1316J-2196*
G01X21300*
G03X20271Y259054I-2345J-1027*
X18771Y260355I-2697J-1594*
G01X18770Y260354*
Y259054*
G03X20271Y257553I1501J0*
G01X22630*
G03X24131Y259054I0J1501*
G01Y259523*
G02X24331Y259723I200J0*
G01X24870*
G02X25070Y259523I0J-200*
G01Y259054*
G03X26570Y257553I1501J0*
G01X28930*
G03X29908Y257917I-1J1499*
G01X30038Y257965*
X30039*
X30160*
X30161*
X30291Y257917*
G03X31270Y257553I980J1136*
G01X33630*
G03X33954Y257589I-3J1500*
G01X34004Y257600*
X34102Y257571*
X36092Y255582*
G03X36233Y255523I142J140*
G01X41000*
G02X41200Y255323I0J-200*
G01Y238457*
G03X41258Y238315I200J-1*
G01X43108Y236465*
G02X43152Y236247I-140J-142*
G01X43128Y236191*
X43028Y236124*
X38633*
G03X38492Y236065I1J-200*
G01X35558Y233132*
G03X35500Y232991I141J-141*
G01Y221423*
G03X35700Y221223I200*
G01X37431*
G02X37631Y221023I0J-200*
G01Y221019*
Y221015*
X37630Y220953*
Y218594*
G03X39130Y217094I1500*
G01X40429*
G03X40430Y217095I0J1*
X39130Y218594I-2895J-1197*
X37962Y219623I-2197J-1316*
G02X37951Y219773I989J148*
X37962Y219924I1000J3*
G03X39130Y220953I-1028J2345*
G01X40825Y219964*
X40826*
X40900Y220024*
X42670Y218594*
G03X41370Y217095I1595J-2696*
X41371Y217094I1J0*
G01X41700*
G02X41900Y216893I0J-200*
G01Y216874*
X44941Y213832*
G02X45000Y213691I-140J-142*
G01Y210524*
G02X44800Y210324I-200*
G01X1433*
G03X1292Y210265I1J-200*
G01X1189Y210245*
G37*
G36*
X372816Y1000D02*
G01X1200D01*
G02X1000Y1200J200*
G01Y128594*
G02X1066Y128743I200J1*
G01X1320Y128971*
X1401Y128997*
X1443Y128992*
G03X1604Y128983I164J1492*
G01X4117*
G03X4118Y128984I0J1*
X1800Y130484I-5044J-5254*
G01X5794Y134223*
G03Y134225J1*
G01X1800Y137963*
G03X4118Y139463I-2726J6754*
G01X4117Y139464*
X1604*
G03X1443Y139455I3J-1500*
G01X1401Y139450*
X1320Y139477*
X1066Y139704*
G02X1000Y139853I134J149*
G01Y155891*
G02X1124Y156075I200J-1*
G01X1180Y156099*
X1299Y156075*
X1892Y155482*
G03X2033Y155423I142J140*
G01X13467*
X13468*
G02X13609Y155365I0J-200*
G01X14141Y154832*
G02X14200Y154691I-140J-142*
G01Y138224*
G02X14000Y138024I-200*
G01X12660*
X12548Y138120*
X12537Y138193*
G03X11054Y139464I-1483J-230*
G01X8541*
X8540Y139463*
G03X10858Y137963I5044J5254*
G01X6864Y134225*
G03Y134223J-1*
G01X10858Y130484*
G03X8540Y128984I2726J-6754*
X8541Y128983I1J0*
G01X11054*
X11055*
G03X12537Y130254I0J1500*
G01X12548Y130327*
X12660Y130423*
X14000*
G02X14200Y130223I0J-200*
G01Y128957*
G03X14258Y128815I200J-1*
G01X23392Y119682*
G03X23533Y119623I142J140*
G01X40400*
G02X40600Y119423I0J-200*
G01Y117306*
G03X40658Y117165I200J0*
G01X44041Y113782*
G03X44183Y113723I142J140*
G01X77517*
G03X77659Y113782I0J200*
G01X81042Y117165*
G03X81100Y117306I-141J141*
G01Y119423*
G02X81300Y119623I200J0*
G01X112267*
G03X112408Y119682I-1J200*
G01X116742Y124015*
G03X116800Y124157I-141J141*
G01Y134891*
G02X116859Y135032I200J-1*
G01X116891Y135065*
G02X117032Y135123I141J-141*
G01X117033*
X131267*
G03X131408Y135182I-1J200*
G01X132124Y135898*
G02X132265Y135957I142J-140*
X132407Y135898I0J-199*
G01X132448Y135857*
X132474Y135745*
X132454Y135690*
G03X132370Y135194I1417J-495*
G01Y133894*
G03X132371Y133893I1J0*
X133870Y135194I-1198J2895*
G01X135300Y133424*
X135240Y133350*
Y133349*
X136230Y131654*
G03X135201Y130485I1316J-2196*
G01X134899*
G03X133870Y131654I-2345J-1027*
X132371Y132954I-2697J-1595*
X132370Y132953I0J-1*
G01Y131654*
G03X132726Y130683I1500J-1*
G01X132750Y130655*
X132774Y130589*
Y130259*
X132750Y130192*
X132726Y130165*
G03X132370Y129194I1145J-970*
G01Y127894*
G03X132371Y127893I1J0*
X133870Y129194I-1198J2894*
X134899Y130362I-1316J2197*
G01X135201*
G03X136230Y129194I2345J1028*
G01X135240Y127499*
Y127498*
X135300Y127424*
X135240Y127350*
Y127349*
X136230Y125654*
G03X135201Y124485I1316J-2196*
G01X134899*
G03X133870Y125654I-2345J-1027*
X132371Y126954I-2697J-1595*
X132370Y126953I0J-1*
G01Y125654*
G03X133870Y124153I1501J0*
G01X136230*
G03X136480Y124174I0J1500*
G01X136528Y124182*
X136621Y124153*
X137200Y123574*
G02Y123291I-141J-141*
G01X134058Y120149*
G03X134000Y120008I141J-141*
G01Y93370*
G02X133934Y93222I-200J0*
G03X133101Y92239I3367J-3697*
X133072Y92162I169J-108*
G02X132407Y91321I-1082J172*
G01X131510Y90952*
G03X131422Y90881I76J-185*
G01X131093Y90410*
G02X130929Y90324I-164J114*
G01X49916*
G03X49774Y90265I0J-200*
G01X43792Y84282*
G02X43651Y84224I-141J141*
X43574Y84239I-1J199*
G01X43518Y84262*
X43450Y84363*
Y91874*
G02X43509Y92015I200J-1*
G01X44508Y93015*
G02X44649Y93073I141J-141*
G01X44650*
X46200*
G03X49501Y96374I0J3301*
X46200Y99674I-3301J-1*
G01X40150*
G03X36850Y96374I0J-3300*
G01Y95033*
G02X36721Y94846I-200J0*
G01X36313Y94691*
X36192Y94721*
X36151Y94767*
G03X35030Y95270I-1121J-997*
G01X32670*
G03X31317Y94418I0J-1500*
G01X31253Y94298*
G02X31081Y94200I-172J102*
G01X25994*
G02X25853Y94259I1J200*
G01X22159Y97953*
G02X22100Y98094I140J142*
G01Y103100*
G03X20100Y105100I-2000J0*
G01X13900*
G03X11900Y103100I0J-2000*
G01Y96900*
G03X13900Y94900I2000*
G01X14550*
G02X14750Y94700I0J-200*
G01Y94644*
X14692Y94548*
X14642Y94523*
G03X14875Y85364I2359J-4522*
G02X14992Y85182I-83J-182*
G01Y84818*
G02X14875Y84636I-200J0*
G03Y75364I2125J-4636*
G02X14992Y75182I-83J-182*
G01Y74818*
G02X14875Y74636I-200J0*
G03Y65364I2125J-4636*
G02X14992Y65182I-83J-182*
G01Y64818*
G02X14875Y64636I-200J0*
G03Y55364I2125J-4636*
G02X14992Y55182I-83J-182*
G01Y54818*
G02X14875Y54636I-200J0*
G03X13072Y46748I2125J-4636*
X17000Y44900I3929J3252*
X21158Y47048I-1J5100*
X19125Y54636I-4158J2952*
G02X19008Y54818I83J182*
G01Y55182*
G02X19125Y55364I200J0*
G03X21849Y61582I-2124J4636*
G01X21831Y61636*
X21857Y61746*
X25853Y65741*
G02X25994Y65800I142J-140*
G01X31081*
G02X31253Y65702I0J-200*
G01X31317Y65583*
G03X32670Y64730I1353J647*
G01X35030*
G03X36151Y65233I0J1500*
G01X36192Y65280*
X36313Y65309*
X36721Y65154*
G02X36850Y64967I-71J-187*
G01Y53990*
G03X36908Y53848I200J-1*
G01X43741Y47015*
G02X43800Y46874I-140J-142*
G01Y42313*
G03X47100Y39013I3300J0*
X49151Y39728I0J3300*
G01X49196Y39764*
X49311Y39776*
X49687Y39595*
G02X49800Y39414I-87J-180*
G01Y34724*
G03X53100Y31424I3300*
X56400Y34724J3300*
G01Y55008*
G03X56342Y55149I-200J0*
G01X50359Y61132*
G02X50300Y61273I140J142*
G01Y81374*
G02X50359Y81515I200J-1*
G01X52508Y83665*
G02X52649Y83723I141J-141*
G01X52650*
X133813*
X133814*
G02X133927Y83688I0J-200*
G01X134649Y83184*
G03X134763Y83148I114J164*
G01X134764*
X139836*
X139837*
G03X139951Y83184I0J200*
G01X140673Y83688*
G02X140786Y83723I113J-165*
G01X140787*
X180650*
X180651*
G02X180792Y83665I0J-200*
G01X195374Y69082*
G03X195516Y69023I142J140*
G01X214750*
X214751*
G02X214892Y68965I0J-200*
G01X218649Y65207*
G02X218708Y65066I-140J-142*
G01Y20980*
G02X218640Y20829I-200J-1*
G03X217486Y19357I3369J-3829*
G01X217460Y19308*
X217364Y19250*
X217308*
G02X217108Y19450J200*
G01Y20100*
G03X215108Y22100I-2000J0*
G01X213113*
G03X213112Y22099I0J-1*
X215108Y20100I4621J2618*
G01X212361Y17021*
Y17020*
X212383Y17000*
X212361Y16980*
Y16979*
X215108Y13900*
G03X213112Y11900I2626J-4617*
G01Y11899*
X215108*
G03X217108Y13900I0J2000*
G01Y14549*
G02X217308Y14749I200J0*
G01X217364*
X217460Y14691*
X217486Y14642*
G03X222008Y11900I4522J2358*
X226644Y14875I0J5100*
G02X226825Y14991I181J-84*
G01X226826*
X227190*
G02X227372Y14875I0J-200*
G03X232008Y11900I4636J2125*
X236644Y14875I0J5100*
G02X236825Y14991I181J-84*
G01X236826*
X237190*
G02X237372Y14875I0J-200*
G03X242008Y11900I4636J2125*
X245260Y13072I-1J5100*
X244960Y21158I-3253J3928*
X242008Y22100I-2953J-4158*
X237372Y19125I0J-5100*
G02X237190Y19008I-182J83*
G01X236826*
G02X236644Y19125I0J200*
G03X232008Y22100I-4636J-2125*
X227372Y19125I0J-5100*
G02X227190Y19008I-182J83*
G01X226826*
G02X226644Y19125I0J200*
G03X225376Y20829I-4636J-2126*
G02X225308Y20980I132J150*
G01Y67800*
G03X225250Y67941I-200J0*
G01X217626Y75565*
G03X217484Y75624I-142J-140*
G01X198250*
X198249*
G02X198108Y75682I0J200*
G01X183526Y90265*
G03X183384Y90324I-142J-140*
G01X143671*
G02X143507Y90410I0J200*
G01X143178Y90881*
G03X143090Y90952I-164J-114*
G01X142193Y91321*
G02X141528Y92162I417J1013*
G03X141499Y92239I-197J-30*
X140666Y93222I-4200J-2714*
G02X140600Y93370I134J149*
G01Y117274*
G02X140659Y117415I200J-1*
G01X142658Y119415*
G02X142799Y119473I141J-141*
X142876Y119458I1J-199*
G01X142932Y119435*
X143000Y119334*
Y104557*
G03X143058Y104415I200J-1*
G01X145392Y102082*
G03X145533Y102023I142J140*
G01X173067*
G03X173208Y102082I-1J200*
G01X175542Y104415*
G03X175600Y104557I-141J141*
G01Y113591*
G02X175659Y113732I200J-1*
G01X175891Y113965*
G02X176032Y114023I141J-141*
G01X176033*
X192367*
G03X192508Y114082I-1J200*
G01X197742Y119315*
G03X197800Y119457I-141J141*
G01Y126691*
G02X197859Y126832I200J-1*
G01X197891Y126865*
G02X198032Y126923I141J-141*
G01X198033*
X202167*
G03X202308Y126982I-1J200*
G01X208842Y133515*
G03X208900Y133657I-141J141*
G01Y137591*
G02X208959Y137732I200J-1*
G01X210591Y139365*
G02X210732Y139423I141J-141*
G01X210733*
X228646*
X228647*
G02X228788Y139365I0J-200*
G01X231191Y136961*
G02X231250Y136820I-140J-142*
G01Y134574*
G03X234550Y131274I3300J0*
X237850Y134574I0J3300*
G01Y138270*
G03X236884Y140603I-3300J0*
G01X233659Y143828*
G02X233600Y143970I140J142*
G01Y154391*
G03X233542Y154532I-200J0*
G01X231959Y156115*
G02X231900Y156256I140J142*
G01Y166267*
G02X231959Y166408I200J-1*
G01X236901Y171350*
G02X237042Y171409I142J-140*
G01X314100*
G02X314300Y171209I0J-200*
G01Y156984*
G02X314192Y156806I-200J0*
G01X313826Y156617*
X313714Y156625*
X313668Y156657*
G03X311756Y157267I-1912J-2690*
X309554Y156425I0J-3300*
G01X309526Y156400*
X309456Y156374*
X309110Y156378*
X309041Y156406*
X309013Y156431*
G03X306756Y157323I-2257J-2408*
X304478Y156411I0J-3300*
G01X304450Y156385*
X304381Y156357*
X304036Y156350*
X303965Y156376*
X303937Y156400*
G03X301756Y157223I-2181J-2477*
X299624Y156442I0J-3300*
G01X299595Y156418*
X299524Y156394*
X299178Y156407*
X299110Y156437*
X299083Y156464*
G03X296756Y157424I-2327J-2340*
X294478Y156511I1J-3300*
G01X294451Y156485*
X294381Y156457*
X294036Y156450*
X293965Y156476*
X293937Y156500*
G03X291756Y157323I-2181J-2477*
X289575Y156500I0J-3300*
G01X289547Y156476*
X289476Y156450*
X289131Y156457*
X289062Y156485*
X289034Y156511*
G03X286755Y157424I-2279J-2387*
X284526Y156557I1J-3300*
G01X284499Y156531*
X284429Y156504*
X284083*
X284014Y156531*
X283986Y156557*
G03X281756Y157424I-2230J-2433*
X279526Y156557I0J-3300*
G01X279499Y156531*
X279429Y156504*
X279083*
X279014Y156531*
X278986Y156557*
G03X276757Y157424I-2229J-2433*
X274554Y156581I0J-3300*
G01X274526Y156556*
X274456Y156530*
X274110Y156534*
X274041Y156562*
X274013Y156587*
G03X271756Y157479I-2257J-2408*
X269305Y156389I0J-3300*
G01X269276Y156358*
X269199Y156323*
X269156*
G02X268956Y156523J200*
G01Y156752*
G03X268898Y156894I-200J1*
G01X266926Y158865*
G03X266785Y158924I-142J-140*
G01X248209*
G03X248067Y158865I0J-200*
G01X247475Y158273*
G02X247333Y158214I-142J140*
G01X247323*
X247313Y158215*
X246960Y158252*
X246883Y158298*
X246858Y158336*
G03X244100Y159824I-2758J-1813*
X243063Y159656I3J-3301*
X240801Y156425I1037J-3133*
G01X240803Y156384*
X240772Y156307*
X240358Y155894*
G03X240300Y155752I141J-141*
G01Y133095*
G03X240358Y132954I200J0*
G01X242836Y130476*
G03X242978Y130417I142J140*
G01X252182*
G02X252382Y130217I0J-200*
G01Y99795*
G02X252355Y99695I-200J0*
X251578Y98770I-3001J1732*
G01X251451Y98724*
X251450*
X249572*
G03X249430Y98665I0J-200*
G01X243847Y93082*
G02X243706Y93024I-141J141*
G01X214758*
X214653Y93100*
X214633Y93161*
G03X211500Y95424I-3133J-1037*
X210740Y95335I1J-3300*
X208211Y91856I760J-3211*
G01X208214Y91814*
X208187Y91735*
X207959Y91488*
G02X207812Y91424I-147J136*
G01X199048*
G02X198902Y91487I0J200*
G03X196500Y92524I-2402J-2263*
X194237Y91626I0J-3300*
X194098Y86961I2263J-2402*
X196500Y85923I2403J2262*
X198902Y86960I0J3300*
G02X199048Y87023I146J-137*
G01X244605*
G02X244750Y86961I0J-200*
G01X244978Y86720*
X245007Y86643*
X245005Y86602*
G03X247553Y83209I3296J-178*
X248301Y83124I744J3215*
X251325Y85103I0J3300*
G02X251508Y85223I183J-80*
G01X258875*
G02X259066Y85083I0J-200*
G01X259094Y84993*
G02X259030Y84779I-191J-59*
G01X258924Y84682*
G03X258484Y83610I1060J-1062*
G01Y77716*
G03X259984Y76216I1500J0*
G01X263057*
G02X263200Y76155I-1J-200*
G01X263428Y75921*
X263458Y75846*
X263457Y75806*
G03X266674Y72425I3299J-82*
G01X266715Y72424*
X266756*
G03X270055Y75806I0J3300*
G01X270054Y75846*
X270084Y75921*
X270312Y76155*
G02X270455Y76216I144J-139*
G01X273528*
X273529*
G03X274170Y76360I0J1500*
G02X274257Y76380I87J-180*
X274343Y76360I-1J-201*
G01X274458Y76298*
G02X274556Y76126I-102J-172*
G01Y70915*
G02X274493Y70770I-200J1*
G03X274354Y66105I2263J-2402*
X276756Y65068I2402J2263*
X279019Y65966I0J3300*
Y70770I-2263J2402*
G02X278956Y70915I137J146*
G01Y72907*
G02X279072Y73089I200J0*
G01X279455Y73266*
X279571Y73250*
X279616Y73212*
G03X281756Y72424I2140J2512*
X283986Y73291I1J3300*
G01X284014Y73316*
X284083Y73343*
X284429*
X284499Y73316*
X284526Y73291*
G03X286756Y72424I2230J2433*
X288986Y73291I0J3300*
G01X289014Y73316*
X289083Y73343*
X289429*
X289499Y73316*
X289526Y73291*
G03X291756Y72424I2230J2433*
X295055Y75806I0J3300*
G01X295054Y75846*
X295084Y75921*
X295312Y76155*
G02X295455Y76216I144J-139*
G01X298057*
G02X298200Y76155I-1J-200*
G01X298428Y75921*
X298458Y75846*
X298457Y75806*
G03X301387Y72445I3299J-82*
X301756Y72424I372J3279*
X305013Y75192I0J3300*
G01X305022Y75249*
X305099Y75335*
X305502Y75452*
G02X305558Y75460I56J-192*
X305708Y75392I0J-200*
G01X305752Y75340*
X305800Y75211*
Y56918*
G02X305741Y56776I-200J0*
G01X293874Y44909*
G03X293816Y44768I141J-141*
G01Y42919*
G02X293718Y42747I-200J0*
G01X293598Y42683*
G03X292746Y41330I648J-1353*
G01Y38970*
G03X294246Y37470I1500J0*
G01X294716*
G02X294916Y37270I0J-200*
G01Y36730*
G02X294716Y36530I-200J0*
G01X294246*
G03X292746Y35030I0J-1500*
G01Y32670*
G03X293598Y31317I1500J0*
G01X293718Y31253*
G02X293816Y31081I-102J-172*
G01Y22285*
G02X293631Y22086I-200J0*
G03X289380Y19125I386J-5086*
G02X289198Y19008I-182J83*
G01X288834*
G02X288652Y19125I0J200*
G03X284016Y22101I-4637J-2124*
X279493Y19358I0J-5100*
G01X279468Y19308*
X279372Y19250*
X279316*
G02X279116Y19450J200*
G01Y20100*
G03X277480Y22067I-2000J0*
G01X277408Y22080*
X277316Y22191*
Y29930*
G02X277375Y30073I200J1*
X278462Y30881I3372J-3401*
G01X278463*
G03X279256Y32204I-708J1323*
G01Y41654*
G03X277986Y43137I-1500J1*
G01X277912Y43148*
X277816Y43260*
Y46740*
X277912Y46852*
X277986Y46863*
G03X279256Y48346I-230J1482*
G01Y57796*
G03X277756Y59296I-1500J0*
G01X270276*
X270275*
G03X268795Y58038I0J-1500*
G02X268779Y57985I-197J31*
X267683Y56401I-5290J2489*
X267540Y56341I-143J139*
G01X267287*
G02X267248Y56345I1J200*
G01X265760Y56637*
G03X265721Y56641I-40J-196*
G01X264279*
G03X264240Y56637I1J-200*
G01X262752Y56345*
G02X262713Y56341I-40J196*
G01X247914*
X247901Y56342*
G03X247467Y56371I-437J-3272*
G01X241367*
G03X238067Y53071I0J-3300*
X241367Y49771I3300*
G01X247050*
X247063Y49769*
G03X247497Y49740I437J3271*
G01X260747*
G02X260823Y49725I0J-200*
G01X261319Y49521*
G02X261501Y49279I-114J-275*
G03X261522Y49211I199J24*
X262717Y47813I3478J1763*
G02X262800Y47651I-117J-162*
G01Y8295*
G03X262858Y8154I200J0*
G01X267430Y3582*
G03X267572Y3523I142J140*
G01X331128*
G03X331270Y3582I0J200*
G01X333242Y5554*
G03X333300Y5695I-141J141*
G01Y36129*
G02X333359Y36271I200J0*
G01X334103Y37015*
G02X334244Y37073I141J-141*
G01X348046*
G02X348185Y37017I0J-200*
G03X349229Y36594I1044J1078*
G01X349230*
X352770*
X352773*
G03X353319Y36697I0J1501*
G01X353352Y36710*
X353424Y36712*
X353737Y36603*
X353793Y36557*
X353810Y36526*
G03X355107Y35781I1297J756*
G01X359706*
G02X359906Y35581I0J-200*
G01Y31670*
G03X361406Y30170I1500J0*
G01X367806*
X367807*
G03X369307Y31670I0J1500*
G01Y35670*
G03X367806Y37171I-1501J0*
G01X363207*
G02X363007Y37371J200*
G01Y39425*
G02X363079Y39578I200J-1*
G01X363347Y39803*
X363432Y39826*
X363476Y39819*
X363745Y39784*
X364016Y39772*
G03X367061Y42115I0J3151*
X365087Y45886I-3045J808*
X364016Y46074I-1072J-2963*
X361158Y44248I1J-3151*
X360990Y43798I2859J-1324*
G02X360846Y43660I-192J56*
G01X360736Y43632*
G02X360688Y43626I-49J194*
X360535Y43697I0J200*
G01X360507Y43731*
Y45645*
G03X360449Y45786I-200J0*
G01X358520Y47715*
G03X358378Y47774I-142J-140*
G01X354433*
X354432*
G02X354260Y47872I0J200*
G01X354058Y48215*
X354057Y48321*
X354083Y48367*
G03X354270Y49094I-1313J725*
G01Y51454*
G03X354248Y51709I-1500J-1*
G01X354240Y51759*
X354272Y51855*
X354593Y52152*
X354691Y52177*
X354740Y52165*
X355107Y52119*
X356807*
G03X356808Y52120I0J1*
X355107Y53619I-4381J-3257*
G01X357801Y55618*
G03Y55620J1*
G01X355107Y57619*
G03X356808Y59119I-2681J4755*
G01Y59120*
X355107*
G03X354195Y58810I1J-1500*
G01X354073Y58769*
X354068*
X354062*
X353940Y58776*
X353813Y58832*
G03X352770Y59254I-1043J-1079*
G01X351470*
X351469Y59253*
G03X352770Y57754I2894J1198*
G01X351000Y56324*
X350926Y56384*
X350925*
X349230Y55394*
G03X348062Y56423I-2196J-1316*
G02X348051Y56573I989J148*
X348062Y56724I1000J3*
G03X349230Y57754I-1029J2344*
X350530Y59253I-1595J2696*
G01Y59254*
X349230*
G03X347730Y57754I0J-1500*
G01Y55394*
G03X349044Y53905I1500J0*
G01X349166Y53842*
X349246Y53756*
G02X349300Y53620I-146J-137*
G01Y53227*
G02X349246Y53091I-200J1*
G01X349166Y53005*
X349044Y52942*
G03X347730Y51454I186J-1488*
G01Y49094*
G03X348093Y48115I1500J0*
G01X348142Y47984*
Y47863*
X348093Y47732*
G03X347730Y46754I1137J-979*
G01Y46348*
G02X347671Y46206I-200J0*
G01X345947Y44482*
G02X345806Y44424I-141J141*
G01X331072*
G03X330930Y44365I0J-200*
G01X325858Y39294*
G03X325800Y39152I141J-141*
G01Y22323*
G02X325722Y22165I-200J0*
G01X325435Y21943*
X325344Y21924*
X325299Y21936*
G03X324016Y22100I-1283J-4936*
X319380Y19125I0J-5100*
G02X319198Y19008I-182J83*
G01X318834*
G02X318652Y19125I0J200*
G03X314016Y22100I-4636J-2125*
X309380Y19125I0J-5100*
G02X309198Y19008I-182J83*
G01X308834*
G02X308652Y19125I0J200*
G03X304401Y22086I-4636J-2124*
G02X304216Y22285I15J199*
G01Y31081*
G02X304314Y31253I200J0*
G01X304433Y31317*
G03X305286Y32670I-647J1353*
G01Y35030*
G03X303786Y36530I-1500J0*
G01X303316*
G02X303116Y36730J200*
G01Y37270*
G02X303316Y37470I200J0*
G01X303786*
G03X305286Y38970I0J1500*
G01Y41330*
G03X304433Y42683I-1500J0*
G01X304314Y42747*
G02X304216Y42919I102J172*
G01Y45045*
G02X304275Y45187I200J0*
G01X312642Y53554*
G03X312700Y53695I-141J141*
G01Y75206*
X312748Y75336*
X312778Y75371*
G02X312929Y75439I151J-133*
X312988Y75430I0J-201*
G01X313394Y75304*
X313470Y75212*
X313477Y75153*
G03X316756Y72223I3279J370*
X319083Y73183I0J3300*
G01X319110Y73210*
X319178Y73240*
X319524Y73254*
X319595Y73229*
X319624Y73205*
G03X321756Y72424I2132J2519*
X325055Y75806I0J3300*
G01X325054Y75846*
X325084Y75921*
X325312Y76155*
G02X325455Y76216I144J-139*
G01X326405*
G03X326406Y76217I0J1*
X324984Y77716I-3394J-1796*
G01X326482Y80529*
Y80530*
X326381Y80669*
X326482Y80808*
Y80809*
X324984Y83621*
G03X326406Y85121I-1973J3294*
X326405Y85122I-1J0*
G01X324984*
G03X324342Y84977I1J-1500*
G02X324256Y84958I-85J181*
X324170Y84977I-1J200*
G03X323528Y85122I-644J-1356*
G01X319984*
G03X319342Y84977I1J-1500*
G02X319256Y84958I-85J181*
X319170Y84977I-1J200*
G03X318528Y85122I-644J-1356*
G01X314984*
G03X314342Y84977I1J-1500*
G02X314256Y84958I-85J181*
X314170Y84977I-1J200*
G03X313528Y85122I-644J-1356*
G01X309984*
G03X309342Y84977I1J-1500*
G02X309256Y84958I-85J181*
X309170Y84977I-1J200*
G03X308528Y85122I-644J-1356*
G01X304984*
G03X304342Y84977I1J-1500*
G02X304256Y84958I-85J181*
X304170Y84977I-1J200*
G03X303528Y85122I-644J-1356*
G01X299984*
G03X299342Y84977I1J-1500*
G02X299256Y84958I-85J181*
X299170Y84977I-1J200*
G03X298528Y85122I-644J-1356*
G01X294984*
G03X294342Y84977I1J-1500*
G02X294256Y84958I-85J181*
X294170Y84977I-1J200*
G03X293528Y85122I-644J-1356*
G01X289984*
G03X289342Y84977I1J-1500*
G02X289256Y84958I-85J181*
X289170Y84977I-1J200*
G03X288528Y85122I-644J-1356*
G01X284984*
G03X284342Y84977I1J-1500*
G02X284256Y84958I-85J181*
X284170Y84977I-1J200*
G03X283528Y85122I-644J-1356*
G01X279984*
G03X279342Y84977I1J-1500*
G02X279256Y84958I-85J181*
X279170Y84977I-1J200*
G03X278528Y85122I-644J-1356*
G01X274984*
G03X274342Y84977I1J-1500*
G02X274257Y84958I-85J181*
X274169Y84978I-1J200*
G01X274054Y85040*
G02X273956Y85212I102J172*
G01Y89386*
G03X273898Y89528I-200J1*
G01X272160Y91265*
G03X272019Y91324I-142J-140*
G01X261488*
G02X261288Y91524J200*
G01Y94389*
G03X261143Y95032I-1500J0*
G02Y95203I181J86*
G03X261288Y95846I-1356J644*
G01Y99389*
Y130834*
Y134389*
G03X261143Y135032I-1500J0*
G02Y135203I181J86*
G03X261288Y135846I-1356J644*
G01Y137266*
G03X261287Y137267I-1J0*
X259788Y135846I1795J-3394*
G01X256975Y137344*
X256835Y137242*
X256695Y137344*
X253882Y135846*
G03X252383Y137267I-3294J-1973*
X252382Y137266I0J-1*
G01Y135846*
G03X252527Y135203I1500J0*
G02X252526Y135030I-181J-85*
G01X252464Y134915*
G02X252293Y134818I-171J103*
G01X252292*
X244717*
X244700Y134835*
Y135945*
G02X244767Y136094I200J0*
G01X245020Y136321*
X245101Y136347*
X245143Y136343*
X245321Y136329*
X245410Y136325*
X245500Y136324*
G03X248713Y138871I0J3300*
G02X248902Y139025I195J-46*
G03X251063Y144726I-103J3299*
G02X251000Y144871I137J146*
G01Y150229*
G02X251059Y150371I200J0*
G01X253553Y152865*
G02X253694Y152923I141J-141*
G01X258084*
X258085*
G02X258226Y152865I0J-200*
G01X258454Y152636*
X258484Y152562*
Y152522*
Y152508*
Y146614*
G03X259984Y145113I1501J0*
G01X263528*
G03X264170Y145258I-1J1500*
G02X264256Y145277I85J-181*
X264342Y145258I1J-200*
G03X264984Y145113I644J1356*
G01X268528*
G03X269170Y145258I-1J1500*
G02X269256Y145277I85J-181*
X269342Y145258I1J-200*
G03X269984Y145113I644J1356*
G01X273528*
G03X274170Y145258I-1J1500*
G02X274256Y145277I85J-181*
X274342Y145258I1J-200*
G03X274984Y145113I644J1356*
G01X278528*
G03X279170Y145258I-1J1500*
G02X279256Y145277I85J-181*
X279342Y145258I1J-200*
G03X279984Y145113I644J1356*
G01X283528*
G03X284170Y145258I-1J1500*
G02X284256Y145277I85J-181*
X284342Y145258I1J-200*
G03X284984Y145113I644J1356*
G01X288528*
G03X289170Y145258I-1J1500*
G02X289256Y145277I85J-181*
X289342Y145258I1J-200*
G03X289984Y145113I644J1356*
G01X293528*
G03X294170Y145258I-1J1500*
G02X294256Y145277I85J-181*
X294342Y145258I1J-200*
G03X294984Y145113I644J1356*
G01X298528*
G03X299170Y145258I-1J1500*
G02X299256Y145277I85J-181*
X299342Y145258I1J-200*
G03X299984Y145113I644J1356*
G01X303528*
G03X304170Y145258I-1J1500*
G02X304256Y145277I85J-181*
X304342Y145258I1J-200*
G03X304984Y145113I644J1356*
G01X308528*
G03X309170Y145258I-1J1500*
G02X309256Y145277I85J-181*
X309342Y145258I1J-200*
G03X309984Y145113I644J1356*
G01X313339*
X313456Y144997*
Y144914*
G03X315637Y141820I3300J11*
X316757Y141624I1120J3104*
X319323Y142849I0J3300*
G02X319478Y142923I156J-127*
G01X324867*
G03X325008Y142982I-1J200*
G01X326871Y144845*
G03X326870Y144846I-1J0*
G01X326756Y144842*
G02X326529Y144859I-2J1502*
G03X324984Y146614I-3518J-1539*
G01X326482Y149426*
Y149427*
X326381Y149566*
X326482Y149705*
Y149706*
X324984Y152519*
G03X326529Y154273I-1972J3294*
G02X326756Y154290I225J-1484*
X326983Y154273I2J-1501*
G03X328528Y152519I3518J1542*
X330027Y150883I4421J2546*
X330028Y150884I0J1*
G01Y152519*
G03X328528Y154019I-1500J0*
G01X327400*
G02X327200Y154219J200*
G01Y155853*
G02X327400Y156053I200J0*
G01X329230*
G03X330730Y157554I0J1500*
G01Y161094*
G03X330374Y162065I-1500J1*
G01X330350Y162092*
X330326Y162158*
Y162489*
X330350Y162555*
X330374Y162582*
G03X330730Y163554I-1145J970*
G01Y167094*
G03X329230Y168594I-1500J0*
G01X329000*
G02X328800Y168794J200*
G01Y172709*
G02X329000Y172909I200J0*
G01X350705*
X350706*
G03X350847Y172967I0J200*
G01X351314Y173435*
G02X351456Y173494I142J-140*
G01X352570*
X352571*
G03X353411Y173751I0J1500*
G01X353442Y173772*
X353515Y173789*
X353856Y173738*
X353921Y173702*
X353945Y173672*
G03X355107Y173120I1163J948*
G01X359706*
G02X359906Y172920I0J-200*
G01Y169010*
G03X359922Y168797I1500J6*
G01X359928Y168754*
X359903Y168670*
X359677Y168409*
G02X359526Y168340I-151J131*
G01X333846*
G03X333646Y168140I0J-200*
G01Y64100*
G03X333846Y63900I200*
G01X359526*
G02X359677Y63831I0J-200*
G01X359903Y63570*
X359928Y63486*
X359922Y63443*
G03X359906Y63229I1484J-219*
G01Y59320*
G02X359792Y59139I-200J0*
G01Y59138*
G03X361507Y57619I4396J3236*
X363006Y56092I3030J1475*
X363007Y56093I0J1*
G01Y57529*
G02X363207Y57729I200J0*
G01X367806*
G03X369307Y59230I0J1501*
G01Y63229*
G03X369291Y63443I-1500J-5*
G01X369285Y63486*
X369310Y63570*
X369536Y63831*
G02X369687Y63900I151J-131*
G01X372816*
G02X373016Y63700I0J-200*
G01Y1200*
G02X372816Y1000I-200*
G37*
%LPC*%
G36*
X311600Y241906D02*
G01Y243424D01*
G03X310100Y244924I-1500J0*
G01X308452*
Y244923*
G03X310100Y243424I4220J2984*
X311599Y241905I3865J2315*
X311600Y241906I0J1*
G37*
G36*
Y247424D02*
G01Y248942D01*
G03X311599Y248943I-1J0*
X310100Y247424I2368J-3835*
X308451Y245924I2571J-4483*
X308452Y245923I1J0*
G01X310100*
G03X311600Y247424I0J1500*
G37*
G36*
Y250906D02*
G01Y252424D01*
G03X310100Y253924I-1500J0*
G01X309353*
Y253923*
G03X310100Y252424I4784J1448*
X311599Y250905I3865J2315*
X311600Y250906I0J1*
G37*
G36*
Y238424D02*
G01Y239942D01*
G03X311599Y239943I-1J0*
X310100Y238424I2368J-3835*
X308451Y236924I2571J-4483*
X308452Y236923I1J0*
G01X310100*
G03X311600Y238424I0J1500*
G37*
G36*
X276100Y253224D02*
G01Y257624D01*
G03X275100Y258624I-1000J0*
G01X269600*
G03X268600Y257624I0J-1000*
G01Y253224*
G03X269600Y252224I1000*
G01X275100*
G03X276100Y253224I0J1000*
G37*
G36*
X155300Y253024D02*
G01Y258124D01*
G03X154300Y259124I-1000J0*
G01X148000*
G03X147000Y258124I0J-1000*
G01Y253024*
G03X148000Y252024I1000*
G01X154300*
G03X155300Y253024J1000*
G37*
G36*
X165300Y136975D02*
G01X166675Y139726D01*
X165300Y137946*
G03X163800Y140264I-6755J-2727*
G01Y136975*
G03X165300Y135475I1500*
G01X166927*
G03X165300Y136975I-4558J-3311*
G37*
G36*
X172800Y147975D02*
G03X171300Y149475I-1500J0D01*
G01X169673*
G03X171300Y147975I4558J3311*
G01X169924Y145224*
X171300Y147004*
G03X172800Y144686I6754J2726*
G01Y147975*
G37*
G36*
X165300Y147004D02*
G01X166675Y145224D01*
X165300Y147975*
G03X166927Y149475I-2930J4811*
G01X165300*
G03X163800Y147975I0J-1500*
G01Y144686*
G03X165300Y147004I-5255J5045*
G37*
G36*
X195550Y152830D02*
G01Y158589D01*
G03X194050Y156271I5254J-5044*
G01X191674Y159220*
X194050Y152830*
G03X192400Y151330I2999J-4957*
G01X194050*
G03X195550Y152830J1500*
G37*
G36*
X187750D02*
G01X190126Y159220D01*
X187750Y156271*
G03X186250Y158589I-6754J-2726*
G01Y152830*
G03X187750Y151330I1500*
G01X189400*
G03X187750Y152830I-4650J-3457*
G37*
G36*
X173447Y162674D02*
G01Y164325D01*
G03X171946Y162674I3456J-4650*
G01X165556Y165050*
X168505Y162674*
G03X166186Y161173I2726J-6754*
G01X171946*
G03X173447Y162674I0J1501*
G37*
G36*
X159448D02*
G01X162396Y165051D01*
X156006Y162674*
G03X154506Y164324I-4957J-2999*
G01Y162674*
Y162673*
G03X156006Y161173I1500*
G01X161766*
G03X159448Y162674I-5046J-5252*
G37*
G36*
X194050Y165329D02*
G03X195550Y163011I6754J2726D01*
G01Y168770*
G03X194050Y170270I-1500J0*
G01X192400*
G03X194050Y168770I4650J3457*
G01X191674Y162380*
X194050Y165329*
G37*
G36*
X187750Y168770D02*
G03X189400Y170270I-2999J4957D01*
G01X187750*
G03X186250Y168770I0J-1500*
G01Y163011*
G03X187750Y165329I-5254J5044*
G01X190126Y162380*
X187750Y168770*
G37*
G36*
X171946Y168974D02*
G03X173447Y167323I4957J2999D01*
G01Y168974*
G03X171946Y170474I-1501J-1*
G01X166187*
G03X168505Y168974I5044J5254*
G01X165556Y166598*
X171946Y168974*
G37*
G36*
X159448D02*
G03X161766Y170474I-2726J6754D01*
G01X156006*
G03X154506Y168974I0J-1500*
G01Y167323*
G03X156006Y168974I-3458J4649*
G01X162396Y166597*
X159448Y168974*
G37*
G36*
X114550Y171793D02*
G01Y177552D01*
G03X113050Y175234I5254J-5044*
G01X110674Y178183*
X113050Y171793*
G03X111400Y170293I2999J-4957*
G01X113050*
G03X114550Y171793I0J1500*
G37*
G36*
X106750D02*
G01X109126Y178183D01*
X106750Y175234*
G03X105250Y177552I-6755J-2727*
G01Y171793*
G03X106750Y170293I1500J0*
G01X108400*
G03X106750Y171793I-4650J-3457*
G37*
G36*
X113050Y184292D02*
G03X114550Y181974I6754J2726D01*
G01Y187733*
G03X113050Y189233I-1500J0*
G01X111400*
G03X113050Y187733I4650J3457*
G01X110674Y181343*
X113050Y184292*
G37*
G36*
X106750Y187733D02*
G03X108400Y189233I-2999J4957D01*
G01X106750*
G03X105250Y187733I0J-1500*
G01Y181974*
G03X106750Y184292I-5255J5045*
G01X109126Y181343*
X106750Y187733*
G37*
G36*
X326598Y186626D02*
G01Y190870D01*
G03X325098Y188710I4129J-4468*
G01X321558Y192163*
X321555Y192157*
X321552Y192163*
X318012Y188710*
G03X316511Y190871I-5629J-2308*
G01Y186626*
G03X318011Y185126I1501J1*
G01X318012*
X325098*
G03X326598Y186626I0J1500*
G37*
G36*
X364071Y186168D02*
G03X367166Y189373I-55J3150D01*
X364016Y192468I-3150J-56*
G01X363961*
G03X363476Y192421I60J-3150*
G01X363432Y192414*
X363347Y192437*
X363187Y192571*
X363186Y192572*
G03X361507Y190959I1352J-3087*
X359807Y189460I2682J-4755*
G01Y189459*
X360748*
X360865Y189344*
X360866Y189263*
G03X364016Y186168I3150J55*
G01X364071*
G37*
G36*
X363007Y193433D02*
G01Y194869D01*
G02X363207Y195069I200J0*
G01X367806*
G03X369307Y196570I0J1501*
G01Y200569*
G03X367806Y202070I-1501J0*
G01X361406*
G03X359906Y200569I0J-1500*
G01Y196660*
G02X359792Y196479I-200J0*
G01Y196478*
G03X361507Y194959I4396J3236*
X363006Y193432I3030J1475*
X363007Y193433I0J1*
G37*
G36*
X325098Y196353D02*
G03X326598Y194194I5628J2310D01*
G01Y198437*
Y198438*
G03X325098Y199938I-1500J0*
G01X323144*
G03X325098Y198437I4429J3743*
G01X322484Y193804*
X325098Y196353*
G37*
G36*
X318012Y198437D02*
G03X319966Y199938I-2475J5244D01*
G01X318012*
G03X316511Y198437I0J-1501*
G01Y194193*
G03X318012Y196353I-4128J4470*
G01X320626Y193804*
X318012Y198437*
G37*
G36*
X128095Y209844D02*
G01Y212163D01*
G03X126595Y209845I5254J-5044*
G01X118149Y213653*
X121579Y209844*
G03X119261Y208344I2726J-6754*
G01X126595*
G03X128095Y209844I0J1500*
G37*
G36*
X112521D02*
G01X115950Y213653D01*
X107505Y209845*
G03X106005Y212163I-6754J-2726*
G01Y209844*
G03X107505Y208344I1500J0*
G01X114839*
G03X112521Y209844I-5044J-5254*
G37*
G36*
X126595Y218902D02*
G03X128095Y216585I6753J2728D01*
G01Y218904*
G03X126595Y220404I-1500J0*
G01X119260*
G03X121579Y218903I5045J5253*
G01X118150Y215095*
X126595Y218902*
G37*
G36*
X112521Y218903D02*
G03X114840Y220404I-2726J6754D01*
G01X107505*
G03X106005Y218904I0J-1500*
G01Y216585*
G03X107505Y218902I-5254J5045*
G01X115950Y215095*
X112521Y218903*
G37*
G36*
X155316Y235959D02*
G03X150960Y240083I-4356J-238D01*
X146604Y235483I0J-4362*
X150960Y231359I4356J238*
X155316Y235959I0J4362*
G37*
G36*
X172800Y136975D02*
G01Y140264D01*
G03X171300Y137946I5254J-5044*
G01X169924Y139726*
X171300Y136975*
G03X169673Y135475I2931J-4811*
G01X171300*
G03X172800Y136975J1500*
G37*
G36*
X190000Y247724D02*
G01Y249242D01*
G03X189999Y249243I-1J0*
X188500Y247724I2367J-3835*
X186851Y246224I2571J-4483*
X186852Y246223I1J0*
G01X188500*
G03X190000Y247724I0J1500*
G37*
G36*
Y251206D02*
G01Y252724D01*
G03X188500Y254224I-1500J0*
G01X186852*
Y254223*
G03X188500Y252724I4220J2984*
X189999Y251205I3865J2315*
X190000Y251206I0J1*
G37*
G36*
X106684Y273350D02*
G03X100986Y279224I-5698J174D01*
X95288Y273698I0J-5700*
X100986Y267824I5698J-174*
X106684Y273350I0J5700*
G37*
G36*
X86684D02*
G03X80986Y279224I-5698J174D01*
X75288Y273698I0J-5700*
X80986Y267824I5698J-174*
X86684Y273350I0J5700*
G37*
G36*
X46684D02*
G03X40986Y279224I-5698J174D01*
X35288Y273698I0J-5700*
X40986Y267824I5698J-174*
X46684Y273350I0J5700*
G37*
G36*
X367318Y299944D02*
G03X359016Y308246I-8302J0D01*
X350714Y299944I0J-8302*
X359016Y291642I8302J0*
X367318Y299944I0J8302*
G37*
G36*
X23302D02*
G03X15000Y308246I-8302J0D01*
X6698Y299944I0J-8302*
X15000Y291642I8302J0*
X23302Y299944I0J8302*
G37*
G36*
X161746Y294843D02*
G01Y294844D01*
Y301044*
G03X159746Y303044I-2000J0*
G01X153546*
G03X151546Y301044I0J-2000*
G01Y300394*
G02X151346Y300194I-200*
G01X151290*
X151194Y300252*
X151168Y300301*
G03X146646Y303043I-4522J-2358*
X142010Y300069I0J-5100*
G02X141828Y299952I-182J83*
G01X141464*
G02X141282Y300069J200*
G03X136646Y303044I-4636J-2125*
X132010Y300069I0J-5100*
G02X131828Y299952I-182J83*
G01X131464*
G02X131282Y300069J200*
G03X126646Y303043I-4636J-2126*
X123694Y302101I1J-5100*
X121546Y297943I2952J-4159*
X123394Y294015I5100J1*
X126646Y292843I3253J3928*
X131282Y295818I0J5100*
G02X131464Y295935I182J-83*
G01X131828*
G02X132010Y295818J-200*
G03X136646Y292843I4636J2125*
X141282Y295818I0J5100*
G02X141464Y295935I182J-83*
G01X141828*
G02X142010Y295818J-200*
G03X146646Y292844I4636J2126*
X151168Y295586I0J5100*
G01X151194Y295635*
X151290Y295693*
X151346*
G02X151546Y295493I0J-200*
G01Y294844*
Y294843*
G03X153546Y292843I2000J0*
G01X159746*
G03X161746Y294843I0J2000*
G37*
G36*
X190000Y242206D02*
G01Y243724D01*
G03X188500Y245224I-1500J0*
G01X186852*
Y245223*
G03X188500Y243724I4220J2984*
X189999Y242205I3865J2315*
X190000Y242206I0J1*
G37*
G36*
X257075Y6958D02*
G02X257189Y6994I114J-164D01*
G01X260370*
G03X261870Y8494J1500*
G01Y10854*
G03X260370Y12354I-1500J0*
G01X259900*
G02X259700Y12554I0J200*
G01Y13093*
G02X259900Y13293I200J0*
G01X260370*
G03X261870Y14793J1500*
G01Y17153*
G03X261507Y18132I-1500J0*
G01X261458Y18263*
Y18384*
X261507Y18515*
G03X261870Y19493I-1137J979*
G01Y19494*
Y21854*
G03X260370Y23354I-1500J0*
G01X259900*
G02X259700Y23554J200*
G01Y24094*
G02X259900Y24294I200J0*
G01X260370*
G03X261870Y25794I0J1500*
G01Y28154*
G03X260370Y29654I-1500J0*
G01X259069*
G03X260370Y28154I2895J1197*
X261539Y27124I2196J1314*
G02X261550Y26973I-991J-148*
X261539Y26823I-1002J-2*
G03X260370Y25794I1027J-2345*
G01X258675Y26784*
X258600Y26724*
X258525Y26784*
X256830Y25794*
G03X255662Y26823I-2196J-1315*
G02X255651Y26973I989J148*
X255662Y27124I1000J3*
G03X256830Y28154I-1029J2344*
X258131Y29654I-1594J2696*
G01X256830*
G03X255330Y28154I0J-1500*
G01Y25794*
G03X256830Y24294I1500J0*
G01X257300*
G02X257500Y24094I0J-200*
G01Y23554*
G02X257300Y23354I-200*
G01X256830*
G03X255330Y21854I0J-1500*
G01Y19494*
G03X255693Y18515I1501J0*
G01X255742Y18384*
Y18263*
X255693Y18132*
G03X255330Y17154I1137J-978*
G01Y17153*
Y14793*
G03X256830Y13293I1500*
G01X257300*
G02X257500Y13093I0J-200*
G01Y12554*
G02X257300Y12354I-200*
G01X257159*
X257101Y12372*
X257075Y12390*
X256615Y12656*
G03X255200Y12974I-1414J-2983*
X252509Y11585I0J-3300*
X251900Y9674I2691J-1910*
X252851Y7356I3300J0*
X255200Y6374I2349J2318*
X257075Y6958I1J3300*
G37*
G36*
X153094Y6982D02*
G01X158214Y12103D01*
G02X158355Y12161I141J-142*
X158418Y12151I1J-200*
G03X160000Y11900I1580J4849*
X164636Y14875I0J5100*
G02X164818Y14992I182J-83*
G01X165182*
G02X165364Y14875J-200*
G03X170000Y11900I4636J2125*
X174636Y14875I0J5100*
G02X174818Y14992I182J-83*
G01X175182*
G02X175364Y14875J-200*
G03X180000Y11900I4636J2125*
X183483Y13274I1J5100*
X185100Y17000I-3483J3725*
X182310Y21547I-5100J0*
G02X182200Y21726I90J179*
G01Y67976*
G02X182263Y68122I200J0*
G03X183300Y70524I-2263J2402*
X182263Y72926I-3300J0*
X180000Y73824I-2263J-2402*
X177598Y72787I0J-3300*
X176700Y70524I2402J-2263*
X177737Y68122I3300J0*
G02X177800Y67976I-137J-146*
G01Y63612*
G02X177735Y63465I-200J1*
G01X177488Y63237*
X177409Y63210*
X177367Y63213*
X177096Y63224*
X177011Y63223*
X176970Y63222*
X176895Y63251*
X176661Y63479*
G02X176600Y63623I139J144*
G01Y68152*
Y68153*
G03X176542Y68294I-199J0*
G01X176128Y68707*
X176098Y68784*
X176099Y68825*
X176100Y68924*
G03X172985Y72219I-3300J0*
G01X172892Y72223*
X172800Y72224*
G03X169534Y69395I0J-3300*
X169500Y68924I3266J-473*
X172046Y65711I3300J0*
G01X172113Y65695*
X172200Y65586*
Y57895*
G03X172258Y57754I199J0*
G01X174541Y55471*
G02X174600Y55329I-141J-142*
G01Y28618*
G02X174541Y28476I-199J0*
G01X173347Y27282*
G02X173206Y27224I-141J142*
G01X130871*
G03X130730Y27165I1J-199*
G01X127858Y24294*
G03X127800Y24153I142J-141*
G01Y24152*
Y21726*
G02X127690Y21547I-200J0*
G03X125364Y19125I2310J-4547*
G02X125182Y19008I-182J83*
G01X124818*
G02X124636Y19125I0J200*
G03X120000Y22100I-4636J-2125*
X115364Y19125I0J-5100*
G02X115182Y19008I-182J83*
G01X114818*
G02X114636Y19125I0J200*
G03X112310Y21547I-4636J-2125*
G02X112200Y21726I90J179*
G01Y66476*
G02X112263Y66622I200J0*
G03X113300Y69024I-2263J2402*
X112823Y70733I-3300J0*
X110000Y72324I-2823J-1709*
X109080Y72193I1J-3300*
G02X109025Y72185I-56J192*
X108852Y72284I0J200*
G03X106000Y73924I-2852J-1660*
X104659Y73639I1J-3300*
G01X104624Y73623*
X104547Y73620*
X104215Y73738*
X104158Y73788*
X104140Y73823*
G03X101200Y75624I-2940J-1499*
X100074Y75426I0J-3300*
G02X100005Y75414I-68J188*
X99934Y75427I0J200*
G01X99824Y75469*
G02X99719Y75563I72J186*
G03X96800Y77323I-2919J-1541*
X94546Y76434I-1J-3301*
G02X94410Y76380I-137J146*
G01X94290*
G02X94154Y76434I1J200*
G03X91900Y77324I-2255J-2410*
X88766Y75060I0J-3300*
X88600Y74024I3134J-1034*
X91900Y70724I3300J0*
G01X91998Y70725*
X92040Y70726*
X92116Y70696*
X101341Y61471*
G02X101400Y61329I-141J-142*
G01Y33418*
G02X101341Y33276I-199J0*
G01X97547Y29482*
G02X97406Y29424I-141J142*
G01X70372*
G03X70230Y29365I0J-199*
G01X67858Y26993*
G03X67800Y26852I142J-141*
G01Y21726*
G02X67690Y21547I-200J0*
G03X65364Y19125I2310J-4547*
G02X65182Y19008I-182J83*
G01X64818*
G02X64636Y19125I0J200*
G03X60000Y22100I-4636J-2125*
X55478Y19358I0J-5100*
G01X55452Y19308*
X55356Y19250*
X55300*
G02X55100Y19450J200*
G01Y20100*
G03X53100Y22100I-2000J0*
G01X46900*
G03X44900Y20100I0J-2000*
G01Y13900*
G03X46900Y11900I2000*
G01X53100*
G03X55100Y13900J2000*
G01Y14550*
G02X55300Y14750I200J0*
G01X55356*
X55452Y14692*
X55478Y14642*
G03X60000Y11900I4522J2358*
X64636Y14875I0J5100*
G02X64818Y14992I182J-83*
G01X65182*
G02X65364Y14875I0J-200*
G03X70000Y11900I4636J2125*
X74636Y14875I0J5100*
G02X74818Y14992I182J-83*
G01X75182*
G02X75364Y14875I0J-200*
G03X80000Y11900I4636J2125*
X84636Y14875I0J5100*
G02X84818Y14992I182J-83*
G01X85182*
G02X85364Y14875I0J-200*
G03X90000Y11900I4636J2125*
X94636Y14875I0J5100*
G02X94818Y14992I182J-83*
G01X95182*
G02X95364Y14875I0J-200*
G03X100001Y11900I4637J2126*
X101582Y12151I1J5101*
G01X101636Y12169*
X101746Y12143*
X106907Y6982*
G03X107048Y6923I142J141*
G01X152952*
G03X153094Y6982I0J199*
G37*
G36*
X23302Y15000D02*
G03X15000Y23302I-8302J0D01*
X6698Y15000I0J-8302*
X15000Y6698I8302J0*
X23302Y15000I0J8302*
G37*
G36*
X210904Y11900D02*
G03X208908Y13900I-4622J-2617D01*
X206909Y15896I-4618J-2626*
X206908Y15895I0J-1*
G01Y13900*
G03X208908Y11899I2000J-1*
G01X210904*
Y11900*
G37*
G36*
X206909Y18104D02*
G03X208908Y20100I-2618J4621D01*
X210904Y22099I-2626J4618*
X210903Y22100I-1J0*
G01X208908*
G03X206908Y20100I0J-2000*
G01Y18105*
G03X206909Y18104I1J0*
G37*
G36*
X364071Y48828D02*
G03X367166Y52033I-55J3150D01*
X364016Y55128I-3150J-56*
G01X363961*
G03X363476Y55081I60J-3150*
G01X363432Y55074*
X363347Y55097*
X363187Y55231*
X363186Y55232*
G03X361507Y53619I1352J-3087*
X359807Y52120I2682J-4755*
G01Y52119*
X360748*
X360865Y52004*
X360866Y51923*
G03X364016Y48828I3150J55*
G01X364071*
G37*
G36*
X330028Y77716D02*
G01Y79351D01*
G03X330027Y79352I-1J0*
X328528Y77716I2923J-4183*
X327106Y76217I1972J-3295*
X327107Y76216I1J0*
G01X328528*
G03X330028Y77716I0J1500*
G37*
G36*
Y81986D02*
G01Y83621D01*
G03X328528Y85122I-1501J0*
G01X327107*
G03X327106Y85121I0J-1*
X328528Y83621I3396J1795*
X330027Y81986I4420J2548*
G01X330028*
G37*
G36*
X114550Y97777D02*
G01Y103536D01*
G03X113050Y101219I5253J-5045*
G01X110673Y104167*
X113050Y97777*
G03X111400Y96277I2999J-4957*
G01X113050*
G03X114550Y97777I0J1500*
G37*
G36*
X106750D02*
G01X109127Y104167D01*
X106750Y101219*
G03X105250Y103536I-6754J-2728*
G01Y97777*
G03X106750Y96277I1500J0*
G01X108400*
G03X106750Y97777I-4650J-3457*
G37*
G36*
X225300Y101240D02*
G03X220600Y105963I-4700J23D01*
X215900Y101286I0J-4700*
X220600Y96563I4700J-23*
X225300Y101240I0J4700*
G37*
G36*
X114550Y113717D02*
G01Y113718D01*
G03X113050Y115218I-1500J0*
G01X111399*
G03X113050Y113717I4650J3456*
G01X110674Y107327*
X113050Y110276*
G03X114550Y107958I6754J2726*
G01Y113717*
G37*
G36*
X106750D02*
G03X108401Y115218I-2999J4957D01*
G01X106750*
G03X105250Y113718I1J-1501*
G01Y113717*
Y107958*
G03X106750Y110276I-5254J5044*
G01X109126Y107327*
X106750Y113717*
G37*
G36*
X305146Y113739D02*
G01Y113740D01*
Y115162*
G03X303646Y113740I1793J-3394*
X302224Y112239I1973J-3294*
G01X303646*
G03X305146Y113739I0J1500*
G37*
G36*
X300103Y113740D02*
G03X299118Y114834I-3293J-1974D01*
X298134Y113740I2309J-3066*
G01X296394Y115175*
X296362Y115136*
X296330Y115175*
X294591Y113740*
G03X293606Y114834I-3293J-1974*
X292622Y113740I2309J-3066*
X291200Y112239I1973J-3294*
G01X292622*
X292623*
G03X293491Y112516I0J1500*
G02X293607Y112553I116J-163*
X293722Y112516I-1J-200*
G03X294590Y112239I868J1223*
G01X294591*
X298134*
G03X299002Y112516I0J1500*
G02X299118Y112553I116J-163*
X299234Y112516I0J-200*
G03X300102Y112239I868J1223*
G01X300103*
X301525*
G03X300103Y113740I-3395J-1792*
G37*
G36*
X289079D02*
G03X287579Y115162I-3294J-1973D01*
G01Y113740*
Y113739*
G03X289079Y112239I1500J0*
G01X290501*
G03X289079Y113740I-3395J-1792*
G37*
G36*
X305146Y117283D02*
G03X304869Y118151I-1500J0D01*
G02X304832Y118267I163J116*
X304869Y118383I200J0*
G03X305146Y119251I-1223J868*
G01Y122795*
G03X304869Y123663I-1500J0*
G02X304832Y123779I163J116*
X304869Y123895I200J0*
G03X305146Y124763I-1223J868*
G01Y126185*
G03X303646Y124763I1793J-3394*
X302552Y123779I1973J-3294*
X303646Y122795I3067J2309*
G01X302210Y121055*
X302249Y121023*
X302210Y120991*
X303646Y119251*
G03X302552Y118267I1973J-3294*
X303646Y117283I3067J2310*
X305146Y115861I3294J1972*
G01Y117283*
G37*
G36*
X289079D02*
G03X290173Y118267I-1973J3294D01*
X289079Y119251I-3066J-2309*
G01X290515Y120991*
X290476Y121023*
X290515Y121055*
X289079Y122795*
G03X290173Y123779I-1973J3294*
X289079Y124763I-3066J-2309*
X287579Y126186I-3295J-1971*
G01Y124763*
G03X287856Y123895I1500J0*
G02X287893Y123779I-163J-116*
X287856Y123663I-200J0*
G03X287579Y122795I1223J-868*
G01Y119251*
G03X287856Y118383I1500J0*
G02X287893Y118267I-163J-116*
X287856Y118151I-200J0*
G03X287579Y117283I1223J-868*
G01Y115861*
G03X289079Y117283I-1794J3394*
G37*
G36*
X300103D02*
G03X301197Y118267I-1973J3294D01*
X300103Y119251I-3066J-2309*
X299118Y120346I-3294J-1973*
X298134Y119251I2310J-3066*
X297040Y118267I1973J-3294*
X298134Y117283I3067J2310*
X299118Y116189I3293J1973*
X300103Y117283I-2307J3068*
G37*
G36*
X294591D02*
G03X295685Y118267I-1973J3294D01*
X294591Y119251I-3066J-2309*
X293606Y120346I-3294J-1973*
X292622Y119251I2310J-3066*
X291528Y118267I1973J-3294*
X292622Y117283I3067J2310*
X293606Y116189I3293J1973*
X294591Y117283I-2307J3068*
G37*
G36*
X300103Y122795D02*
G03X301197Y123779I-1973J3294D01*
X300103Y124763I-3066J-2309*
X299118Y125858I-3294J-1973*
X298134Y124763I2310J-3066*
X297040Y123779I1973J-3294*
X298134Y122795I3067J2310*
X299118Y121700I3294J1971*
X300103Y122795I-2309J3067*
G37*
G36*
X294591D02*
G03X295685Y123779I-1973J3294D01*
X294591Y124763I-3066J-2309*
X293606Y125858I-3294J-1973*
X292622Y124763I2310J-3066*
X291528Y123779I1973J-3294*
X292622Y122795I3067J2310*
X293606Y121700I3294J1971*
X294591Y122795I-2309J3067*
G37*
G36*
X225300Y131162D02*
G03X220600Y135885I-4700J23D01*
X215900Y131208I0J-4700*
X220600Y126485I4700J-23*
X225300Y131162I0J4700*
G37*
G36*
X305146Y128306D02*
G01Y128307D01*
G03X303646Y129807I-1500J0*
G01X302224*
G03X303646Y128306I3395J1792*
X305146Y126884I3294J1972*
G01Y128306*
G37*
G36*
X298134D02*
G03X299118Y127212I3293J1973D01*
X300103Y128306I-2307J3068*
X301525Y129807I-1973J3293*
G01X300103*
X300102*
G03X299234Y129530I0J-1500*
G02X299118Y129493I-116J163*
X299002Y129530I0J200*
G03X298134Y129807I-868J-1223*
G01X294591*
X294590*
G03X293722Y129530I0J-1500*
G02X293607Y129493I-116J163*
X293491Y129530I0J200*
G03X292623Y129807I-868J-1223*
G01X292622*
X291200*
G03X292622Y128306I3395J1792*
X293606Y127212I3293J1973*
X294591Y128306I-2307J3068*
G01X296330Y126871*
X296362Y126910*
X296394Y126871*
X298134Y128306*
G37*
G36*
X289079D02*
G03X290501Y129807I-1973J3293D01*
G01X289079*
G03X287579Y128307I1J-1501*
G01Y128306*
Y126884*
G03X289079Y128306I-1794J3394*
G37*
G36*
X261288Y137969D02*
G01Y139389D01*
G03X259788Y140889I-1500J0*
G01X258153*
G03X258152Y140888I0J-1*
X259788Y139389I4183J2923*
X261287Y137968I3293J1973*
X261288Y137969I0J1*
G37*
G36*
X252383Y137968D02*
G03X253882Y139389I-1795J3395D01*
X255518Y140888I-2547J4422*
X255517Y140889I-1J0*
G01X253882*
G03X252382Y139389I0J-1500*
G01Y137969*
G03X252383Y137968I1J0*
G37*
G36*
X327073Y145047D02*
G01X327081Y145055D01*
G02X327222Y145113I141J-141*
G01X327223*
X328528*
G03X330028Y146614I0J1500*
G01Y148249*
X330027*
G03X328528Y146614I2922J-4184*
X327072Y145048I1973J-3294*
X327073Y145047I1J0*
G37*
G36*
X367318Y15000D02*
G03X359016Y23302I-8302J0D01*
X350714Y15000I0J-8302*
X359016Y6698I8302J0*
X367318Y15000I0J8302*
G37*
%LPD*%
G36*
X126646Y294181D02*
G02X125585Y294620I0J1501D01*
G03X124454Y295752I-1924J-791*
X123322Y296883I-1923J-793*
G02X122883Y297943I1061J1061*
X123322Y299004I1500J0*
G03X124454Y300136I-792J1924*
X125585Y301267I-792J1923*
G02X126646Y301706I1061J-1062*
X127707Y301267I0J-1501*
G03X128838Y300136I1923J792*
G01X126989Y297971*
X127021Y297944*
X126989Y297917*
X128838Y295752*
G03X127707Y294620I793J-1923*
G02X126646Y294181I-1061J1062*
G37*
G36*
X43956Y270554D02*
G01X41022Y273066D01*
X40986Y273024*
X40950Y273066*
X38016Y270554*
G03X36460Y272109I-2645J-1090*
G02X35874Y273523I1414J1414*
X36460Y274938I2000J1*
G03X38016Y276493I-1088J2645*
X39572Y278049I-1089J2645*
G02X40986Y278635I1414J-1414*
X42400Y278049I0J-2000*
G03X43956Y276493I2645J1089*
X45512Y274938I2644J1090*
G02X46098Y273523I-1414J-1414*
X45512Y272109I-2000J0*
G03X43956Y270554I1088J-2645*
G37*
G36*
X80986Y268412D02*
G02X79572Y268998I0J2000D01*
G03X78016Y270554I-2645J-1089*
X76460Y272109I-2645J-1090*
G02X75874Y273523I1414J1414*
X76460Y274938I2000J1*
G03X78016Y276493I-1088J2645*
X79572Y278049I-1089J2645*
G02X80986Y278635I1414J-1414*
X82400Y278049I0J-2000*
G03X83956Y276493I2645J1089*
X85512Y274938I2644J1090*
G02X86098Y273523I-1414J-1414*
X85512Y272109I-2000J0*
G03X83956Y270554I1088J-2645*
X82400Y268998I1089J-2645*
G02X80986Y268412I-1414J1414*
G37*
G36*
X173900Y67424D02*
G03X173350Y67534I-550J-1320D01*
X172800Y67424I0J-1430*
G01X172729Y68994*
X174300Y68924*
G03X174190Y68374I1321J-550*
X174300Y67824I1430J0*
G02X173900Y67424I-400J0*
G37*
G36*
X93000Y72524D02*
G03X92450Y72634I-550J-1320D01*
X91900Y72524J-1430*
G01X91829Y74094*
X93400Y74024*
G03X93290Y73474I1321J-550*
X93400Y72924I1430J0*
G02X93000Y72524I-400J0*
G37*
G36*
X178200Y58124D02*
G02X178095Y58138I0J400D01*
G03X177185Y58450I-910J-1171*
X177090Y58447I-1J-1483*
X176995Y58438I92J-1480*
G01X177038Y60002*
X178600Y59924*
G03X178460Y59224I1681J-700*
X178600Y58524I1820J0*
G02X178200Y58124I-400J0*
G37*
G36*
X180000Y68568D02*
G02X179717Y68685I0J400D01*
G03X178939Y69463I-1322J-544*
G01X180000Y70624*
X181061Y69463*
G03X180283Y68685I544J-1322*
G02X180000Y68568I-283J283*
G37*
G36*
X110000Y67068D02*
G02X109717Y67185I0J400D01*
G03X108939Y67963I-1322J-544*
G01X110000Y69124*
X111061Y67963*
G03X110283Y67185I544J-1322*
G02X110000Y67068I-283J283*
G37*
G36*
X106000Y68668D02*
G02X105717Y68785I0J400D01*
G03X104939Y69563I-1322J-544*
G01X106000Y70724*
X107061Y69563*
G03X106283Y68785I544J-1322*
G02X106000Y68668I-283J283*
G37*
G36*
X101200Y70368D02*
G02X100917Y70485I0J400D01*
G03X100139Y71263I-1322J-544*
G01X101200Y72424*
X102261Y71263*
G03X101483Y70485I544J-1322*
G02X101200Y70368I-283J283*
G37*
G36*
X96800Y72068D02*
G02X96517Y72185I0J400D01*
G03X95739Y72963I-1322J-544*
G01X96800Y74124*
X97861Y72963*
G03X97083Y72185I544J-1322*
G02X96800Y72068I-283J283*
G37*
G36*
X256830Y8494D02*
G03X256478Y8977I-1754J-908D01*
X256261Y8613I1106J-906*
G01X255100Y9674*
X256261Y10735*
G03X256478Y10371I1323J542*
X256830Y10854I-1402J1391*
G01X258700Y9674*
X256830Y8494*
G37*
G36*
X160000Y13900D02*
G03X158650Y14170I-1350J-3240D01*
X157300Y13900I0J-3510*
G02X156900Y14300I0J400*
G03X157170Y15650I-3241J1350*
X156900Y17000I-3511J0*
G01X160071Y17071*
X160000Y13900*
G37*
G36*
X140000D02*
G03X138650Y14170I-1350J-3240D01*
X137300Y13900I0J-3510*
G02X136900Y14300I0J400*
G03X137170Y15650I-3241J1350*
X136900Y17000I-3511J0*
G01X140071Y17071*
X140000Y13900*
G37*
G36*
X258600Y15873D02*
G01X256830Y17153D01*
G03X258111Y18323I-1293J2702*
X256830Y19494I-2575J-1531*
G01X258600Y20774*
X260370Y19494*
G03X259089Y18323I1294J-2702*
X260370Y17153I2574J1532*
G01X258600Y15873*
G37*
G36*
X180000Y16900D02*
G01X177808Y19192D01*
G03X179717Y21101I-1337J3246*
G02X180000Y21218I283J-283*
X180283Y21101I0J-400*
G03X182192Y19192I3246J1337*
G01X180000Y16900*
G37*
G36*
X150000D02*
G01X147808Y19192D01*
G03X149717Y21101I-1337J3246*
G02X150000Y21218I283J-283*
X150283Y21101I0J-400*
G03X152192Y19192I3246J1337*
G01X150000Y16900*
G37*
G36*
X130000D02*
G01X127808Y19192D01*
G03X129717Y21101I-1337J3246*
G02X130000Y21218I283J-283*
X130283Y21101I0J-400*
G03X132192Y19192I3246J1337*
G01X130000Y16900*
G37*
G36*
X90000D02*
G01X87808Y19192D01*
G03X89717Y21101I-1337J3246*
G02X90000Y21218I283J-283*
X90283Y21101I0J-400*
G03X92192Y19192I3246J1337*
G01X90000Y16900*
G37*
G36*
X80000D02*
G01X77808Y19192D01*
G03X79717Y21101I-1337J3246*
G02X80000Y21218I283J-283*
X80283Y21101I0J-400*
G03X82192Y19192I3246J1337*
G01X80000Y16900*
G37*
G36*
X70000D02*
G01X67808Y19192D01*
G03X69717Y21101I-1337J3246*
G02X70000Y21218I283J-283*
X70283Y21101I0J-400*
G03X72192Y19192I3246J1337*
G01X70000Y16900*
G37*
G36*
X60000Y13238D02*
G02X58939Y13677I0J1501D01*
G03X57808Y14808I-1923J-792*
G01X59680Y17000*
X57808Y19192*
G03X58939Y20323I-792J1923*
G02X60000Y20762I1061J-1062*
X61061Y20323I0J-1501*
G03X62192Y19192I1923J792*
G01X60320Y17000*
X62192Y14808*
G03X61061Y13677I792J-1923*
G02X60000Y13238I-1061J1062*
G37*
G36*
X112700Y13900D02*
G03X111350Y14170I-1350J-3240D01*
X110000Y13900J-3510*
G01X109931Y16972*
X107808Y19192*
G03X109717Y21101I-1337J3246*
G02X110000Y21218I283J-283*
X110283Y21101I0J-400*
G03X112192Y19192I3246J1337*
G01X110159Y17066*
X113100Y17000*
G03X112830Y15650I3241J-1350*
X113100Y14300I3510J0*
G02X112700Y13900I-400J0*
G37*
G36*
X102700D02*
G03X101350Y14170I-1350J-3240D01*
X100000Y13900J-3510*
G01X99931Y16972*
X97808Y19192*
G03X99717Y21101I-1337J3246*
G02X100000Y21218I283J-283*
X100283Y21101I0J-400*
G03X102192Y19192I3246J1337*
G01X100159Y17066*
X103100Y17000*
G03X102830Y15650I3241J-1350*
X103100Y14300I3510J0*
G02X102700Y13900I-400J0*
G37*
G54D10*
X4351Y27011D03*
X9862D03*
X15374D03*
X4351Y32523D03*
Y38035D03*
X9862Y32523D03*
Y38035D03*
X15374Y32523D03*
Y38035D03*
X15474Y122635D03*
Y117123D03*
Y111611D03*
X4451Y122635D03*
X9962D03*
Y117123D03*
X4451D03*
Y111611D03*
X9962D03*
X13162Y164211D03*
X7651D03*
Y169723D03*
X13162D03*
Y175235D03*
X7651D03*
X18674Y164211D03*
Y169723D03*
Y175235D03*
X12962Y190311D03*
X7451D03*
Y195823D03*
X12962D03*
Y201335D03*
X7451D03*
X18474Y190311D03*
Y195823D03*
Y201335D03*
X3751Y242323D03*
X9262D03*
Y247835D03*
X3751D03*
X14774Y242323D03*
Y247835D03*
X9262Y236811D03*
X3751D03*
X14774D03*
X14874Y275711D03*
X3851D03*
X9362D03*
X14874Y286735D03*
Y281223D03*
X3851Y286735D03*
X9362D03*
Y281223D03*
X3851D03*
X36674Y3211D03*
X25651D03*
X31162D03*
X36674Y8723D03*
X25651Y14235D03*
X31162D03*
Y8723D03*
X25651D03*
X47100Y42313D03*
Y45313D03*
Y48313D03*
X40150Y96374D03*
X43200D03*
X46200D03*
X35662Y164311D03*
X30151D03*
Y169823D03*
X35662D03*
Y175335D03*
X30151D03*
X41174Y164311D03*
Y169823D03*
Y175335D03*
X35262Y190211D03*
X29751D03*
Y195723D03*
X35262D03*
Y201235D03*
X29751D03*
X40774Y190211D03*
Y195723D03*
Y201235D03*
X37874Y300611D03*
X26851D03*
X32362D03*
X37874Y311635D03*
Y306123D03*
X26851Y311635D03*
X32362D03*
Y306123D03*
X26851D03*
X61200Y26624D03*
X65600D03*
X64000Y23124D03*
X53100Y34724D03*
Y37624D03*
Y40724D03*
X71274Y164023D03*
Y158511D03*
X65762Y164023D03*
Y158511D03*
X60251Y164023D03*
Y158511D03*
X54400Y163924D03*
X54600Y158524D03*
X91900Y74024D03*
X96800D03*
X90457Y220404D03*
X93357D03*
X114300Y26924D03*
X114200Y23024D03*
X101200Y72324D03*
X110000Y69024D03*
X106000Y70624D03*
X109900Y124824D03*
Y160624D03*
X118574Y304635D03*
Y299123D03*
Y293611D03*
X107551Y304635D03*
X113062D03*
Y299123D03*
X107551D03*
X113062Y293611D03*
X125200Y27124D03*
X125300Y22624D03*
X145551Y198811D03*
Y204323D03*
X144500Y240424D03*
X145500Y233524D03*
X141000Y235324D03*
X170100Y60324D03*
X170000Y56024D03*
X164700Y61924D03*
X164600Y56324D03*
X172800Y68924D03*
X158862Y114211D03*
X153351D03*
Y119723D03*
X158862D03*
Y125235D03*
X153351D03*
X164374Y114211D03*
Y119723D03*
Y125235D03*
X151062Y198811D03*
Y204323D03*
X156574Y198811D03*
Y204323D03*
X157600Y240624D03*
X158100Y233824D03*
X171151Y305423D03*
Y299911D03*
Y310935D03*
X190551Y20335D03*
X196062D03*
Y14823D03*
X190551D03*
Y9311D03*
X196062D03*
X184500Y56624D03*
X190800D03*
X196800Y56524D03*
X177100Y59924D03*
X180000Y70524D03*
X196500Y89224D03*
X182174Y305423D03*
Y299911D03*
X176662Y305423D03*
Y299911D03*
X182174Y310935D03*
X176662D03*
X201574Y20335D03*
Y14823D03*
Y9311D03*
X203100Y56524D03*
X211500Y92124D03*
X212100Y129924D03*
X212000Y121424D03*
X212100Y112224D03*
X215374Y252535D03*
Y247023D03*
Y241511D03*
X204351Y252535D03*
X209862D03*
Y247023D03*
X204351D03*
Y241511D03*
X209862D03*
X246100Y23924D03*
X246000Y29124D03*
X241367Y53071D03*
X244467D03*
X247467D03*
X245900Y34624D03*
X242400Y95424D03*
X243800Y100224D03*
X234000Y95324D03*
X248300Y86424D03*
X228600Y124424D03*
X228700Y115524D03*
X234550Y134574D03*
Y137424D03*
X227400Y137524D03*
X248800Y142324D03*
X245500Y139624D03*
X244100Y156524D03*
X249600Y254024D03*
X249700Y249324D03*
X244400Y240324D03*
X238450Y248624D03*
Y242324D03*
X268800Y28724D03*
Y23624D03*
X270100Y10124D03*
X255200Y9674D03*
X259600Y46724D03*
X259700Y40124D03*
X259500Y34024D03*
X266756Y75724D03*
X265900Y86424D03*
X271756Y154180D03*
X269951Y197611D03*
Y203123D03*
Y208635D03*
X266574Y305223D03*
Y299711D03*
X261062Y305223D03*
X255551D03*
Y299711D03*
X261062D03*
X266574Y310735D03*
X255551D03*
X261062D03*
X278400Y10124D03*
X276756Y68367D03*
X281756Y75724D03*
X286756D03*
X291756D03*
X290851Y126535D03*
X296362D03*
Y121023D03*
X290851D03*
Y115511D03*
X296362D03*
X296756Y154124D03*
X291756Y154024D03*
X276756Y154124D03*
X281756D03*
X286756D03*
X292000Y203024D03*
Y195524D03*
X291900Y187024D03*
X275462Y197611D03*
Y203123D03*
Y208635D03*
X290500Y231424D03*
X296800Y231324D03*
X276000Y241124D03*
X283900Y241224D03*
X285400Y235224D03*
X294500Y269924D03*
X316756Y75524D03*
X301756Y75724D03*
X321756D03*
X301874Y126535D03*
Y121023D03*
Y115511D03*
X316756Y144924D03*
X301756Y153924D03*
X306756Y154024D03*
X311756Y153968D03*
X306451Y168735D03*
X311962D03*
Y161223D03*
X306451D03*
X307600Y234224D03*
X315300Y234024D03*
X315500Y241624D03*
X315400Y249824D03*
X307700Y269824D03*
X301500D03*
X345974Y20035D03*
Y14523D03*
Y9011D03*
X334951Y20035D03*
X340462D03*
Y14523D03*
X334951D03*
Y9011D03*
X340462D03*
X345374Y54923D03*
Y49411D03*
X339862Y54923D03*
X334351D03*
Y49411D03*
X339862D03*
X345374Y60435D03*
X334351D03*
X339862D03*
X331674Y100323D03*
Y94811D03*
X326162Y100323D03*
Y94811D03*
X331674Y88635D03*
Y83123D03*
X326162Y88635D03*
X331674Y129311D03*
X326162D03*
X331774Y123335D03*
Y117823D03*
Y112311D03*
X326262Y123335D03*
Y117823D03*
Y112311D03*
X331674Y105835D03*
X326162D03*
X331674Y140335D03*
Y134823D03*
X326162Y140335D03*
Y134823D03*
X332100Y154924D03*
Y149024D03*
Y162324D03*
X331900Y170824D03*
X337800Y170924D03*
X344300D03*
X344100Y180124D03*
X337600Y180324D03*
X331100Y180424D03*
X349500Y198224D03*
X346274Y305223D03*
Y299711D03*
X340762Y305223D03*
X335251D03*
Y299711D03*
X340762D03*
X346274Y310735D03*
X335251D03*
X340762D03*
X371000Y50324D03*
X371100Y43424D03*
X371200Y36724D03*
X351000Y61824D03*
X356500D03*
X371000Y57024D03*
X350800Y170824D03*
X356900Y170724D03*
X371400Y178024D03*
X371300Y170224D03*
X355300Y198224D03*
X371200Y203824D03*
X371300Y194724D03*
X371400Y186024D03*
X350800Y184924D03*
X371300Y253324D03*
X371400Y244524D03*
Y236824D03*
X365700Y236624D03*
X359750Y241924D03*
Y248224D03*
X370374Y276711D03*
X359351D03*
X364862D03*
X370374Y287735D03*
Y282223D03*
X359351Y287735D03*
X364862D03*
Y282223D03*
X359351D03*
G54D15*
X40986Y273524D03*
X60986D03*
X80986D03*
X100986D03*
G54D11*
X17000Y50000D03*
Y60000D03*
Y70000D03*
Y80000D03*
Y90000D03*
X70000Y17000D03*
X60000D03*
X100000D03*
X90000D03*
X80000D03*
X120000D03*
X110000D03*
X150000D03*
X140000D03*
X130000D03*
X126646Y297944D03*
X136646D03*
X146646D03*
X170000Y17000D03*
X160000D03*
X180000D03*
X196650Y210254D03*
X186650D03*
X176650Y260254D03*
X186650D03*
X196650D03*
X196646Y297944D03*
X222008Y17000D03*
X216650Y210254D03*
X206650D03*
Y260254D03*
X216650D03*
X206646Y297944D03*
X216646D03*
X242008Y17000D03*
X232008D03*
X246650Y210254D03*
X236650D03*
X226650D03*
X246650Y260254D03*
X226650D03*
X236650D03*
X294016Y17000D03*
X284016D03*
X298020Y260259D03*
X294016Y297944D03*
X324016Y17000D03*
X314016D03*
X304016D03*
X318020Y210259D03*
X308020D03*
Y260259D03*
X318020D03*
X304016Y297944D03*
X314016D03*
X348020Y210259D03*
X338020D03*
X328020D03*
Y260259D03*
X338020D03*
X348020D03*
X368020Y210259D03*
X358020D03*
X368020Y260259D03*
X358020D03*
G54D19*
X150960Y255406D03*
X272330Y255421D03*
G54D13*
X17000Y100000D03*
X50000Y17000D03*
X156646Y297944D03*
X176650Y210254D03*
X212008Y17000D03*
X226646Y297944D03*
X274016Y17000D03*
X298020Y210259D03*
X324016Y297944D03*
G54D72*
X65750Y176224D03*
Y169524D03*
Y182924D03*
Y189624D03*
Y196324D03*
G54D50*
X22471Y134224D03*
X6329D03*
X125229Y142424D03*
X141371D03*
G54D20*
X150960Y235721D03*
X272330Y235736D03*
G54D44*
X51000Y213124D03*
X65600D03*
G54D16*
X78907Y189624D03*
X92293D03*
G54D42*
X24750Y182924D03*
G54D41*
X185500Y241224D03*
X177500D03*
X185500Y250224D03*
X177500D03*
X299100Y240924D03*
Y249924D03*
X307100Y240924D03*
Y249924D03*
G54D12*
X21450Y260824D03*
X40150Y80000D03*
X33850D03*
X40150Y74000D03*
X33850D03*
X40150Y68000D03*
X33850D03*
X40150Y92000D03*
X33850D03*
X40150Y86000D03*
X33850D03*
X27750Y260824D03*
X32450D03*
X38750D03*
X80050Y170224D03*
X86350D03*
Y176224D03*
X80050D03*
X86350Y164224D03*
X80050D03*
X141350Y127424D03*
X135050D03*
X141350Y133424D03*
X135050D03*
X238450Y251624D03*
X244750D03*
X238450Y245624D03*
X244750D03*
X321750Y159324D03*
Y165324D03*
X328050Y159324D03*
Y165324D03*
X359750Y251224D03*
X366050D03*
X359750Y245224D03*
X366050D03*
G54D21*
X220600Y101263D03*
Y131185D03*
G54D39*
X83050Y214374D03*
X117050D03*
G54D49*
X77985Y233653D03*
Y249794D03*
X274016Y53071D03*
Y36929D03*
G54D48*
X271756Y80669D03*
X266756D03*
X261756D03*
Y149566D03*
X266756D03*
X271756D03*
X296756Y80669D03*
X291756D03*
X286756D03*
X281756D03*
X276756D03*
X286756Y149566D03*
X291756D03*
X296756D03*
X276756D03*
X281756D03*
X321756Y80669D03*
X316756D03*
X311756D03*
X306756D03*
X301756D03*
Y149566D03*
X306756D03*
X311756D03*
X316756D03*
X321756D03*
X326756Y80669D03*
Y149566D03*
G54D40*
X40100Y134224D03*
X82100D03*
G54D47*
X256835Y92618D03*
Y97618D03*
Y102618D03*
Y107617D03*
Y112617D03*
Y117618D03*
Y122618D03*
Y127618D03*
Y132618D03*
Y137618D03*
G54D14*
X40900Y219774D03*
Y226074D03*
X210700Y146374D03*
Y152674D03*
X216700Y146374D03*
Y152674D03*
X258600Y9674D03*
Y15973D03*
Y26974D03*
Y20674D03*
X296016Y40150D03*
Y33850D03*
X302016Y40150D03*
Y33850D03*
X351000Y45574D03*
Y39274D03*
Y50274D03*
Y56574D03*
X350800Y176174D03*
Y182474D03*
Y187174D03*
Y193474D03*
G54D36*
X109900Y105747D03*
Y133700D03*
Y151810D03*
Y179763D03*
X190900Y132847D03*
Y160800D03*
G54D46*
X290851Y115511D03*
Y121023D03*
Y126535D03*
X296362Y115511D03*
Y121023D03*
Y126535D03*
X301874Y115511D03*
Y121023D03*
Y126535D03*
G54D37*
X136024Y165824D03*
X163976D03*
G54D73*
X49300Y226172D03*
X67300D03*
X150300Y142475D03*
X168300D03*
G54D17*
X150465Y190254D03*
Y220254D03*
X140465D03*
X160465Y190254D03*
Y220254D03*
X272332Y190254D03*
Y220254D03*
X262332D03*
X282332Y190254D03*
Y220254D03*
G54D45*
X58300Y250779D03*
X159300Y117869D03*
G54D38*
X321555Y175209D03*
Y192532D03*
G54D18*
X140465Y190254D03*
X262332D03*
G54D43*
X358307Y39281D03*
X364606Y33670D03*
X358307Y55619D03*
X364606Y61229D03*
X358307Y176621D03*
X364606Y171010D03*
X358307Y192959D03*
X364606Y198570D03*
G54D24*
X364016Y51978D03*
Y42922D03*
Y189318D03*
Y180262D03*
G54D10*
X17000Y50000D02*
G01X22300D01*
X17000D02*
G01X11700D01*
X17000D02*
G01Y44700D01*
X47100Y48313D02*
G01Y48324D01*
X40150Y55274*
Y68000*
X47100Y45313D02*
G01Y48313D01*
Y42313D02*
G01Y45313D01*
X40150Y74000D02*
G01Y80000D01*
Y68000D02*
G01Y74000D01*
X53100Y40724D02*
G01Y53724D01*
X47000Y59824*
Y82824*
X51200Y87024*
X137300*
X40150Y86000D02*
G01Y92000D01*
Y80000D02*
G01Y86000D01*
X43200Y96374D02*
G01X40150D01*
X46200D02*
G01X43200D01*
X40150Y93324D02*
G01Y96374D01*
Y93324D02*
G01Y92000D01*
X43200Y96374D02*
G01X40150Y93324D01*
X60000Y17000D02*
G01Y22300D01*
Y17000D02*
G01Y11700D01*
X53100Y37624D02*
G01Y34724D01*
Y40724D02*
G01Y37624D01*
X90457Y220404D02*
G01X93357D01*
X109900Y124824D02*
G01Y133700D01*
Y160624D02*
G01Y151810D01*
X126646Y297944D02*
G01X121346D01*
X137300Y87024D02*
G01Y118724D01*
X141350Y122774*
Y127424*
X137300Y87024D02*
G01X182100D01*
X196800Y72324*
X216200*
X222008Y66516*
Y17000*
X126646Y297944D02*
G01Y303244D01*
Y297944D02*
G01Y292643D01*
X185500Y250224D02*
G01Y241224D01*
Y250224D02*
G01Y254424D01*
Y250224D02*
G01X190200D01*
X185500Y241224D02*
G01X190200D01*
X185500Y255024D02*
G01X186650Y256174D01*
Y260254*
Y260254D02*
G01Y264966D01*
X212008Y17000D02*
G01Y22300D01*
Y17000D02*
G01X206708D01*
X212008Y11699D02*
G01Y17000D01*
X244467Y53071D02*
G01X241367D01*
X247467D02*
G01X244467D01*
X265000Y53040D02*
G01X247497D01*
X247467Y53071*
X234550Y134574D02*
G01Y137424D01*
Y137424D02*
G01Y138270D01*
X225048Y147772*
X238450Y251624D02*
G01Y258454D01*
X236650Y260254*
X238450Y251624D02*
G01Y248624D01*
Y248624D02*
G01Y245624D01*
Y242324D02*
G01Y245624D01*
X246650Y260254D02*
G01Y264966D01*
Y260254D02*
G01X251362D01*
X246650Y255694D02*
G01Y260254D01*
X274016Y53071D02*
G01X273986Y53040D01*
X265000*
X256835Y137618D02*
G01Y141089D01*
Y137618D02*
G01X252182D01*
X256835D02*
G01X261488D01*
X284016Y17000D02*
G01Y22300D01*
Y17000D02*
G01Y11700D01*
X274016Y17000D02*
G01Y36929D01*
X296362Y121023D02*
G01Y115511D01*
Y126535D02*
G01Y121023D01*
X290851D02*
G01Y126535D01*
Y115511D02*
G01Y121023D01*
X296362Y126535D02*
G01X301874D01*
X290851D02*
G01X296362D01*
Y121023D02*
G01X301874D01*
X290851D02*
G01X296362D01*
Y115511D02*
G01X301874D01*
X290851D02*
G01X296362D01*
X290851D02*
G01X287379D01*
X290851D02*
G01Y112039D01*
Y126535D02*
G01X287379D01*
X290851D02*
G01Y130007D01*
X301874Y121023D02*
G01Y115511D01*
Y126535D02*
G01Y121023D01*
Y115511D02*
G01Y112039D01*
Y115511D02*
G01X305346D01*
X301874Y126535D02*
G01X305346D01*
X301874D02*
G01Y130007D01*
X321555Y192532D02*
G01X316311D01*
X321555D02*
G01Y200138D01*
Y192532D02*
G01X326798D01*
X307100Y249924D02*
G01Y254124D01*
Y249924D02*
G01X308020Y250844D01*
Y260259*
X307100Y249924D02*
G01X311800D01*
X307100D02*
G01Y240924D01*
Y240924D02*
G01X311800D01*
X307100D02*
G01Y236723D01*
X326756Y80669D02*
G01Y76016D01*
Y80669D02*
G01Y85322D01*
Y80669D02*
G01X330228D01*
X326756Y149566D02*
G01X331043D01*
X326756D02*
G01Y141980D01*
Y149566D02*
G01Y153960D01*
X328050Y155254*
Y159324D02*
G01Y165324D01*
Y165324D02*
G01X331800D01*
X328050Y159324D02*
G01X330930D01*
X328050D02*
G01Y155853D01*
Y155254D02*
G01X331570D01*
X358307Y55619D02*
G01Y51919D01*
X351000Y56574D02*
G01X357353D01*
X358307Y55619*
Y55619D02*
G01Y59320D01*
X350800Y193474D02*
G01X357793D01*
X358307Y192959*
Y192959D02*
G01Y196660D01*
Y192959D02*
G01Y189259D01*
X359750Y245224D02*
G01Y248224D01*
Y251224D02*
G01Y258529D01*
X358020Y260259*
X359750Y241924D02*
G01Y245224D01*
Y248224D02*
G01Y251224D01*
X368020Y260259D02*
G01Y265207D01*
Y260259D02*
G01Y255310D01*
G54D25*
X33850Y74000D02*
G01X24376D01*
X20376Y70000*
X17000*
X33850Y68000D02*
G01X25000D01*
X17000Y60000*
X33850Y92000D02*
G01X25000D01*
X17000Y100000*
X33850Y86000D02*
G01X24524D01*
X20524Y90000*
X17000*
Y80000D02*
G01X33850D01*
X91900Y74024D02*
G01X103600Y62324D01*
Y32424*
X98400Y27224*
X71200*
X70000Y26024*
Y17000*
X49100Y51724D02*
G01Y51924D01*
X47700Y37724D02*
G01X50000Y40024D01*
Y50824*
X49100Y51724*
X80000Y17000D02*
G01Y24424D01*
X81200Y25624*
X99100*
X105200Y31724*
Y63724*
X96800Y72124*
Y74024*
X101200Y72324D02*
G01Y70024D01*
X106800Y64424*
Y31024*
X99800Y24024*
X90800*
X90000Y23224*
Y17000*
X110000Y69024D02*
G01Y17000D01*
X140000D02*
G01X133724Y10724D01*
X116276*
X110000Y17000*
X160000D02*
G01X152124Y9124D01*
X107876*
X100000Y17000*
Y17000D02*
G01Y21924D01*
X108400Y30324*
Y65124*
X106000Y67524*
Y70624*
X172800Y68924D02*
G01X174400Y67324D01*
Y58724*
X176800Y56324*
Y27624*
X174200Y25024*
X131700*
X130000Y23324*
Y17000*
X140465Y220254D02*
G01X148795Y211924D01*
X166507*
X171607Y217024*
X179880*
X186650Y210254*
X176650D02*
G01X139270D01*
X133400Y216124*
Y228624*
X140100Y235324*
X141000*
X150000Y17000D02*
G01Y22624D01*
X150800Y23424*
X174900*
X178400Y26924*
Y58324*
X177100Y59624*
Y59924*
X150465Y220254D02*
G01X157195Y213524D01*
X165807*
X170907Y218624*
X188280*
X196650Y210254*
X206650D02*
G01X196650Y220254D01*
X160465*
X180000Y17000D02*
G01Y70524D01*
X196500Y89224D02*
G01X245400D01*
X247800Y91624*
X255841*
X256835Y92618*
X211500Y92124D02*
G01X212800Y90824D01*
X244700*
X250400Y96524*
X255741*
X256835Y97618*
X216650Y210254D02*
G01X226650D01*
X266756Y149566D02*
G01Y155924D01*
X265956Y156724*
X249037*
X245500Y153186*
Y139624*
X244100Y156524D02*
G01X242500Y154924D01*
Y133924*
X243806Y132618*
X256835*
X265000Y53040D02*
G01Y9124D01*
X268400Y5724*
X330300*
X331100Y6524*
Y37124*
X333250Y39274*
X351000*
X258600Y9674D02*
G01X255200D01*
X258600Y20674D02*
G01Y15973D01*
X266756Y80669D02*
G01Y75724D01*
X248300Y86424D02*
G01X249300Y87424D01*
X260000*
X261700Y89124*
X271190*
X271756Y88558*
Y80669*
X265900Y86424D02*
G01X262556D01*
X261756Y85624*
Y80669*
Y149566D02*
G01Y154324D01*
X260956Y155124*
X252700*
X248800Y151224*
Y142324*
X271756Y149566D02*
G01Y154180D01*
X308020Y210259D02*
G01X301455Y216824D01*
X293158*
X290358Y214024*
X268400*
X262332Y220091*
Y220254*
X318020Y210259D02*
G01X309855Y218424D01*
X292458*
X289658Y215624*
X276962*
X272332Y220254*
X294016Y17000D02*
G01X296016Y19000D01*
Y33850*
X306756Y80669D02*
G01X308000Y79425D01*
Y55924*
X296016Y43939*
Y40150*
X276756Y80669D02*
G01Y68367D01*
X281756Y80669D02*
G01Y75724D01*
X286756Y80669D02*
G01Y75724D01*
X291756Y80669D02*
G01Y75724D01*
X296756Y149566D02*
G01Y154124D01*
X291756Y149566D02*
G01Y154024D01*
X276756Y149566D02*
G01Y154124D01*
X281756Y149566D02*
G01Y154124D01*
X286756Y149566D02*
G01Y154124D01*
X282332Y220254D02*
G01X318025D01*
X328020Y210259*
X302016Y33850D02*
G01Y19000D01*
X304016Y17000*
X311756Y80669D02*
G01X310500Y79413D01*
Y54524*
X302016Y46039*
Y40150*
X316756Y80669D02*
G01Y75524D01*
X301756Y80669D02*
G01Y75724D01*
X321756Y80669D02*
G01Y75724D01*
X316756Y149566D02*
G01Y144924D01*
X301756Y149566D02*
G01Y153924D01*
X306756Y149566D02*
G01Y154024D01*
X311756Y149566D02*
G01Y153968D01*
X351000Y45574D02*
G01X350150D01*
X346800Y42224*
X331900*
X328000Y38324*
Y20984*
X324016Y17000*
X338020Y210259D02*
G01X348020D01*
X358307Y39281D02*
G01Y44816D01*
X357550Y45574*
X351000*
Y50274D02*
G01Y45574D01*
X350800Y182474D02*
G01X357507D01*
X358307Y181674*
Y176621*
X350800Y187174D02*
G01Y184924D01*
Y184924D02*
G01Y182474D01*
G54D55*
X44000Y86324D02*
G01Y57824D01*
X321555Y175209D02*
G01X349835D01*
X350800Y176174*
X358307Y55619D02*
G01X363207D01*
X358307Y192959D02*
G01X363207D01*
G54D26*
X21450Y260824D02*
G01Y264294D01*
Y260824D02*
G01X18570D01*
X21450D02*
G01Y257353D01*
X40900Y219774D02*
G01X37430D01*
X40900D02*
G01Y216893D01*
X27750Y260824D02*
G01X32450D01*
X86350Y176224D02*
G01Y179694D01*
X95200Y176224D02*
G01X86350D01*
X135050Y133424D02*
G01Y127424D01*
Y127424D02*
G01X132170D01*
X135050D02*
G01Y123953D01*
Y133424D02*
G01X131300D01*
X210700Y152674D02*
G01X216700D01*
Y152674D02*
G01Y155554D01*
X210700Y152674D02*
G01Y155554D01*
Y152674D02*
G01X207230D01*
X216700D02*
G01X220170D01*
X244750Y245624D02*
G01Y242153D01*
Y245624D02*
G01X247630D01*
X244750Y251624D02*
G01Y245624D01*
Y251624D02*
G01Y255094D01*
Y251624D02*
G01X247630D01*
X246650Y255542D02*
G01Y255694D01*
X258600Y26974D02*
G01X255130D01*
X258600D02*
G01Y29854D01*
Y26974D02*
G01X262070D01*
X351000Y56574D02*
G01X347530D01*
X350800Y193474D02*
G01X347330D01*
X351000Y56574D02*
G01Y59454D01*
X350800Y193474D02*
G01Y196354D01*
X366050Y245224D02*
G01Y251224D01*
Y251224D02*
G01Y254694D01*
Y251224D02*
G01X368930D01*
X366050Y245224D02*
G01Y241753D01*
Y245224D02*
G01X368930D01*
G54D27*
X6329Y134224D02*
G01Y128783D01*
Y134224D02*
G01Y139664D01*
X40986Y273524D02*
G01Y279424D01*
Y273524D02*
G01X35086D01*
X40986D02*
G01X46886D01*
X40986D02*
G01Y268538D01*
X65750Y169524D02*
G01X58550D01*
X65750D02*
G01X72950D01*
X65762Y164023D02*
G01X65750Y164035D01*
Y164035D02*
G01Y169524D01*
Y189624D02*
G01X78907D01*
X80986Y273524D02*
G01Y279424D01*
Y273524D02*
G01Y267623D01*
Y273524D02*
G01X75086D01*
X86886D02*
G01X80986D01*
X109900Y105747D02*
G01Y96077D01*
Y105747D02*
G01X105050D01*
X109900D02*
G01X114750D01*
X109900D02*
G01Y115418D01*
Y179763D02*
G01Y189433D01*
Y179763D02*
G01Y170093D01*
Y179763D02*
G01X105050D01*
X109900D02*
G01X114750D01*
X117050Y214374D02*
G01Y220604D01*
Y214374D02*
G01Y208144D01*
Y214374D02*
G01X105805D01*
X117050D02*
G01X128295D01*
X140465Y190254D02*
G01X136024Y185812D01*
Y165824*
X140465Y190254D02*
G01X150465D01*
X150960Y235721D02*
G01X146398D01*
X168300Y142475D02*
G01Y149675D01*
Y142475D02*
G01Y135275D01*
Y142475D02*
G01X163600D01*
X168300D02*
G01X173000D01*
X163976Y165824D02*
G01Y170674D01*
Y165824D02*
G01Y160973D01*
Y165824D02*
G01X154306D01*
X163976D02*
G01X173647D01*
X150465Y190254D02*
G01X160465D01*
Y190254D02*
G01X262332D01*
X150960Y235721D02*
G01Y240284D01*
Y235721D02*
G01X155522D01*
X150960D02*
G01Y231159D01*
X190900Y160800D02*
G01Y151130D01*
Y160800D02*
G01X186050D01*
X190900D02*
G01X195750D01*
X190900D02*
G01Y170470D01*
X228100Y150824D02*
G01X223300Y146024D01*
X321555Y175209D02*
G01X235385D01*
X228100Y167924*
Y150824*
X262332Y190254D02*
G01X272332D01*
Y190254D02*
G01X282332D01*
X272330Y235736D02*
G01Y240299D01*
Y235736D02*
G01X276892D01*
X272330D02*
G01Y231174D01*
Y235736D02*
G01X267768D01*
G54D29*
X196650Y260254D02*
G01Y297940D01*
X196646Y297944*
X216650Y260254D02*
G01Y276774D01*
X226646Y286770*
Y297944*
X206650Y260254D02*
G01Y297940D01*
X206646Y297944*
X294016D02*
G01Y287724D01*
X301016Y280724*
X307400*
X318020Y270104*
Y260259*
X314016Y297944D02*
G01Y290508D01*
X323400Y281124*
X341020*
X348020Y274124*
Y260259*
G54D102*
X150960Y255406D02*
G01X144718D01*
X150960D02*
G01Y250664D01*
Y255406D02*
G01X156382D01*
X150960D02*
G01Y260564D01*
X272330Y255421D02*
G01Y250994D01*
Y255421D02*
G01X266702D01*
X272330D02*
G01X277002D01*
X272330D02*
G01Y259894D01*
M02*
